<?xml version="1.0" encoding="utf-8" standalone="no"?>
<!DOCTYPE svg PUBLIC "-//W3C//DTD SVG 1.1//EN"
  "http://www.w3.org/Graphics/SVG/1.1/DTD/svg11.dtd">
<svg xmlns:xlink="http://www.w3.org/1999/xlink" width="576pt" height="396pt" viewBox="0 0 576 396" xmlns="http://www.w3.org/2000/svg" version="1.1">
 <metadata>
  <rdf:RDF xmlns:dc="http://purl.org/dc/elements/1.1/" xmlns:cc="http://creativecommons.org/ns#" xmlns:rdf="http://www.w3.org/1999/02/22-rdf-syntax-ns#">
   <cc:Work>
    <dc:type rdf:resource="http://purl.org/dc/dcmitype/StillImage"/>
    <dc:date>2025-06-09T17:24:09.097239</dc:date>
    <dc:format>image/svg+xml</dc:format>
    <dc:creator>
     <cc:Agent>
      <dc:title>Matplotlib v3.9.2, https://matplotlib.org/</dc:title>
     </cc:Agent>
    </dc:creator>
   </cc:Work>
  </rdf:RDF>
 </metadata>
 <defs>
  <style type="text/css">*{stroke-linejoin: round; stroke-linecap: butt}</style>
 </defs>
 <g id="figure_1">
  <g id="patch_1">
   <path d="M 0 396 
L 576 396 
L 576 0 
L 0 0 
z
" style="fill: #d9d9d9"/>
  </g>
  <g id="axes_1">
   <g id="patch_2">
    <path d="M 72 352.44 
L 518.4 352.44 
L 518.4 47.52 
L 72 47.52 
z
" style="fill: #d9d9d9"/>
   </g>
   <g id="matplotlib.axis_1">
    <g id="xtick_1">
     <g id="line2d_1">
      <defs>
       <path id="md6b74b9d95" d="M 0 0 
L 0 3.5 
" style="stroke: #000000; stroke-width: 0.8"/>
      </defs>
      <g>
       <use xlink:href="#md6b74b9d95" x="183.6" y="352.44" style="stroke: #000000; stroke-width: 0.8"/>
      </g>
     </g>
     <g id="text_1">
      <!-- Daily Balance -->
      <g transform="translate(149.417187 367.038437) scale(0.1 -0.1)">
       <defs>
        <path id="DejaVuSans-44" d="M 1259 4147 
L 1259 519 
L 2022 519 
Q 2988 519 3436 956 
Q 3884 1394 3884 2338 
Q 3884 3275 3436 3711 
Q 2988 4147 2022 4147 
L 1259 4147 
z
M 628 4666 
L 1925 4666 
Q 3281 4666 3915 4102 
Q 4550 3538 4550 2338 
Q 4550 1131 3912 565 
Q 3275 0 1925 0 
L 628 0 
L 628 4666 
z
" transform="scale(0.015625)"/>
        <path id="DejaVuSans-61" d="M 2194 1759 
Q 1497 1759 1228 1600 
Q 959 1441 959 1056 
Q 959 750 1161 570 
Q 1363 391 1709 391 
Q 2188 391 2477 730 
Q 2766 1069 2766 1631 
L 2766 1759 
L 2194 1759 
z
M 3341 1997 
L 3341 0 
L 2766 0 
L 2766 531 
Q 2569 213 2275 61 
Q 1981 -91 1556 -91 
Q 1019 -91 701 211 
Q 384 513 384 1019 
Q 384 1609 779 1909 
Q 1175 2209 1959 2209 
L 2766 2209 
L 2766 2266 
Q 2766 2663 2505 2880 
Q 2244 3097 1772 3097 
Q 1472 3097 1187 3025 
Q 903 2953 641 2809 
L 641 3341 
Q 956 3463 1253 3523 
Q 1550 3584 1831 3584 
Q 2591 3584 2966 3190 
Q 3341 2797 3341 1997 
z
" transform="scale(0.015625)"/>
        <path id="DejaVuSans-69" d="M 603 3500 
L 1178 3500 
L 1178 0 
L 603 0 
L 603 3500 
z
M 603 4863 
L 1178 4863 
L 1178 4134 
L 603 4134 
L 603 4863 
z
" transform="scale(0.015625)"/>
        <path id="DejaVuSans-6c" d="M 603 4863 
L 1178 4863 
L 1178 0 
L 603 0 
L 603 4863 
z
" transform="scale(0.015625)"/>
        <path id="DejaVuSans-79" d="M 2059 -325 
Q 1816 -950 1584 -1140 
Q 1353 -1331 966 -1331 
L 506 -1331 
L 506 -850 
L 844 -850 
Q 1081 -850 1212 -737 
Q 1344 -625 1503 -206 
L 1606 56 
L 191 3500 
L 800 3500 
L 1894 763 
L 2988 3500 
L 3597 3500 
L 2059 -325 
z
" transform="scale(0.015625)"/>
        <path id="DejaVuSans-20" transform="scale(0.015625)"/>
        <path id="DejaVuSans-42" d="M 1259 2228 
L 1259 519 
L 2272 519 
Q 2781 519 3026 730 
Q 3272 941 3272 1375 
Q 3272 1813 3026 2020 
Q 2781 2228 2272 2228 
L 1259 2228 
z
M 1259 4147 
L 1259 2741 
L 2194 2741 
Q 2656 2741 2882 2914 
Q 3109 3088 3109 3444 
Q 3109 3797 2882 3972 
Q 2656 4147 2194 4147 
L 1259 4147 
z
M 628 4666 
L 2241 4666 
Q 2963 4666 3353 4366 
Q 3744 4066 3744 3513 
Q 3744 3084 3544 2831 
Q 3344 2578 2956 2516 
Q 3422 2416 3680 2098 
Q 3938 1781 3938 1306 
Q 3938 681 3513 340 
Q 3088 0 2303 0 
L 628 0 
L 628 4666 
z
" transform="scale(0.015625)"/>
        <path id="DejaVuSans-6e" d="M 3513 2113 
L 3513 0 
L 2938 0 
L 2938 2094 
Q 2938 2591 2744 2837 
Q 2550 3084 2163 3084 
Q 1697 3084 1428 2787 
Q 1159 2491 1159 1978 
L 1159 0 
L 581 0 
L 581 3500 
L 1159 3500 
L 1159 2956 
Q 1366 3272 1645 3428 
Q 1925 3584 2291 3584 
Q 2894 3584 3203 3211 
Q 3513 2838 3513 2113 
z
" transform="scale(0.015625)"/>
        <path id="DejaVuSans-63" d="M 3122 3366 
L 3122 2828 
Q 2878 2963 2633 3030 
Q 2388 3097 2138 3097 
Q 1578 3097 1268 2742 
Q 959 2388 959 1747 
Q 959 1106 1268 751 
Q 1578 397 2138 397 
Q 2388 397 2633 464 
Q 2878 531 3122 666 
L 3122 134 
Q 2881 22 2623 -34 
Q 2366 -91 2075 -91 
Q 1284 -91 818 406 
Q 353 903 353 1747 
Q 353 2603 823 3093 
Q 1294 3584 2113 3584 
Q 2378 3584 2631 3529 
Q 2884 3475 3122 3366 
z
" transform="scale(0.015625)"/>
        <path id="DejaVuSans-65" d="M 3597 1894 
L 3597 1613 
L 953 1613 
Q 991 1019 1311 708 
Q 1631 397 2203 397 
Q 2534 397 2845 478 
Q 3156 559 3463 722 
L 3463 178 
Q 3153 47 2828 -22 
Q 2503 -91 2169 -91 
Q 1331 -91 842 396 
Q 353 884 353 1716 
Q 353 2575 817 3079 
Q 1281 3584 2069 3584 
Q 2775 3584 3186 3129 
Q 3597 2675 3597 1894 
z
M 3022 2063 
Q 3016 2534 2758 2815 
Q 2500 3097 2075 3097 
Q 1594 3097 1305 2825 
Q 1016 2553 972 2059 
L 3022 2063 
z
" transform="scale(0.015625)"/>
       </defs>
       <use xlink:href="#DejaVuSans-44"/>
       <use xlink:href="#DejaVuSans-61" x="77.001953"/>
       <use xlink:href="#DejaVuSans-69" x="138.28125"/>
       <use xlink:href="#DejaVuSans-6c" x="166.064453"/>
       <use xlink:href="#DejaVuSans-79" x="193.847656"/>
       <use xlink:href="#DejaVuSans-20" x="253.027344"/>
       <use xlink:href="#DejaVuSans-42" x="284.814453"/>
       <use xlink:href="#DejaVuSans-61" x="353.417969"/>
       <use xlink:href="#DejaVuSans-6c" x="414.697266"/>
       <use xlink:href="#DejaVuSans-61" x="442.480469"/>
       <use xlink:href="#DejaVuSans-6e" x="503.759766"/>
       <use xlink:href="#DejaVuSans-63" x="567.138672"/>
       <use xlink:href="#DejaVuSans-65" x="622.119141"/>
      </g>
     </g>
    </g>
    <g id="xtick_2">
     <g id="line2d_2">
      <g>
       <use xlink:href="#md6b74b9d95" x="406.8" y="352.44" style="stroke: #000000; stroke-width: 0.8"/>
      </g>
     </g>
     <g id="text_2">
      <!-- Inventory -->
      <g transform="translate(382.917187 367.038437) scale(0.1 -0.1)">
       <defs>
        <path id="DejaVuSans-49" d="M 628 4666 
L 1259 4666 
L 1259 0 
L 628 0 
L 628 4666 
z
" transform="scale(0.015625)"/>
        <path id="DejaVuSans-76" d="M 191 3500 
L 800 3500 
L 1894 563 
L 2988 3500 
L 3597 3500 
L 2284 0 
L 1503 0 
L 191 3500 
z
" transform="scale(0.015625)"/>
        <path id="DejaVuSans-74" d="M 1172 4494 
L 1172 3500 
L 2356 3500 
L 2356 3053 
L 1172 3053 
L 1172 1153 
Q 1172 725 1289 603 
Q 1406 481 1766 481 
L 2356 481 
L 2356 0 
L 1766 0 
Q 1100 0 847 248 
Q 594 497 594 1153 
L 594 3053 
L 172 3053 
L 172 3500 
L 594 3500 
L 594 4494 
L 1172 4494 
z
" transform="scale(0.015625)"/>
        <path id="DejaVuSans-6f" d="M 1959 3097 
Q 1497 3097 1228 2736 
Q 959 2375 959 1747 
Q 959 1119 1226 758 
Q 1494 397 1959 397 
Q 2419 397 2687 759 
Q 2956 1122 2956 1747 
Q 2956 2369 2687 2733 
Q 2419 3097 1959 3097 
z
M 1959 3584 
Q 2709 3584 3137 3096 
Q 3566 2609 3566 1747 
Q 3566 888 3137 398 
Q 2709 -91 1959 -91 
Q 1206 -91 779 398 
Q 353 888 353 1747 
Q 353 2609 779 3096 
Q 1206 3584 1959 3584 
z
" transform="scale(0.015625)"/>
        <path id="DejaVuSans-72" d="M 2631 2963 
Q 2534 3019 2420 3045 
Q 2306 3072 2169 3072 
Q 1681 3072 1420 2755 
Q 1159 2438 1159 1844 
L 1159 0 
L 581 0 
L 581 3500 
L 1159 3500 
L 1159 2956 
Q 1341 3275 1631 3429 
Q 1922 3584 2338 3584 
Q 2397 3584 2469 3576 
Q 2541 3569 2628 3553 
L 2631 2963 
z
" transform="scale(0.015625)"/>
       </defs>
       <use xlink:href="#DejaVuSans-49"/>
       <use xlink:href="#DejaVuSans-6e" x="29.492188"/>
       <use xlink:href="#DejaVuSans-76" x="92.871094"/>
       <use xlink:href="#DejaVuSans-65" x="152.050781"/>
       <use xlink:href="#DejaVuSans-6e" x="213.574219"/>
       <use xlink:href="#DejaVuSans-74" x="276.953125"/>
       <use xlink:href="#DejaVuSans-6f" x="316.162109"/>
       <use xlink:href="#DejaVuSans-72" x="377.34375"/>
       <use xlink:href="#DejaVuSans-79" x="418.457031"/>
      </g>
     </g>
    </g>
   </g>
   <g id="matplotlib.axis_2">
    <g id="ytick_1">
     <g id="line2d_3">
      <defs>
       <path id="m265e8edc50" d="M 0 0 
L -3.5 0 
" style="stroke: #000000; stroke-width: 0.8"/>
      </defs>
      <g>
       <use xlink:href="#m265e8edc50" x="72" y="300.016989" style="stroke: #000000; stroke-width: 0.8"/>
      </g>
     </g>
     <g id="text_3">
      <!-- 0 -->
      <g transform="translate(58.6375 303.816207) scale(0.1 -0.1)">
       <defs>
        <path id="DejaVuSans-30" d="M 2034 4250 
Q 1547 4250 1301 3770 
Q 1056 3291 1056 2328 
Q 1056 1369 1301 889 
Q 1547 409 2034 409 
Q 2525 409 2770 889 
Q 3016 1369 3016 2328 
Q 3016 3291 2770 3770 
Q 2525 4250 2034 4250 
z
M 2034 4750 
Q 2819 4750 3233 4129 
Q 3647 3509 3647 2328 
Q 3647 1150 3233 529 
Q 2819 -91 2034 -91 
Q 1250 -91 836 529 
Q 422 1150 422 2328 
Q 422 3509 836 4129 
Q 1250 4750 2034 4750 
z
" transform="scale(0.015625)"/>
       </defs>
       <use xlink:href="#DejaVuSans-30"/>
      </g>
     </g>
    </g>
    <g id="ytick_2">
     <g id="line2d_4">
      <g>
       <use xlink:href="#m265e8edc50" x="72" y="243.306678" style="stroke: #000000; stroke-width: 0.8"/>
      </g>
     </g>
     <g id="text_4">
      <!-- 500 -->
      <g transform="translate(45.9125 247.105896) scale(0.1 -0.1)">
       <defs>
        <path id="DejaVuSans-35" d="M 691 4666 
L 3169 4666 
L 3169 4134 
L 1269 4134 
L 1269 2991 
Q 1406 3038 1543 3061 
Q 1681 3084 1819 3084 
Q 2600 3084 3056 2656 
Q 3513 2228 3513 1497 
Q 3513 744 3044 326 
Q 2575 -91 1722 -91 
Q 1428 -91 1123 -41 
Q 819 9 494 109 
L 494 744 
Q 775 591 1075 516 
Q 1375 441 1709 441 
Q 2250 441 2565 725 
Q 2881 1009 2881 1497 
Q 2881 1984 2565 2268 
Q 2250 2553 1709 2553 
Q 1456 2553 1204 2497 
Q 953 2441 691 2322 
L 691 4666 
z
" transform="scale(0.015625)"/>
       </defs>
       <use xlink:href="#DejaVuSans-35"/>
       <use xlink:href="#DejaVuSans-30" x="63.623047"/>
       <use xlink:href="#DejaVuSans-30" x="127.246094"/>
      </g>
     </g>
    </g>
    <g id="ytick_3">
     <g id="line2d_5">
      <g>
       <use xlink:href="#m265e8edc50" x="72" y="186.596367" style="stroke: #000000; stroke-width: 0.8"/>
      </g>
     </g>
     <g id="text_5">
      <!-- 1000 -->
      <g transform="translate(39.55 190.395585) scale(0.1 -0.1)">
       <defs>
        <path id="DejaVuSans-31" d="M 794 531 
L 1825 531 
L 1825 4091 
L 703 3866 
L 703 4441 
L 1819 4666 
L 2450 4666 
L 2450 531 
L 3481 531 
L 3481 0 
L 794 0 
L 794 531 
z
" transform="scale(0.015625)"/>
       </defs>
       <use xlink:href="#DejaVuSans-31"/>
       <use xlink:href="#DejaVuSans-30" x="63.623047"/>
       <use xlink:href="#DejaVuSans-30" x="127.246094"/>
       <use xlink:href="#DejaVuSans-30" x="190.869141"/>
      </g>
     </g>
    </g>
    <g id="ytick_4">
     <g id="line2d_6">
      <g>
       <use xlink:href="#m265e8edc50" x="72" y="129.886056" style="stroke: #000000; stroke-width: 0.8"/>
      </g>
     </g>
     <g id="text_6">
      <!-- 1500 -->
      <g transform="translate(39.55 133.685274) scale(0.1 -0.1)">
       <use xlink:href="#DejaVuSans-31"/>
       <use xlink:href="#DejaVuSans-35" x="63.623047"/>
       <use xlink:href="#DejaVuSans-30" x="127.246094"/>
       <use xlink:href="#DejaVuSans-30" x="190.869141"/>
      </g>
     </g>
    </g>
    <g id="ytick_5">
     <g id="line2d_7">
      <g>
       <use xlink:href="#m265e8edc50" x="72" y="73.175745" style="stroke: #000000; stroke-width: 0.8"/>
      </g>
     </g>
     <g id="text_7">
      <!-- 2000 -->
      <g transform="translate(39.55 76.974963) scale(0.1 -0.1)">
       <defs>
        <path id="DejaVuSans-32" d="M 1228 531 
L 3431 531 
L 3431 0 
L 469 0 
L 469 531 
Q 828 903 1448 1529 
Q 2069 2156 2228 2338 
Q 2531 2678 2651 2914 
Q 2772 3150 2772 3378 
Q 2772 3750 2511 3984 
Q 2250 4219 1831 4219 
Q 1534 4219 1204 4116 
Q 875 4013 500 3803 
L 500 4441 
Q 881 4594 1212 4672 
Q 1544 4750 1819 4750 
Q 2544 4750 2975 4387 
Q 3406 4025 3406 3419 
Q 3406 3131 3298 2873 
Q 3191 2616 2906 2266 
Q 2828 2175 2409 1742 
Q 1991 1309 1228 531 
z
" transform="scale(0.015625)"/>
       </defs>
       <use xlink:href="#DejaVuSans-32"/>
       <use xlink:href="#DejaVuSans-30" x="63.623047"/>
       <use xlink:href="#DejaVuSans-30" x="127.246094"/>
       <use xlink:href="#DejaVuSans-30" x="190.869141"/>
      </g>
     </g>
    </g>
   </g>
   <g id="patch_3">
    <path d="M 94.32 308.807087 
L 272.88 308.807087 
L 272.88 291.028404 
L 94.32 291.028404 
L 94.32 308.807087 
z
" clip-path="url(#pba936698e3)" style="fill: #3e0b4a; stroke: #191919; stroke-linejoin: miter"/>
   </g>
   <g id="line2d_8">
    <path d="M 183.6 308.807087 
L 183.6 333.702913 
" clip-path="url(#pba936698e3)" style="fill: none; stroke: #191919"/>
   </g>
   <g id="line2d_9">
    <path d="M 183.6 291.028404 
L 183.6 264.402913 
" clip-path="url(#pba936698e3)" style="fill: none; stroke: #191919"/>
   </g>
   <g id="line2d_10">
    <path d="M 138.96 333.702913 
L 228.24 333.702913 
" clip-path="url(#pba936698e3)" style="fill: none; stroke: #191919; stroke-linecap: square"/>
   </g>
   <g id="line2d_11">
    <path d="M 138.96 264.402913 
L 228.24 264.402913 
" clip-path="url(#pba936698e3)" style="fill: none; stroke: #191919; stroke-linecap: square"/>
   </g>
   <g id="line2d_12">
    <defs>
     <path id="m3f63a2d58c" d="M 0 3 
C 0.795609 3 1.55874 2.683901 2.12132 2.12132 
C 2.683901 1.55874 3 0.795609 3 0 
C 3 -0.795609 2.683901 -1.55874 2.12132 -2.12132 
C 1.55874 -2.683901 0.795609 -3 0 -3 
C -0.795609 -3 -1.55874 -2.683901 -2.12132 -2.12132 
C -2.683901 -1.55874 -3 -0.795609 -3 0 
C -3 0.795609 -2.683901 1.55874 -2.12132 2.12132 
C -1.55874 2.683901 -0.795609 3 0 3 
z
" style="stroke: #191919"/>
    </defs>
    <g clip-path="url(#pba936698e3)">
     <use xlink:href="#m3f63a2d58c" x="183.6" y="338.58" style="fill-opacity: 0; stroke: #191919"/>
     <use xlink:href="#m3f63a2d58c" x="183.6" y="256.917152" style="fill-opacity: 0; stroke: #191919"/>
     <use xlink:href="#m3f63a2d58c" x="183.6" y="263.495548" style="fill-opacity: 0; stroke: #191919"/>
     <use xlink:href="#m3f63a2d58c" x="183.6" y="241.038265" style="fill-opacity: 0; stroke: #191919"/>
     <use xlink:href="#m3f63a2d58c" x="183.6" y="261.90766" style="fill-opacity: 0; stroke: #191919"/>
     <use xlink:href="#m3f63a2d58c" x="183.6" y="260.09293" style="fill-opacity: 0; stroke: #191919"/>
     <use xlink:href="#m3f63a2d58c" x="183.6" y="233.665925" style="fill-opacity: 0; stroke: #191919"/>
     <use xlink:href="#m3f63a2d58c" x="183.6" y="251.1327" style="fill-opacity: 0; stroke: #191919"/>
     <use xlink:href="#m3f63a2d58c" x="183.6" y="245.57509" style="fill-opacity: 0; stroke: #191919"/>
     <use xlink:href="#m3f63a2d58c" x="183.6" y="256.57689" style="fill-opacity: 0; stroke: #191919"/>
     <use xlink:href="#m3f63a2d58c" x="183.6" y="262.02108" style="fill-opacity: 0; stroke: #191919"/>
     <use xlink:href="#m3f63a2d58c" x="183.6" y="260.660033" style="fill-opacity: 0; stroke: #191919"/>
     <use xlink:href="#m3f63a2d58c" x="183.6" y="257.937938" style="fill-opacity: 0; stroke: #191919"/>
     <use xlink:href="#m3f63a2d58c" x="183.6" y="262.588183" style="fill-opacity: 0; stroke: #191919"/>
    </g>
   </g>
   <g id="patch_4">
    <path d="M 317.52 265.763961 
L 496.08 265.763961 
L 496.08 160.509624 
L 317.52 160.509624 
L 317.52 265.763961 
z
" clip-path="url(#pba936698e3)" style="fill: #4a4c7e; stroke: #191919; stroke-linejoin: miter"/>
   </g>
   <g id="line2d_13">
    <path d="M 406.8 265.763961 
L 406.8 310.338265 
" clip-path="url(#pba936698e3)" style="fill: none; stroke: #191919"/>
   </g>
   <g id="line2d_14">
    <path d="M 406.8 160.509624 
L 406.8 61.38 
" clip-path="url(#pba936698e3)" style="fill: none; stroke: #191919"/>
   </g>
   <g id="line2d_15">
    <path d="M 362.16 310.338265 
L 451.44 310.338265 
" clip-path="url(#pba936698e3)" style="fill: none; stroke: #191919; stroke-linecap: square"/>
   </g>
   <g id="line2d_16">
    <path d="M 362.16 61.38 
L 451.44 61.38 
" clip-path="url(#pba936698e3)" style="fill: none; stroke: #191919; stroke-linecap: square"/>
   </g>
   <g id="line2d_17"/>
   <g id="line2d_18">
    <path d="M 94.32 300.016989 
L 272.88 300.016989 
" clip-path="url(#pba936698e3)" style="fill: none; stroke: #191919"/>
   </g>
   <g id="line2d_19">
    <path d="M 317.52 231.737774 
L 496.08 231.737774 
" clip-path="url(#pba936698e3)" style="fill: none; stroke: #191919"/>
   </g>
   <g id="patch_5">
    <path d="M 72 352.44 
L 72 47.52 
" style="fill: none; stroke: #000000; stroke-width: 0.8; stroke-linejoin: miter; stroke-linecap: square"/>
   </g>
   <g id="patch_6">
    <path d="M 72 352.44 
L 518.4 352.44 
" style="fill: none; stroke: #000000; stroke-width: 0.8; stroke-linejoin: miter; stroke-linecap: square"/>
   </g>
   <g id="text_8">
    <!-- Daily Balance and Inventory Box Plot -->
    <g transform="translate(184.145625 41.52) scale(0.12 -0.12)">
     <defs>
      <path id="DejaVuSans-64" d="M 2906 2969 
L 2906 4863 
L 3481 4863 
L 3481 0 
L 2906 0 
L 2906 525 
Q 2725 213 2448 61 
Q 2172 -91 1784 -91 
Q 1150 -91 751 415 
Q 353 922 353 1747 
Q 353 2572 751 3078 
Q 1150 3584 1784 3584 
Q 2172 3584 2448 3432 
Q 2725 3281 2906 2969 
z
M 947 1747 
Q 947 1113 1208 752 
Q 1469 391 1925 391 
Q 2381 391 2643 752 
Q 2906 1113 2906 1747 
Q 2906 2381 2643 2742 
Q 2381 3103 1925 3103 
Q 1469 3103 1208 2742 
Q 947 2381 947 1747 
z
" transform="scale(0.015625)"/>
      <path id="DejaVuSans-78" d="M 3513 3500 
L 2247 1797 
L 3578 0 
L 2900 0 
L 1881 1375 
L 863 0 
L 184 0 
L 1544 1831 
L 300 3500 
L 978 3500 
L 1906 2253 
L 2834 3500 
L 3513 3500 
z
" transform="scale(0.015625)"/>
      <path id="DejaVuSans-50" d="M 1259 4147 
L 1259 2394 
L 2053 2394 
Q 2494 2394 2734 2622 
Q 2975 2850 2975 3272 
Q 2975 3691 2734 3919 
Q 2494 4147 2053 4147 
L 1259 4147 
z
M 628 4666 
L 2053 4666 
Q 2838 4666 3239 4311 
Q 3641 3956 3641 3272 
Q 3641 2581 3239 2228 
Q 2838 1875 2053 1875 
L 1259 1875 
L 1259 0 
L 628 0 
L 628 4666 
z
" transform="scale(0.015625)"/>
     </defs>
     <use xlink:href="#DejaVuSans-44"/>
     <use xlink:href="#DejaVuSans-61" x="77.001953"/>
     <use xlink:href="#DejaVuSans-69" x="138.28125"/>
     <use xlink:href="#DejaVuSans-6c" x="166.064453"/>
     <use xlink:href="#DejaVuSans-79" x="193.847656"/>
     <use xlink:href="#DejaVuSans-20" x="253.027344"/>
     <use xlink:href="#DejaVuSans-42" x="284.814453"/>
     <use xlink:href="#DejaVuSans-61" x="353.417969"/>
     <use xlink:href="#DejaVuSans-6c" x="414.697266"/>
     <use xlink:href="#DejaVuSans-61" x="442.480469"/>
     <use xlink:href="#DejaVuSans-6e" x="503.759766"/>
     <use xlink:href="#DejaVuSans-63" x="567.138672"/>
     <use xlink:href="#DejaVuSans-65" x="622.119141"/>
     <use xlink:href="#DejaVuSans-20" x="683.642578"/>
     <use xlink:href="#DejaVuSans-61" x="715.429688"/>
     <use xlink:href="#DejaVuSans-6e" x="776.708984"/>
     <use xlink:href="#DejaVuSans-64" x="840.087891"/>
     <use xlink:href="#DejaVuSans-20" x="903.564453"/>
     <use xlink:href="#DejaVuSans-49" x="935.351562"/>
     <use xlink:href="#DejaVuSans-6e" x="964.84375"/>
     <use xlink:href="#DejaVuSans-76" x="1028.222656"/>
     <use xlink:href="#DejaVuSans-65" x="1087.402344"/>
     <use xlink:href="#DejaVuSans-6e" x="1148.925781"/>
     <use xlink:href="#DejaVuSans-74" x="1212.304688"/>
     <use xlink:href="#DejaVuSans-6f" x="1251.513672"/>
     <use xlink:href="#DejaVuSans-72" x="1312.695312"/>
     <use xlink:href="#DejaVuSans-79" x="1353.808594"/>
     <use xlink:href="#DejaVuSans-20" x="1412.988281"/>
     <use xlink:href="#DejaVuSans-42" x="1444.775391"/>
     <use xlink:href="#DejaVuSans-6f" x="1513.378906"/>
     <use xlink:href="#DejaVuSans-78" x="1571.435547"/>
     <use xlink:href="#DejaVuSans-20" x="1630.615234"/>
     <use xlink:href="#DejaVuSans-50" x="1662.402344"/>
     <use xlink:href="#DejaVuSans-6c" x="1722.705078"/>
     <use xlink:href="#DejaVuSans-6f" x="1750.488281"/>
     <use xlink:href="#DejaVuSans-74" x="1811.669922"/>
    </g>
   </g>
  </g>
 </g>
 <defs>
  <clipPath id="pba936698e3">
   <rect x="72" y="47.52" width="446.4" height="304.92"/>
  </clipPath>
 </defs>
</svg>
