<?xml version="1.0" encoding="utf-8" standalone="no"?>
<!DOCTYPE svg PUBLIC "-//W3C//DTD SVG 1.1//EN"
  "http://www.w3.org/Graphics/SVG/1.1/DTD/svg11.dtd">
<svg xmlns:xlink="http://www.w3.org/1999/xlink" width="936pt" height="360pt" viewBox="0 0 936 360" xmlns="http://www.w3.org/2000/svg" version="1.1">
 <metadata>
  <rdf:RDF xmlns:dc="http://purl.org/dc/elements/1.1/" xmlns:cc="http://creativecommons.org/ns#" xmlns:rdf="http://www.w3.org/1999/02/22-rdf-syntax-ns#">
   <cc:Work>
    <dc:type rdf:resource="http://purl.org/dc/dcmitype/StillImage"/>
    <dc:date>2025-06-12T08:47:15.521327</dc:date>
    <dc:format>image/svg+xml</dc:format>
    <dc:creator>
     <cc:Agent>
      <dc:title>Matplotlib v3.9.2, https://matplotlib.org/</dc:title>
     </cc:Agent>
    </dc:creator>
   </cc:Work>
  </rdf:RDF>
 </metadata>
 <defs>
  <style type="text/css">*{stroke-linejoin: round; stroke-linecap: butt}</style>
 </defs>
 <g id="figure_1">
  <g id="patch_1">
   <path d="M 0 360 
L 936 360 
L 936 0 
L 0 0 
z
" style="fill: #d9d9d9"/>
  </g>
  <g id="axes_1">
   <g id="patch_2">
    <path d="M 36.97 320.456 
L 925.2 320.456 
L 925.2 25.44 
L 36.97 25.44 
z
" style="fill: #d9d9d9"/>
   </g>
   <g id="matplotlib.axis_1">
    <g id="xtick_1">
     <g id="line2d_1">
      <path d="M 36.97 320.456 
L 36.97 25.44 
" clip-path="url(#pd6cbfde9ee)" style="fill: none; stroke: #cfcfcf; stroke-width: 0.8; stroke-linecap: square"/>
     </g>
     <g id="line2d_2">
      <defs>
       <path id="md9088c8a78" d="M 0 0 
L 0 3.5 
" style="stroke: #000000; stroke-width: 0.8"/>
      </defs>
      <g>
       <use xlink:href="#md9088c8a78" x="36.97" y="320.456" style="stroke: #000000; stroke-width: 0.8"/>
      </g>
     </g>
     <g id="text_1">
      <!-- Jan -->
      <g transform="translate(29.262188 335.054438) scale(0.1 -0.1)">
       <defs>
        <path id="DejaVuSans-4a" d="M 628 4666 
L 1259 4666 
L 1259 325 
Q 1259 -519 939 -900 
Q 619 -1281 -91 -1281 
L -331 -1281 
L -331 -750 
L -134 -750 
Q 284 -750 456 -515 
Q 628 -281 628 325 
L 628 4666 
z
" transform="scale(0.015625)"/>
        <path id="DejaVuSans-61" d="M 2194 1759 
Q 1497 1759 1228 1600 
Q 959 1441 959 1056 
Q 959 750 1161 570 
Q 1363 391 1709 391 
Q 2188 391 2477 730 
Q 2766 1069 2766 1631 
L 2766 1759 
L 2194 1759 
z
M 3341 1997 
L 3341 0 
L 2766 0 
L 2766 531 
Q 2569 213 2275 61 
Q 1981 -91 1556 -91 
Q 1019 -91 701 211 
Q 384 513 384 1019 
Q 384 1609 779 1909 
Q 1175 2209 1959 2209 
L 2766 2209 
L 2766 2266 
Q 2766 2663 2505 2880 
Q 2244 3097 1772 3097 
Q 1472 3097 1187 3025 
Q 903 2953 641 2809 
L 641 3341 
Q 956 3463 1253 3523 
Q 1550 3584 1831 3584 
Q 2591 3584 2966 3190 
Q 3341 2797 3341 1997 
z
" transform="scale(0.015625)"/>
        <path id="DejaVuSans-6e" d="M 3513 2113 
L 3513 0 
L 2938 0 
L 2938 2094 
Q 2938 2591 2744 2837 
Q 2550 3084 2163 3084 
Q 1697 3084 1428 2787 
Q 1159 2491 1159 1978 
L 1159 0 
L 581 0 
L 581 3500 
L 1159 3500 
L 1159 2956 
Q 1366 3272 1645 3428 
Q 1925 3584 2291 3584 
Q 2894 3584 3203 3211 
Q 3513 2838 3513 2113 
z
" transform="scale(0.015625)"/>
       </defs>
       <use xlink:href="#DejaVuSans-4a"/>
       <use xlink:href="#DejaVuSans-61" x="29.492188"/>
       <use xlink:href="#DejaVuSans-6e" x="90.771484"/>
      </g>
      <!-- 2024 -->
      <g transform="translate(24.245 346.25225) scale(0.1 -0.1)">
       <defs>
        <path id="DejaVuSans-32" d="M 1228 531 
L 3431 531 
L 3431 0 
L 469 0 
L 469 531 
Q 828 903 1448 1529 
Q 2069 2156 2228 2338 
Q 2531 2678 2651 2914 
Q 2772 3150 2772 3378 
Q 2772 3750 2511 3984 
Q 2250 4219 1831 4219 
Q 1534 4219 1204 4116 
Q 875 4013 500 3803 
L 500 4441 
Q 881 4594 1212 4672 
Q 1544 4750 1819 4750 
Q 2544 4750 2975 4387 
Q 3406 4025 3406 3419 
Q 3406 3131 3298 2873 
Q 3191 2616 2906 2266 
Q 2828 2175 2409 1742 
Q 1991 1309 1228 531 
z
" transform="scale(0.015625)"/>
        <path id="DejaVuSans-30" d="M 2034 4250 
Q 1547 4250 1301 3770 
Q 1056 3291 1056 2328 
Q 1056 1369 1301 889 
Q 1547 409 2034 409 
Q 2525 409 2770 889 
Q 3016 1369 3016 2328 
Q 3016 3291 2770 3770 
Q 2525 4250 2034 4250 
z
M 2034 4750 
Q 2819 4750 3233 4129 
Q 3647 3509 3647 2328 
Q 3647 1150 3233 529 
Q 2819 -91 2034 -91 
Q 1250 -91 836 529 
Q 422 1150 422 2328 
Q 422 3509 836 4129 
Q 1250 4750 2034 4750 
z
" transform="scale(0.015625)"/>
        <path id="DejaVuSans-34" d="M 2419 4116 
L 825 1625 
L 2419 1625 
L 2419 4116 
z
M 2253 4666 
L 3047 4666 
L 3047 1625 
L 3713 1625 
L 3713 1100 
L 3047 1100 
L 3047 0 
L 2419 0 
L 2419 1100 
L 313 1100 
L 313 1709 
L 2253 4666 
z
" transform="scale(0.015625)"/>
       </defs>
       <use xlink:href="#DejaVuSans-32"/>
       <use xlink:href="#DejaVuSans-30" x="63.623047"/>
       <use xlink:href="#DejaVuSans-32" x="127.246094"/>
       <use xlink:href="#DejaVuSans-34" x="190.869141"/>
      </g>
     </g>
    </g>
    <g id="xtick_2">
     <g id="line2d_3">
      <path d="M 203.627588 320.456 
L 203.627588 25.44 
" clip-path="url(#pd6cbfde9ee)" style="fill: none; stroke: #cfcfcf; stroke-width: 0.8; stroke-linecap: square"/>
     </g>
     <g id="line2d_4">
      <g>
       <use xlink:href="#md9088c8a78" x="203.627588" y="320.456" style="stroke: #000000; stroke-width: 0.8"/>
      </g>
     </g>
     <g id="text_2">
      <!-- Apr -->
      <g transform="translate(194.977588 335.054438) scale(0.1 -0.1)">
       <defs>
        <path id="DejaVuSans-41" d="M 2188 4044 
L 1331 1722 
L 3047 1722 
L 2188 4044 
z
M 1831 4666 
L 2547 4666 
L 4325 0 
L 3669 0 
L 3244 1197 
L 1141 1197 
L 716 0 
L 50 0 
L 1831 4666 
z
" transform="scale(0.015625)"/>
        <path id="DejaVuSans-70" d="M 1159 525 
L 1159 -1331 
L 581 -1331 
L 581 3500 
L 1159 3500 
L 1159 2969 
Q 1341 3281 1617 3432 
Q 1894 3584 2278 3584 
Q 2916 3584 3314 3078 
Q 3713 2572 3713 1747 
Q 3713 922 3314 415 
Q 2916 -91 2278 -91 
Q 1894 -91 1617 61 
Q 1341 213 1159 525 
z
M 3116 1747 
Q 3116 2381 2855 2742 
Q 2594 3103 2138 3103 
Q 1681 3103 1420 2742 
Q 1159 2381 1159 1747 
Q 1159 1113 1420 752 
Q 1681 391 2138 391 
Q 2594 391 2855 752 
Q 3116 1113 3116 1747 
z
" transform="scale(0.015625)"/>
        <path id="DejaVuSans-72" d="M 2631 2963 
Q 2534 3019 2420 3045 
Q 2306 3072 2169 3072 
Q 1681 3072 1420 2755 
Q 1159 2438 1159 1844 
L 1159 0 
L 581 0 
L 581 3500 
L 1159 3500 
L 1159 2956 
Q 1341 3275 1631 3429 
Q 1922 3584 2338 3584 
Q 2397 3584 2469 3576 
Q 2541 3569 2628 3553 
L 2631 2963 
z
" transform="scale(0.015625)"/>
       </defs>
       <use xlink:href="#DejaVuSans-41"/>
       <use xlink:href="#DejaVuSans-70" x="68.408203"/>
       <use xlink:href="#DejaVuSans-72" x="131.884766"/>
      </g>
     </g>
    </g>
    <g id="xtick_3">
     <g id="line2d_5">
      <path d="M 370.285175 320.456 
L 370.285175 25.44 
" clip-path="url(#pd6cbfde9ee)" style="fill: none; stroke: #cfcfcf; stroke-width: 0.8; stroke-linecap: square"/>
     </g>
     <g id="line2d_6">
      <g>
       <use xlink:href="#md9088c8a78" x="370.285175" y="320.456" style="stroke: #000000; stroke-width: 0.8"/>
      </g>
     </g>
     <g id="text_3">
      <!-- Jul -->
      <g transform="translate(364.252363 335.054438) scale(0.1 -0.1)">
       <defs>
        <path id="DejaVuSans-75" d="M 544 1381 
L 544 3500 
L 1119 3500 
L 1119 1403 
Q 1119 906 1312 657 
Q 1506 409 1894 409 
Q 2359 409 2629 706 
Q 2900 1003 2900 1516 
L 2900 3500 
L 3475 3500 
L 3475 0 
L 2900 0 
L 2900 538 
Q 2691 219 2414 64 
Q 2138 -91 1772 -91 
Q 1169 -91 856 284 
Q 544 659 544 1381 
z
M 1991 3584 
L 1991 3584 
z
" transform="scale(0.015625)"/>
        <path id="DejaVuSans-6c" d="M 603 4863 
L 1178 4863 
L 1178 0 
L 603 0 
L 603 4863 
z
" transform="scale(0.015625)"/>
       </defs>
       <use xlink:href="#DejaVuSans-4a"/>
       <use xlink:href="#DejaVuSans-75" x="29.492188"/>
       <use xlink:href="#DejaVuSans-6c" x="92.871094"/>
      </g>
     </g>
    </g>
    <g id="xtick_4">
     <g id="line2d_7">
      <path d="M 538.774165 320.456 
L 538.774165 25.44 
" clip-path="url(#pd6cbfde9ee)" style="fill: none; stroke: #cfcfcf; stroke-width: 0.8; stroke-linecap: square"/>
     </g>
     <g id="line2d_8">
      <g>
       <use xlink:href="#md9088c8a78" x="538.774165" y="320.456" style="stroke: #000000; stroke-width: 0.8"/>
      </g>
     </g>
     <g id="text_4">
      <!-- Oct -->
      <g transform="translate(530.128852 335.054438) scale(0.1 -0.1)">
       <defs>
        <path id="DejaVuSans-4f" d="M 2522 4238 
Q 1834 4238 1429 3725 
Q 1025 3213 1025 2328 
Q 1025 1447 1429 934 
Q 1834 422 2522 422 
Q 3209 422 3611 934 
Q 4013 1447 4013 2328 
Q 4013 3213 3611 3725 
Q 3209 4238 2522 4238 
z
M 2522 4750 
Q 3503 4750 4090 4092 
Q 4678 3434 4678 2328 
Q 4678 1225 4090 567 
Q 3503 -91 2522 -91 
Q 1538 -91 948 565 
Q 359 1222 359 2328 
Q 359 3434 948 4092 
Q 1538 4750 2522 4750 
z
" transform="scale(0.015625)"/>
        <path id="DejaVuSans-63" d="M 3122 3366 
L 3122 2828 
Q 2878 2963 2633 3030 
Q 2388 3097 2138 3097 
Q 1578 3097 1268 2742 
Q 959 2388 959 1747 
Q 959 1106 1268 751 
Q 1578 397 2138 397 
Q 2388 397 2633 464 
Q 2878 531 3122 666 
L 3122 134 
Q 2881 22 2623 -34 
Q 2366 -91 2075 -91 
Q 1284 -91 818 406 
Q 353 903 353 1747 
Q 353 2603 823 3093 
Q 1294 3584 2113 3584 
Q 2378 3584 2631 3529 
Q 2884 3475 3122 3366 
z
" transform="scale(0.015625)"/>
        <path id="DejaVuSans-74" d="M 1172 4494 
L 1172 3500 
L 2356 3500 
L 2356 3053 
L 1172 3053 
L 1172 1153 
Q 1172 725 1289 603 
Q 1406 481 1766 481 
L 2356 481 
L 2356 0 
L 1766 0 
Q 1100 0 847 248 
Q 594 497 594 1153 
L 594 3053 
L 172 3053 
L 172 3500 
L 594 3500 
L 594 4494 
L 1172 4494 
z
" transform="scale(0.015625)"/>
       </defs>
       <use xlink:href="#DejaVuSans-4f"/>
       <use xlink:href="#DejaVuSans-63" x="78.710938"/>
       <use xlink:href="#DejaVuSans-74" x="133.691406"/>
      </g>
     </g>
    </g>
    <g id="xtick_5">
     <g id="line2d_9">
      <path d="M 707.263155 320.456 
L 707.263155 25.44 
" clip-path="url(#pd6cbfde9ee)" style="fill: none; stroke: #cfcfcf; stroke-width: 0.8; stroke-linecap: square"/>
     </g>
     <g id="line2d_10">
      <g>
       <use xlink:href="#md9088c8a78" x="707.263155" y="320.456" style="stroke: #000000; stroke-width: 0.8"/>
      </g>
     </g>
     <g id="text_5">
      <!-- Jan -->
      <g transform="translate(699.555342 335.054438) scale(0.1 -0.1)">
       <use xlink:href="#DejaVuSans-4a"/>
       <use xlink:href="#DejaVuSans-61" x="29.492188"/>
       <use xlink:href="#DejaVuSans-6e" x="90.771484"/>
      </g>
      <!-- 2025 -->
      <g transform="translate(694.538155 346.25225) scale(0.1 -0.1)">
       <defs>
        <path id="DejaVuSans-35" d="M 691 4666 
L 3169 4666 
L 3169 4134 
L 1269 4134 
L 1269 2991 
Q 1406 3038 1543 3061 
Q 1681 3084 1819 3084 
Q 2600 3084 3056 2656 
Q 3513 2228 3513 1497 
Q 3513 744 3044 326 
Q 2575 -91 1722 -91 
Q 1428 -91 1123 -41 
Q 819 9 494 109 
L 494 744 
Q 775 591 1075 516 
Q 1375 441 1709 441 
Q 2250 441 2565 725 
Q 2881 1009 2881 1497 
Q 2881 1984 2565 2268 
Q 2250 2553 1709 2553 
Q 1456 2553 1204 2497 
Q 953 2441 691 2322 
L 691 4666 
z
" transform="scale(0.015625)"/>
       </defs>
       <use xlink:href="#DejaVuSans-32"/>
       <use xlink:href="#DejaVuSans-30" x="63.623047"/>
       <use xlink:href="#DejaVuSans-32" x="127.246094"/>
       <use xlink:href="#DejaVuSans-35" x="190.869141"/>
      </g>
     </g>
    </g>
    <g id="xtick_6">
     <g id="line2d_11">
      <path d="M 872.08934 320.456 
L 872.08934 25.44 
" clip-path="url(#pd6cbfde9ee)" style="fill: none; stroke: #cfcfcf; stroke-width: 0.8; stroke-linecap: square"/>
     </g>
     <g id="line2d_12">
      <g>
       <use xlink:href="#md9088c8a78" x="872.08934" y="320.456" style="stroke: #000000; stroke-width: 0.8"/>
      </g>
     </g>
     <g id="text_6">
      <!-- Apr -->
      <g transform="translate(863.43934 335.054438) scale(0.1 -0.1)">
       <use xlink:href="#DejaVuSans-41"/>
       <use xlink:href="#DejaVuSans-70" x="68.408203"/>
       <use xlink:href="#DejaVuSans-72" x="131.884766"/>
      </g>
     </g>
    </g>
    <g id="xtick_7">
     <g id="line2d_13">
      <path d="M 925.2 320.456 
L 925.2 25.44 
" clip-path="url(#pd6cbfde9ee)" style="fill: none; stroke: #cfcfcf; stroke-width: 0.8; stroke-linecap: square"/>
     </g>
     <g id="line2d_14">
      <g>
       <use xlink:href="#md9088c8a78" x="925.2" y="320.456" style="stroke: #000000; stroke-width: 0.8"/>
      </g>
     </g>
    </g>
    <g id="xtick_8">
     <g id="line2d_15">
      <defs>
       <path id="m9c215944b3" d="M 0 0 
L 0 2 
" style="stroke: #000000; stroke-width: 0.6"/>
      </defs>
      <g>
       <use xlink:href="#m9c215944b3" x="93.743464" y="320.456" style="stroke: #000000; stroke-width: 0.6"/>
      </g>
     </g>
    </g>
    <g id="xtick_9">
     <g id="line2d_16">
      <g>
       <use xlink:href="#m9c215944b3" x="146.854124" y="320.456" style="stroke: #000000; stroke-width: 0.6"/>
      </g>
     </g>
    </g>
    <g id="xtick_10">
     <g id="line2d_17">
      <g>
       <use xlink:href="#m9c215944b3" x="258.569649" y="320.456" style="stroke: #000000; stroke-width: 0.6"/>
      </g>
     </g>
    </g>
    <g id="xtick_11">
     <g id="line2d_18">
      <g>
       <use xlink:href="#m9c215944b3" x="315.343113" y="320.456" style="stroke: #000000; stroke-width: 0.6"/>
      </g>
     </g>
    </g>
    <g id="xtick_12">
     <g id="line2d_19">
      <g>
       <use xlink:href="#m9c215944b3" x="427.058639" y="320.456" style="stroke: #000000; stroke-width: 0.6"/>
      </g>
     </g>
    </g>
    <g id="xtick_13">
     <g id="line2d_20">
      <g>
       <use xlink:href="#m9c215944b3" x="483.832103" y="320.456" style="stroke: #000000; stroke-width: 0.6"/>
      </g>
     </g>
    </g>
    <g id="xtick_14">
     <g id="line2d_21">
      <g>
       <use xlink:href="#m9c215944b3" x="595.547629" y="320.456" style="stroke: #000000; stroke-width: 0.6"/>
      </g>
     </g>
    </g>
    <g id="xtick_15">
     <g id="line2d_22">
      <g>
       <use xlink:href="#m9c215944b3" x="650.489691" y="320.456" style="stroke: #000000; stroke-width: 0.6"/>
      </g>
     </g>
    </g>
    <g id="xtick_16">
     <g id="line2d_23">
      <g>
       <use xlink:href="#m9c215944b3" x="764.036619" y="320.456" style="stroke: #000000; stroke-width: 0.6"/>
      </g>
     </g>
    </g>
    <g id="xtick_17">
     <g id="line2d_24">
      <g>
       <use xlink:href="#m9c215944b3" x="815.315876" y="320.456" style="stroke: #000000; stroke-width: 0.6"/>
      </g>
     </g>
    </g>
   </g>
   <g id="matplotlib.axis_2">
    <g id="ytick_1">
     <g id="line2d_25">
      <path d="M 36.97 307.601454 
L 925.2 307.601454 
" clip-path="url(#pd6cbfde9ee)" style="fill: none; stroke: #cfcfcf; stroke-width: 0.8; stroke-linecap: square"/>
     </g>
     <g id="line2d_26">
      <defs>
       <path id="m8d3f442f77" d="M 0 0 
L -3.5 0 
" style="stroke: #000000; stroke-width: 0.8"/>
      </defs>
      <g>
       <use xlink:href="#m8d3f442f77" x="36.97" y="307.601454" style="stroke: #000000; stroke-width: 0.8"/>
      </g>
     </g>
     <g id="text_7">
      <!-- 0 -->
      <g transform="translate(23.6075 311.400673) scale(0.1 -0.1)">
       <use xlink:href="#DejaVuSans-30"/>
      </g>
     </g>
    </g>
    <g id="ytick_2">
     <g id="line2d_27">
      <path d="M 36.97 252.074256 
L 925.2 252.074256 
" clip-path="url(#pd6cbfde9ee)" style="fill: none; stroke: #cfcfcf; stroke-width: 0.8; stroke-linecap: square"/>
     </g>
     <g id="line2d_28">
      <g>
       <use xlink:href="#m8d3f442f77" x="36.97" y="252.074256" style="stroke: #000000; stroke-width: 0.8"/>
      </g>
     </g>
     <g id="text_8">
      <!-- 100 -->
      <g transform="translate(10.8825 255.873475) scale(0.1 -0.1)">
       <defs>
        <path id="DejaVuSans-31" d="M 794 531 
L 1825 531 
L 1825 4091 
L 703 3866 
L 703 4441 
L 1819 4666 
L 2450 4666 
L 2450 531 
L 3481 531 
L 3481 0 
L 794 0 
L 794 531 
z
" transform="scale(0.015625)"/>
       </defs>
       <use xlink:href="#DejaVuSans-31"/>
       <use xlink:href="#DejaVuSans-30" x="63.623047"/>
       <use xlink:href="#DejaVuSans-30" x="127.246094"/>
      </g>
     </g>
    </g>
    <g id="ytick_3">
     <g id="line2d_29">
      <path d="M 36.97 196.547059 
L 925.2 196.547059 
" clip-path="url(#pd6cbfde9ee)" style="fill: none; stroke: #cfcfcf; stroke-width: 0.8; stroke-linecap: square"/>
     </g>
     <g id="line2d_30">
      <g>
       <use xlink:href="#m8d3f442f77" x="36.97" y="196.547059" style="stroke: #000000; stroke-width: 0.8"/>
      </g>
     </g>
     <g id="text_9">
      <!-- 200 -->
      <g transform="translate(10.8825 200.346278) scale(0.1 -0.1)">
       <use xlink:href="#DejaVuSans-32"/>
       <use xlink:href="#DejaVuSans-30" x="63.623047"/>
       <use xlink:href="#DejaVuSans-30" x="127.246094"/>
      </g>
     </g>
    </g>
    <g id="ytick_4">
     <g id="line2d_31">
      <path d="M 36.97 141.019861 
L 925.2 141.019861 
" clip-path="url(#pd6cbfde9ee)" style="fill: none; stroke: #cfcfcf; stroke-width: 0.8; stroke-linecap: square"/>
     </g>
     <g id="line2d_32">
      <g>
       <use xlink:href="#m8d3f442f77" x="36.97" y="141.019861" style="stroke: #000000; stroke-width: 0.8"/>
      </g>
     </g>
     <g id="text_10">
      <!-- 300 -->
      <g transform="translate(10.8825 144.81908) scale(0.1 -0.1)">
       <defs>
        <path id="DejaVuSans-33" d="M 2597 2516 
Q 3050 2419 3304 2112 
Q 3559 1806 3559 1356 
Q 3559 666 3084 287 
Q 2609 -91 1734 -91 
Q 1441 -91 1130 -33 
Q 819 25 488 141 
L 488 750 
Q 750 597 1062 519 
Q 1375 441 1716 441 
Q 2309 441 2620 675 
Q 2931 909 2931 1356 
Q 2931 1769 2642 2001 
Q 2353 2234 1838 2234 
L 1294 2234 
L 1294 2753 
L 1863 2753 
Q 2328 2753 2575 2939 
Q 2822 3125 2822 3475 
Q 2822 3834 2567 4026 
Q 2313 4219 1838 4219 
Q 1578 4219 1281 4162 
Q 984 4106 628 3988 
L 628 4550 
Q 988 4650 1302 4700 
Q 1616 4750 1894 4750 
Q 2613 4750 3031 4423 
Q 3450 4097 3450 3541 
Q 3450 3153 3228 2886 
Q 3006 2619 2597 2516 
z
" transform="scale(0.015625)"/>
       </defs>
       <use xlink:href="#DejaVuSans-33"/>
       <use xlink:href="#DejaVuSans-30" x="63.623047"/>
       <use xlink:href="#DejaVuSans-30" x="127.246094"/>
      </g>
     </g>
    </g>
    <g id="ytick_5">
     <g id="line2d_33">
      <path d="M 36.97 85.492664 
L 925.2 85.492664 
" clip-path="url(#pd6cbfde9ee)" style="fill: none; stroke: #cfcfcf; stroke-width: 0.8; stroke-linecap: square"/>
     </g>
     <g id="line2d_34">
      <g>
       <use xlink:href="#m8d3f442f77" x="36.97" y="85.492664" style="stroke: #000000; stroke-width: 0.8"/>
      </g>
     </g>
     <g id="text_11">
      <!-- 400 -->
      <g transform="translate(10.8825 89.291883) scale(0.1 -0.1)">
       <use xlink:href="#DejaVuSans-34"/>
       <use xlink:href="#DejaVuSans-30" x="63.623047"/>
       <use xlink:href="#DejaVuSans-30" x="127.246094"/>
      </g>
     </g>
    </g>
    <g id="ytick_6">
     <g id="line2d_35">
      <path d="M 36.97 29.965467 
L 925.2 29.965467 
" clip-path="url(#pd6cbfde9ee)" style="fill: none; stroke: #cfcfcf; stroke-width: 0.8; stroke-linecap: square"/>
     </g>
     <g id="line2d_36">
      <g>
       <use xlink:href="#m8d3f442f77" x="36.97" y="29.965467" style="stroke: #000000; stroke-width: 0.8"/>
      </g>
     </g>
     <g id="text_12">
      <!-- 500 -->
      <g transform="translate(10.8825 33.764685) scale(0.1 -0.1)">
       <use xlink:href="#DejaVuSans-35"/>
       <use xlink:href="#DejaVuSans-30" x="63.623047"/>
       <use xlink:href="#DejaVuSans-30" x="127.246094"/>
      </g>
     </g>
    </g>
   </g>
   <g id="line2d_37">
    <path d="M 38.801402 217.092122 
L 40.632804 188.217979 
M 44.295608 277.061495 
L 46.12701 306.49091 
M 49.789814 235.971369 
L 51.621216 260.958608 
L 53.452619 228.752833 
L 55.284021 225.976474 
L 57.115423 216.53685 
L 58.946825 300.93819 
M 62.609629 274.285135 
L 64.441031 38.849818 
L 66.272433 224.86593 
L 68.103835 254.850616 
L 69.935237 192.104883 
L 71.766639 265.956056 
M 75.429443 199.323419 
L 77.260845 224.86593 
L 79.092247 184.886347 
L 80.923649 204.320867 
L 82.755052 235.416097 
L 84.586454 282.614215 
M 88.249258 215.981578 
L 90.08066 218.757938 
L 91.912062 215.981578 
L 93.743464 164.896556 
L 95.574866 140.464589 
L 97.406268 296.496014 
M 101.069072 160.454381 
L 102.900474 294.830198 
L 104.731876 206.541954 
L 106.563278 276.506223 
L 108.39468 230.973921 
M 117.551691 242.079361 
L 119.383093 237.637185 
L 121.214495 256.516432 
M 126.708701 149.348941 
L 128.540103 235.416097 
L 130.371505 219.31321 
L 132.202907 219.868482 
L 134.034309 218.202666 
M 139.528515 233.195009 
L 141.359918 237.081913 
L 143.19132 202.655051 
L 145.022722 172.670364 
L 146.854124 288.166935 
L 148.685526 296.496014 
M 152.34833 196.547059 
L 154.179732 252.629528 
L 156.011134 198.768147 
L 157.842536 225.421202 
L 159.673938 190.439067 
L 161.50534 299.272374 
M 165.168144 185.441619 
L 166.999546 215.981578 
L 168.830948 189.328523 
L 170.662351 211.539402 
L 172.493753 228.752833 
L 174.325155 262.624424 
M 177.987959 201.544507 
L 179.819361 182.109988 
L 181.650763 207.652498 
L 183.482165 251.518984 
L 185.313567 76.608312 
L 187.144969 303.159278 
M 190.807773 196.547059 
L 192.639175 208.763042 
L 194.470577 236.526641 
L 196.301979 224.310658 
M 203.627588 199.323419 
L 205.45899 214.315762 
L 207.290392 233.195009 
L 209.121794 182.109988 
L 210.953196 245.966265 
L 212.784598 305.380366 
M 216.447402 239.303001 
L 218.278804 213.76049 
L 220.110206 221.534298 
L 221.941608 168.78346 
L 223.77301 236.526641 
L 225.604412 287.611663 
M 229.267216 165.451828 
L 231.098619 273.174591 
L 232.930021 274.285135 
L 234.761423 219.31321 
L 236.592825 185.441619 
L 238.424227 306.49091 
M 243.918433 227.087018 
L 245.749835 176.557268 
L 247.581237 203.210323 
L 249.412639 284.835303 
L 251.244041 307.046182 
M 254.906845 275.950951 
L 256.738247 242.079361 
M 260.401052 209.873586 
L 262.232454 240.968817 
L 264.063856 303.71455 
M 267.72666 199.878691 
L 269.558062 246.521537 
L 271.389464 218.202666 
L 273.220866 242.079361 
L 275.052268 230.418649 
L 276.88367 287.056391 
M 280.546474 194.881243 
L 282.377876 183.220532 
L 284.209278 239.303001 
L 286.04068 260.958608 
L 287.872082 192.660155 
L 289.703485 307.046182 
M 293.366289 233.750281 
L 295.197691 258.182248 
L 297.029093 229.863377 
L 298.860495 278.172039 
L 300.691897 264.29024 
L 302.523299 303.159278 
M 306.186103 214.315762 
L 308.017505 258.182248 
L 309.848907 205.986682 
M 313.511711 258.182248 
L 315.343113 305.935638 
M 319.005918 229.863377 
L 320.83732 205.986682 
L 322.668722 277.061495 
L 324.500124 226.531746 
L 326.331526 238.192457 
L 328.162928 292.60911 
M 331.825732 282.614215 
L 333.657134 265.400784 
L 335.488536 222.08957 
L 337.319938 249.297896 
L 339.15134 274.285135 
L 340.982742 301.493462 
M 344.645546 210.428858 
L 346.476948 213.205218 
L 348.308351 203.210323 
L 350.139753 268.177144 
L 351.971155 171.004548 
M 357.465361 212.094674 
L 359.296763 258.73752 
L 361.128165 203.210323 
L 362.959567 230.973921 
L 364.790969 250.40844 
L 366.622371 299.272374 
M 370.285175 217.092122 
L 372.116577 206.541954 
L 373.947979 260.403336 
L 375.779381 215.981578 
L 377.610784 229.863377 
L 379.442186 306.49091 
M 386.767794 257.071704 
L 388.599196 169.338732 
L 390.430598 243.745177 
L 392.262 296.496014 
M 395.924804 250.40844 
L 397.756206 290.943295 
L 399.587608 221.534298 
L 401.41901 104.927183 
L 403.250412 189.328523 
L 405.081814 306.49091 
M 408.744619 245.410993 
L 410.576021 153.791117 
L 412.407423 117.143167 
L 414.238825 206.541954 
L 416.070227 273.174591 
L 417.901629 282.058943 
M 421.564433 289.832751 
L 423.395835 200.433963 
L 425.227237 235.971369 
L 427.058639 296.496014 
L 428.890041 213.205218 
L 430.721443 292.053839 
M 434.384247 167.672916 
L 436.215649 249.297896 
L 438.047052 178.778356 
L 439.878454 249.297896 
L 441.709856 297.606558 
M 447.204062 196.547059 
L 449.035464 227.087018 
L 450.866866 180.444172 
L 452.698268 182.109988 
L 454.52967 224.86593 
L 456.361072 290.388023 
M 460.023876 155.456933 
L 461.855278 227.642289 
L 463.68668 224.86593 
L 465.518082 234.305553 
L 469.180887 305.935638 
M 472.843691 255.96116 
L 474.675093 235.971369 
L 476.506495 257.071704 
L 478.337897 142.685677 
L 480.169299 178.778356 
L 482.000701 301.493462 
M 489.326309 257.626976 
L 491.157711 185.996891 
M 498.48332 250.963712 
L 500.314722 235.971369 
L 502.146124 247.632081 
L 503.977526 185.996891 
L 505.808928 280.393127 
L 507.64033 297.606558 
M 511.303134 242.079361 
L 513.134536 209.318314 
L 514.965938 209.873586 
L 516.79734 254.850616 
L 518.628742 249.853168 
M 536.942763 290.943295 
L 540.605567 240.968817 
L 542.436969 292.60911 
L 544.268371 259.848064 
L 546.099773 299.272374 
M 549.762577 235.416097 
L 551.593979 258.73752 
L 553.425381 245.410993 
L 555.256784 272.064047 
L 557.088186 273.174591 
M 562.582392 150.459485 
L 564.413794 269.84296 
L 566.245196 205.986682 
L 568.076598 280.948399 
L 569.908 270.398232 
L 571.739402 302.048734 
M 575.402206 235.971369 
L 577.233608 249.853168 
L 579.06501 265.400784 
L 580.896412 271.508775 
L 582.727814 117.698439 
L 584.559216 304.825094 
M 588.222021 270.953503 
L 590.053423 248.742625 
L 591.884825 237.081913 
L 593.716227 206.541954 
L 595.547629 278.172039 
M 601.041835 274.840407 
L 602.873237 275.395679 
L 604.704639 260.403336 
L 606.536041 279.837855 
L 608.367443 305.935638 
L 610.198845 296.496014 
M 613.861649 241.524089 
L 615.693052 234.860825 
L 617.524454 247.076809 
L 619.355856 291.498567 
M 626.681464 251.518984 
L 630.344268 295.38547 
L 632.17567 228.752833 
L 634.007072 258.73752 
L 635.838474 307.046182 
M 639.501278 273.729863 
L 641.33268 290.943295 
L 643.164082 223.755386 
L 644.995485 223.755386 
L 646.826887 243.745177 
L 648.658289 307.046182 
M 652.321093 250.963712 
L 654.152495 284.835303 
L 655.983897 280.393127 
L 657.815299 255.405888 
L 659.646701 268.177144 
L 661.478103 294.274926 
M 665.140907 261.51388 
L 666.972309 229.308105 
L 668.803711 293.719654 
L 670.635113 262.069152 
L 672.466515 276.506223 
L 674.297918 295.940742 
M 677.960722 243.745177 
L 679.792124 235.971369 
L 681.623526 263.734968 
L 683.454928 223.200114 
L 685.28633 244.855721 
L 687.117732 279.837855 
M 709.094557 222.08957 
L 710.925959 266.511328 
L 712.757361 304.269822 
M 716.420165 257.626976 
L 718.251567 240.413545 
L 720.082969 276.506223 
L 721.914371 233.195009 
L 723.745773 276.506223 
L 725.577175 307.046182 
M 729.239979 214.315762 
L 731.071381 204.320867 
L 732.902784 262.624424 
L 734.734186 299.827646 
L 736.565588 279.282583 
L 738.39699 292.053839 
M 742.059794 292.60911 
L 743.891196 256.516432 
L 745.722598 264.845512 
L 747.554 248.742625 
L 749.385402 297.051286 
L 751.216804 294.830198 
M 754.879608 290.943295 
L 756.71101 244.300449 
L 758.542412 248.187353 
L 760.373814 243.745177 
L 762.205216 289.277479 
M 767.699423 284.280031 
L 769.530825 287.056391 
L 771.362227 159.899109 
L 773.193629 188.217979 
L 775.025031 255.405888 
L 776.856433 302.048734 
M 780.519237 269.84296 
L 782.350639 268.177144 
L 784.182041 253.1848 
L 786.013443 249.297896 
L 787.844845 282.058943 
L 789.676247 304.269822 
M 793.339052 291.498567 
L 795.170454 256.516432 
L 797.001856 263.179696 
L 798.833258 272.619319 
L 800.66466 274.840407 
L 802.496062 300.93819 
M 806.158866 250.963712 
L 807.990268 271.508775 
L 809.82167 260.403336 
L 811.653072 244.300449 
L 813.484474 269.287688 
L 815.315876 301.493462 
M 822.641485 150.459485 
L 824.472887 257.071704 
L 826.304289 204.320867 
L 828.135691 294.274926 
M 831.798495 260.958608 
L 833.629897 233.750281 
L 835.461299 232.084465 
L 837.292701 261.51388 
L 839.124103 272.619319 
M 844.618309 248.187353 
L 846.449711 275.395679 
L 848.281113 212.649946 
L 850.112515 255.405888 
L 853.77532 298.717102 
M 857.438124 254.850616 
L 859.269526 199.323419 
L 861.100928 290.388023 
L 862.93233 276.506223 
L 864.763732 302.604006 
L 866.595134 282.058943 
M 870.257938 280.393127 
L 872.08934 274.285135 
L 873.920742 264.29024 
L 875.752144 197.102331 
L 877.583546 274.285135 
L 879.414948 300.382918 
M 883.077753 216.53685 
L 884.909155 118.808982 
L 886.740557 184.886347 
L 888.571959 282.058943 
L 890.403361 290.388023 
M 895.897567 179.8889 
L 897.728969 235.416097 
L 899.560371 225.421202 
L 901.391773 295.940742 
M 910.548784 255.96116 
L 912.380186 206.541954 
L 914.211588 274.285135 
L 916.04299 228.752833 
M 921.537196 285.945847 
L 923.368598 248.187353 
L 925.2 301.493462 
L 925.2 301.493462 
" clip-path="url(#pd6cbfde9ee)" style="fill: none; stroke: #6688aa; stroke-width: 1.5; stroke-linecap: square"/>
   </g>
   <g id="patch_3">
    <path d="M 36.97 320.456 
L 36.97 25.44 
" style="fill: none; stroke: #000000; stroke-width: 0.8; stroke-linejoin: miter; stroke-linecap: square"/>
   </g>
   <g id="patch_4">
    <path d="M 36.97 320.456 
L 925.2 320.456 
" style="fill: none; stroke: #000000; stroke-width: 0.8; stroke-linejoin: miter; stroke-linecap: square"/>
   </g>
   <g id="text_13">
    <!-- Daily Sales Over Time -->
    <g transform="translate(415.099062 19.44) scale(0.12 -0.12)">
     <defs>
      <path id="DejaVuSans-44" d="M 1259 4147 
L 1259 519 
L 2022 519 
Q 2988 519 3436 956 
Q 3884 1394 3884 2338 
Q 3884 3275 3436 3711 
Q 2988 4147 2022 4147 
L 1259 4147 
z
M 628 4666 
L 1925 4666 
Q 3281 4666 3915 4102 
Q 4550 3538 4550 2338 
Q 4550 1131 3912 565 
Q 3275 0 1925 0 
L 628 0 
L 628 4666 
z
" transform="scale(0.015625)"/>
      <path id="DejaVuSans-69" d="M 603 3500 
L 1178 3500 
L 1178 0 
L 603 0 
L 603 3500 
z
M 603 4863 
L 1178 4863 
L 1178 4134 
L 603 4134 
L 603 4863 
z
" transform="scale(0.015625)"/>
      <path id="DejaVuSans-79" d="M 2059 -325 
Q 1816 -950 1584 -1140 
Q 1353 -1331 966 -1331 
L 506 -1331 
L 506 -850 
L 844 -850 
Q 1081 -850 1212 -737 
Q 1344 -625 1503 -206 
L 1606 56 
L 191 3500 
L 800 3500 
L 1894 763 
L 2988 3500 
L 3597 3500 
L 2059 -325 
z
" transform="scale(0.015625)"/>
      <path id="DejaVuSans-20" transform="scale(0.015625)"/>
      <path id="DejaVuSans-53" d="M 3425 4513 
L 3425 3897 
Q 3066 4069 2747 4153 
Q 2428 4238 2131 4238 
Q 1616 4238 1336 4038 
Q 1056 3838 1056 3469 
Q 1056 3159 1242 3001 
Q 1428 2844 1947 2747 
L 2328 2669 
Q 3034 2534 3370 2195 
Q 3706 1856 3706 1288 
Q 3706 609 3251 259 
Q 2797 -91 1919 -91 
Q 1588 -91 1214 -16 
Q 841 59 441 206 
L 441 856 
Q 825 641 1194 531 
Q 1563 422 1919 422 
Q 2459 422 2753 634 
Q 3047 847 3047 1241 
Q 3047 1584 2836 1778 
Q 2625 1972 2144 2069 
L 1759 2144 
Q 1053 2284 737 2584 
Q 422 2884 422 3419 
Q 422 4038 858 4394 
Q 1294 4750 2059 4750 
Q 2388 4750 2728 4690 
Q 3069 4631 3425 4513 
z
" transform="scale(0.015625)"/>
      <path id="DejaVuSans-65" d="M 3597 1894 
L 3597 1613 
L 953 1613 
Q 991 1019 1311 708 
Q 1631 397 2203 397 
Q 2534 397 2845 478 
Q 3156 559 3463 722 
L 3463 178 
Q 3153 47 2828 -22 
Q 2503 -91 2169 -91 
Q 1331 -91 842 396 
Q 353 884 353 1716 
Q 353 2575 817 3079 
Q 1281 3584 2069 3584 
Q 2775 3584 3186 3129 
Q 3597 2675 3597 1894 
z
M 3022 2063 
Q 3016 2534 2758 2815 
Q 2500 3097 2075 3097 
Q 1594 3097 1305 2825 
Q 1016 2553 972 2059 
L 3022 2063 
z
" transform="scale(0.015625)"/>
      <path id="DejaVuSans-73" d="M 2834 3397 
L 2834 2853 
Q 2591 2978 2328 3040 
Q 2066 3103 1784 3103 
Q 1356 3103 1142 2972 
Q 928 2841 928 2578 
Q 928 2378 1081 2264 
Q 1234 2150 1697 2047 
L 1894 2003 
Q 2506 1872 2764 1633 
Q 3022 1394 3022 966 
Q 3022 478 2636 193 
Q 2250 -91 1575 -91 
Q 1294 -91 989 -36 
Q 684 19 347 128 
L 347 722 
Q 666 556 975 473 
Q 1284 391 1588 391 
Q 1994 391 2212 530 
Q 2431 669 2431 922 
Q 2431 1156 2273 1281 
Q 2116 1406 1581 1522 
L 1381 1569 
Q 847 1681 609 1914 
Q 372 2147 372 2553 
Q 372 3047 722 3315 
Q 1072 3584 1716 3584 
Q 2034 3584 2315 3537 
Q 2597 3491 2834 3397 
z
" transform="scale(0.015625)"/>
      <path id="DejaVuSans-76" d="M 191 3500 
L 800 3500 
L 1894 563 
L 2988 3500 
L 3597 3500 
L 2284 0 
L 1503 0 
L 191 3500 
z
" transform="scale(0.015625)"/>
      <path id="DejaVuSans-54" d="M -19 4666 
L 3928 4666 
L 3928 4134 
L 2272 4134 
L 2272 0 
L 1638 0 
L 1638 4134 
L -19 4134 
L -19 4666 
z
" transform="scale(0.015625)"/>
      <path id="DejaVuSans-6d" d="M 3328 2828 
Q 3544 3216 3844 3400 
Q 4144 3584 4550 3584 
Q 5097 3584 5394 3201 
Q 5691 2819 5691 2113 
L 5691 0 
L 5113 0 
L 5113 2094 
Q 5113 2597 4934 2840 
Q 4756 3084 4391 3084 
Q 3944 3084 3684 2787 
Q 3425 2491 3425 1978 
L 3425 0 
L 2847 0 
L 2847 2094 
Q 2847 2600 2669 2842 
Q 2491 3084 2119 3084 
Q 1678 3084 1418 2786 
Q 1159 2488 1159 1978 
L 1159 0 
L 581 0 
L 581 3500 
L 1159 3500 
L 1159 2956 
Q 1356 3278 1631 3431 
Q 1906 3584 2284 3584 
Q 2666 3584 2933 3390 
Q 3200 3197 3328 2828 
z
" transform="scale(0.015625)"/>
     </defs>
     <use xlink:href="#DejaVuSans-44"/>
     <use xlink:href="#DejaVuSans-61" x="77.001953"/>
     <use xlink:href="#DejaVuSans-69" x="138.28125"/>
     <use xlink:href="#DejaVuSans-6c" x="166.064453"/>
     <use xlink:href="#DejaVuSans-79" x="193.847656"/>
     <use xlink:href="#DejaVuSans-20" x="253.027344"/>
     <use xlink:href="#DejaVuSans-53" x="284.814453"/>
     <use xlink:href="#DejaVuSans-61" x="348.291016"/>
     <use xlink:href="#DejaVuSans-6c" x="409.570312"/>
     <use xlink:href="#DejaVuSans-65" x="437.353516"/>
     <use xlink:href="#DejaVuSans-73" x="498.876953"/>
     <use xlink:href="#DejaVuSans-20" x="550.976562"/>
     <use xlink:href="#DejaVuSans-4f" x="582.763672"/>
     <use xlink:href="#DejaVuSans-76" x="661.474609"/>
     <use xlink:href="#DejaVuSans-65" x="720.654297"/>
     <use xlink:href="#DejaVuSans-72" x="782.177734"/>
     <use xlink:href="#DejaVuSans-20" x="823.291016"/>
     <use xlink:href="#DejaVuSans-54" x="855.078125"/>
     <use xlink:href="#DejaVuSans-69" x="913.037109"/>
     <use xlink:href="#DejaVuSans-6d" x="940.820312"/>
     <use xlink:href="#DejaVuSans-65" x="1038.232422"/>
    </g>
   </g>
  </g>
 </g>
 <defs>
  <clipPath id="pd6cbfde9ee">
   <rect x="36.97" y="25.44" width="888.23" height="295.016"/>
  </clipPath>
 </defs>
</svg>
