<?xml version="1.0" encoding="utf-8" standalone="no"?>
<!DOCTYPE svg PUBLIC "-//W3C//DTD SVG 1.1//EN"
  "http://www.w3.org/Graphics/SVG/1.1/DTD/svg11.dtd">
<svg xmlns:xlink="http://www.w3.org/1999/xlink" width="432pt" height="360pt" viewBox="0 0 432 360" xmlns="http://www.w3.org/2000/svg" version="1.1">
 <metadata>
  <rdf:RDF xmlns:dc="http://purl.org/dc/elements/1.1/" xmlns:cc="http://creativecommons.org/ns#" xmlns:rdf="http://www.w3.org/1999/02/22-rdf-syntax-ns#">
   <cc:Work>
    <dc:type rdf:resource="http://purl.org/dc/dcmitype/StillImage"/>
    <dc:date>2025-06-12T19:20:08.097482</dc:date>
    <dc:format>image/svg+xml</dc:format>
    <dc:creator>
     <cc:Agent>
      <dc:title>Matplotlib v3.9.2, https://matplotlib.org/</dc:title>
     </cc:Agent>
    </dc:creator>
   </cc:Work>
  </rdf:RDF>
 </metadata>
 <defs>
  <style type="text/css">*{stroke-linejoin: round; stroke-linecap: butt}</style>
 </defs>
 <g id="figure_1">
  <g id="patch_1">
   <path d="M 0 360 
L 432 360 
L 432 0 
L 0 0 
z
" style="fill: #d9d9d9"/>
  </g>
  <g id="axes_1">
   <g id="patch_2">
    <path d="M 38.95 345.7 
L 421.2 345.7 
L 421.2 25.44 
L 38.95 25.44 
z
" style="fill: #d9d9d9"/>
   </g>
   <g id="matplotlib.axis_1">
    <g id="xtick_1">
     <g id="line2d_1">
      <defs>
       <path id="m933298f068" d="M 0 0 
L 0 3.5 
" style="stroke: #000000; stroke-width: 0.8"/>
      </defs>
      <g>
       <use xlink:href="#m933298f068" x="230.075" y="345.7" style="stroke: #000000; stroke-width: 0.8"/>
      </g>
     </g>
    </g>
   </g>
   <g id="matplotlib.axis_2">
    <g id="ytick_1">
     <g id="line2d_2">
      <defs>
       <path id="m75a8640be6" d="M 0 0 
L -3.5 0 
" style="stroke: #000000; stroke-width: 0.8"/>
      </defs>
      <g>
       <use xlink:href="#m75a8640be6" x="38.95" y="338.690536" style="stroke: #000000; stroke-width: 0.8"/>
      </g>
     </g>
     <g id="text_1">
      <!-- −25 -->
      <g transform="translate(10.845313 342.489755) scale(0.1 -0.1)">
       <defs>
        <path id="DejaVuSans-2212" d="M 678 2272 
L 4684 2272 
L 4684 1741 
L 678 1741 
L 678 2272 
z
" transform="scale(0.015625)"/>
        <path id="DejaVuSans-32" d="M 1228 531 
L 3431 531 
L 3431 0 
L 469 0 
L 469 531 
Q 828 903 1448 1529 
Q 2069 2156 2228 2338 
Q 2531 2678 2651 2914 
Q 2772 3150 2772 3378 
Q 2772 3750 2511 3984 
Q 2250 4219 1831 4219 
Q 1534 4219 1204 4116 
Q 875 4013 500 3803 
L 500 4441 
Q 881 4594 1212 4672 
Q 1544 4750 1819 4750 
Q 2544 4750 2975 4387 
Q 3406 4025 3406 3419 
Q 3406 3131 3298 2873 
Q 3191 2616 2906 2266 
Q 2828 2175 2409 1742 
Q 1991 1309 1228 531 
z
" transform="scale(0.015625)"/>
        <path id="DejaVuSans-35" d="M 691 4666 
L 3169 4666 
L 3169 4134 
L 1269 4134 
L 1269 2991 
Q 1406 3038 1543 3061 
Q 1681 3084 1819 3084 
Q 2600 3084 3056 2656 
Q 3513 2228 3513 1497 
Q 3513 744 3044 326 
Q 2575 -91 1722 -91 
Q 1428 -91 1123 -41 
Q 819 9 494 109 
L 494 744 
Q 775 591 1075 516 
Q 1375 441 1709 441 
Q 2250 441 2565 725 
Q 2881 1009 2881 1497 
Q 2881 1984 2565 2268 
Q 2250 2553 1709 2553 
Q 1456 2553 1204 2497 
Q 953 2441 691 2322 
L 691 4666 
z
" transform="scale(0.015625)"/>
       </defs>
       <use xlink:href="#DejaVuSans-2212"/>
       <use xlink:href="#DejaVuSans-32" x="83.789062"/>
       <use xlink:href="#DejaVuSans-35" x="147.412109"/>
      </g>
     </g>
    </g>
    <g id="ytick_2">
     <g id="line2d_3">
      <g>
       <use xlink:href="#m75a8640be6" x="38.95" y="302.616439" style="stroke: #000000; stroke-width: 0.8"/>
      </g>
     </g>
     <g id="text_2">
      <!-- 0 -->
      <g transform="translate(25.5875 306.415658) scale(0.1 -0.1)">
       <defs>
        <path id="DejaVuSans-30" d="M 2034 4250 
Q 1547 4250 1301 3770 
Q 1056 3291 1056 2328 
Q 1056 1369 1301 889 
Q 1547 409 2034 409 
Q 2525 409 2770 889 
Q 3016 1369 3016 2328 
Q 3016 3291 2770 3770 
Q 2525 4250 2034 4250 
z
M 2034 4750 
Q 2819 4750 3233 4129 
Q 3647 3509 3647 2328 
Q 3647 1150 3233 529 
Q 2819 -91 2034 -91 
Q 1250 -91 836 529 
Q 422 1150 422 2328 
Q 422 3509 836 4129 
Q 1250 4750 2034 4750 
z
" transform="scale(0.015625)"/>
       </defs>
       <use xlink:href="#DejaVuSans-30"/>
      </g>
     </g>
    </g>
    <g id="ytick_3">
     <g id="line2d_4">
      <g>
       <use xlink:href="#m75a8640be6" x="38.95" y="266.542342" style="stroke: #000000; stroke-width: 0.8"/>
      </g>
     </g>
     <g id="text_3">
      <!-- 25 -->
      <g transform="translate(19.225 270.34156) scale(0.1 -0.1)">
       <use xlink:href="#DejaVuSans-32"/>
       <use xlink:href="#DejaVuSans-35" x="63.623047"/>
      </g>
     </g>
    </g>
    <g id="ytick_4">
     <g id="line2d_5">
      <g>
       <use xlink:href="#m75a8640be6" x="38.95" y="230.468244" style="stroke: #000000; stroke-width: 0.8"/>
      </g>
     </g>
     <g id="text_4">
      <!-- 50 -->
      <g transform="translate(19.225 234.267463) scale(0.1 -0.1)">
       <use xlink:href="#DejaVuSans-35"/>
       <use xlink:href="#DejaVuSans-30" x="63.623047"/>
      </g>
     </g>
    </g>
    <g id="ytick_5">
     <g id="line2d_6">
      <g>
       <use xlink:href="#m75a8640be6" x="38.95" y="194.394147" style="stroke: #000000; stroke-width: 0.8"/>
      </g>
     </g>
     <g id="text_5">
      <!-- 75 -->
      <g transform="translate(19.225 198.193366) scale(0.1 -0.1)">
       <defs>
        <path id="DejaVuSans-37" d="M 525 4666 
L 3525 4666 
L 3525 4397 
L 1831 0 
L 1172 0 
L 2766 4134 
L 525 4134 
L 525 4666 
z
" transform="scale(0.015625)"/>
       </defs>
       <use xlink:href="#DejaVuSans-37"/>
       <use xlink:href="#DejaVuSans-35" x="63.623047"/>
      </g>
     </g>
    </g>
    <g id="ytick_6">
     <g id="line2d_7">
      <g>
       <use xlink:href="#m75a8640be6" x="38.95" y="158.320049" style="stroke: #000000; stroke-width: 0.8"/>
      </g>
     </g>
     <g id="text_6">
      <!-- 100 -->
      <g transform="translate(12.8625 162.119268) scale(0.1 -0.1)">
       <defs>
        <path id="DejaVuSans-31" d="M 794 531 
L 1825 531 
L 1825 4091 
L 703 3866 
L 703 4441 
L 1819 4666 
L 2450 4666 
L 2450 531 
L 3481 531 
L 3481 0 
L 794 0 
L 794 531 
z
" transform="scale(0.015625)"/>
       </defs>
       <use xlink:href="#DejaVuSans-31"/>
       <use xlink:href="#DejaVuSans-30" x="63.623047"/>
       <use xlink:href="#DejaVuSans-30" x="127.246094"/>
      </g>
     </g>
    </g>
    <g id="ytick_7">
     <g id="line2d_8">
      <g>
       <use xlink:href="#m75a8640be6" x="38.95" y="122.245952" style="stroke: #000000; stroke-width: 0.8"/>
      </g>
     </g>
     <g id="text_7">
      <!-- 125 -->
      <g transform="translate(12.8625 126.045171) scale(0.1 -0.1)">
       <use xlink:href="#DejaVuSans-31"/>
       <use xlink:href="#DejaVuSans-32" x="63.623047"/>
       <use xlink:href="#DejaVuSans-35" x="127.246094"/>
      </g>
     </g>
    </g>
    <g id="ytick_8">
     <g id="line2d_9">
      <g>
       <use xlink:href="#m75a8640be6" x="38.95" y="86.171855" style="stroke: #000000; stroke-width: 0.8"/>
      </g>
     </g>
     <g id="text_8">
      <!-- 150 -->
      <g transform="translate(12.8625 89.971073) scale(0.1 -0.1)">
       <use xlink:href="#DejaVuSans-31"/>
       <use xlink:href="#DejaVuSans-35" x="63.623047"/>
       <use xlink:href="#DejaVuSans-30" x="127.246094"/>
      </g>
     </g>
    </g>
    <g id="ytick_9">
     <g id="line2d_10">
      <g>
       <use xlink:href="#m75a8640be6" x="38.95" y="50.097757" style="stroke: #000000; stroke-width: 0.8"/>
      </g>
     </g>
     <g id="text_9">
      <!-- 175 -->
      <g transform="translate(12.8625 53.896976) scale(0.1 -0.1)">
       <use xlink:href="#DejaVuSans-31"/>
       <use xlink:href="#DejaVuSans-37" x="63.623047"/>
       <use xlink:href="#DejaVuSans-35" x="127.246094"/>
      </g>
     </g>
    </g>
   </g>
   <g id="patch_3">
    <path d="M 77.175 302.606755 
L 382.975 302.606755 
L 382.975 302.211782 
L 77.175 302.211782 
L 77.175 302.606755 
z
" clip-path="url(#pcc55e1adf9)" style="fill: #437795; stroke: #414141; stroke-linejoin: miter"/>
   </g>
   <g id="line2d_11">
    <path d="M 230.075 302.606755 
L 230.075 302.933574 
" clip-path="url(#pcc55e1adf9)" style="fill: none; stroke: #414141"/>
   </g>
   <g id="line2d_12">
    <path d="M 230.075 302.211782 
L 230.075 301.64072 
" clip-path="url(#pcc55e1adf9)" style="fill: none; stroke: #414141"/>
   </g>
   <g id="line2d_13">
    <path d="M 153.625 302.933574 
L 306.525 302.933574 
" clip-path="url(#pcc55e1adf9)" style="fill: none; stroke: #414141; stroke-linecap: square"/>
   </g>
   <g id="line2d_14">
    <path d="M 153.625 301.64072 
L 306.525 301.64072 
" clip-path="url(#pcc55e1adf9)" style="fill: none; stroke: #414141; stroke-linecap: square"/>
   </g>
   <g id="line2d_15">
    <defs>
     <path id="md20e0010eb" d="M 0 3 
C 0.795609 3 1.55874 2.683901 2.12132 2.12132 
C 2.683901 1.55874 3 0.795609 3 0 
C 3 -0.795609 2.683901 -1.55874 2.12132 -2.12132 
C 1.55874 -2.683901 0.795609 -3 0 -3 
C -0.795609 -3 -1.55874 -2.683901 -2.12132 -2.12132 
C -2.683901 -1.55874 -3 -0.795609 -3 0 
C -3 0.795609 -2.683901 1.55874 -2.12132 2.12132 
C -1.55874 2.683901 -0.795609 3 0 3 
z
" style="stroke: #414141"/>
    </defs>
    <g clip-path="url(#pcc55e1adf9)">
     <use xlink:href="#md20e0010eb" x="230.075" y="331.142727" style="fill-opacity: 0; stroke: #414141"/>
     <use xlink:href="#md20e0010eb" x="230.075" y="317.094177" style="fill-opacity: 0; stroke: #414141"/>
     <use xlink:href="#md20e0010eb" x="230.075" y="301.272421" style="fill-opacity: 0; stroke: #414141"/>
     <use xlink:href="#md20e0010eb" x="230.075" y="301.553983" style="fill-opacity: 0; stroke: #414141"/>
     <use xlink:href="#md20e0010eb" x="230.075" y="301.278518" style="fill-opacity: 0; stroke: #414141"/>
     <use xlink:href="#md20e0010eb" x="230.075" y="301.52105" style="fill-opacity: 0; stroke: #414141"/>
     <use xlink:href="#md20e0010eb" x="230.075" y="301.578144" style="fill-opacity: 0; stroke: #414141"/>
     <use xlink:href="#md20e0010eb" x="230.075" y="301.519492" style="fill-opacity: 0; stroke: #414141"/>
     <use xlink:href="#md20e0010eb" x="230.075" y="301.505306" style="fill-opacity: 0; stroke: #414141"/>
     <use xlink:href="#md20e0010eb" x="230.075" y="301.053228" style="fill-opacity: 0; stroke: #414141"/>
     <use xlink:href="#md20e0010eb" x="230.075" y="301.558265" style="fill-opacity: 0; stroke: #414141"/>
     <use xlink:href="#md20e0010eb" x="230.075" y="298.768535" style="fill-opacity: 0; stroke: #414141"/>
     <use xlink:href="#md20e0010eb" x="230.075" y="301.050064" style="fill-opacity: 0; stroke: #414141"/>
     <use xlink:href="#md20e0010eb" x="230.075" y="301.293306" style="fill-opacity: 0; stroke: #414141"/>
     <use xlink:href="#md20e0010eb" x="230.075" y="301.233599" style="fill-opacity: 0; stroke: #414141"/>
     <use xlink:href="#md20e0010eb" x="230.075" y="39.997273" style="fill-opacity: 0; stroke: #414141"/>
     <use xlink:href="#md20e0010eb" x="230.075" y="301.246846" style="fill-opacity: 0; stroke: #414141"/>
     <use xlink:href="#md20e0010eb" x="230.075" y="236.240122" style="fill-opacity: 0; stroke: #414141"/>
     <use xlink:href="#md20e0010eb" x="230.075" y="300.463325" style="fill-opacity: 0; stroke: #414141"/>
     <use xlink:href="#md20e0010eb" x="230.075" y="301.331608" style="fill-opacity: 0; stroke: #414141"/>
     <use xlink:href="#md20e0010eb" x="230.075" y="301.328369" style="fill-opacity: 0; stroke: #414141"/>
     <use xlink:href="#md20e0010eb" x="230.075" y="301.322352" style="fill-opacity: 0; stroke: #414141"/>
     <use xlink:href="#md20e0010eb" x="230.075" y="300.930279" style="fill-opacity: 0; stroke: #414141"/>
     <use xlink:href="#md20e0010eb" x="230.075" y="301.255152" style="fill-opacity: 0; stroke: #414141"/>
     <use xlink:href="#md20e0010eb" x="230.075" y="281.212476" style="fill-opacity: 0; stroke: #414141"/>
     <use xlink:href="#md20e0010eb" x="230.075" y="300.996269" style="fill-opacity: 0; stroke: #414141"/>
     <use xlink:href="#md20e0010eb" x="230.075" y="300.011087" style="fill-opacity: 0; stroke: #414141"/>
     <use xlink:href="#md20e0010eb" x="230.075" y="301.032008" style="fill-opacity: 0; stroke: #414141"/>
     <use xlink:href="#md20e0010eb" x="230.075" y="301.511825" style="fill-opacity: 0; stroke: #414141"/>
     <use xlink:href="#md20e0010eb" x="230.075" y="301.227722" style="fill-opacity: 0; stroke: #414141"/>
     <use xlink:href="#md20e0010eb" x="230.075" y="301.13291" style="fill-opacity: 0; stroke: #414141"/>
     <use xlink:href="#md20e0010eb" x="230.075" y="300.782672" style="fill-opacity: 0; stroke: #414141"/>
     <use xlink:href="#md20e0010eb" x="230.075" y="301.260634" style="fill-opacity: 0; stroke: #414141"/>
     <use xlink:href="#md20e0010eb" x="230.075" y="301.555947" style="fill-opacity: 0; stroke: #414141"/>
     <use xlink:href="#md20e0010eb" x="230.075" y="301.413969" style="fill-opacity: 0; stroke: #414141"/>
     <use xlink:href="#md20e0010eb" x="230.075" y="299.906482" style="fill-opacity: 0; stroke: #414141"/>
     <use xlink:href="#md20e0010eb" x="230.075" y="300.97848" style="fill-opacity: 0; stroke: #414141"/>
     <use xlink:href="#md20e0010eb" x="230.075" y="301.396478" style="fill-opacity: 0; stroke: #414141"/>
     <use xlink:href="#md20e0010eb" x="230.075" y="299.17879" style="fill-opacity: 0; stroke: #414141"/>
     <use xlink:href="#md20e0010eb" x="230.075" y="301.441636" style="fill-opacity: 0; stroke: #414141"/>
     <use xlink:href="#md20e0010eb" x="230.075" y="300.812734" style="fill-opacity: 0; stroke: #414141"/>
     <use xlink:href="#md20e0010eb" x="230.075" y="298.457308" style="fill-opacity: 0; stroke: #414141"/>
     <use xlink:href="#md20e0010eb" x="230.075" y="301.574995" style="fill-opacity: 0; stroke: #414141"/>
     <use xlink:href="#md20e0010eb" x="230.075" y="300.873843" style="fill-opacity: 0; stroke: #414141"/>
     <use xlink:href="#md20e0010eb" x="230.075" y="301.339971" style="fill-opacity: 0; stroke: #414141"/>
     <use xlink:href="#md20e0010eb" x="230.075" y="301.072803" style="fill-opacity: 0; stroke: #414141"/>
     <use xlink:href="#md20e0010eb" x="230.075" y="301.602464" style="fill-opacity: 0; stroke: #414141"/>
     <use xlink:href="#md20e0010eb" x="230.075" y="301.389488" style="fill-opacity: 0; stroke: #414141"/>
    </g>
   </g>
   <g id="line2d_16">
    <path d="M 77.175 302.478729 
L 382.975 302.478729 
" clip-path="url(#pcc55e1adf9)" style="fill: none; stroke: #414141"/>
   </g>
   <g id="patch_4">
    <path d="M 38.95 345.7 
L 38.95 25.44 
" style="fill: none; stroke: #000000; stroke-width: 0.8; stroke-linejoin: miter; stroke-linecap: square"/>
   </g>
   <g id="patch_5">
    <path d="M 38.95 345.7 
L 421.2 345.7 
" style="fill: none; stroke: #000000; stroke-width: 0.8; stroke-linejoin: miter; stroke-linecap: square"/>
   </g>
   <g id="text_10">
    <!-- Inventory Turnover Box Plot -->
    <g transform="translate(147.130625 19.44) scale(0.12 -0.12)">
     <defs>
      <path id="DejaVuSans-49" d="M 628 4666 
L 1259 4666 
L 1259 0 
L 628 0 
L 628 4666 
z
" transform="scale(0.015625)"/>
      <path id="DejaVuSans-6e" d="M 3513 2113 
L 3513 0 
L 2938 0 
L 2938 2094 
Q 2938 2591 2744 2837 
Q 2550 3084 2163 3084 
Q 1697 3084 1428 2787 
Q 1159 2491 1159 1978 
L 1159 0 
L 581 0 
L 581 3500 
L 1159 3500 
L 1159 2956 
Q 1366 3272 1645 3428 
Q 1925 3584 2291 3584 
Q 2894 3584 3203 3211 
Q 3513 2838 3513 2113 
z
" transform="scale(0.015625)"/>
      <path id="DejaVuSans-76" d="M 191 3500 
L 800 3500 
L 1894 563 
L 2988 3500 
L 3597 3500 
L 2284 0 
L 1503 0 
L 191 3500 
z
" transform="scale(0.015625)"/>
      <path id="DejaVuSans-65" d="M 3597 1894 
L 3597 1613 
L 953 1613 
Q 991 1019 1311 708 
Q 1631 397 2203 397 
Q 2534 397 2845 478 
Q 3156 559 3463 722 
L 3463 178 
Q 3153 47 2828 -22 
Q 2503 -91 2169 -91 
Q 1331 -91 842 396 
Q 353 884 353 1716 
Q 353 2575 817 3079 
Q 1281 3584 2069 3584 
Q 2775 3584 3186 3129 
Q 3597 2675 3597 1894 
z
M 3022 2063 
Q 3016 2534 2758 2815 
Q 2500 3097 2075 3097 
Q 1594 3097 1305 2825 
Q 1016 2553 972 2059 
L 3022 2063 
z
" transform="scale(0.015625)"/>
      <path id="DejaVuSans-74" d="M 1172 4494 
L 1172 3500 
L 2356 3500 
L 2356 3053 
L 1172 3053 
L 1172 1153 
Q 1172 725 1289 603 
Q 1406 481 1766 481 
L 2356 481 
L 2356 0 
L 1766 0 
Q 1100 0 847 248 
Q 594 497 594 1153 
L 594 3053 
L 172 3053 
L 172 3500 
L 594 3500 
L 594 4494 
L 1172 4494 
z
" transform="scale(0.015625)"/>
      <path id="DejaVuSans-6f" d="M 1959 3097 
Q 1497 3097 1228 2736 
Q 959 2375 959 1747 
Q 959 1119 1226 758 
Q 1494 397 1959 397 
Q 2419 397 2687 759 
Q 2956 1122 2956 1747 
Q 2956 2369 2687 2733 
Q 2419 3097 1959 3097 
z
M 1959 3584 
Q 2709 3584 3137 3096 
Q 3566 2609 3566 1747 
Q 3566 888 3137 398 
Q 2709 -91 1959 -91 
Q 1206 -91 779 398 
Q 353 888 353 1747 
Q 353 2609 779 3096 
Q 1206 3584 1959 3584 
z
" transform="scale(0.015625)"/>
      <path id="DejaVuSans-72" d="M 2631 2963 
Q 2534 3019 2420 3045 
Q 2306 3072 2169 3072 
Q 1681 3072 1420 2755 
Q 1159 2438 1159 1844 
L 1159 0 
L 581 0 
L 581 3500 
L 1159 3500 
L 1159 2956 
Q 1341 3275 1631 3429 
Q 1922 3584 2338 3584 
Q 2397 3584 2469 3576 
Q 2541 3569 2628 3553 
L 2631 2963 
z
" transform="scale(0.015625)"/>
      <path id="DejaVuSans-79" d="M 2059 -325 
Q 1816 -950 1584 -1140 
Q 1353 -1331 966 -1331 
L 506 -1331 
L 506 -850 
L 844 -850 
Q 1081 -850 1212 -737 
Q 1344 -625 1503 -206 
L 1606 56 
L 191 3500 
L 800 3500 
L 1894 763 
L 2988 3500 
L 3597 3500 
L 2059 -325 
z
" transform="scale(0.015625)"/>
      <path id="DejaVuSans-20" transform="scale(0.015625)"/>
      <path id="DejaVuSans-54" d="M -19 4666 
L 3928 4666 
L 3928 4134 
L 2272 4134 
L 2272 0 
L 1638 0 
L 1638 4134 
L -19 4134 
L -19 4666 
z
" transform="scale(0.015625)"/>
      <path id="DejaVuSans-75" d="M 544 1381 
L 544 3500 
L 1119 3500 
L 1119 1403 
Q 1119 906 1312 657 
Q 1506 409 1894 409 
Q 2359 409 2629 706 
Q 2900 1003 2900 1516 
L 2900 3500 
L 3475 3500 
L 3475 0 
L 2900 0 
L 2900 538 
Q 2691 219 2414 64 
Q 2138 -91 1772 -91 
Q 1169 -91 856 284 
Q 544 659 544 1381 
z
M 1991 3584 
L 1991 3584 
z
" transform="scale(0.015625)"/>
      <path id="DejaVuSans-42" d="M 1259 2228 
L 1259 519 
L 2272 519 
Q 2781 519 3026 730 
Q 3272 941 3272 1375 
Q 3272 1813 3026 2020 
Q 2781 2228 2272 2228 
L 1259 2228 
z
M 1259 4147 
L 1259 2741 
L 2194 2741 
Q 2656 2741 2882 2914 
Q 3109 3088 3109 3444 
Q 3109 3797 2882 3972 
Q 2656 4147 2194 4147 
L 1259 4147 
z
M 628 4666 
L 2241 4666 
Q 2963 4666 3353 4366 
Q 3744 4066 3744 3513 
Q 3744 3084 3544 2831 
Q 3344 2578 2956 2516 
Q 3422 2416 3680 2098 
Q 3938 1781 3938 1306 
Q 3938 681 3513 340 
Q 3088 0 2303 0 
L 628 0 
L 628 4666 
z
" transform="scale(0.015625)"/>
      <path id="DejaVuSans-78" d="M 3513 3500 
L 2247 1797 
L 3578 0 
L 2900 0 
L 1881 1375 
L 863 0 
L 184 0 
L 1544 1831 
L 300 3500 
L 978 3500 
L 1906 2253 
L 2834 3500 
L 3513 3500 
z
" transform="scale(0.015625)"/>
      <path id="DejaVuSans-50" d="M 1259 4147 
L 1259 2394 
L 2053 2394 
Q 2494 2394 2734 2622 
Q 2975 2850 2975 3272 
Q 2975 3691 2734 3919 
Q 2494 4147 2053 4147 
L 1259 4147 
z
M 628 4666 
L 2053 4666 
Q 2838 4666 3239 4311 
Q 3641 3956 3641 3272 
Q 3641 2581 3239 2228 
Q 2838 1875 2053 1875 
L 1259 1875 
L 1259 0 
L 628 0 
L 628 4666 
z
" transform="scale(0.015625)"/>
      <path id="DejaVuSans-6c" d="M 603 4863 
L 1178 4863 
L 1178 0 
L 603 0 
L 603 4863 
z
" transform="scale(0.015625)"/>
     </defs>
     <use xlink:href="#DejaVuSans-49"/>
     <use xlink:href="#DejaVuSans-6e" x="29.492188"/>
     <use xlink:href="#DejaVuSans-76" x="92.871094"/>
     <use xlink:href="#DejaVuSans-65" x="152.050781"/>
     <use xlink:href="#DejaVuSans-6e" x="213.574219"/>
     <use xlink:href="#DejaVuSans-74" x="276.953125"/>
     <use xlink:href="#DejaVuSans-6f" x="316.162109"/>
     <use xlink:href="#DejaVuSans-72" x="377.34375"/>
     <use xlink:href="#DejaVuSans-79" x="418.457031"/>
     <use xlink:href="#DejaVuSans-20" x="477.636719"/>
     <use xlink:href="#DejaVuSans-54" x="509.423828"/>
     <use xlink:href="#DejaVuSans-75" x="555.382812"/>
     <use xlink:href="#DejaVuSans-72" x="618.761719"/>
     <use xlink:href="#DejaVuSans-6e" x="658.125"/>
     <use xlink:href="#DejaVuSans-6f" x="721.503906"/>
     <use xlink:href="#DejaVuSans-76" x="782.685547"/>
     <use xlink:href="#DejaVuSans-65" x="841.865234"/>
     <use xlink:href="#DejaVuSans-72" x="903.388672"/>
     <use xlink:href="#DejaVuSans-20" x="944.501953"/>
     <use xlink:href="#DejaVuSans-42" x="976.289062"/>
     <use xlink:href="#DejaVuSans-6f" x="1044.892578"/>
     <use xlink:href="#DejaVuSans-78" x="1102.949219"/>
     <use xlink:href="#DejaVuSans-20" x="1162.128906"/>
     <use xlink:href="#DejaVuSans-50" x="1193.916016"/>
     <use xlink:href="#DejaVuSans-6c" x="1254.21875"/>
     <use xlink:href="#DejaVuSans-6f" x="1282.001953"/>
     <use xlink:href="#DejaVuSans-74" x="1343.183594"/>
    </g>
   </g>
  </g>
 </g>
 <defs>
  <clipPath id="pcc55e1adf9">
   <rect x="38.95" y="25.44" width="382.25" height="320.26"/>
  </clipPath>
 </defs>
</svg>
