<?xml version="1.0" encoding="utf-8" standalone="no"?>
<!DOCTYPE svg PUBLIC "-//W3C//DTD SVG 1.1//EN"
  "http://www.w3.org/Graphics/SVG/1.1/DTD/svg11.dtd">
<svg xmlns:xlink="http://www.w3.org/1999/xlink" width="648pt" height="360pt" viewBox="0 0 648 360" xmlns="http://www.w3.org/2000/svg" version="1.1">
 <metadata>
  <rdf:RDF xmlns:dc="http://purl.org/dc/elements/1.1/" xmlns:cc="http://creativecommons.org/ns#" xmlns:rdf="http://www.w3.org/1999/02/22-rdf-syntax-ns#">
   <cc:Work>
    <dc:type rdf:resource="http://purl.org/dc/dcmitype/StillImage"/>
    <dc:date>2025-06-14T12:15:44.146165</dc:date>
    <dc:format>image/svg+xml</dc:format>
    <dc:creator>
     <cc:Agent>
      <dc:title>Matplotlib v3.9.2, https://matplotlib.org/</dc:title>
     </cc:Agent>
    </dc:creator>
   </cc:Work>
  </rdf:RDF>
 </metadata>
 <defs>
  <style type="text/css">*{stroke-linejoin: round; stroke-linecap: butt}</style>
 </defs>
 <g id="figure_1">
  <g id="patch_1">
   <path d="M 0 360 
L 648 360 
L 648 0 
L 0 0 
z
" style="fill: #d9d9d9"/>
  </g>
  <g id="axes_1">
   <g id="patch_2">
    <path d="M 60.59 318.04 
L 637.2 318.04 
L 637.2 25.44 
L 60.59 25.44 
z
" style="fill: #d9d9d9"/>
   </g>
   <g id="PolyCollection_1">
    <defs>
     <path id="mc3463aada6" d="M 86.799545 -41.96143 
L 86.799545 -41.96 
L 89.433671 -41.96 
L 92.067796 -41.96 
L 94.701921 -41.96 
L 97.336046 -41.96 
L 99.970171 -41.96 
L 102.604296 -41.96 
L 105.238422 -41.96 
L 107.872547 -41.96 
L 110.506672 -41.96 
L 113.140797 -41.96 
L 115.774922 -41.96 
L 118.409048 -41.96 
L 121.043173 -41.96 
L 123.677298 -41.96 
L 126.311423 -41.96 
L 128.945548 -41.96 
L 131.579673 -41.96 
L 134.213799 -41.96 
L 136.847924 -41.96 
L 139.482049 -41.96 
L 142.116174 -41.96 
L 144.750299 -41.96 
L 147.384424 -41.96 
L 150.01855 -41.96 
L 152.652675 -41.96 
L 155.2868 -41.96 
L 157.920925 -41.96 
L 160.55505 -41.96 
L 163.189175 -41.96 
L 165.823301 -41.96 
L 168.457426 -41.96 
L 171.091551 -41.96 
L 173.725676 -41.96 
L 176.359801 -41.96 
L 178.993926 -41.96 
L 181.628052 -41.96 
L 184.262177 -41.96 
L 186.896302 -41.96 
L 189.530427 -41.96 
L 192.164552 -41.96 
L 194.798677 -41.96 
L 197.432803 -41.96 
L 200.066928 -41.96 
L 202.701053 -41.96 
L 205.335178 -41.96 
L 207.969303 -41.96 
L 210.603429 -41.96 
L 213.237554 -41.96 
L 215.871679 -41.96 
L 218.505804 -41.96 
L 221.139929 -41.96 
L 223.774054 -41.96 
L 226.40818 -41.96 
L 229.042305 -41.96 
L 231.67643 -41.96 
L 234.310555 -41.96 
L 236.94468 -41.96 
L 239.578805 -41.96 
L 242.212931 -41.96 
L 244.847056 -41.96 
L 247.481181 -41.96 
L 250.115306 -41.96 
L 252.749431 -41.96 
L 255.383556 -41.96 
L 258.017682 -41.96 
L 260.651807 -41.96 
L 263.285932 -41.96 
L 265.920057 -41.96 
L 268.554182 -41.96 
L 271.188307 -41.96 
L 273.822433 -41.96 
L 276.456558 -41.96 
L 279.090683 -41.96 
L 281.724808 -41.96 
L 284.358933 -41.96 
L 286.993058 -41.96 
L 289.627184 -41.96 
L 292.261309 -41.96 
L 294.895434 -41.96 
L 297.529559 -41.96 
L 300.163684 -41.96 
L 302.79781 -41.96 
L 305.431935 -41.96 
L 308.06606 -41.96 
L 310.700185 -41.96 
L 313.33431 -41.96 
L 315.968435 -41.96 
L 318.602561 -41.96 
L 321.236686 -41.96 
L 323.870811 -41.96 
L 326.504936 -41.96 
L 329.139061 -41.96 
L 331.773186 -41.96 
L 334.407312 -41.96 
L 337.041437 -41.96 
L 339.675562 -41.96 
L 342.309687 -41.96 
L 344.943812 -41.96 
L 347.577937 -41.96 
L 350.212063 -41.96 
L 352.846188 -41.96 
L 355.480313 -41.96 
L 358.114438 -41.96 
L 360.748563 -41.96 
L 363.382688 -41.96 
L 366.016814 -41.96 
L 368.650939 -41.96 
L 371.285064 -41.96 
L 373.919189 -41.96 
L 376.553314 -41.96 
L 379.187439 -41.96 
L 381.821565 -41.96 
L 384.45569 -41.96 
L 387.089815 -41.96 
L 389.72394 -41.96 
L 392.358065 -41.96 
L 394.99219 -41.96 
L 397.626316 -41.96 
L 400.260441 -41.96 
L 402.894566 -41.96 
L 405.528691 -41.96 
L 408.162816 -41.96 
L 410.796942 -41.96 
L 413.431067 -41.96 
L 416.065192 -41.96 
L 418.699317 -41.96 
L 421.333442 -41.96 
L 423.967567 -41.96 
L 426.601693 -41.96 
L 429.235818 -41.96 
L 431.869943 -41.96 
L 434.504068 -41.96 
L 437.138193 -41.96 
L 439.772318 -41.96 
L 442.406444 -41.96 
L 445.040569 -41.96 
L 447.674694 -41.96 
L 450.308819 -41.96 
L 452.942944 -41.96 
L 455.577069 -41.96 
L 458.211195 -41.96 
L 460.84532 -41.96 
L 463.479445 -41.96 
L 466.11357 -41.96 
L 468.747695 -41.96 
L 471.38182 -41.96 
L 474.015946 -41.96 
L 476.650071 -41.96 
L 479.284196 -41.96 
L 481.918321 -41.96 
L 484.552446 -41.96 
L 487.186571 -41.96 
L 489.820697 -41.96 
L 492.454822 -41.96 
L 495.088947 -41.96 
L 497.723072 -41.96 
L 500.357197 -41.96 
L 502.991323 -41.96 
L 505.625448 -41.96 
L 508.259573 -41.96 
L 510.893698 -41.96 
L 513.527823 -41.96 
L 516.161948 -41.96 
L 518.796074 -41.96 
L 521.430199 -41.96 
L 524.064324 -41.96 
L 526.698449 -41.96 
L 529.332574 -41.96 
L 531.966699 -41.96 
L 534.600825 -41.96 
L 537.23495 -41.96 
L 539.869075 -41.96 
L 542.5032 -41.96 
L 545.137325 -41.96 
L 547.77145 -41.96 
L 550.405576 -41.96 
L 553.039701 -41.96 
L 555.673826 -41.96 
L 558.307951 -41.96 
L 560.942076 -41.96 
L 563.576201 -41.96 
L 566.210327 -41.96 
L 568.844452 -41.96 
L 571.478577 -41.96 
L 574.112702 -41.96 
L 576.746827 -41.96 
L 579.380952 -41.96 
L 582.015078 -41.96 
L 584.649203 -41.96 
L 587.283328 -41.96 
L 589.917453 -41.96 
L 592.551578 -41.96 
L 595.185704 -41.96 
L 597.819829 -41.96 
L 600.453954 -41.96 
L 603.088079 -41.96 
L 605.722204 -41.96 
L 608.356329 -41.96 
L 610.990455 -41.96 
L 610.990455 -41.96 
L 610.990455 -41.96 
L 608.356329 -41.96 
L 605.722204 -41.96 
L 603.088079 -41.960001 
L 600.453954 -41.960003 
L 597.819829 -41.96001 
L 595.185704 -41.960034 
L 592.551578 -41.960109 
L 589.917453 -41.960332 
L 587.283328 -41.960948 
L 584.649203 -41.962558 
L 582.015078 -41.966504 
L 579.380952 -41.975598 
L 576.746827 -41.995287 
L 574.112702 -42.03531 
L 571.478577 -42.111647 
L 568.844452 -42.248156 
L 566.210327 -42.476783 
L 563.576201 -42.83489 
L 560.942076 -43.358505 
L 558.307951 -44.071413 
L 555.673826 -44.972135 
L 553.039701 -46.023248 
L 550.405576 -47.148954 
L 547.77145 -48.245977 
L 545.137325 -49.209071 
L 542.5032 -49.966514 
L 539.869075 -50.515192 
L 537.23495 -50.942104 
L 534.600825 -51.421248 
L 531.966699 -52.181918 
L 529.332574 -53.454224 
L 526.698449 -55.406756 
L 524.064324 -58.096274 
L 521.430199 -61.447866 
L 518.796074 -65.275624 
L 516.161948 -69.340631 
L 513.527823 -73.428922 
L 510.893698 -77.422848 
L 508.259573 -81.339571 
L 505.625448 -85.321849 
L 502.991323 -89.584765 
L 500.357197 -94.339703 
L 497.723072 -99.725158 
L 495.088947 -105.768772 
L 492.454822 -112.389566 
L 489.820697 -119.432159 
L 487.186571 -126.714644 
L 484.552446 -134.072359 
L 481.918321 -141.387647 
L 479.284196 -148.603912 
L 476.650071 -155.725779 
L 474.015946 -162.806174 
L 471.38182 -169.920228 
L 468.747695 -177.128862 
L 466.11357 -184.441148 
L 463.479445 -191.789222 
L 460.84532 -199.027767 
L 458.211195 -205.96142 
L 455.577069 -212.392659 
L 452.942944 -218.175912 
L 450.308819 -223.26363 
L 447.674694 -227.734645 
L 445.040569 -231.79952 
L 442.406444 -235.779538 
L 439.772318 -240.057772 
L 437.138193 -245.00629 
L 434.504068 -250.903765 
L 431.869943 -257.867066 
L 429.235818 -265.820527 
L 426.601693 -274.513438 
L 423.967567 -283.574858 
L 421.333442 -292.577352 
L 418.699317 -301.079053 
L 416.065192 -308.629356 
L 413.431067 -314.749652 
L 410.796942 -318.922415 
L 408.162816 -320.626667 
L 405.528691 -319.439669 
L 402.894566 -315.1888 
L 400.260441 -308.099618 
L 397.626316 -298.866572 
L 394.99219 -288.587293 
L 392.358065 -278.549595 
L 389.72394 -269.922945 
L 387.089815 -263.452836 
L 384.45569 -259.263106 
L 381.821565 -256.834005 
L 379.187439 -255.161026 
L 376.553314 -253.040282 
L 373.919189 -249.3932 
L 371.285064 -243.54307 
L 368.650939 -235.380008 
L 366.016814 -225.384759 
L 363.382688 -214.514685 
L 360.748563 -203.982841 
L 358.114438 -194.98218 
L 355.480313 -188.419205 
L 352.846188 -184.720144 
L 350.212063 -183.7549 
L 347.577937 -184.892133 
L 344.943812 -187.162812 
L 342.309687 -189.481782 
L 339.675562 -190.866684 
L 337.041437 -190.602493 
L 334.407312 -188.322407 
L 331.773186 -184.002585 
L 329.139061 -177.890641 
L 326.504936 -170.400487 
L 323.870811 -162.007447 
L 321.236686 -153.169039 
L 318.602561 -144.282584 
L 315.968435 -135.676028 
L 313.33431 -127.618193 
L 310.700185 -120.332008 
L 308.06606 -113.998578 
L 305.431935 -108.747929 
L 302.79781 -104.639626 
L 300.163684 -101.640539 
L 297.529559 -99.608064 
L 294.895434 -98.286489 
L 292.261309 -97.323225 
L 289.627184 -96.309126 
L 286.993058 -94.841431 
L 284.358933 -92.598792 
L 281.724808 -89.409173 
L 279.090683 -85.288727 
L 276.456558 -80.437083 
L 273.822433 -75.189639 
L 271.188307 -69.943174 
L 268.554182 -65.078902 
L 265.920057 -60.903424 
L 263.285932 -57.616405 
L 260.651807 -55.301929 
L 258.017682 -53.934847 
L 255.383556 -53.395184 
L 252.749431 -53.488817 
L 250.115306 -53.975961 
L 247.481181 -54.607551 
L 244.847056 -55.164838 
L 242.212931 -55.493196 
L 239.578805 -55.520777 
L 236.94468 -55.25706 
L 234.310555 -54.77322 
L 231.67643 -54.1721 
L 229.042305 -53.557624 
L 226.40818 -53.011595 
L 223.774054 -52.581759 
L 221.139929 -52.281201 
L 218.505804 -52.096979 
L 215.871679 -52.005031 
L 213.237554 -51.987669 
L 210.603429 -52.048772 
L 207.969303 -52.220701 
L 205.335178 -52.557696 
L 202.701053 -53.114326 
L 200.066928 -53.914095 
L 197.432803 -54.919763 
L 194.798677 -56.019559 
L 192.164552 -57.039557 
L 189.530427 -57.78265 
L 186.896302 -58.083023 
L 184.262177 -57.857544 
L 181.628052 -57.135828 
L 178.993926 -56.058569 
L 176.359801 -54.845016 
L 173.725676 -53.740069 
L 171.091551 -52.956253 
L 168.457426 -52.625617 
L 165.823301 -52.772949 
L 163.189175 -53.3162 
L 160.55505 -54.093497 
L 157.920925 -54.909194 
L 155.2868 -55.585607 
L 152.652675 -56.00469 
L 150.01855 -56.126837 
L 147.384424 -55.982033 
L 144.750299 -55.63892 
L 142.116174 -55.165677 
L 139.482049 -54.599165 
L 136.847924 -53.934259 
L 134.213799 -53.135836 
L 131.579673 -52.165828 
L 128.945548 -51.011769 
L 126.311423 -49.703828 
L 123.677298 -48.313737 
L 121.043173 -46.937565 
L 118.409048 -45.670845 
L 115.774922 -44.586299 
L 113.140797 -43.72146 
L 110.506672 -43.078184 
L 107.872547 -42.631228 
L 105.238422 -42.340761 
L 102.604296 -42.164005 
L 99.970171 -42.063197 
L 97.336046 -42.009272 
L 94.701921 -41.982199 
L 92.067796 -41.969435 
L 89.433671 -41.963783 
L 86.799545 -41.96143 
z
" style="stroke: #6688aa"/>
    </defs>
    <g clip-path="url(#p6a75da6ca1)">
     <use xlink:href="#mc3463aada6" x="0" y="360" style="fill: #6688aa; fill-opacity: 0.25; stroke: #6688aa"/>
    </g>
   </g>
   <g id="matplotlib.axis_1">
    <g id="xtick_1">
     <g id="line2d_1">
      <path d="M 179.374511 318.04 
L 179.374511 25.44 
" clip-path="url(#p6a75da6ca1)" style="fill: none; stroke: #cfcfcf; stroke-width: 0.8; stroke-linecap: square"/>
     </g>
     <g id="line2d_2">
      <defs>
       <path id="m6760b497f1" d="M 0 0 
L 0 3.5 
" style="stroke: #000000; stroke-width: 0.8"/>
      </defs>
      <g>
       <use xlink:href="#m6760b497f1" x="179.374511" y="318.04" style="stroke: #000000; stroke-width: 0.8"/>
      </g>
     </g>
     <g id="text_1">
      <!-- 15 -->
      <g transform="translate(173.012011 332.638438) scale(0.1 -0.1)">
       <defs>
        <path id="DejaVuSans-31" d="M 794 531 
L 1825 531 
L 1825 4091 
L 703 3866 
L 703 4441 
L 1819 4666 
L 2450 4666 
L 2450 531 
L 3481 531 
L 3481 0 
L 794 0 
L 794 531 
z
" transform="scale(0.015625)"/>
        <path id="DejaVuSans-35" d="M 691 4666 
L 3169 4666 
L 3169 4134 
L 1269 4134 
L 1269 2991 
Q 1406 3038 1543 3061 
Q 1681 3084 1819 3084 
Q 2600 3084 3056 2656 
Q 3513 2228 3513 1497 
Q 3513 744 3044 326 
Q 2575 -91 1722 -91 
Q 1428 -91 1123 -41 
Q 819 9 494 109 
L 494 744 
Q 775 591 1075 516 
Q 1375 441 1709 441 
Q 2250 441 2565 725 
Q 2881 1009 2881 1497 
Q 2881 1984 2565 2268 
Q 2250 2553 1709 2553 
Q 1456 2553 1204 2497 
Q 953 2441 691 2322 
L 691 4666 
z
" transform="scale(0.015625)"/>
       </defs>
       <use xlink:href="#DejaVuSans-31"/>
       <use xlink:href="#DejaVuSans-35" x="63.623047"/>
      </g>
     </g>
    </g>
    <g id="xtick_2">
     <g id="line2d_3">
      <path d="M 302.215445 318.04 
L 302.215445 25.44 
" clip-path="url(#p6a75da6ca1)" style="fill: none; stroke: #cfcfcf; stroke-width: 0.8; stroke-linecap: square"/>
     </g>
     <g id="line2d_4">
      <g>
       <use xlink:href="#m6760b497f1" x="302.215445" y="318.04" style="stroke: #000000; stroke-width: 0.8"/>
      </g>
     </g>
     <g id="text_2">
      <!-- 20 -->
      <g transform="translate(295.852945 332.638438) scale(0.1 -0.1)">
       <defs>
        <path id="DejaVuSans-32" d="M 1228 531 
L 3431 531 
L 3431 0 
L 469 0 
L 469 531 
Q 828 903 1448 1529 
Q 2069 2156 2228 2338 
Q 2531 2678 2651 2914 
Q 2772 3150 2772 3378 
Q 2772 3750 2511 3984 
Q 2250 4219 1831 4219 
Q 1534 4219 1204 4116 
Q 875 4013 500 3803 
L 500 4441 
Q 881 4594 1212 4672 
Q 1544 4750 1819 4750 
Q 2544 4750 2975 4387 
Q 3406 4025 3406 3419 
Q 3406 3131 3298 2873 
Q 3191 2616 2906 2266 
Q 2828 2175 2409 1742 
Q 1991 1309 1228 531 
z
" transform="scale(0.015625)"/>
        <path id="DejaVuSans-30" d="M 2034 4250 
Q 1547 4250 1301 3770 
Q 1056 3291 1056 2328 
Q 1056 1369 1301 889 
Q 1547 409 2034 409 
Q 2525 409 2770 889 
Q 3016 1369 3016 2328 
Q 3016 3291 2770 3770 
Q 2525 4250 2034 4250 
z
M 2034 4750 
Q 2819 4750 3233 4129 
Q 3647 3509 3647 2328 
Q 3647 1150 3233 529 
Q 2819 -91 2034 -91 
Q 1250 -91 836 529 
Q 422 1150 422 2328 
Q 422 3509 836 4129 
Q 1250 4750 2034 4750 
z
" transform="scale(0.015625)"/>
       </defs>
       <use xlink:href="#DejaVuSans-32"/>
       <use xlink:href="#DejaVuSans-30" x="63.623047"/>
      </g>
     </g>
    </g>
    <g id="xtick_3">
     <g id="line2d_5">
      <path d="M 425.056379 318.04 
L 425.056379 25.44 
" clip-path="url(#p6a75da6ca1)" style="fill: none; stroke: #cfcfcf; stroke-width: 0.8; stroke-linecap: square"/>
     </g>
     <g id="line2d_6">
      <g>
       <use xlink:href="#m6760b497f1" x="425.056379" y="318.04" style="stroke: #000000; stroke-width: 0.8"/>
      </g>
     </g>
     <g id="text_3">
      <!-- 25 -->
      <g transform="translate(418.693879 332.638438) scale(0.1 -0.1)">
       <use xlink:href="#DejaVuSans-32"/>
       <use xlink:href="#DejaVuSans-35" x="63.623047"/>
      </g>
     </g>
    </g>
    <g id="xtick_4">
     <g id="line2d_7">
      <path d="M 547.897313 318.04 
L 547.897313 25.44 
" clip-path="url(#p6a75da6ca1)" style="fill: none; stroke: #cfcfcf; stroke-width: 0.8; stroke-linecap: square"/>
     </g>
     <g id="line2d_8">
      <g>
       <use xlink:href="#m6760b497f1" x="547.897313" y="318.04" style="stroke: #000000; stroke-width: 0.8"/>
      </g>
     </g>
     <g id="text_4">
      <!-- 30 -->
      <g transform="translate(541.534813 332.638438) scale(0.1 -0.1)">
       <defs>
        <path id="DejaVuSans-33" d="M 2597 2516 
Q 3050 2419 3304 2112 
Q 3559 1806 3559 1356 
Q 3559 666 3084 287 
Q 2609 -91 1734 -91 
Q 1441 -91 1130 -33 
Q 819 25 488 141 
L 488 750 
Q 750 597 1062 519 
Q 1375 441 1716 441 
Q 2309 441 2620 675 
Q 2931 909 2931 1356 
Q 2931 1769 2642 2001 
Q 2353 2234 1838 2234 
L 1294 2234 
L 1294 2753 
L 1863 2753 
Q 2328 2753 2575 2939 
Q 2822 3125 2822 3475 
Q 2822 3834 2567 4026 
Q 2313 4219 1838 4219 
Q 1578 4219 1281 4162 
Q 984 4106 628 3988 
L 628 4550 
Q 988 4650 1302 4700 
Q 1616 4750 1894 4750 
Q 2613 4750 3031 4423 
Q 3450 4097 3450 3541 
Q 3450 3153 3228 2886 
Q 3006 2619 2597 2516 
z
" transform="scale(0.015625)"/>
       </defs>
       <use xlink:href="#DejaVuSans-33"/>
       <use xlink:href="#DejaVuSans-30" x="63.623047"/>
      </g>
     </g>
    </g>
    <g id="text_5">
     <!-- Average Temperature -->
     <g transform="translate(295.103594 346.316563) scale(0.1 -0.1)">
      <defs>
       <path id="DejaVuSans-41" d="M 2188 4044 
L 1331 1722 
L 3047 1722 
L 2188 4044 
z
M 1831 4666 
L 2547 4666 
L 4325 0 
L 3669 0 
L 3244 1197 
L 1141 1197 
L 716 0 
L 50 0 
L 1831 4666 
z
" transform="scale(0.015625)"/>
       <path id="DejaVuSans-76" d="M 191 3500 
L 800 3500 
L 1894 563 
L 2988 3500 
L 3597 3500 
L 2284 0 
L 1503 0 
L 191 3500 
z
" transform="scale(0.015625)"/>
       <path id="DejaVuSans-65" d="M 3597 1894 
L 3597 1613 
L 953 1613 
Q 991 1019 1311 708 
Q 1631 397 2203 397 
Q 2534 397 2845 478 
Q 3156 559 3463 722 
L 3463 178 
Q 3153 47 2828 -22 
Q 2503 -91 2169 -91 
Q 1331 -91 842 396 
Q 353 884 353 1716 
Q 353 2575 817 3079 
Q 1281 3584 2069 3584 
Q 2775 3584 3186 3129 
Q 3597 2675 3597 1894 
z
M 3022 2063 
Q 3016 2534 2758 2815 
Q 2500 3097 2075 3097 
Q 1594 3097 1305 2825 
Q 1016 2553 972 2059 
L 3022 2063 
z
" transform="scale(0.015625)"/>
       <path id="DejaVuSans-72" d="M 2631 2963 
Q 2534 3019 2420 3045 
Q 2306 3072 2169 3072 
Q 1681 3072 1420 2755 
Q 1159 2438 1159 1844 
L 1159 0 
L 581 0 
L 581 3500 
L 1159 3500 
L 1159 2956 
Q 1341 3275 1631 3429 
Q 1922 3584 2338 3584 
Q 2397 3584 2469 3576 
Q 2541 3569 2628 3553 
L 2631 2963 
z
" transform="scale(0.015625)"/>
       <path id="DejaVuSans-61" d="M 2194 1759 
Q 1497 1759 1228 1600 
Q 959 1441 959 1056 
Q 959 750 1161 570 
Q 1363 391 1709 391 
Q 2188 391 2477 730 
Q 2766 1069 2766 1631 
L 2766 1759 
L 2194 1759 
z
M 3341 1997 
L 3341 0 
L 2766 0 
L 2766 531 
Q 2569 213 2275 61 
Q 1981 -91 1556 -91 
Q 1019 -91 701 211 
Q 384 513 384 1019 
Q 384 1609 779 1909 
Q 1175 2209 1959 2209 
L 2766 2209 
L 2766 2266 
Q 2766 2663 2505 2880 
Q 2244 3097 1772 3097 
Q 1472 3097 1187 3025 
Q 903 2953 641 2809 
L 641 3341 
Q 956 3463 1253 3523 
Q 1550 3584 1831 3584 
Q 2591 3584 2966 3190 
Q 3341 2797 3341 1997 
z
" transform="scale(0.015625)"/>
       <path id="DejaVuSans-67" d="M 2906 1791 
Q 2906 2416 2648 2759 
Q 2391 3103 1925 3103 
Q 1463 3103 1205 2759 
Q 947 2416 947 1791 
Q 947 1169 1205 825 
Q 1463 481 1925 481 
Q 2391 481 2648 825 
Q 2906 1169 2906 1791 
z
M 3481 434 
Q 3481 -459 3084 -895 
Q 2688 -1331 1869 -1331 
Q 1566 -1331 1297 -1286 
Q 1028 -1241 775 -1147 
L 775 -588 
Q 1028 -725 1275 -790 
Q 1522 -856 1778 -856 
Q 2344 -856 2625 -561 
Q 2906 -266 2906 331 
L 2906 616 
Q 2728 306 2450 153 
Q 2172 0 1784 0 
Q 1141 0 747 490 
Q 353 981 353 1791 
Q 353 2603 747 3093 
Q 1141 3584 1784 3584 
Q 2172 3584 2450 3431 
Q 2728 3278 2906 2969 
L 2906 3500 
L 3481 3500 
L 3481 434 
z
" transform="scale(0.015625)"/>
       <path id="DejaVuSans-20" transform="scale(0.015625)"/>
       <path id="DejaVuSans-54" d="M -19 4666 
L 3928 4666 
L 3928 4134 
L 2272 4134 
L 2272 0 
L 1638 0 
L 1638 4134 
L -19 4134 
L -19 4666 
z
" transform="scale(0.015625)"/>
       <path id="DejaVuSans-6d" d="M 3328 2828 
Q 3544 3216 3844 3400 
Q 4144 3584 4550 3584 
Q 5097 3584 5394 3201 
Q 5691 2819 5691 2113 
L 5691 0 
L 5113 0 
L 5113 2094 
Q 5113 2597 4934 2840 
Q 4756 3084 4391 3084 
Q 3944 3084 3684 2787 
Q 3425 2491 3425 1978 
L 3425 0 
L 2847 0 
L 2847 2094 
Q 2847 2600 2669 2842 
Q 2491 3084 2119 3084 
Q 1678 3084 1418 2786 
Q 1159 2488 1159 1978 
L 1159 0 
L 581 0 
L 581 3500 
L 1159 3500 
L 1159 2956 
Q 1356 3278 1631 3431 
Q 1906 3584 2284 3584 
Q 2666 3584 2933 3390 
Q 3200 3197 3328 2828 
z
" transform="scale(0.015625)"/>
       <path id="DejaVuSans-70" d="M 1159 525 
L 1159 -1331 
L 581 -1331 
L 581 3500 
L 1159 3500 
L 1159 2969 
Q 1341 3281 1617 3432 
Q 1894 3584 2278 3584 
Q 2916 3584 3314 3078 
Q 3713 2572 3713 1747 
Q 3713 922 3314 415 
Q 2916 -91 2278 -91 
Q 1894 -91 1617 61 
Q 1341 213 1159 525 
z
M 3116 1747 
Q 3116 2381 2855 2742 
Q 2594 3103 2138 3103 
Q 1681 3103 1420 2742 
Q 1159 2381 1159 1747 
Q 1159 1113 1420 752 
Q 1681 391 2138 391 
Q 2594 391 2855 752 
Q 3116 1113 3116 1747 
z
" transform="scale(0.015625)"/>
       <path id="DejaVuSans-74" d="M 1172 4494 
L 1172 3500 
L 2356 3500 
L 2356 3053 
L 1172 3053 
L 1172 1153 
Q 1172 725 1289 603 
Q 1406 481 1766 481 
L 2356 481 
L 2356 0 
L 1766 0 
Q 1100 0 847 248 
Q 594 497 594 1153 
L 594 3053 
L 172 3053 
L 172 3500 
L 594 3500 
L 594 4494 
L 1172 4494 
z
" transform="scale(0.015625)"/>
       <path id="DejaVuSans-75" d="M 544 1381 
L 544 3500 
L 1119 3500 
L 1119 1403 
Q 1119 906 1312 657 
Q 1506 409 1894 409 
Q 2359 409 2629 706 
Q 2900 1003 2900 1516 
L 2900 3500 
L 3475 3500 
L 3475 0 
L 2900 0 
L 2900 538 
Q 2691 219 2414 64 
Q 2138 -91 1772 -91 
Q 1169 -91 856 284 
Q 544 659 544 1381 
z
M 1991 3584 
L 1991 3584 
z
" transform="scale(0.015625)"/>
      </defs>
      <use xlink:href="#DejaVuSans-41"/>
      <use xlink:href="#DejaVuSans-76" x="62.533203"/>
      <use xlink:href="#DejaVuSans-65" x="121.712891"/>
      <use xlink:href="#DejaVuSans-72" x="183.236328"/>
      <use xlink:href="#DejaVuSans-61" x="224.349609"/>
      <use xlink:href="#DejaVuSans-67" x="285.628906"/>
      <use xlink:href="#DejaVuSans-65" x="349.105469"/>
      <use xlink:href="#DejaVuSans-20" x="410.628906"/>
      <use xlink:href="#DejaVuSans-54" x="442.416016"/>
      <use xlink:href="#DejaVuSans-65" x="486.5"/>
      <use xlink:href="#DejaVuSans-6d" x="548.023438"/>
      <use xlink:href="#DejaVuSans-70" x="645.435547"/>
      <use xlink:href="#DejaVuSans-65" x="708.912109"/>
      <use xlink:href="#DejaVuSans-72" x="770.435547"/>
      <use xlink:href="#DejaVuSans-61" x="811.548828"/>
      <use xlink:href="#DejaVuSans-74" x="872.828125"/>
      <use xlink:href="#DejaVuSans-75" x="912.037109"/>
      <use xlink:href="#DejaVuSans-72" x="975.416016"/>
      <use xlink:href="#DejaVuSans-65" x="1014.279297"/>
     </g>
    </g>
   </g>
   <g id="matplotlib.axis_2">
    <g id="ytick_1">
     <g id="line2d_9">
      <path d="M 60.59 318.04 
L 637.2 318.04 
" clip-path="url(#p6a75da6ca1)" style="fill: none; stroke: #cfcfcf; stroke-width: 0.8; stroke-linecap: square"/>
     </g>
     <g id="line2d_10">
      <defs>
       <path id="m1eb4fefc27" d="M 0 0 
L -3.5 0 
" style="stroke: #000000; stroke-width: 0.8"/>
      </defs>
      <g>
       <use xlink:href="#m1eb4fefc27" x="60.59" y="318.04" style="stroke: #000000; stroke-width: 0.8"/>
      </g>
     </g>
     <g id="text_6">
      <!-- 0.000 -->
      <g transform="translate(24.961875 321.839219) scale(0.1 -0.1)">
       <defs>
        <path id="DejaVuSans-2e" d="M 684 794 
L 1344 794 
L 1344 0 
L 684 0 
L 684 794 
z
" transform="scale(0.015625)"/>
       </defs>
       <use xlink:href="#DejaVuSans-30"/>
       <use xlink:href="#DejaVuSans-2e" x="63.623047"/>
       <use xlink:href="#DejaVuSans-30" x="95.410156"/>
       <use xlink:href="#DejaVuSans-30" x="159.033203"/>
       <use xlink:href="#DejaVuSans-30" x="222.65625"/>
      </g>
     </g>
    </g>
    <g id="ytick_2">
     <g id="line2d_11">
      <path d="M 60.59 279.527128 
L 637.2 279.527128 
" clip-path="url(#p6a75da6ca1)" style="fill: none; stroke: #cfcfcf; stroke-width: 0.8; stroke-linecap: square"/>
     </g>
     <g id="line2d_12">
      <g>
       <use xlink:href="#m1eb4fefc27" x="60.59" y="279.527128" style="stroke: #000000; stroke-width: 0.8"/>
      </g>
     </g>
     <g id="text_7">
      <!-- 0.025 -->
      <g transform="translate(24.961875 283.326347) scale(0.1 -0.1)">
       <use xlink:href="#DejaVuSans-30"/>
       <use xlink:href="#DejaVuSans-2e" x="63.623047"/>
       <use xlink:href="#DejaVuSans-30" x="95.410156"/>
       <use xlink:href="#DejaVuSans-32" x="159.033203"/>
       <use xlink:href="#DejaVuSans-35" x="222.65625"/>
      </g>
     </g>
    </g>
    <g id="ytick_3">
     <g id="line2d_13">
      <path d="M 60.59 241.014256 
L 637.2 241.014256 
" clip-path="url(#p6a75da6ca1)" style="fill: none; stroke: #cfcfcf; stroke-width: 0.8; stroke-linecap: square"/>
     </g>
     <g id="line2d_14">
      <g>
       <use xlink:href="#m1eb4fefc27" x="60.59" y="241.014256" style="stroke: #000000; stroke-width: 0.8"/>
      </g>
     </g>
     <g id="text_8">
      <!-- 0.050 -->
      <g transform="translate(24.961875 244.813475) scale(0.1 -0.1)">
       <use xlink:href="#DejaVuSans-30"/>
       <use xlink:href="#DejaVuSans-2e" x="63.623047"/>
       <use xlink:href="#DejaVuSans-30" x="95.410156"/>
       <use xlink:href="#DejaVuSans-35" x="159.033203"/>
       <use xlink:href="#DejaVuSans-30" x="222.65625"/>
      </g>
     </g>
    </g>
    <g id="ytick_4">
     <g id="line2d_15">
      <path d="M 60.59 202.501384 
L 637.2 202.501384 
" clip-path="url(#p6a75da6ca1)" style="fill: none; stroke: #cfcfcf; stroke-width: 0.8; stroke-linecap: square"/>
     </g>
     <g id="line2d_16">
      <g>
       <use xlink:href="#m1eb4fefc27" x="60.59" y="202.501384" style="stroke: #000000; stroke-width: 0.8"/>
      </g>
     </g>
     <g id="text_9">
      <!-- 0.075 -->
      <g transform="translate(24.961875 206.300603) scale(0.1 -0.1)">
       <defs>
        <path id="DejaVuSans-37" d="M 525 4666 
L 3525 4666 
L 3525 4397 
L 1831 0 
L 1172 0 
L 2766 4134 
L 525 4134 
L 525 4666 
z
" transform="scale(0.015625)"/>
       </defs>
       <use xlink:href="#DejaVuSans-30"/>
       <use xlink:href="#DejaVuSans-2e" x="63.623047"/>
       <use xlink:href="#DejaVuSans-30" x="95.410156"/>
       <use xlink:href="#DejaVuSans-37" x="159.033203"/>
       <use xlink:href="#DejaVuSans-35" x="222.65625"/>
      </g>
     </g>
    </g>
    <g id="ytick_5">
     <g id="line2d_17">
      <path d="M 60.59 163.988512 
L 637.2 163.988512 
" clip-path="url(#p6a75da6ca1)" style="fill: none; stroke: #cfcfcf; stroke-width: 0.8; stroke-linecap: square"/>
     </g>
     <g id="line2d_18">
      <g>
       <use xlink:href="#m1eb4fefc27" x="60.59" y="163.988512" style="stroke: #000000; stroke-width: 0.8"/>
      </g>
     </g>
     <g id="text_10">
      <!-- 0.100 -->
      <g transform="translate(24.961875 167.787731) scale(0.1 -0.1)">
       <use xlink:href="#DejaVuSans-30"/>
       <use xlink:href="#DejaVuSans-2e" x="63.623047"/>
       <use xlink:href="#DejaVuSans-31" x="95.410156"/>
       <use xlink:href="#DejaVuSans-30" x="159.033203"/>
       <use xlink:href="#DejaVuSans-30" x="222.65625"/>
      </g>
     </g>
    </g>
    <g id="ytick_6">
     <g id="line2d_19">
      <path d="M 60.59 125.47564 
L 637.2 125.47564 
" clip-path="url(#p6a75da6ca1)" style="fill: none; stroke: #cfcfcf; stroke-width: 0.8; stroke-linecap: square"/>
     </g>
     <g id="line2d_20">
      <g>
       <use xlink:href="#m1eb4fefc27" x="60.59" y="125.47564" style="stroke: #000000; stroke-width: 0.8"/>
      </g>
     </g>
     <g id="text_11">
      <!-- 0.125 -->
      <g transform="translate(24.961875 129.274859) scale(0.1 -0.1)">
       <use xlink:href="#DejaVuSans-30"/>
       <use xlink:href="#DejaVuSans-2e" x="63.623047"/>
       <use xlink:href="#DejaVuSans-31" x="95.410156"/>
       <use xlink:href="#DejaVuSans-32" x="159.033203"/>
       <use xlink:href="#DejaVuSans-35" x="222.65625"/>
      </g>
     </g>
    </g>
    <g id="ytick_7">
     <g id="line2d_21">
      <path d="M 60.59 86.962768 
L 637.2 86.962768 
" clip-path="url(#p6a75da6ca1)" style="fill: none; stroke: #cfcfcf; stroke-width: 0.8; stroke-linecap: square"/>
     </g>
     <g id="line2d_22">
      <g>
       <use xlink:href="#m1eb4fefc27" x="60.59" y="86.962768" style="stroke: #000000; stroke-width: 0.8"/>
      </g>
     </g>
     <g id="text_12">
      <!-- 0.150 -->
      <g transform="translate(24.961875 90.761987) scale(0.1 -0.1)">
       <use xlink:href="#DejaVuSans-30"/>
       <use xlink:href="#DejaVuSans-2e" x="63.623047"/>
       <use xlink:href="#DejaVuSans-31" x="95.410156"/>
       <use xlink:href="#DejaVuSans-35" x="159.033203"/>
       <use xlink:href="#DejaVuSans-30" x="222.65625"/>
      </g>
     </g>
    </g>
    <g id="ytick_8">
     <g id="line2d_23">
      <path d="M 60.59 48.449896 
L 637.2 48.449896 
" clip-path="url(#p6a75da6ca1)" style="fill: none; stroke: #cfcfcf; stroke-width: 0.8; stroke-linecap: square"/>
     </g>
     <g id="line2d_24">
      <g>
       <use xlink:href="#m1eb4fefc27" x="60.59" y="48.449896" style="stroke: #000000; stroke-width: 0.8"/>
      </g>
     </g>
     <g id="text_13">
      <!-- 0.175 -->
      <g transform="translate(24.961875 52.249115) scale(0.1 -0.1)">
       <use xlink:href="#DejaVuSans-30"/>
       <use xlink:href="#DejaVuSans-2e" x="63.623047"/>
       <use xlink:href="#DejaVuSans-31" x="95.410156"/>
       <use xlink:href="#DejaVuSans-37" x="159.033203"/>
       <use xlink:href="#DejaVuSans-35" x="222.65625"/>
      </g>
     </g>
    </g>
    <g id="text_14">
     <!-- Density of Sell Quantity -->
     <g transform="translate(18.882188 230.970469) rotate(-90) scale(0.1 -0.1)">
      <defs>
       <path id="DejaVuSans-44" d="M 1259 4147 
L 1259 519 
L 2022 519 
Q 2988 519 3436 956 
Q 3884 1394 3884 2338 
Q 3884 3275 3436 3711 
Q 2988 4147 2022 4147 
L 1259 4147 
z
M 628 4666 
L 1925 4666 
Q 3281 4666 3915 4102 
Q 4550 3538 4550 2338 
Q 4550 1131 3912 565 
Q 3275 0 1925 0 
L 628 0 
L 628 4666 
z
" transform="scale(0.015625)"/>
       <path id="DejaVuSans-6e" d="M 3513 2113 
L 3513 0 
L 2938 0 
L 2938 2094 
Q 2938 2591 2744 2837 
Q 2550 3084 2163 3084 
Q 1697 3084 1428 2787 
Q 1159 2491 1159 1978 
L 1159 0 
L 581 0 
L 581 3500 
L 1159 3500 
L 1159 2956 
Q 1366 3272 1645 3428 
Q 1925 3584 2291 3584 
Q 2894 3584 3203 3211 
Q 3513 2838 3513 2113 
z
" transform="scale(0.015625)"/>
       <path id="DejaVuSans-73" d="M 2834 3397 
L 2834 2853 
Q 2591 2978 2328 3040 
Q 2066 3103 1784 3103 
Q 1356 3103 1142 2972 
Q 928 2841 928 2578 
Q 928 2378 1081 2264 
Q 1234 2150 1697 2047 
L 1894 2003 
Q 2506 1872 2764 1633 
Q 3022 1394 3022 966 
Q 3022 478 2636 193 
Q 2250 -91 1575 -91 
Q 1294 -91 989 -36 
Q 684 19 347 128 
L 347 722 
Q 666 556 975 473 
Q 1284 391 1588 391 
Q 1994 391 2212 530 
Q 2431 669 2431 922 
Q 2431 1156 2273 1281 
Q 2116 1406 1581 1522 
L 1381 1569 
Q 847 1681 609 1914 
Q 372 2147 372 2553 
Q 372 3047 722 3315 
Q 1072 3584 1716 3584 
Q 2034 3584 2315 3537 
Q 2597 3491 2834 3397 
z
" transform="scale(0.015625)"/>
       <path id="DejaVuSans-69" d="M 603 3500 
L 1178 3500 
L 1178 0 
L 603 0 
L 603 3500 
z
M 603 4863 
L 1178 4863 
L 1178 4134 
L 603 4134 
L 603 4863 
z
" transform="scale(0.015625)"/>
       <path id="DejaVuSans-79" d="M 2059 -325 
Q 1816 -950 1584 -1140 
Q 1353 -1331 966 -1331 
L 506 -1331 
L 506 -850 
L 844 -850 
Q 1081 -850 1212 -737 
Q 1344 -625 1503 -206 
L 1606 56 
L 191 3500 
L 800 3500 
L 1894 763 
L 2988 3500 
L 3597 3500 
L 2059 -325 
z
" transform="scale(0.015625)"/>
       <path id="DejaVuSans-6f" d="M 1959 3097 
Q 1497 3097 1228 2736 
Q 959 2375 959 1747 
Q 959 1119 1226 758 
Q 1494 397 1959 397 
Q 2419 397 2687 759 
Q 2956 1122 2956 1747 
Q 2956 2369 2687 2733 
Q 2419 3097 1959 3097 
z
M 1959 3584 
Q 2709 3584 3137 3096 
Q 3566 2609 3566 1747 
Q 3566 888 3137 398 
Q 2709 -91 1959 -91 
Q 1206 -91 779 398 
Q 353 888 353 1747 
Q 353 2609 779 3096 
Q 1206 3584 1959 3584 
z
" transform="scale(0.015625)"/>
       <path id="DejaVuSans-66" d="M 2375 4863 
L 2375 4384 
L 1825 4384 
Q 1516 4384 1395 4259 
Q 1275 4134 1275 3809 
L 1275 3500 
L 2222 3500 
L 2222 3053 
L 1275 3053 
L 1275 0 
L 697 0 
L 697 3053 
L 147 3053 
L 147 3500 
L 697 3500 
L 697 3744 
Q 697 4328 969 4595 
Q 1241 4863 1831 4863 
L 2375 4863 
z
" transform="scale(0.015625)"/>
       <path id="DejaVuSans-53" d="M 3425 4513 
L 3425 3897 
Q 3066 4069 2747 4153 
Q 2428 4238 2131 4238 
Q 1616 4238 1336 4038 
Q 1056 3838 1056 3469 
Q 1056 3159 1242 3001 
Q 1428 2844 1947 2747 
L 2328 2669 
Q 3034 2534 3370 2195 
Q 3706 1856 3706 1288 
Q 3706 609 3251 259 
Q 2797 -91 1919 -91 
Q 1588 -91 1214 -16 
Q 841 59 441 206 
L 441 856 
Q 825 641 1194 531 
Q 1563 422 1919 422 
Q 2459 422 2753 634 
Q 3047 847 3047 1241 
Q 3047 1584 2836 1778 
Q 2625 1972 2144 2069 
L 1759 2144 
Q 1053 2284 737 2584 
Q 422 2884 422 3419 
Q 422 4038 858 4394 
Q 1294 4750 2059 4750 
Q 2388 4750 2728 4690 
Q 3069 4631 3425 4513 
z
" transform="scale(0.015625)"/>
       <path id="DejaVuSans-6c" d="M 603 4863 
L 1178 4863 
L 1178 0 
L 603 0 
L 603 4863 
z
" transform="scale(0.015625)"/>
       <path id="DejaVuSans-51" d="M 2522 4238 
Q 1834 4238 1429 3725 
Q 1025 3213 1025 2328 
Q 1025 1447 1429 934 
Q 1834 422 2522 422 
Q 3209 422 3611 934 
Q 4013 1447 4013 2328 
Q 4013 3213 3611 3725 
Q 3209 4238 2522 4238 
z
M 3406 84 
L 4238 -825 
L 3475 -825 
L 2784 -78 
Q 2681 -84 2626 -87 
Q 2572 -91 2522 -91 
Q 1538 -91 948 567 
Q 359 1225 359 2328 
Q 359 3434 948 4092 
Q 1538 4750 2522 4750 
Q 3503 4750 4090 4092 
Q 4678 3434 4678 2328 
Q 4678 1516 4351 937 
Q 4025 359 3406 84 
z
" transform="scale(0.015625)"/>
      </defs>
      <use xlink:href="#DejaVuSans-44"/>
      <use xlink:href="#DejaVuSans-65" x="77.001953"/>
      <use xlink:href="#DejaVuSans-6e" x="138.525391"/>
      <use xlink:href="#DejaVuSans-73" x="201.904297"/>
      <use xlink:href="#DejaVuSans-69" x="254.003906"/>
      <use xlink:href="#DejaVuSans-74" x="281.787109"/>
      <use xlink:href="#DejaVuSans-79" x="320.996094"/>
      <use xlink:href="#DejaVuSans-20" x="380.175781"/>
      <use xlink:href="#DejaVuSans-6f" x="411.962891"/>
      <use xlink:href="#DejaVuSans-66" x="473.144531"/>
      <use xlink:href="#DejaVuSans-20" x="508.349609"/>
      <use xlink:href="#DejaVuSans-53" x="540.136719"/>
      <use xlink:href="#DejaVuSans-65" x="603.613281"/>
      <use xlink:href="#DejaVuSans-6c" x="665.136719"/>
      <use xlink:href="#DejaVuSans-6c" x="692.919922"/>
      <use xlink:href="#DejaVuSans-20" x="720.703125"/>
      <use xlink:href="#DejaVuSans-51" x="752.490234"/>
      <use xlink:href="#DejaVuSans-75" x="831.201172"/>
      <use xlink:href="#DejaVuSans-61" x="894.580078"/>
      <use xlink:href="#DejaVuSans-6e" x="955.859375"/>
      <use xlink:href="#DejaVuSans-74" x="1019.238281"/>
      <use xlink:href="#DejaVuSans-69" x="1058.447266"/>
      <use xlink:href="#DejaVuSans-74" x="1086.230469"/>
      <use xlink:href="#DejaVuSans-79" x="1125.439453"/>
     </g>
    </g>
   </g>
   <g id="patch_3">
    <path d="M 60.59 318.04 
L 60.59 25.44 
" style="fill: none; stroke: #000000; stroke-width: 0.8; stroke-linejoin: miter; stroke-linecap: square"/>
   </g>
   <g id="patch_4">
    <path d="M 60.59 318.04 
L 637.2 318.04 
" style="fill: none; stroke: #000000; stroke-width: 0.8; stroke-linejoin: miter; stroke-linecap: square"/>
   </g>
   <g id="text_15">
    <!-- KDE of Sell Quantity Weighted by Average Temperature -->
    <g transform="translate(182.24875 19.44) scale(0.12 -0.12)">
     <defs>
      <path id="DejaVuSans-4b" d="M 628 4666 
L 1259 4666 
L 1259 2694 
L 3353 4666 
L 4166 4666 
L 1850 2491 
L 4331 0 
L 3500 0 
L 1259 2247 
L 1259 0 
L 628 0 
L 628 4666 
z
" transform="scale(0.015625)"/>
      <path id="DejaVuSans-45" d="M 628 4666 
L 3578 4666 
L 3578 4134 
L 1259 4134 
L 1259 2753 
L 3481 2753 
L 3481 2222 
L 1259 2222 
L 1259 531 
L 3634 531 
L 3634 0 
L 628 0 
L 628 4666 
z
" transform="scale(0.015625)"/>
      <path id="DejaVuSans-57" d="M 213 4666 
L 850 4666 
L 1831 722 
L 2809 4666 
L 3519 4666 
L 4500 722 
L 5478 4666 
L 6119 4666 
L 4947 0 
L 4153 0 
L 3169 4050 
L 2175 0 
L 1381 0 
L 213 4666 
z
" transform="scale(0.015625)"/>
      <path id="DejaVuSans-68" d="M 3513 2113 
L 3513 0 
L 2938 0 
L 2938 2094 
Q 2938 2591 2744 2837 
Q 2550 3084 2163 3084 
Q 1697 3084 1428 2787 
Q 1159 2491 1159 1978 
L 1159 0 
L 581 0 
L 581 4863 
L 1159 4863 
L 1159 2956 
Q 1366 3272 1645 3428 
Q 1925 3584 2291 3584 
Q 2894 3584 3203 3211 
Q 3513 2838 3513 2113 
z
" transform="scale(0.015625)"/>
      <path id="DejaVuSans-64" d="M 2906 2969 
L 2906 4863 
L 3481 4863 
L 3481 0 
L 2906 0 
L 2906 525 
Q 2725 213 2448 61 
Q 2172 -91 1784 -91 
Q 1150 -91 751 415 
Q 353 922 353 1747 
Q 353 2572 751 3078 
Q 1150 3584 1784 3584 
Q 2172 3584 2448 3432 
Q 2725 3281 2906 2969 
z
M 947 1747 
Q 947 1113 1208 752 
Q 1469 391 1925 391 
Q 2381 391 2643 752 
Q 2906 1113 2906 1747 
Q 2906 2381 2643 2742 
Q 2381 3103 1925 3103 
Q 1469 3103 1208 2742 
Q 947 2381 947 1747 
z
" transform="scale(0.015625)"/>
      <path id="DejaVuSans-62" d="M 3116 1747 
Q 3116 2381 2855 2742 
Q 2594 3103 2138 3103 
Q 1681 3103 1420 2742 
Q 1159 2381 1159 1747 
Q 1159 1113 1420 752 
Q 1681 391 2138 391 
Q 2594 391 2855 752 
Q 3116 1113 3116 1747 
z
M 1159 2969 
Q 1341 3281 1617 3432 
Q 1894 3584 2278 3584 
Q 2916 3584 3314 3078 
Q 3713 2572 3713 1747 
Q 3713 922 3314 415 
Q 2916 -91 2278 -91 
Q 1894 -91 1617 61 
Q 1341 213 1159 525 
L 1159 0 
L 581 0 
L 581 4863 
L 1159 4863 
L 1159 2969 
z
" transform="scale(0.015625)"/>
     </defs>
     <use xlink:href="#DejaVuSans-4b"/>
     <use xlink:href="#DejaVuSans-44" x="65.576172"/>
     <use xlink:href="#DejaVuSans-45" x="142.578125"/>
     <use xlink:href="#DejaVuSans-20" x="205.761719"/>
     <use xlink:href="#DejaVuSans-6f" x="237.548828"/>
     <use xlink:href="#DejaVuSans-66" x="298.730469"/>
     <use xlink:href="#DejaVuSans-20" x="333.935547"/>
     <use xlink:href="#DejaVuSans-53" x="365.722656"/>
     <use xlink:href="#DejaVuSans-65" x="429.199219"/>
     <use xlink:href="#DejaVuSans-6c" x="490.722656"/>
     <use xlink:href="#DejaVuSans-6c" x="518.505859"/>
     <use xlink:href="#DejaVuSans-20" x="546.289062"/>
     <use xlink:href="#DejaVuSans-51" x="578.076172"/>
     <use xlink:href="#DejaVuSans-75" x="656.787109"/>
     <use xlink:href="#DejaVuSans-61" x="720.166016"/>
     <use xlink:href="#DejaVuSans-6e" x="781.445312"/>
     <use xlink:href="#DejaVuSans-74" x="844.824219"/>
     <use xlink:href="#DejaVuSans-69" x="884.033203"/>
     <use xlink:href="#DejaVuSans-74" x="911.816406"/>
     <use xlink:href="#DejaVuSans-79" x="951.025391"/>
     <use xlink:href="#DejaVuSans-20" x="1010.205078"/>
     <use xlink:href="#DejaVuSans-57" x="1041.992188"/>
     <use xlink:href="#DejaVuSans-65" x="1134.994141"/>
     <use xlink:href="#DejaVuSans-69" x="1196.517578"/>
     <use xlink:href="#DejaVuSans-67" x="1224.300781"/>
     <use xlink:href="#DejaVuSans-68" x="1287.777344"/>
     <use xlink:href="#DejaVuSans-74" x="1351.15625"/>
     <use xlink:href="#DejaVuSans-65" x="1390.365234"/>
     <use xlink:href="#DejaVuSans-64" x="1451.888672"/>
     <use xlink:href="#DejaVuSans-20" x="1515.365234"/>
     <use xlink:href="#DejaVuSans-62" x="1547.152344"/>
     <use xlink:href="#DejaVuSans-79" x="1610.628906"/>
     <use xlink:href="#DejaVuSans-20" x="1669.808594"/>
     <use xlink:href="#DejaVuSans-41" x="1701.595703"/>
     <use xlink:href="#DejaVuSans-76" x="1764.128906"/>
     <use xlink:href="#DejaVuSans-65" x="1823.308594"/>
     <use xlink:href="#DejaVuSans-72" x="1884.832031"/>
     <use xlink:href="#DejaVuSans-61" x="1925.945312"/>
     <use xlink:href="#DejaVuSans-67" x="1987.224609"/>
     <use xlink:href="#DejaVuSans-65" x="2050.701172"/>
     <use xlink:href="#DejaVuSans-20" x="2112.224609"/>
     <use xlink:href="#DejaVuSans-54" x="2144.011719"/>
     <use xlink:href="#DejaVuSans-65" x="2188.095703"/>
     <use xlink:href="#DejaVuSans-6d" x="2249.619141"/>
     <use xlink:href="#DejaVuSans-70" x="2347.03125"/>
     <use xlink:href="#DejaVuSans-65" x="2410.507812"/>
     <use xlink:href="#DejaVuSans-72" x="2472.03125"/>
     <use xlink:href="#DejaVuSans-61" x="2513.144531"/>
     <use xlink:href="#DejaVuSans-74" x="2574.423828"/>
     <use xlink:href="#DejaVuSans-75" x="2613.632812"/>
     <use xlink:href="#DejaVuSans-72" x="2677.011719"/>
     <use xlink:href="#DejaVuSans-65" x="2715.875"/>
    </g>
   </g>
  </g>
 </g>
 <defs>
  <clipPath id="p6a75da6ca1">
   <rect x="60.59" y="25.44" width="576.61" height="292.6"/>
  </clipPath>
 </defs>
</svg>
