<?xml version="1.0" encoding="utf-8" standalone="no"?>
<!DOCTYPE svg PUBLIC "-//W3C//DTD SVG 1.1//EN"
  "http://www.w3.org/Graphics/SVG/1.1/DTD/svg11.dtd">
<svg xmlns:xlink="http://www.w3.org/1999/xlink" width="648pt" height="360pt" viewBox="0 0 648 360" xmlns="http://www.w3.org/2000/svg" version="1.1">
 <metadata>
  <rdf:RDF xmlns:dc="http://purl.org/dc/elements/1.1/" xmlns:cc="http://creativecommons.org/ns#" xmlns:rdf="http://www.w3.org/1999/02/22-rdf-syntax-ns#">
   <cc:Work>
    <dc:type rdf:resource="http://purl.org/dc/dcmitype/StillImage"/>
    <dc:date>2025-06-12T22:39:36.268417</dc:date>
    <dc:format>image/svg+xml</dc:format>
    <dc:creator>
     <cc:Agent>
      <dc:title>Matplotlib v3.9.2, https://matplotlib.org/</dc:title>
     </cc:Agent>
    </dc:creator>
   </cc:Work>
  </rdf:RDF>
 </metadata>
 <defs>
  <style type="text/css">*{stroke-linejoin: round; stroke-linecap: butt}</style>
 </defs>
 <g id="figure_1">
  <g id="patch_1">
   <path d="M 0 360 
L 648 360 
L 648 0 
L 0 0 
z
" style="fill: #d9d9d9"/>
  </g>
  <g id="axes_1">
   <g id="patch_2">
    <path d="M 54.2 318.04 
L 637.2 318.04 
L 637.2 37.968 
L 54.2 37.968 
z
" style="fill: #d9d9d9"/>
   </g>
   <g id="PolyCollection_1">
    <defs>
     <path id="m53114b7d18" d="M 80.7 -44.901878 
L 80.7 -41.96 
L 83.363317 -41.96 
L 86.026633 -41.96 
L 88.68995 -41.96 
L 91.353266 -41.96 
L 94.016583 -41.96 
L 96.679899 -41.96 
L 99.343216 -41.96 
L 102.006533 -41.96 
L 104.669849 -41.96 
L 107.333166 -41.96 
L 109.996482 -41.96 
L 112.659799 -41.96 
L 115.323116 -41.96 
L 117.986432 -41.96 
L 120.649749 -41.96 
L 123.313065 -41.96 
L 125.976382 -41.96 
L 128.639698 -41.96 
L 131.303015 -41.96 
L 133.966332 -41.96 
L 136.629648 -41.96 
L 139.292965 -41.96 
L 141.956281 -41.96 
L 144.619598 -41.96 
L 147.282915 -41.96 
L 149.946231 -41.96 
L 152.609548 -41.96 
L 155.272864 -41.96 
L 157.936181 -41.96 
L 160.599497 -41.96 
L 163.262814 -41.96 
L 165.926131 -41.96 
L 168.589447 -41.96 
L 171.252764 -41.96 
L 173.91608 -41.96 
L 176.579397 -41.96 
L 179.242714 -41.96 
L 181.90603 -41.96 
L 184.569347 -41.96 
L 187.232663 -41.96 
L 189.89598 -41.96 
L 192.559296 -41.96 
L 195.222613 -41.96 
L 197.88593 -41.96 
L 200.549246 -41.96 
L 203.212563 -41.96 
L 205.875879 -41.96 
L 208.539196 -41.96 
L 211.202513 -41.96 
L 213.865829 -41.96 
L 216.529146 -41.96 
L 219.192462 -41.96 
L 221.855779 -41.96 
L 224.519095 -41.96 
L 227.182412 -41.96 
L 229.845729 -41.96 
L 232.509045 -41.96 
L 235.172362 -41.96 
L 237.835678 -41.96 
L 240.498995 -41.96 
L 243.162312 -41.96 
L 245.825628 -41.96 
L 248.488945 -41.96 
L 251.152261 -41.96 
L 253.815578 -41.96 
L 256.478894 -41.96 
L 259.142211 -41.96 
L 261.805528 -41.96 
L 264.468844 -41.96 
L 267.132161 -41.96 
L 269.795477 -41.96 
L 272.458794 -41.96 
L 275.122111 -41.96 
L 277.785427 -41.96 
L 280.448744 -41.96 
L 283.11206 -41.96 
L 285.775377 -41.96 
L 288.438693 -41.96 
L 291.10201 -41.96 
L 293.765327 -41.96 
L 296.428643 -41.96 
L 299.09196 -41.96 
L 301.755276 -41.96 
L 304.418593 -41.96 
L 307.08191 -41.96 
L 309.745226 -41.96 
L 312.408543 -41.96 
L 315.071859 -41.96 
L 317.735176 -41.96 
L 320.398492 -41.96 
L 323.061809 -41.96 
L 325.725126 -41.96 
L 328.388442 -41.96 
L 331.051759 -41.96 
L 333.715075 -41.96 
L 336.378392 -41.96 
L 339.041709 -41.96 
L 341.705025 -41.96 
L 344.368342 -41.96 
L 347.031658 -41.96 
L 349.694975 -41.96 
L 352.358291 -41.96 
L 355.021608 -41.96 
L 357.684925 -41.96 
L 360.348241 -41.96 
L 363.011558 -41.96 
L 365.674874 -41.96 
L 368.338191 -41.96 
L 371.001508 -41.96 
L 373.664824 -41.96 
L 376.328141 -41.96 
L 378.991457 -41.96 
L 381.654774 -41.96 
L 384.31809 -41.96 
L 386.981407 -41.96 
L 389.644724 -41.96 
L 392.30804 -41.96 
L 394.971357 -41.96 
L 397.634673 -41.96 
L 400.29799 -41.96 
L 402.961307 -41.96 
L 405.624623 -41.96 
L 408.28794 -41.96 
L 410.951256 -41.96 
L 413.614573 -41.96 
L 416.277889 -41.96 
L 418.941206 -41.96 
L 421.604523 -41.96 
L 424.267839 -41.96 
L 426.931156 -41.96 
L 429.594472 -41.96 
L 432.257789 -41.96 
L 434.921106 -41.96 
L 437.584422 -41.96 
L 440.247739 -41.96 
L 442.911055 -41.96 
L 445.574372 -41.96 
L 448.237688 -41.96 
L 450.901005 -41.96 
L 453.564322 -41.96 
L 456.227638 -41.96 
L 458.890955 -41.96 
L 461.554271 -41.96 
L 464.217588 -41.96 
L 466.880905 -41.96 
L 469.544221 -41.96 
L 472.207538 -41.96 
L 474.870854 -41.96 
L 477.534171 -41.96 
L 480.197487 -41.96 
L 482.860804 -41.96 
L 485.524121 -41.96 
L 488.187437 -41.96 
L 490.850754 -41.96 
L 493.51407 -41.96 
L 496.177387 -41.96 
L 498.840704 -41.96 
L 501.50402 -41.96 
L 504.167337 -41.96 
L 506.830653 -41.96 
L 509.49397 -41.96 
L 512.157286 -41.96 
L 514.820603 -41.96 
L 517.48392 -41.96 
L 520.147236 -41.96 
L 522.810553 -41.96 
L 525.473869 -41.96 
L 528.137186 -41.96 
L 530.800503 -41.96 
L 533.463819 -41.96 
L 536.127136 -41.96 
L 538.790452 -41.96 
L 541.453769 -41.96 
L 544.117085 -41.96 
L 546.780402 -41.96 
L 549.443719 -41.96 
L 552.107035 -41.96 
L 554.770352 -41.96 
L 557.433668 -41.96 
L 560.096985 -41.96 
L 562.760302 -41.96 
L 565.423618 -41.96 
L 568.086935 -41.96 
L 570.750251 -41.96 
L 573.413568 -41.96 
L 576.076884 -41.96 
L 578.740201 -41.96 
L 581.403518 -41.96 
L 584.066834 -41.96 
L 586.730151 -41.96 
L 589.393467 -41.96 
L 592.056784 -41.96 
L 594.720101 -41.96 
L 597.383417 -41.96 
L 600.046734 -41.96 
L 602.71005 -41.96 
L 605.373367 -41.96 
L 608.036683 -41.96 
L 610.7 -41.96 
L 610.7 -41.972606 
L 610.7 -41.972606 
L 608.036683 -41.98521 
L 605.373367 -42.007463 
L 602.71005 -42.044127 
L 600.046734 -42.100383 
L 597.383417 -42.180542 
L 594.720101 -42.286188 
L 592.056784 -42.414195 
L 589.393467 -42.555407 
L 586.730151 -42.694826 
L 584.066834 -42.813793 
L 581.403518 -42.89394 
L 578.740201 -42.921797 
L 576.076884 -42.892494 
L 573.413568 -42.811151 
L 570.750251 -42.691417 
L 568.086935 -42.551728 
L 565.423618 -42.410689 
L 562.760302 -42.283169 
L 560.096985 -42.178163 
L 557.433668 -42.098653 
L 554.770352 -42.042962 
L 552.107035 -42.006734 
L 549.443719 -41.984786 
L 546.780402 -41.972383 
L 544.117085 -41.965846 
L 541.453769 -41.962665 
L 538.790452 -41.961335 
L 536.127136 -41.961129 
L 533.463819 -41.96196 
L 530.800503 -41.964386 
L 528.137186 -41.96982 
L 525.473869 -41.980919 
L 522.810553 -42.002074 
L 520.147236 -42.039822 
L 517.48392 -42.102848 
L 514.820603 -42.201187 
L 512.157286 -42.344311 
L 509.49397 -42.538132 
L 506.830653 -42.781507 
L 504.167337 -43.06344 
L 501.50402 -43.362416 
L 498.840704 -43.648939 
L 496.177387 -43.891235 
L 493.51407 -44.062689 
L 490.850754 -44.148575 
L 488.187437 -44.149622 
L 485.524121 -44.081131 
L 482.860804 -43.968074 
L 480.197487 -43.838089 
L 477.534171 -43.714771 
L 474.870854 -43.613047 
L 472.207538 -43.537388 
L 469.544221 -43.482638 
L 466.880905 -43.436835 
L 464.217588 -43.385361 
L 461.554271 -43.315652 
L 458.890955 -43.22157 
L 456.227638 -43.106283 
L 453.564322 -42.982696 
L 450.901005 -42.87107 
L 448.237688 -42.794345 
L 445.574372 -42.772408 
L 442.911055 -42.816849 
L 440.247739 -42.927564 
L 437.584422 -43.092078 
L 434.921106 -43.287801 
L 432.257789 -43.48677 
L 429.594472 -43.661753 
L 426.931156 -43.792104 
L 424.267839 -43.867683 
L 421.604523 -43.889668 
L 418.941206 -43.86815 
L 416.277889 -43.817622 
L 413.614573 -43.75234 
L 410.951256 -43.68346 
L 408.28794 -43.618911 
L 405.624623 -43.565411 
L 402.961307 -43.530872 
L 400.29799 -43.525232 
L 397.634673 -43.558733 
L 394.971357 -43.638315 
L 392.30804 -43.764084 
L 389.644724 -43.927937 
L 386.981407 -44.115332 
L 384.31809 -44.309422 
L 381.654774 -44.495515 
L 378.991457 -44.663736 
L 376.328141 -44.808906 
L 373.664824 -44.928296 
L 371.001508 -45.019 
L 368.338191 -45.076739 
L 365.674874 -45.096949 
L 363.011558 -45.077661 
L 360.348241 -45.022712 
L 357.684925 -44.943579 
L 355.021608 -44.858737 
L 352.358291 -44.790458 
L 349.694975 -44.760036 
L 347.031658 -44.783102 
L 344.368342 -44.866722 
L 341.705025 -45.009339 
L 339.041709 -45.203538 
L 336.378392 -45.440366 
L 333.715075 -45.713248 
L 331.051759 -46.019623 
L 328.388442 -46.359492 
L 325.725126 -46.731652 
L 323.061809 -47.129665 
L 320.398492 -47.539868 
L 317.735176 -47.942785 
L 315.071859 -48.317551 
L 312.408543 -48.647262 
L 309.745226 -48.922492 
L 307.08191 -49.140912 
L 304.418593 -49.302949 
L 301.755276 -49.405752 
L 299.09196 -49.439245 
L 296.428643 -49.387576 
L 293.765327 -49.236767 
L 291.10201 -48.985843 
L 288.438693 -48.656126 
L 285.775377 -48.293329 
L 283.11206 -47.959924 
L 280.448744 -47.719638 
L 277.785427 -47.619618 
L 275.122111 -47.676926 
L 272.458794 -47.874156 
L 269.795477 -48.165271 
L 267.132161 -48.489115 
L 264.468844 -48.785964 
L 261.805528 -49.012415 
L 259.142211 -49.151172 
L 256.478894 -49.213968 
L 253.815578 -49.237307 
L 251.152261 -49.271962 
L 248.488945 -49.368538 
L 245.825628 -49.562777 
L 243.162312 -49.865046 
L 240.498995 -50.257716 
L 237.835678 -50.701691 
L 235.172362 -51.149909 
L 232.509045 -51.562985 
L 229.845729 -51.921678 
L 227.182412 -52.232726 
L 224.519095 -52.527633 
L 221.855779 -52.85627 
L 219.192462 -53.277479 
L 216.529146 -53.84778 
L 213.865829 -54.608252 
L 211.202513 -55.570386 
L 208.539196 -56.704129 
L 205.875879 -57.933645 
L 203.212563 -59.14622 
L 200.549246 -60.215796 
L 197.88593 -61.036244 
L 195.222613 -61.553782 
L 192.559296 -61.786427 
L 189.89598 -61.822347 
L 187.232663 -61.796878 
L 184.569347 -61.855947 
L 181.90603 -62.118257 
L 179.242714 -62.647992 
L 176.579397 -63.445283 
L 173.91608 -64.45547 
L 171.252764 -65.592882 
L 168.589447 -66.771415 
L 165.926131 -67.933115 
L 163.262814 -69.066963 
L 160.599497 -70.21353 
L 157.936181 -71.456677 
L 155.272864 -72.910003 
L 152.609548 -74.710608 
L 149.946231 -77.033285 
L 147.282915 -80.132425 
L 144.619598 -84.406634 
L 141.956281 -90.464409 
L 139.292965 -99.152139 
L 136.629648 -111.49505 
L 133.966332 -128.507077 
L 131.303015 -150.856972 
L 128.639698 -178.438427 
L 125.976382 -209.967659 
L 123.313065 -242.787994 
L 120.649749 -273.052319 
L 117.986432 -296.353129 
L 115.323116 -308.695238 
L 112.659799 -307.530977 
L 109.996482 -292.497464 
L 107.333166 -265.571668 
L 104.669849 -230.57206 
L 102.006533 -192.187417 
L 99.343216 -154.880964 
L 96.679899 -122.026293 
L 94.016583 -95.493325 
L 91.353266 -75.702774 
L 88.68995 -62.005951 
L 86.026633 -53.182448 
L 83.363317 -47.87975 
L 80.7 -44.901878 
z
" style="stroke: #6688aa"/>
    </defs>
    <g clip-path="url(#p7b8bb74a6a)">
     <use xlink:href="#m53114b7d18" x="0" y="360" style="fill: #6688aa; fill-opacity: 0.25; stroke: #6688aa"/>
    </g>
   </g>
   <g id="matplotlib.axis_1">
    <g id="xtick_1">
     <g id="line2d_1">
      <path d="M 112.625593 318.04 
L 112.625593 37.968 
" clip-path="url(#p7b8bb74a6a)" style="fill: none; stroke: #cfcfcf; stroke-width: 0.8; stroke-linecap: square"/>
     </g>
     <g id="line2d_2">
      <defs>
       <path id="m57664c0fb1" d="M 0 0 
L 0 3.5 
" style="stroke: #000000; stroke-width: 0.8"/>
      </defs>
      <g>
       <use xlink:href="#m57664c0fb1" x="112.625593" y="318.04" style="stroke: #000000; stroke-width: 0.8"/>
      </g>
     </g>
     <g id="text_1">
      <!-- 0 -->
      <g transform="translate(109.444343 332.638438) scale(0.1 -0.1)">
       <defs>
        <path id="DejaVuSans-30" d="M 2034 4250 
Q 1547 4250 1301 3770 
Q 1056 3291 1056 2328 
Q 1056 1369 1301 889 
Q 1547 409 2034 409 
Q 2525 409 2770 889 
Q 3016 1369 3016 2328 
Q 3016 3291 2770 3770 
Q 2525 4250 2034 4250 
z
M 2034 4750 
Q 2819 4750 3233 4129 
Q 3647 3509 3647 2328 
Q 3647 1150 3233 529 
Q 2819 -91 2034 -91 
Q 1250 -91 836 529 
Q 422 1150 422 2328 
Q 422 3509 836 4129 
Q 1250 4750 2034 4750 
z
" transform="scale(0.015625)"/>
       </defs>
       <use xlink:href="#DejaVuSans-30"/>
      </g>
     </g>
    </g>
    <g id="xtick_2">
     <g id="line2d_3">
      <path d="M 215.755862 318.04 
L 215.755862 37.968 
" clip-path="url(#p7b8bb74a6a)" style="fill: none; stroke: #cfcfcf; stroke-width: 0.8; stroke-linecap: square"/>
     </g>
     <g id="line2d_4">
      <g>
       <use xlink:href="#m57664c0fb1" x="215.755862" y="318.04" style="stroke: #000000; stroke-width: 0.8"/>
      </g>
     </g>
     <g id="text_2">
      <!-- 10 -->
      <g transform="translate(209.393362 332.638438) scale(0.1 -0.1)">
       <defs>
        <path id="DejaVuSans-31" d="M 794 531 
L 1825 531 
L 1825 4091 
L 703 3866 
L 703 4441 
L 1819 4666 
L 2450 4666 
L 2450 531 
L 3481 531 
L 3481 0 
L 794 0 
L 794 531 
z
" transform="scale(0.015625)"/>
       </defs>
       <use xlink:href="#DejaVuSans-31"/>
       <use xlink:href="#DejaVuSans-30" x="63.623047"/>
      </g>
     </g>
    </g>
    <g id="xtick_3">
     <g id="line2d_5">
      <path d="M 318.88613 318.04 
L 318.88613 37.968 
" clip-path="url(#p7b8bb74a6a)" style="fill: none; stroke: #cfcfcf; stroke-width: 0.8; stroke-linecap: square"/>
     </g>
     <g id="line2d_6">
      <g>
       <use xlink:href="#m57664c0fb1" x="318.88613" y="318.04" style="stroke: #000000; stroke-width: 0.8"/>
      </g>
     </g>
     <g id="text_3">
      <!-- 20 -->
      <g transform="translate(312.52363 332.638438) scale(0.1 -0.1)">
       <defs>
        <path id="DejaVuSans-32" d="M 1228 531 
L 3431 531 
L 3431 0 
L 469 0 
L 469 531 
Q 828 903 1448 1529 
Q 2069 2156 2228 2338 
Q 2531 2678 2651 2914 
Q 2772 3150 2772 3378 
Q 2772 3750 2511 3984 
Q 2250 4219 1831 4219 
Q 1534 4219 1204 4116 
Q 875 4013 500 3803 
L 500 4441 
Q 881 4594 1212 4672 
Q 1544 4750 1819 4750 
Q 2544 4750 2975 4387 
Q 3406 4025 3406 3419 
Q 3406 3131 3298 2873 
Q 3191 2616 2906 2266 
Q 2828 2175 2409 1742 
Q 1991 1309 1228 531 
z
" transform="scale(0.015625)"/>
       </defs>
       <use xlink:href="#DejaVuSans-32"/>
       <use xlink:href="#DejaVuSans-30" x="63.623047"/>
      </g>
     </g>
    </g>
    <g id="xtick_4">
     <g id="line2d_7">
      <path d="M 422.016399 318.04 
L 422.016399 37.968 
" clip-path="url(#p7b8bb74a6a)" style="fill: none; stroke: #cfcfcf; stroke-width: 0.8; stroke-linecap: square"/>
     </g>
     <g id="line2d_8">
      <g>
       <use xlink:href="#m57664c0fb1" x="422.016399" y="318.04" style="stroke: #000000; stroke-width: 0.8"/>
      </g>
     </g>
     <g id="text_4">
      <!-- 30 -->
      <g transform="translate(415.653899 332.638438) scale(0.1 -0.1)">
       <defs>
        <path id="DejaVuSans-33" d="M 2597 2516 
Q 3050 2419 3304 2112 
Q 3559 1806 3559 1356 
Q 3559 666 3084 287 
Q 2609 -91 1734 -91 
Q 1441 -91 1130 -33 
Q 819 25 488 141 
L 488 750 
Q 750 597 1062 519 
Q 1375 441 1716 441 
Q 2309 441 2620 675 
Q 2931 909 2931 1356 
Q 2931 1769 2642 2001 
Q 2353 2234 1838 2234 
L 1294 2234 
L 1294 2753 
L 1863 2753 
Q 2328 2753 2575 2939 
Q 2822 3125 2822 3475 
Q 2822 3834 2567 4026 
Q 2313 4219 1838 4219 
Q 1578 4219 1281 4162 
Q 984 4106 628 3988 
L 628 4550 
Q 988 4650 1302 4700 
Q 1616 4750 1894 4750 
Q 2613 4750 3031 4423 
Q 3450 4097 3450 3541 
Q 3450 3153 3228 2886 
Q 3006 2619 2597 2516 
z
" transform="scale(0.015625)"/>
       </defs>
       <use xlink:href="#DejaVuSans-33"/>
       <use xlink:href="#DejaVuSans-30" x="63.623047"/>
      </g>
     </g>
    </g>
    <g id="xtick_5">
     <g id="line2d_9">
      <path d="M 525.146667 318.04 
L 525.146667 37.968 
" clip-path="url(#p7b8bb74a6a)" style="fill: none; stroke: #cfcfcf; stroke-width: 0.8; stroke-linecap: square"/>
     </g>
     <g id="line2d_10">
      <g>
       <use xlink:href="#m57664c0fb1" x="525.146667" y="318.04" style="stroke: #000000; stroke-width: 0.8"/>
      </g>
     </g>
     <g id="text_5">
      <!-- 40 -->
      <g transform="translate(518.784167 332.638438) scale(0.1 -0.1)">
       <defs>
        <path id="DejaVuSans-34" d="M 2419 4116 
L 825 1625 
L 2419 1625 
L 2419 4116 
z
M 2253 4666 
L 3047 4666 
L 3047 1625 
L 3713 1625 
L 3713 1100 
L 3047 1100 
L 3047 0 
L 2419 0 
L 2419 1100 
L 313 1100 
L 313 1709 
L 2253 4666 
z
" transform="scale(0.015625)"/>
       </defs>
       <use xlink:href="#DejaVuSans-34"/>
       <use xlink:href="#DejaVuSans-30" x="63.623047"/>
      </g>
     </g>
    </g>
    <g id="xtick_6">
     <g id="line2d_11">
      <path d="M 628.276936 318.04 
L 628.276936 37.968 
" clip-path="url(#p7b8bb74a6a)" style="fill: none; stroke: #cfcfcf; stroke-width: 0.8; stroke-linecap: square"/>
     </g>
     <g id="line2d_12">
      <g>
       <use xlink:href="#m57664c0fb1" x="628.276936" y="318.04" style="stroke: #000000; stroke-width: 0.8"/>
      </g>
     </g>
     <g id="text_6">
      <!-- 50 -->
      <g transform="translate(621.914436 332.638438) scale(0.1 -0.1)">
       <defs>
        <path id="DejaVuSans-35" d="M 691 4666 
L 3169 4666 
L 3169 4134 
L 1269 4134 
L 1269 2991 
Q 1406 3038 1543 3061 
Q 1681 3084 1819 3084 
Q 2600 3084 3056 2656 
Q 3513 2228 3513 1497 
Q 3513 744 3044 326 
Q 2575 -91 1722 -91 
Q 1428 -91 1123 -41 
Q 819 9 494 109 
L 494 744 
Q 775 591 1075 516 
Q 1375 441 1709 441 
Q 2250 441 2565 725 
Q 2881 1009 2881 1497 
Q 2881 1984 2565 2268 
Q 2250 2553 1709 2553 
Q 1456 2553 1204 2497 
Q 953 2441 691 2322 
L 691 4666 
z
" transform="scale(0.015625)"/>
       </defs>
       <use xlink:href="#DejaVuSans-35"/>
       <use xlink:href="#DejaVuSans-30" x="63.623047"/>
      </g>
     </g>
    </g>
    <g id="text_7">
     <!-- Precipitation -->
     <g transform="translate(314.45 346.316563) scale(0.1 -0.1)">
      <defs>
       <path id="DejaVuSans-50" d="M 1259 4147 
L 1259 2394 
L 2053 2394 
Q 2494 2394 2734 2622 
Q 2975 2850 2975 3272 
Q 2975 3691 2734 3919 
Q 2494 4147 2053 4147 
L 1259 4147 
z
M 628 4666 
L 2053 4666 
Q 2838 4666 3239 4311 
Q 3641 3956 3641 3272 
Q 3641 2581 3239 2228 
Q 2838 1875 2053 1875 
L 1259 1875 
L 1259 0 
L 628 0 
L 628 4666 
z
" transform="scale(0.015625)"/>
       <path id="DejaVuSans-72" d="M 2631 2963 
Q 2534 3019 2420 3045 
Q 2306 3072 2169 3072 
Q 1681 3072 1420 2755 
Q 1159 2438 1159 1844 
L 1159 0 
L 581 0 
L 581 3500 
L 1159 3500 
L 1159 2956 
Q 1341 3275 1631 3429 
Q 1922 3584 2338 3584 
Q 2397 3584 2469 3576 
Q 2541 3569 2628 3553 
L 2631 2963 
z
" transform="scale(0.015625)"/>
       <path id="DejaVuSans-65" d="M 3597 1894 
L 3597 1613 
L 953 1613 
Q 991 1019 1311 708 
Q 1631 397 2203 397 
Q 2534 397 2845 478 
Q 3156 559 3463 722 
L 3463 178 
Q 3153 47 2828 -22 
Q 2503 -91 2169 -91 
Q 1331 -91 842 396 
Q 353 884 353 1716 
Q 353 2575 817 3079 
Q 1281 3584 2069 3584 
Q 2775 3584 3186 3129 
Q 3597 2675 3597 1894 
z
M 3022 2063 
Q 3016 2534 2758 2815 
Q 2500 3097 2075 3097 
Q 1594 3097 1305 2825 
Q 1016 2553 972 2059 
L 3022 2063 
z
" transform="scale(0.015625)"/>
       <path id="DejaVuSans-63" d="M 3122 3366 
L 3122 2828 
Q 2878 2963 2633 3030 
Q 2388 3097 2138 3097 
Q 1578 3097 1268 2742 
Q 959 2388 959 1747 
Q 959 1106 1268 751 
Q 1578 397 2138 397 
Q 2388 397 2633 464 
Q 2878 531 3122 666 
L 3122 134 
Q 2881 22 2623 -34 
Q 2366 -91 2075 -91 
Q 1284 -91 818 406 
Q 353 903 353 1747 
Q 353 2603 823 3093 
Q 1294 3584 2113 3584 
Q 2378 3584 2631 3529 
Q 2884 3475 3122 3366 
z
" transform="scale(0.015625)"/>
       <path id="DejaVuSans-69" d="M 603 3500 
L 1178 3500 
L 1178 0 
L 603 0 
L 603 3500 
z
M 603 4863 
L 1178 4863 
L 1178 4134 
L 603 4134 
L 603 4863 
z
" transform="scale(0.015625)"/>
       <path id="DejaVuSans-70" d="M 1159 525 
L 1159 -1331 
L 581 -1331 
L 581 3500 
L 1159 3500 
L 1159 2969 
Q 1341 3281 1617 3432 
Q 1894 3584 2278 3584 
Q 2916 3584 3314 3078 
Q 3713 2572 3713 1747 
Q 3713 922 3314 415 
Q 2916 -91 2278 -91 
Q 1894 -91 1617 61 
Q 1341 213 1159 525 
z
M 3116 1747 
Q 3116 2381 2855 2742 
Q 2594 3103 2138 3103 
Q 1681 3103 1420 2742 
Q 1159 2381 1159 1747 
Q 1159 1113 1420 752 
Q 1681 391 2138 391 
Q 2594 391 2855 752 
Q 3116 1113 3116 1747 
z
" transform="scale(0.015625)"/>
       <path id="DejaVuSans-74" d="M 1172 4494 
L 1172 3500 
L 2356 3500 
L 2356 3053 
L 1172 3053 
L 1172 1153 
Q 1172 725 1289 603 
Q 1406 481 1766 481 
L 2356 481 
L 2356 0 
L 1766 0 
Q 1100 0 847 248 
Q 594 497 594 1153 
L 594 3053 
L 172 3053 
L 172 3500 
L 594 3500 
L 594 4494 
L 1172 4494 
z
" transform="scale(0.015625)"/>
       <path id="DejaVuSans-61" d="M 2194 1759 
Q 1497 1759 1228 1600 
Q 959 1441 959 1056 
Q 959 750 1161 570 
Q 1363 391 1709 391 
Q 2188 391 2477 730 
Q 2766 1069 2766 1631 
L 2766 1759 
L 2194 1759 
z
M 3341 1997 
L 3341 0 
L 2766 0 
L 2766 531 
Q 2569 213 2275 61 
Q 1981 -91 1556 -91 
Q 1019 -91 701 211 
Q 384 513 384 1019 
Q 384 1609 779 1909 
Q 1175 2209 1959 2209 
L 2766 2209 
L 2766 2266 
Q 2766 2663 2505 2880 
Q 2244 3097 1772 3097 
Q 1472 3097 1187 3025 
Q 903 2953 641 2809 
L 641 3341 
Q 956 3463 1253 3523 
Q 1550 3584 1831 3584 
Q 2591 3584 2966 3190 
Q 3341 2797 3341 1997 
z
" transform="scale(0.015625)"/>
       <path id="DejaVuSans-6f" d="M 1959 3097 
Q 1497 3097 1228 2736 
Q 959 2375 959 1747 
Q 959 1119 1226 758 
Q 1494 397 1959 397 
Q 2419 397 2687 759 
Q 2956 1122 2956 1747 
Q 2956 2369 2687 2733 
Q 2419 3097 1959 3097 
z
M 1959 3584 
Q 2709 3584 3137 3096 
Q 3566 2609 3566 1747 
Q 3566 888 3137 398 
Q 2709 -91 1959 -91 
Q 1206 -91 779 398 
Q 353 888 353 1747 
Q 353 2609 779 3096 
Q 1206 3584 1959 3584 
z
" transform="scale(0.015625)"/>
       <path id="DejaVuSans-6e" d="M 3513 2113 
L 3513 0 
L 2938 0 
L 2938 2094 
Q 2938 2591 2744 2837 
Q 2550 3084 2163 3084 
Q 1697 3084 1428 2787 
Q 1159 2491 1159 1978 
L 1159 0 
L 581 0 
L 581 3500 
L 1159 3500 
L 1159 2956 
Q 1366 3272 1645 3428 
Q 1925 3584 2291 3584 
Q 2894 3584 3203 3211 
Q 3513 2838 3513 2113 
z
" transform="scale(0.015625)"/>
      </defs>
      <use xlink:href="#DejaVuSans-50"/>
      <use xlink:href="#DejaVuSans-72" x="58.552734"/>
      <use xlink:href="#DejaVuSans-65" x="97.416016"/>
      <use xlink:href="#DejaVuSans-63" x="158.939453"/>
      <use xlink:href="#DejaVuSans-69" x="213.919922"/>
      <use xlink:href="#DejaVuSans-70" x="241.703125"/>
      <use xlink:href="#DejaVuSans-69" x="305.179688"/>
      <use xlink:href="#DejaVuSans-74" x="332.962891"/>
      <use xlink:href="#DejaVuSans-61" x="372.171875"/>
      <use xlink:href="#DejaVuSans-74" x="433.451172"/>
      <use xlink:href="#DejaVuSans-69" x="472.660156"/>
      <use xlink:href="#DejaVuSans-6f" x="500.443359"/>
      <use xlink:href="#DejaVuSans-6e" x="561.625"/>
     </g>
    </g>
   </g>
   <g id="matplotlib.axis_2">
    <g id="ytick_1">
     <g id="line2d_13">
      <path d="M 54.2 318.04 
L 637.2 318.04 
" clip-path="url(#p7b8bb74a6a)" style="fill: none; stroke: #cfcfcf; stroke-width: 0.8; stroke-linecap: square"/>
     </g>
     <g id="line2d_14">
      <defs>
       <path id="m03aabcc7de" d="M 0 0 
L -3.5 0 
" style="stroke: #000000; stroke-width: 0.8"/>
      </defs>
      <g>
       <use xlink:href="#m03aabcc7de" x="54.2" y="318.04" style="stroke: #000000; stroke-width: 0.8"/>
      </g>
     </g>
     <g id="text_8">
      <!-- 0.00 -->
      <g transform="translate(24.934375 321.839219) scale(0.1 -0.1)">
       <defs>
        <path id="DejaVuSans-2e" d="M 684 794 
L 1344 794 
L 1344 0 
L 684 0 
L 684 794 
z
" transform="scale(0.015625)"/>
       </defs>
       <use xlink:href="#DejaVuSans-30"/>
       <use xlink:href="#DejaVuSans-2e" x="63.623047"/>
       <use xlink:href="#DejaVuSans-30" x="95.410156"/>
       <use xlink:href="#DejaVuSans-30" x="159.033203"/>
      </g>
     </g>
    </g>
    <g id="ytick_2">
     <g id="line2d_15">
      <path d="M 54.2 264.720414 
L 637.2 264.720414 
" clip-path="url(#p7b8bb74a6a)" style="fill: none; stroke: #cfcfcf; stroke-width: 0.8; stroke-linecap: square"/>
     </g>
     <g id="line2d_16">
      <g>
       <use xlink:href="#m03aabcc7de" x="54.2" y="264.720414" style="stroke: #000000; stroke-width: 0.8"/>
      </g>
     </g>
     <g id="text_9">
      <!-- 0.05 -->
      <g transform="translate(24.934375 268.519633) scale(0.1 -0.1)">
       <use xlink:href="#DejaVuSans-30"/>
       <use xlink:href="#DejaVuSans-2e" x="63.623047"/>
       <use xlink:href="#DejaVuSans-30" x="95.410156"/>
       <use xlink:href="#DejaVuSans-35" x="159.033203"/>
      </g>
     </g>
    </g>
    <g id="ytick_3">
     <g id="line2d_17">
      <path d="M 54.2 211.400829 
L 637.2 211.400829 
" clip-path="url(#p7b8bb74a6a)" style="fill: none; stroke: #cfcfcf; stroke-width: 0.8; stroke-linecap: square"/>
     </g>
     <g id="line2d_18">
      <g>
       <use xlink:href="#m03aabcc7de" x="54.2" y="211.400829" style="stroke: #000000; stroke-width: 0.8"/>
      </g>
     </g>
     <g id="text_10">
      <!-- 0.10 -->
      <g transform="translate(24.934375 215.200047) scale(0.1 -0.1)">
       <use xlink:href="#DejaVuSans-30"/>
       <use xlink:href="#DejaVuSans-2e" x="63.623047"/>
       <use xlink:href="#DejaVuSans-31" x="95.410156"/>
       <use xlink:href="#DejaVuSans-30" x="159.033203"/>
      </g>
     </g>
    </g>
    <g id="ytick_4">
     <g id="line2d_19">
      <path d="M 54.2 158.081243 
L 637.2 158.081243 
" clip-path="url(#p7b8bb74a6a)" style="fill: none; stroke: #cfcfcf; stroke-width: 0.8; stroke-linecap: square"/>
     </g>
     <g id="line2d_20">
      <g>
       <use xlink:href="#m03aabcc7de" x="54.2" y="158.081243" style="stroke: #000000; stroke-width: 0.8"/>
      </g>
     </g>
     <g id="text_11">
      <!-- 0.15 -->
      <g transform="translate(24.934375 161.880462) scale(0.1 -0.1)">
       <use xlink:href="#DejaVuSans-30"/>
       <use xlink:href="#DejaVuSans-2e" x="63.623047"/>
       <use xlink:href="#DejaVuSans-31" x="95.410156"/>
       <use xlink:href="#DejaVuSans-35" x="159.033203"/>
      </g>
     </g>
    </g>
    <g id="ytick_5">
     <g id="line2d_21">
      <path d="M 54.2 104.761657 
L 637.2 104.761657 
" clip-path="url(#p7b8bb74a6a)" style="fill: none; stroke: #cfcfcf; stroke-width: 0.8; stroke-linecap: square"/>
     </g>
     <g id="line2d_22">
      <g>
       <use xlink:href="#m03aabcc7de" x="54.2" y="104.761657" style="stroke: #000000; stroke-width: 0.8"/>
      </g>
     </g>
     <g id="text_12">
      <!-- 0.20 -->
      <g transform="translate(24.934375 108.560876) scale(0.1 -0.1)">
       <use xlink:href="#DejaVuSans-30"/>
       <use xlink:href="#DejaVuSans-2e" x="63.623047"/>
       <use xlink:href="#DejaVuSans-32" x="95.410156"/>
       <use xlink:href="#DejaVuSans-30" x="159.033203"/>
      </g>
     </g>
    </g>
    <g id="ytick_6">
     <g id="line2d_23">
      <path d="M 54.2 51.442072 
L 637.2 51.442072 
" clip-path="url(#p7b8bb74a6a)" style="fill: none; stroke: #cfcfcf; stroke-width: 0.8; stroke-linecap: square"/>
     </g>
     <g id="line2d_24">
      <g>
       <use xlink:href="#m03aabcc7de" x="54.2" y="51.442072" style="stroke: #000000; stroke-width: 0.8"/>
      </g>
     </g>
     <g id="text_13">
      <!-- 0.25 -->
      <g transform="translate(24.934375 55.24129) scale(0.1 -0.1)">
       <use xlink:href="#DejaVuSans-30"/>
       <use xlink:href="#DejaVuSans-2e" x="63.623047"/>
       <use xlink:href="#DejaVuSans-32" x="95.410156"/>
       <use xlink:href="#DejaVuSans-35" x="159.033203"/>
      </g>
     </g>
    </g>
    <g id="text_14">
     <!-- Density of Sell Quantity -->
     <g transform="translate(18.854687 237.234469) rotate(-90) scale(0.1 -0.1)">
      <defs>
       <path id="DejaVuSans-44" d="M 1259 4147 
L 1259 519 
L 2022 519 
Q 2988 519 3436 956 
Q 3884 1394 3884 2338 
Q 3884 3275 3436 3711 
Q 2988 4147 2022 4147 
L 1259 4147 
z
M 628 4666 
L 1925 4666 
Q 3281 4666 3915 4102 
Q 4550 3538 4550 2338 
Q 4550 1131 3912 565 
Q 3275 0 1925 0 
L 628 0 
L 628 4666 
z
" transform="scale(0.015625)"/>
       <path id="DejaVuSans-73" d="M 2834 3397 
L 2834 2853 
Q 2591 2978 2328 3040 
Q 2066 3103 1784 3103 
Q 1356 3103 1142 2972 
Q 928 2841 928 2578 
Q 928 2378 1081 2264 
Q 1234 2150 1697 2047 
L 1894 2003 
Q 2506 1872 2764 1633 
Q 3022 1394 3022 966 
Q 3022 478 2636 193 
Q 2250 -91 1575 -91 
Q 1294 -91 989 -36 
Q 684 19 347 128 
L 347 722 
Q 666 556 975 473 
Q 1284 391 1588 391 
Q 1994 391 2212 530 
Q 2431 669 2431 922 
Q 2431 1156 2273 1281 
Q 2116 1406 1581 1522 
L 1381 1569 
Q 847 1681 609 1914 
Q 372 2147 372 2553 
Q 372 3047 722 3315 
Q 1072 3584 1716 3584 
Q 2034 3584 2315 3537 
Q 2597 3491 2834 3397 
z
" transform="scale(0.015625)"/>
       <path id="DejaVuSans-79" d="M 2059 -325 
Q 1816 -950 1584 -1140 
Q 1353 -1331 966 -1331 
L 506 -1331 
L 506 -850 
L 844 -850 
Q 1081 -850 1212 -737 
Q 1344 -625 1503 -206 
L 1606 56 
L 191 3500 
L 800 3500 
L 1894 763 
L 2988 3500 
L 3597 3500 
L 2059 -325 
z
" transform="scale(0.015625)"/>
       <path id="DejaVuSans-20" transform="scale(0.015625)"/>
       <path id="DejaVuSans-66" d="M 2375 4863 
L 2375 4384 
L 1825 4384 
Q 1516 4384 1395 4259 
Q 1275 4134 1275 3809 
L 1275 3500 
L 2222 3500 
L 2222 3053 
L 1275 3053 
L 1275 0 
L 697 0 
L 697 3053 
L 147 3053 
L 147 3500 
L 697 3500 
L 697 3744 
Q 697 4328 969 4595 
Q 1241 4863 1831 4863 
L 2375 4863 
z
" transform="scale(0.015625)"/>
       <path id="DejaVuSans-53" d="M 3425 4513 
L 3425 3897 
Q 3066 4069 2747 4153 
Q 2428 4238 2131 4238 
Q 1616 4238 1336 4038 
Q 1056 3838 1056 3469 
Q 1056 3159 1242 3001 
Q 1428 2844 1947 2747 
L 2328 2669 
Q 3034 2534 3370 2195 
Q 3706 1856 3706 1288 
Q 3706 609 3251 259 
Q 2797 -91 1919 -91 
Q 1588 -91 1214 -16 
Q 841 59 441 206 
L 441 856 
Q 825 641 1194 531 
Q 1563 422 1919 422 
Q 2459 422 2753 634 
Q 3047 847 3047 1241 
Q 3047 1584 2836 1778 
Q 2625 1972 2144 2069 
L 1759 2144 
Q 1053 2284 737 2584 
Q 422 2884 422 3419 
Q 422 4038 858 4394 
Q 1294 4750 2059 4750 
Q 2388 4750 2728 4690 
Q 3069 4631 3425 4513 
z
" transform="scale(0.015625)"/>
       <path id="DejaVuSans-6c" d="M 603 4863 
L 1178 4863 
L 1178 0 
L 603 0 
L 603 4863 
z
" transform="scale(0.015625)"/>
       <path id="DejaVuSans-51" d="M 2522 4238 
Q 1834 4238 1429 3725 
Q 1025 3213 1025 2328 
Q 1025 1447 1429 934 
Q 1834 422 2522 422 
Q 3209 422 3611 934 
Q 4013 1447 4013 2328 
Q 4013 3213 3611 3725 
Q 3209 4238 2522 4238 
z
M 3406 84 
L 4238 -825 
L 3475 -825 
L 2784 -78 
Q 2681 -84 2626 -87 
Q 2572 -91 2522 -91 
Q 1538 -91 948 567 
Q 359 1225 359 2328 
Q 359 3434 948 4092 
Q 1538 4750 2522 4750 
Q 3503 4750 4090 4092 
Q 4678 3434 4678 2328 
Q 4678 1516 4351 937 
Q 4025 359 3406 84 
z
" transform="scale(0.015625)"/>
       <path id="DejaVuSans-75" d="M 544 1381 
L 544 3500 
L 1119 3500 
L 1119 1403 
Q 1119 906 1312 657 
Q 1506 409 1894 409 
Q 2359 409 2629 706 
Q 2900 1003 2900 1516 
L 2900 3500 
L 3475 3500 
L 3475 0 
L 2900 0 
L 2900 538 
Q 2691 219 2414 64 
Q 2138 -91 1772 -91 
Q 1169 -91 856 284 
Q 544 659 544 1381 
z
M 1991 3584 
L 1991 3584 
z
" transform="scale(0.015625)"/>
      </defs>
      <use xlink:href="#DejaVuSans-44"/>
      <use xlink:href="#DejaVuSans-65" x="77.001953"/>
      <use xlink:href="#DejaVuSans-6e" x="138.525391"/>
      <use xlink:href="#DejaVuSans-73" x="201.904297"/>
      <use xlink:href="#DejaVuSans-69" x="254.003906"/>
      <use xlink:href="#DejaVuSans-74" x="281.787109"/>
      <use xlink:href="#DejaVuSans-79" x="320.996094"/>
      <use xlink:href="#DejaVuSans-20" x="380.175781"/>
      <use xlink:href="#DejaVuSans-6f" x="411.962891"/>
      <use xlink:href="#DejaVuSans-66" x="473.144531"/>
      <use xlink:href="#DejaVuSans-20" x="508.349609"/>
      <use xlink:href="#DejaVuSans-53" x="540.136719"/>
      <use xlink:href="#DejaVuSans-65" x="603.613281"/>
      <use xlink:href="#DejaVuSans-6c" x="665.136719"/>
      <use xlink:href="#DejaVuSans-6c" x="692.919922"/>
      <use xlink:href="#DejaVuSans-20" x="720.703125"/>
      <use xlink:href="#DejaVuSans-51" x="752.490234"/>
      <use xlink:href="#DejaVuSans-75" x="831.201172"/>
      <use xlink:href="#DejaVuSans-61" x="894.580078"/>
      <use xlink:href="#DejaVuSans-6e" x="955.859375"/>
      <use xlink:href="#DejaVuSans-74" x="1019.238281"/>
      <use xlink:href="#DejaVuSans-69" x="1058.447266"/>
      <use xlink:href="#DejaVuSans-74" x="1086.230469"/>
      <use xlink:href="#DejaVuSans-79" x="1125.439453"/>
     </g>
    </g>
   </g>
   <g id="patch_3">
    <path d="M 54.2 318.04 
L 54.2 37.968 
" style="fill: none; stroke: #000000; stroke-width: 0.8; stroke-linejoin: miter; stroke-linecap: square"/>
   </g>
   <g id="patch_4">
    <path d="M 54.2 318.04 
L 637.2 318.04 
" style="fill: none; stroke: #000000; stroke-width: 0.8; stroke-linejoin: miter; stroke-linecap: square"/>
   </g>
   <g id="text_15">
    <!--  -->
    <g transform="translate(345.7 18.530625) scale(0.12 -0.12)"/>
    <!-- KDE of Sell Quantity Weighted by Precipitation -->
    <g transform="translate(206.103437 31.968) scale(0.12 -0.12)">
     <defs>
      <path id="DejaVuSans-4b" d="M 628 4666 
L 1259 4666 
L 1259 2694 
L 3353 4666 
L 4166 4666 
L 1850 2491 
L 4331 0 
L 3500 0 
L 1259 2247 
L 1259 0 
L 628 0 
L 628 4666 
z
" transform="scale(0.015625)"/>
      <path id="DejaVuSans-45" d="M 628 4666 
L 3578 4666 
L 3578 4134 
L 1259 4134 
L 1259 2753 
L 3481 2753 
L 3481 2222 
L 1259 2222 
L 1259 531 
L 3634 531 
L 3634 0 
L 628 0 
L 628 4666 
z
" transform="scale(0.015625)"/>
      <path id="DejaVuSans-57" d="M 213 4666 
L 850 4666 
L 1831 722 
L 2809 4666 
L 3519 4666 
L 4500 722 
L 5478 4666 
L 6119 4666 
L 4947 0 
L 4153 0 
L 3169 4050 
L 2175 0 
L 1381 0 
L 213 4666 
z
" transform="scale(0.015625)"/>
      <path id="DejaVuSans-67" d="M 2906 1791 
Q 2906 2416 2648 2759 
Q 2391 3103 1925 3103 
Q 1463 3103 1205 2759 
Q 947 2416 947 1791 
Q 947 1169 1205 825 
Q 1463 481 1925 481 
Q 2391 481 2648 825 
Q 2906 1169 2906 1791 
z
M 3481 434 
Q 3481 -459 3084 -895 
Q 2688 -1331 1869 -1331 
Q 1566 -1331 1297 -1286 
Q 1028 -1241 775 -1147 
L 775 -588 
Q 1028 -725 1275 -790 
Q 1522 -856 1778 -856 
Q 2344 -856 2625 -561 
Q 2906 -266 2906 331 
L 2906 616 
Q 2728 306 2450 153 
Q 2172 0 1784 0 
Q 1141 0 747 490 
Q 353 981 353 1791 
Q 353 2603 747 3093 
Q 1141 3584 1784 3584 
Q 2172 3584 2450 3431 
Q 2728 3278 2906 2969 
L 2906 3500 
L 3481 3500 
L 3481 434 
z
" transform="scale(0.015625)"/>
      <path id="DejaVuSans-68" d="M 3513 2113 
L 3513 0 
L 2938 0 
L 2938 2094 
Q 2938 2591 2744 2837 
Q 2550 3084 2163 3084 
Q 1697 3084 1428 2787 
Q 1159 2491 1159 1978 
L 1159 0 
L 581 0 
L 581 4863 
L 1159 4863 
L 1159 2956 
Q 1366 3272 1645 3428 
Q 1925 3584 2291 3584 
Q 2894 3584 3203 3211 
Q 3513 2838 3513 2113 
z
" transform="scale(0.015625)"/>
      <path id="DejaVuSans-64" d="M 2906 2969 
L 2906 4863 
L 3481 4863 
L 3481 0 
L 2906 0 
L 2906 525 
Q 2725 213 2448 61 
Q 2172 -91 1784 -91 
Q 1150 -91 751 415 
Q 353 922 353 1747 
Q 353 2572 751 3078 
Q 1150 3584 1784 3584 
Q 2172 3584 2448 3432 
Q 2725 3281 2906 2969 
z
M 947 1747 
Q 947 1113 1208 752 
Q 1469 391 1925 391 
Q 2381 391 2643 752 
Q 2906 1113 2906 1747 
Q 2906 2381 2643 2742 
Q 2381 3103 1925 3103 
Q 1469 3103 1208 2742 
Q 947 2381 947 1747 
z
" transform="scale(0.015625)"/>
      <path id="DejaVuSans-62" d="M 3116 1747 
Q 3116 2381 2855 2742 
Q 2594 3103 2138 3103 
Q 1681 3103 1420 2742 
Q 1159 2381 1159 1747 
Q 1159 1113 1420 752 
Q 1681 391 2138 391 
Q 2594 391 2855 752 
Q 3116 1113 3116 1747 
z
M 1159 2969 
Q 1341 3281 1617 3432 
Q 1894 3584 2278 3584 
Q 2916 3584 3314 3078 
Q 3713 2572 3713 1747 
Q 3713 922 3314 415 
Q 2916 -91 2278 -91 
Q 1894 -91 1617 61 
Q 1341 213 1159 525 
L 1159 0 
L 581 0 
L 581 4863 
L 1159 4863 
L 1159 2969 
z
" transform="scale(0.015625)"/>
     </defs>
     <use xlink:href="#DejaVuSans-4b"/>
     <use xlink:href="#DejaVuSans-44" x="65.576172"/>
     <use xlink:href="#DejaVuSans-45" x="142.578125"/>
     <use xlink:href="#DejaVuSans-20" x="205.761719"/>
     <use xlink:href="#DejaVuSans-6f" x="237.548828"/>
     <use xlink:href="#DejaVuSans-66" x="298.730469"/>
     <use xlink:href="#DejaVuSans-20" x="333.935547"/>
     <use xlink:href="#DejaVuSans-53" x="365.722656"/>
     <use xlink:href="#DejaVuSans-65" x="429.199219"/>
     <use xlink:href="#DejaVuSans-6c" x="490.722656"/>
     <use xlink:href="#DejaVuSans-6c" x="518.505859"/>
     <use xlink:href="#DejaVuSans-20" x="546.289062"/>
     <use xlink:href="#DejaVuSans-51" x="578.076172"/>
     <use xlink:href="#DejaVuSans-75" x="656.787109"/>
     <use xlink:href="#DejaVuSans-61" x="720.166016"/>
     <use xlink:href="#DejaVuSans-6e" x="781.445312"/>
     <use xlink:href="#DejaVuSans-74" x="844.824219"/>
     <use xlink:href="#DejaVuSans-69" x="884.033203"/>
     <use xlink:href="#DejaVuSans-74" x="911.816406"/>
     <use xlink:href="#DejaVuSans-79" x="951.025391"/>
     <use xlink:href="#DejaVuSans-20" x="1010.205078"/>
     <use xlink:href="#DejaVuSans-57" x="1041.992188"/>
     <use xlink:href="#DejaVuSans-65" x="1134.994141"/>
     <use xlink:href="#DejaVuSans-69" x="1196.517578"/>
     <use xlink:href="#DejaVuSans-67" x="1224.300781"/>
     <use xlink:href="#DejaVuSans-68" x="1287.777344"/>
     <use xlink:href="#DejaVuSans-74" x="1351.15625"/>
     <use xlink:href="#DejaVuSans-65" x="1390.365234"/>
     <use xlink:href="#DejaVuSans-64" x="1451.888672"/>
     <use xlink:href="#DejaVuSans-20" x="1515.365234"/>
     <use xlink:href="#DejaVuSans-62" x="1547.152344"/>
     <use xlink:href="#DejaVuSans-79" x="1610.628906"/>
     <use xlink:href="#DejaVuSans-20" x="1669.808594"/>
     <use xlink:href="#DejaVuSans-50" x="1701.595703"/>
     <use xlink:href="#DejaVuSans-72" x="1760.148438"/>
     <use xlink:href="#DejaVuSans-65" x="1799.011719"/>
     <use xlink:href="#DejaVuSans-63" x="1860.535156"/>
     <use xlink:href="#DejaVuSans-69" x="1915.515625"/>
     <use xlink:href="#DejaVuSans-70" x="1943.298828"/>
     <use xlink:href="#DejaVuSans-69" x="2006.775391"/>
     <use xlink:href="#DejaVuSans-74" x="2034.558594"/>
     <use xlink:href="#DejaVuSans-61" x="2073.767578"/>
     <use xlink:href="#DejaVuSans-74" x="2135.046875"/>
     <use xlink:href="#DejaVuSans-69" x="2174.255859"/>
     <use xlink:href="#DejaVuSans-6f" x="2202.039062"/>
     <use xlink:href="#DejaVuSans-6e" x="2263.220703"/>
    </g>
   </g>
  </g>
 </g>
 <defs>
  <clipPath id="p7b8bb74a6a">
   <rect x="54.2" y="37.968" width="583" height="280.072"/>
  </clipPath>
 </defs>
</svg>
