<?xml version="1.0" encoding="utf-8" standalone="no"?>
<!DOCTYPE svg PUBLIC "-//W3C//DTD SVG 1.1//EN"
  "http://www.w3.org/Graphics/SVG/1.1/DTD/svg11.dtd">
<svg xmlns:xlink="http://www.w3.org/1999/xlink" width="936pt" height="360pt" viewBox="0 0 936 360" xmlns="http://www.w3.org/2000/svg" version="1.1">
 <metadata>
  <rdf:RDF xmlns:dc="http://purl.org/dc/elements/1.1/" xmlns:cc="http://creativecommons.org/ns#" xmlns:rdf="http://www.w3.org/1999/02/22-rdf-syntax-ns#">
   <cc:Work>
    <dc:type rdf:resource="http://purl.org/dc/dcmitype/StillImage"/>
    <dc:date>2025-06-13T09:45:00.154625</dc:date>
    <dc:format>image/svg+xml</dc:format>
    <dc:creator>
     <cc:Agent>
      <dc:title>Matplotlib v3.9.2, https://matplotlib.org/</dc:title>
     </cc:Agent>
    </dc:creator>
   </cc:Work>
  </rdf:RDF>
 </metadata>
 <defs>
  <style type="text/css">*{stroke-linejoin: round; stroke-linecap: butt}</style>
 </defs>
 <g id="figure_1">
  <g id="patch_1">
   <path d="M 0 360 
L 936 360 
L 936 0 
L 0 0 
z
" style="fill: #d9d9d9"/>
  </g>
  <g id="axes_1">
   <g id="patch_2">
    <path d="M 10.8 318.04 
L 440.092875 318.04 
L 440.092875 25.44 
L 10.8 25.44 
z
" style="fill: #d9d9d9"/>
   </g>
   <g id="patch_3">
    <path d="M 19.385857 318.04 
L 88.072717 318.04 
L 88.072717 39.373333 
L 19.385857 39.373333 
z
" clip-path="url(#pcc0742b268)" style="fill: #3e0b4a"/>
   </g>
   <g id="patch_4">
    <path d="M 105.244432 318.04 
L 173.931292 318.04 
L 173.931292 114.120941 
L 105.244432 114.120941 
z
" clip-path="url(#pcc0742b268)" style="fill: #4a4c7e"/>
   </g>
   <g id="patch_5">
    <path d="M 191.103007 318.04 
L 259.789867 318.04 
L 259.789867 105.106496 
L 191.103007 105.106496 
z
" clip-path="url(#pcc0742b268)" style="fill: #377182"/>
   </g>
   <g id="patch_6">
    <path d="M 276.961582 318.04 
L 345.648442 318.04 
L 345.648442 143.380683 
L 276.961582 143.380683 
z
" clip-path="url(#pcc0742b268)" style="fill: #33977c"/>
   </g>
   <g id="matplotlib.axis_1">
    <g id="xtick_1">
     <g id="line2d_1">
      <defs>
       <path id="mf2b793490c" d="M 0 0 
L 0 3.5 
" style="stroke: #000000; stroke-width: 0.8"/>
      </defs>
      <g>
       <use xlink:href="#mf2b793490c" x="53.729287" y="318.04" style="stroke: #000000; stroke-width: 0.8"/>
      </g>
     </g>
     <g id="text_1">
      <!-- no rain -->
      <g transform="translate(36.234756 332.638438) scale(0.1 -0.1)">
       <defs>
        <path id="DejaVuSans-6e" d="M 3513 2113 
L 3513 0 
L 2938 0 
L 2938 2094 
Q 2938 2591 2744 2837 
Q 2550 3084 2163 3084 
Q 1697 3084 1428 2787 
Q 1159 2491 1159 1978 
L 1159 0 
L 581 0 
L 581 3500 
L 1159 3500 
L 1159 2956 
Q 1366 3272 1645 3428 
Q 1925 3584 2291 3584 
Q 2894 3584 3203 3211 
Q 3513 2838 3513 2113 
z
" transform="scale(0.015625)"/>
        <path id="DejaVuSans-6f" d="M 1959 3097 
Q 1497 3097 1228 2736 
Q 959 2375 959 1747 
Q 959 1119 1226 758 
Q 1494 397 1959 397 
Q 2419 397 2687 759 
Q 2956 1122 2956 1747 
Q 2956 2369 2687 2733 
Q 2419 3097 1959 3097 
z
M 1959 3584 
Q 2709 3584 3137 3096 
Q 3566 2609 3566 1747 
Q 3566 888 3137 398 
Q 2709 -91 1959 -91 
Q 1206 -91 779 398 
Q 353 888 353 1747 
Q 353 2609 779 3096 
Q 1206 3584 1959 3584 
z
" transform="scale(0.015625)"/>
        <path id="DejaVuSans-20" transform="scale(0.015625)"/>
        <path id="DejaVuSans-72" d="M 2631 2963 
Q 2534 3019 2420 3045 
Q 2306 3072 2169 3072 
Q 1681 3072 1420 2755 
Q 1159 2438 1159 1844 
L 1159 0 
L 581 0 
L 581 3500 
L 1159 3500 
L 1159 2956 
Q 1341 3275 1631 3429 
Q 1922 3584 2338 3584 
Q 2397 3584 2469 3576 
Q 2541 3569 2628 3553 
L 2631 2963 
z
" transform="scale(0.015625)"/>
        <path id="DejaVuSans-61" d="M 2194 1759 
Q 1497 1759 1228 1600 
Q 959 1441 959 1056 
Q 959 750 1161 570 
Q 1363 391 1709 391 
Q 2188 391 2477 730 
Q 2766 1069 2766 1631 
L 2766 1759 
L 2194 1759 
z
M 3341 1997 
L 3341 0 
L 2766 0 
L 2766 531 
Q 2569 213 2275 61 
Q 1981 -91 1556 -91 
Q 1019 -91 701 211 
Q 384 513 384 1019 
Q 384 1609 779 1909 
Q 1175 2209 1959 2209 
L 2766 2209 
L 2766 2266 
Q 2766 2663 2505 2880 
Q 2244 3097 1772 3097 
Q 1472 3097 1187 3025 
Q 903 2953 641 2809 
L 641 3341 
Q 956 3463 1253 3523 
Q 1550 3584 1831 3584 
Q 2591 3584 2966 3190 
Q 3341 2797 3341 1997 
z
" transform="scale(0.015625)"/>
        <path id="DejaVuSans-69" d="M 603 3500 
L 1178 3500 
L 1178 0 
L 603 0 
L 603 3500 
z
M 603 4863 
L 1178 4863 
L 1178 4134 
L 603 4134 
L 603 4863 
z
" transform="scale(0.015625)"/>
       </defs>
       <use xlink:href="#DejaVuSans-6e"/>
       <use xlink:href="#DejaVuSans-6f" x="63.378906"/>
       <use xlink:href="#DejaVuSans-20" x="124.560547"/>
       <use xlink:href="#DejaVuSans-72" x="156.347656"/>
       <use xlink:href="#DejaVuSans-61" x="197.460938"/>
       <use xlink:href="#DejaVuSans-69" x="258.740234"/>
       <use xlink:href="#DejaVuSans-6e" x="286.523438"/>
      </g>
     </g>
    </g>
    <g id="xtick_2">
     <g id="line2d_2">
      <g>
       <use xlink:href="#mf2b793490c" x="139.587862" y="318.04" style="stroke: #000000; stroke-width: 0.8"/>
      </g>
     </g>
     <g id="text_2">
      <!-- light -->
      <g transform="translate(128.506612 332.638438) scale(0.1 -0.1)">
       <defs>
        <path id="DejaVuSans-6c" d="M 603 4863 
L 1178 4863 
L 1178 0 
L 603 0 
L 603 4863 
z
" transform="scale(0.015625)"/>
        <path id="DejaVuSans-67" d="M 2906 1791 
Q 2906 2416 2648 2759 
Q 2391 3103 1925 3103 
Q 1463 3103 1205 2759 
Q 947 2416 947 1791 
Q 947 1169 1205 825 
Q 1463 481 1925 481 
Q 2391 481 2648 825 
Q 2906 1169 2906 1791 
z
M 3481 434 
Q 3481 -459 3084 -895 
Q 2688 -1331 1869 -1331 
Q 1566 -1331 1297 -1286 
Q 1028 -1241 775 -1147 
L 775 -588 
Q 1028 -725 1275 -790 
Q 1522 -856 1778 -856 
Q 2344 -856 2625 -561 
Q 2906 -266 2906 331 
L 2906 616 
Q 2728 306 2450 153 
Q 2172 0 1784 0 
Q 1141 0 747 490 
Q 353 981 353 1791 
Q 353 2603 747 3093 
Q 1141 3584 1784 3584 
Q 2172 3584 2450 3431 
Q 2728 3278 2906 2969 
L 2906 3500 
L 3481 3500 
L 3481 434 
z
" transform="scale(0.015625)"/>
        <path id="DejaVuSans-68" d="M 3513 2113 
L 3513 0 
L 2938 0 
L 2938 2094 
Q 2938 2591 2744 2837 
Q 2550 3084 2163 3084 
Q 1697 3084 1428 2787 
Q 1159 2491 1159 1978 
L 1159 0 
L 581 0 
L 581 4863 
L 1159 4863 
L 1159 2956 
Q 1366 3272 1645 3428 
Q 1925 3584 2291 3584 
Q 2894 3584 3203 3211 
Q 3513 2838 3513 2113 
z
" transform="scale(0.015625)"/>
        <path id="DejaVuSans-74" d="M 1172 4494 
L 1172 3500 
L 2356 3500 
L 2356 3053 
L 1172 3053 
L 1172 1153 
Q 1172 725 1289 603 
Q 1406 481 1766 481 
L 2356 481 
L 2356 0 
L 1766 0 
Q 1100 0 847 248 
Q 594 497 594 1153 
L 594 3053 
L 172 3053 
L 172 3500 
L 594 3500 
L 594 4494 
L 1172 4494 
z
" transform="scale(0.015625)"/>
       </defs>
       <use xlink:href="#DejaVuSans-6c"/>
       <use xlink:href="#DejaVuSans-69" x="27.783203"/>
       <use xlink:href="#DejaVuSans-67" x="55.566406"/>
       <use xlink:href="#DejaVuSans-68" x="119.042969"/>
       <use xlink:href="#DejaVuSans-74" x="182.421875"/>
      </g>
     </g>
    </g>
    <g id="xtick_3">
     <g id="line2d_3">
      <g>
       <use xlink:href="#mf2b793490c" x="225.446437" y="318.04" style="stroke: #000000; stroke-width: 0.8"/>
      </g>
     </g>
     <g id="text_3">
      <!-- moderate -->
      <g transform="translate(201.109719 332.638438) scale(0.1 -0.1)">
       <defs>
        <path id="DejaVuSans-6d" d="M 3328 2828 
Q 3544 3216 3844 3400 
Q 4144 3584 4550 3584 
Q 5097 3584 5394 3201 
Q 5691 2819 5691 2113 
L 5691 0 
L 5113 0 
L 5113 2094 
Q 5113 2597 4934 2840 
Q 4756 3084 4391 3084 
Q 3944 3084 3684 2787 
Q 3425 2491 3425 1978 
L 3425 0 
L 2847 0 
L 2847 2094 
Q 2847 2600 2669 2842 
Q 2491 3084 2119 3084 
Q 1678 3084 1418 2786 
Q 1159 2488 1159 1978 
L 1159 0 
L 581 0 
L 581 3500 
L 1159 3500 
L 1159 2956 
Q 1356 3278 1631 3431 
Q 1906 3584 2284 3584 
Q 2666 3584 2933 3390 
Q 3200 3197 3328 2828 
z
" transform="scale(0.015625)"/>
        <path id="DejaVuSans-64" d="M 2906 2969 
L 2906 4863 
L 3481 4863 
L 3481 0 
L 2906 0 
L 2906 525 
Q 2725 213 2448 61 
Q 2172 -91 1784 -91 
Q 1150 -91 751 415 
Q 353 922 353 1747 
Q 353 2572 751 3078 
Q 1150 3584 1784 3584 
Q 2172 3584 2448 3432 
Q 2725 3281 2906 2969 
z
M 947 1747 
Q 947 1113 1208 752 
Q 1469 391 1925 391 
Q 2381 391 2643 752 
Q 2906 1113 2906 1747 
Q 2906 2381 2643 2742 
Q 2381 3103 1925 3103 
Q 1469 3103 1208 2742 
Q 947 2381 947 1747 
z
" transform="scale(0.015625)"/>
        <path id="DejaVuSans-65" d="M 3597 1894 
L 3597 1613 
L 953 1613 
Q 991 1019 1311 708 
Q 1631 397 2203 397 
Q 2534 397 2845 478 
Q 3156 559 3463 722 
L 3463 178 
Q 3153 47 2828 -22 
Q 2503 -91 2169 -91 
Q 1331 -91 842 396 
Q 353 884 353 1716 
Q 353 2575 817 3079 
Q 1281 3584 2069 3584 
Q 2775 3584 3186 3129 
Q 3597 2675 3597 1894 
z
M 3022 2063 
Q 3016 2534 2758 2815 
Q 2500 3097 2075 3097 
Q 1594 3097 1305 2825 
Q 1016 2553 972 2059 
L 3022 2063 
z
" transform="scale(0.015625)"/>
       </defs>
       <use xlink:href="#DejaVuSans-6d"/>
       <use xlink:href="#DejaVuSans-6f" x="97.412109"/>
       <use xlink:href="#DejaVuSans-64" x="158.59375"/>
       <use xlink:href="#DejaVuSans-65" x="222.070312"/>
       <use xlink:href="#DejaVuSans-72" x="283.59375"/>
       <use xlink:href="#DejaVuSans-61" x="324.707031"/>
       <use xlink:href="#DejaVuSans-74" x="385.986328"/>
       <use xlink:href="#DejaVuSans-65" x="425.195312"/>
      </g>
     </g>
    </g>
    <g id="xtick_4">
     <g id="line2d_4">
      <g>
       <use xlink:href="#mf2b793490c" x="311.305012" y="318.04" style="stroke: #000000; stroke-width: 0.8"/>
      </g>
     </g>
     <g id="text_4">
      <!-- heavy -->
      <g transform="translate(296.076887 332.638438) scale(0.1 -0.1)">
       <defs>
        <path id="DejaVuSans-76" d="M 191 3500 
L 800 3500 
L 1894 563 
L 2988 3500 
L 3597 3500 
L 2284 0 
L 1503 0 
L 191 3500 
z
" transform="scale(0.015625)"/>
        <path id="DejaVuSans-79" d="M 2059 -325 
Q 1816 -950 1584 -1140 
Q 1353 -1331 966 -1331 
L 506 -1331 
L 506 -850 
L 844 -850 
Q 1081 -850 1212 -737 
Q 1344 -625 1503 -206 
L 1606 56 
L 191 3500 
L 800 3500 
L 1894 763 
L 2988 3500 
L 3597 3500 
L 2059 -325 
z
" transform="scale(0.015625)"/>
       </defs>
       <use xlink:href="#DejaVuSans-68"/>
       <use xlink:href="#DejaVuSans-65" x="63.378906"/>
       <use xlink:href="#DejaVuSans-61" x="124.902344"/>
       <use xlink:href="#DejaVuSans-76" x="186.181641"/>
       <use xlink:href="#DejaVuSans-79" x="245.361328"/>
      </g>
     </g>
    </g>
    <g id="xtick_5">
     <g id="line2d_5">
      <g>
       <use xlink:href="#mf2b793490c" x="397.163587" y="318.04" style="stroke: #000000; stroke-width: 0.8"/>
      </g>
     </g>
     <g id="text_5">
      <!-- torrential -->
      <g transform="translate(374.185462 332.638438) scale(0.1 -0.1)">
       <use xlink:href="#DejaVuSans-74"/>
       <use xlink:href="#DejaVuSans-6f" x="39.208984"/>
       <use xlink:href="#DejaVuSans-72" x="100.390625"/>
       <use xlink:href="#DejaVuSans-72" x="139.753906"/>
       <use xlink:href="#DejaVuSans-65" x="178.617188"/>
       <use xlink:href="#DejaVuSans-6e" x="240.140625"/>
       <use xlink:href="#DejaVuSans-74" x="303.519531"/>
       <use xlink:href="#DejaVuSans-69" x="342.728516"/>
       <use xlink:href="#DejaVuSans-61" x="370.511719"/>
       <use xlink:href="#DejaVuSans-6c" x="431.791016"/>
      </g>
     </g>
    </g>
   </g>
   <g id="matplotlib.axis_2"/>
   <g id="patch_7">
    <path d="M 10.8 318.04 
L 440.092875 318.04 
" style="fill: none; stroke: #000000; stroke-width: 0.8; stroke-linejoin: miter; stroke-linecap: square"/>
   </g>
   <g id="text_6">
    <!-- 116.4 -->
    <g transform="translate(39.415225 37.293646) scale(0.1 -0.1)">
     <defs>
      <path id="DejaVuSans-31" d="M 794 531 
L 1825 531 
L 1825 4091 
L 703 3866 
L 703 4441 
L 1819 4666 
L 2450 4666 
L 2450 531 
L 3481 531 
L 3481 0 
L 794 0 
L 794 531 
z
" transform="scale(0.015625)"/>
      <path id="DejaVuSans-36" d="M 2113 2584 
Q 1688 2584 1439 2293 
Q 1191 2003 1191 1497 
Q 1191 994 1439 701 
Q 1688 409 2113 409 
Q 2538 409 2786 701 
Q 3034 994 3034 1497 
Q 3034 2003 2786 2293 
Q 2538 2584 2113 2584 
z
M 3366 4563 
L 3366 3988 
Q 3128 4100 2886 4159 
Q 2644 4219 2406 4219 
Q 1781 4219 1451 3797 
Q 1122 3375 1075 2522 
Q 1259 2794 1537 2939 
Q 1816 3084 2150 3084 
Q 2853 3084 3261 2657 
Q 3669 2231 3669 1497 
Q 3669 778 3244 343 
Q 2819 -91 2113 -91 
Q 1303 -91 875 529 
Q 447 1150 447 2328 
Q 447 3434 972 4092 
Q 1497 4750 2381 4750 
Q 2619 4750 2861 4703 
Q 3103 4656 3366 4563 
z
" transform="scale(0.015625)"/>
      <path id="DejaVuSans-2e" d="M 684 794 
L 1344 794 
L 1344 0 
L 684 0 
L 684 794 
z
" transform="scale(0.015625)"/>
      <path id="DejaVuSans-34" d="M 2419 4116 
L 825 1625 
L 2419 1625 
L 2419 4116 
z
M 2253 4666 
L 3047 4666 
L 3047 1625 
L 3713 1625 
L 3713 1100 
L 3047 1100 
L 3047 0 
L 2419 0 
L 2419 1100 
L 313 1100 
L 313 1709 
L 2253 4666 
z
" transform="scale(0.015625)"/>
     </defs>
     <use xlink:href="#DejaVuSans-31"/>
     <use xlink:href="#DejaVuSans-31" x="63.623047"/>
     <use xlink:href="#DejaVuSans-36" x="127.246094"/>
     <use xlink:href="#DejaVuSans-2e" x="190.869141"/>
     <use xlink:href="#DejaVuSans-34" x="222.65625"/>
    </g>
   </g>
   <g id="text_7">
    <!-- 85.1 -->
    <g transform="translate(128.45505 112.041254) scale(0.1 -0.1)">
     <defs>
      <path id="DejaVuSans-38" d="M 2034 2216 
Q 1584 2216 1326 1975 
Q 1069 1734 1069 1313 
Q 1069 891 1326 650 
Q 1584 409 2034 409 
Q 2484 409 2743 651 
Q 3003 894 3003 1313 
Q 3003 1734 2745 1975 
Q 2488 2216 2034 2216 
z
M 1403 2484 
Q 997 2584 770 2862 
Q 544 3141 544 3541 
Q 544 4100 942 4425 
Q 1341 4750 2034 4750 
Q 2731 4750 3128 4425 
Q 3525 4100 3525 3541 
Q 3525 3141 3298 2862 
Q 3072 2584 2669 2484 
Q 3125 2378 3379 2068 
Q 3634 1759 3634 1313 
Q 3634 634 3220 271 
Q 2806 -91 2034 -91 
Q 1263 -91 848 271 
Q 434 634 434 1313 
Q 434 1759 690 2068 
Q 947 2378 1403 2484 
z
M 1172 3481 
Q 1172 3119 1398 2916 
Q 1625 2713 2034 2713 
Q 2441 2713 2670 2916 
Q 2900 3119 2900 3481 
Q 2900 3844 2670 4047 
Q 2441 4250 2034 4250 
Q 1625 4250 1398 4047 
Q 1172 3844 1172 3481 
z
" transform="scale(0.015625)"/>
      <path id="DejaVuSans-35" d="M 691 4666 
L 3169 4666 
L 3169 4134 
L 1269 4134 
L 1269 2991 
Q 1406 3038 1543 3061 
Q 1681 3084 1819 3084 
Q 2600 3084 3056 2656 
Q 3513 2228 3513 1497 
Q 3513 744 3044 326 
Q 2575 -91 1722 -91 
Q 1428 -91 1123 -41 
Q 819 9 494 109 
L 494 744 
Q 775 591 1075 516 
Q 1375 441 1709 441 
Q 2250 441 2565 725 
Q 2881 1009 2881 1497 
Q 2881 1984 2565 2268 
Q 2250 2553 1709 2553 
Q 1456 2553 1204 2497 
Q 953 2441 691 2322 
L 691 4666 
z
" transform="scale(0.015625)"/>
     </defs>
     <use xlink:href="#DejaVuSans-38"/>
     <use xlink:href="#DejaVuSans-35" x="63.623047"/>
     <use xlink:href="#DejaVuSans-2e" x="127.246094"/>
     <use xlink:href="#DejaVuSans-31" x="159.033203"/>
    </g>
   </g>
   <g id="text_8">
    <!-- 88.9 -->
    <g transform="translate(214.313625 103.026809) scale(0.1 -0.1)">
     <defs>
      <path id="DejaVuSans-39" d="M 703 97 
L 703 672 
Q 941 559 1184 500 
Q 1428 441 1663 441 
Q 2288 441 2617 861 
Q 2947 1281 2994 2138 
Q 2813 1869 2534 1725 
Q 2256 1581 1919 1581 
Q 1219 1581 811 2004 
Q 403 2428 403 3163 
Q 403 3881 828 4315 
Q 1253 4750 1959 4750 
Q 2769 4750 3195 4129 
Q 3622 3509 3622 2328 
Q 3622 1225 3098 567 
Q 2575 -91 1691 -91 
Q 1453 -91 1209 -44 
Q 966 3 703 97 
z
M 1959 2075 
Q 2384 2075 2632 2365 
Q 2881 2656 2881 3163 
Q 2881 3666 2632 3958 
Q 2384 4250 1959 4250 
Q 1534 4250 1286 3958 
Q 1038 3666 1038 3163 
Q 1038 2656 1286 2365 
Q 1534 2075 1959 2075 
z
" transform="scale(0.015625)"/>
     </defs>
     <use xlink:href="#DejaVuSans-38"/>
     <use xlink:href="#DejaVuSans-38" x="63.623047"/>
     <use xlink:href="#DejaVuSans-2e" x="127.246094"/>
     <use xlink:href="#DejaVuSans-39" x="159.033203"/>
    </g>
   </g>
   <g id="text_9">
    <!-- 72.9 -->
    <g transform="translate(300.1722 141.300996) scale(0.1 -0.1)">
     <defs>
      <path id="DejaVuSans-37" d="M 525 4666 
L 3525 4666 
L 3525 4397 
L 1831 0 
L 1172 0 
L 2766 4134 
L 525 4134 
L 525 4666 
z
" transform="scale(0.015625)"/>
      <path id="DejaVuSans-32" d="M 1228 531 
L 3431 531 
L 3431 0 
L 469 0 
L 469 531 
Q 828 903 1448 1529 
Q 2069 2156 2228 2338 
Q 2531 2678 2651 2914 
Q 2772 3150 2772 3378 
Q 2772 3750 2511 3984 
Q 2250 4219 1831 4219 
Q 1534 4219 1204 4116 
Q 875 4013 500 3803 
L 500 4441 
Q 881 4594 1212 4672 
Q 1544 4750 1819 4750 
Q 2544 4750 2975 4387 
Q 3406 4025 3406 3419 
Q 3406 3131 3298 2873 
Q 3191 2616 2906 2266 
Q 2828 2175 2409 1742 
Q 1991 1309 1228 531 
z
" transform="scale(0.015625)"/>
     </defs>
     <use xlink:href="#DejaVuSans-37"/>
     <use xlink:href="#DejaVuSans-32" x="63.623047"/>
     <use xlink:href="#DejaVuSans-2e" x="127.246094"/>
     <use xlink:href="#DejaVuSans-39" x="159.033203"/>
    </g>
   </g>
   <g id="text_10">
    <!-- Sales Quantity by Temperature -->
    <g transform="translate(132.46425 19.44) scale(0.12 -0.12)">
     <defs>
      <path id="DejaVuSans-53" d="M 3425 4513 
L 3425 3897 
Q 3066 4069 2747 4153 
Q 2428 4238 2131 4238 
Q 1616 4238 1336 4038 
Q 1056 3838 1056 3469 
Q 1056 3159 1242 3001 
Q 1428 2844 1947 2747 
L 2328 2669 
Q 3034 2534 3370 2195 
Q 3706 1856 3706 1288 
Q 3706 609 3251 259 
Q 2797 -91 1919 -91 
Q 1588 -91 1214 -16 
Q 841 59 441 206 
L 441 856 
Q 825 641 1194 531 
Q 1563 422 1919 422 
Q 2459 422 2753 634 
Q 3047 847 3047 1241 
Q 3047 1584 2836 1778 
Q 2625 1972 2144 2069 
L 1759 2144 
Q 1053 2284 737 2584 
Q 422 2884 422 3419 
Q 422 4038 858 4394 
Q 1294 4750 2059 4750 
Q 2388 4750 2728 4690 
Q 3069 4631 3425 4513 
z
" transform="scale(0.015625)"/>
      <path id="DejaVuSans-73" d="M 2834 3397 
L 2834 2853 
Q 2591 2978 2328 3040 
Q 2066 3103 1784 3103 
Q 1356 3103 1142 2972 
Q 928 2841 928 2578 
Q 928 2378 1081 2264 
Q 1234 2150 1697 2047 
L 1894 2003 
Q 2506 1872 2764 1633 
Q 3022 1394 3022 966 
Q 3022 478 2636 193 
Q 2250 -91 1575 -91 
Q 1294 -91 989 -36 
Q 684 19 347 128 
L 347 722 
Q 666 556 975 473 
Q 1284 391 1588 391 
Q 1994 391 2212 530 
Q 2431 669 2431 922 
Q 2431 1156 2273 1281 
Q 2116 1406 1581 1522 
L 1381 1569 
Q 847 1681 609 1914 
Q 372 2147 372 2553 
Q 372 3047 722 3315 
Q 1072 3584 1716 3584 
Q 2034 3584 2315 3537 
Q 2597 3491 2834 3397 
z
" transform="scale(0.015625)"/>
      <path id="DejaVuSans-51" d="M 2522 4238 
Q 1834 4238 1429 3725 
Q 1025 3213 1025 2328 
Q 1025 1447 1429 934 
Q 1834 422 2522 422 
Q 3209 422 3611 934 
Q 4013 1447 4013 2328 
Q 4013 3213 3611 3725 
Q 3209 4238 2522 4238 
z
M 3406 84 
L 4238 -825 
L 3475 -825 
L 2784 -78 
Q 2681 -84 2626 -87 
Q 2572 -91 2522 -91 
Q 1538 -91 948 567 
Q 359 1225 359 2328 
Q 359 3434 948 4092 
Q 1538 4750 2522 4750 
Q 3503 4750 4090 4092 
Q 4678 3434 4678 2328 
Q 4678 1516 4351 937 
Q 4025 359 3406 84 
z
" transform="scale(0.015625)"/>
      <path id="DejaVuSans-75" d="M 544 1381 
L 544 3500 
L 1119 3500 
L 1119 1403 
Q 1119 906 1312 657 
Q 1506 409 1894 409 
Q 2359 409 2629 706 
Q 2900 1003 2900 1516 
L 2900 3500 
L 3475 3500 
L 3475 0 
L 2900 0 
L 2900 538 
Q 2691 219 2414 64 
Q 2138 -91 1772 -91 
Q 1169 -91 856 284 
Q 544 659 544 1381 
z
M 1991 3584 
L 1991 3584 
z
" transform="scale(0.015625)"/>
      <path id="DejaVuSans-62" d="M 3116 1747 
Q 3116 2381 2855 2742 
Q 2594 3103 2138 3103 
Q 1681 3103 1420 2742 
Q 1159 2381 1159 1747 
Q 1159 1113 1420 752 
Q 1681 391 2138 391 
Q 2594 391 2855 752 
Q 3116 1113 3116 1747 
z
M 1159 2969 
Q 1341 3281 1617 3432 
Q 1894 3584 2278 3584 
Q 2916 3584 3314 3078 
Q 3713 2572 3713 1747 
Q 3713 922 3314 415 
Q 2916 -91 2278 -91 
Q 1894 -91 1617 61 
Q 1341 213 1159 525 
L 1159 0 
L 581 0 
L 581 4863 
L 1159 4863 
L 1159 2969 
z
" transform="scale(0.015625)"/>
      <path id="DejaVuSans-54" d="M -19 4666 
L 3928 4666 
L 3928 4134 
L 2272 4134 
L 2272 0 
L 1638 0 
L 1638 4134 
L -19 4134 
L -19 4666 
z
" transform="scale(0.015625)"/>
      <path id="DejaVuSans-70" d="M 1159 525 
L 1159 -1331 
L 581 -1331 
L 581 3500 
L 1159 3500 
L 1159 2969 
Q 1341 3281 1617 3432 
Q 1894 3584 2278 3584 
Q 2916 3584 3314 3078 
Q 3713 2572 3713 1747 
Q 3713 922 3314 415 
Q 2916 -91 2278 -91 
Q 1894 -91 1617 61 
Q 1341 213 1159 525 
z
M 3116 1747 
Q 3116 2381 2855 2742 
Q 2594 3103 2138 3103 
Q 1681 3103 1420 2742 
Q 1159 2381 1159 1747 
Q 1159 1113 1420 752 
Q 1681 391 2138 391 
Q 2594 391 2855 752 
Q 3116 1113 3116 1747 
z
" transform="scale(0.015625)"/>
     </defs>
     <use xlink:href="#DejaVuSans-53"/>
     <use xlink:href="#DejaVuSans-61" x="63.476562"/>
     <use xlink:href="#DejaVuSans-6c" x="124.755859"/>
     <use xlink:href="#DejaVuSans-65" x="152.539062"/>
     <use xlink:href="#DejaVuSans-73" x="214.0625"/>
     <use xlink:href="#DejaVuSans-20" x="266.162109"/>
     <use xlink:href="#DejaVuSans-51" x="297.949219"/>
     <use xlink:href="#DejaVuSans-75" x="376.660156"/>
     <use xlink:href="#DejaVuSans-61" x="440.039062"/>
     <use xlink:href="#DejaVuSans-6e" x="501.318359"/>
     <use xlink:href="#DejaVuSans-74" x="564.697266"/>
     <use xlink:href="#DejaVuSans-69" x="603.90625"/>
     <use xlink:href="#DejaVuSans-74" x="631.689453"/>
     <use xlink:href="#DejaVuSans-79" x="670.898438"/>
     <use xlink:href="#DejaVuSans-20" x="730.078125"/>
     <use xlink:href="#DejaVuSans-62" x="761.865234"/>
     <use xlink:href="#DejaVuSans-79" x="825.341797"/>
     <use xlink:href="#DejaVuSans-20" x="884.521484"/>
     <use xlink:href="#DejaVuSans-54" x="916.308594"/>
     <use xlink:href="#DejaVuSans-65" x="960.392578"/>
     <use xlink:href="#DejaVuSans-6d" x="1021.916016"/>
     <use xlink:href="#DejaVuSans-70" x="1119.328125"/>
     <use xlink:href="#DejaVuSans-65" x="1182.804688"/>
     <use xlink:href="#DejaVuSans-72" x="1244.328125"/>
     <use xlink:href="#DejaVuSans-61" x="1285.441406"/>
     <use xlink:href="#DejaVuSans-74" x="1346.720703"/>
     <use xlink:href="#DejaVuSans-75" x="1385.929688"/>
     <use xlink:href="#DejaVuSans-72" x="1449.308594"/>
     <use xlink:href="#DejaVuSans-65" x="1488.171875"/>
    </g>
   </g>
  </g>
  <g id="axes_2">
   <g id="patch_8">
    <path d="M 494.292875 318.04 
L 923.58575 318.04 
L 923.58575 25.44 
L 494.292875 25.44 
z
" style="fill: #d9d9d9"/>
   </g>
   <g id="PolyCollection_1">
    <defs>
     <path id="m79741ec45c" d="M 513.806187 -45.342758 
L 513.806187 -41.96 
L 515.767324 -41.96 
L 517.728461 -41.96 
L 519.689598 -41.96 
L 521.650735 -41.96 
L 523.611872 -41.96 
L 525.573009 -41.96 
L 527.534146 -41.96 
L 529.495283 -41.96 
L 531.45642 -41.96 
L 533.417557 -41.96 
L 535.378694 -41.96 
L 537.339831 -41.96 
L 539.300967 -41.96 
L 541.262104 -41.96 
L 543.223241 -41.96 
L 545.184378 -41.96 
L 547.145515 -41.96 
L 549.106652 -41.96 
L 551.067789 -41.96 
L 553.028926 -41.96 
L 554.990063 -41.96 
L 556.9512 -41.96 
L 558.912337 -41.96 
L 560.873474 -41.96 
L 562.834611 -41.96 
L 564.795748 -41.96 
L 566.756885 -41.96 
L 568.718021 -41.96 
L 570.679158 -41.96 
L 572.640295 -41.96 
L 574.601432 -41.96 
L 576.562569 -41.96 
L 578.523706 -41.96 
L 580.484843 -41.96 
L 582.44598 -41.96 
L 584.407117 -41.96 
L 586.368254 -41.96 
L 588.329391 -41.96 
L 590.290528 -41.96 
L 592.251665 -41.96 
L 594.212802 -41.96 
L 596.173939 -41.96 
L 598.135075 -41.96 
L 600.096212 -41.96 
L 602.057349 -41.96 
L 604.018486 -41.96 
L 605.979623 -41.96 
L 607.94076 -41.96 
L 609.901897 -41.96 
L 611.863034 -41.96 
L 613.824171 -41.96 
L 615.785308 -41.96 
L 617.746445 -41.96 
L 619.707582 -41.96 
L 621.668719 -41.96 
L 623.629856 -41.96 
L 625.590993 -41.96 
L 627.55213 -41.96 
L 629.513266 -41.96 
L 631.474403 -41.96 
L 633.43554 -41.96 
L 635.396677 -41.96 
L 637.357814 -41.96 
L 639.318951 -41.96 
L 641.280088 -41.96 
L 643.241225 -41.96 
L 645.202362 -41.96 
L 647.163499 -41.96 
L 649.124636 -41.96 
L 651.085773 -41.96 
L 653.04691 -41.96 
L 655.008047 -41.96 
L 656.969184 -41.96 
L 658.93032 -41.96 
L 660.891457 -41.96 
L 662.852594 -41.96 
L 664.813731 -41.96 
L 666.774868 -41.96 
L 668.736005 -41.96 
L 670.697142 -41.96 
L 672.658279 -41.96 
L 674.619416 -41.96 
L 676.580553 -41.96 
L 678.54169 -41.96 
L 680.502827 -41.96 
L 682.463964 -41.96 
L 684.425101 -41.96 
L 686.386238 -41.96 
L 688.347374 -41.96 
L 690.308511 -41.96 
L 692.269648 -41.96 
L 694.230785 -41.96 
L 696.191922 -41.96 
L 698.153059 -41.96 
L 700.114196 -41.96 
L 702.075333 -41.96 
L 704.03647 -41.96 
L 705.997607 -41.96 
L 707.958744 -41.96 
L 709.919881 -41.96 
L 711.881018 -41.96 
L 713.842155 -41.96 
L 715.803292 -41.96 
L 717.764428 -41.96 
L 719.725565 -41.96 
L 721.686702 -41.96 
L 723.647839 -41.96 
L 725.608976 -41.96 
L 727.570113 -41.96 
L 729.53125 -41.96 
L 731.492387 -41.96 
L 733.453524 -41.96 
L 735.414661 -41.96 
L 737.375798 -41.96 
L 739.336935 -41.96 
L 741.298072 -41.96 
L 743.259209 -41.96 
L 745.220346 -41.96 
L 747.181482 -41.96 
L 749.142619 -41.96 
L 751.103756 -41.96 
L 753.064893 -41.96 
L 755.02603 -41.96 
L 756.987167 -41.96 
L 758.948304 -41.96 
L 760.909441 -41.96 
L 762.870578 -41.96 
L 764.831715 -41.96 
L 766.792852 -41.96 
L 768.753989 -41.96 
L 770.715126 -41.96 
L 772.676263 -41.96 
L 774.6374 -41.96 
L 776.598536 -41.96 
L 778.559673 -41.96 
L 780.52081 -41.96 
L 782.481947 -41.96 
L 784.443084 -41.96 
L 786.404221 -41.96 
L 788.365358 -41.96 
L 790.326495 -41.96 
L 792.287632 -41.96 
L 794.248769 -41.96 
L 796.209906 -41.96 
L 798.171043 -41.96 
L 800.13218 -41.96 
L 802.093317 -41.96 
L 804.054454 -41.96 
L 806.01559 -41.96 
L 807.976727 -41.96 
L 809.937864 -41.96 
L 811.899001 -41.96 
L 813.860138 -41.96 
L 815.821275 -41.96 
L 817.782412 -41.96 
L 819.743549 -41.96 
L 821.704686 -41.96 
L 823.665823 -41.96 
L 825.62696 -41.96 
L 827.588097 -41.96 
L 829.549234 -41.96 
L 831.510371 -41.96 
L 833.471508 -41.96 
L 835.432645 -41.96 
L 837.393781 -41.96 
L 839.354918 -41.96 
L 841.316055 -41.96 
L 843.277192 -41.96 
L 845.238329 -41.96 
L 847.199466 -41.96 
L 849.160603 -41.96 
L 851.12174 -41.96 
L 853.082877 -41.96 
L 855.044014 -41.96 
L 857.005151 -41.96 
L 858.966288 -41.96 
L 860.927425 -41.96 
L 862.888562 -41.96 
L 864.849699 -41.96 
L 866.810835 -41.96 
L 868.771972 -41.96 
L 870.733109 -41.96 
L 872.694246 -41.96 
L 874.655383 -41.96 
L 876.61652 -41.96 
L 878.577657 -41.96 
L 880.538794 -41.96 
L 882.499931 -41.96 
L 884.461068 -41.96 
L 886.422205 -41.96 
L 888.383342 -41.96 
L 890.344479 -41.96 
L 892.305616 -41.96 
L 894.266753 -41.96 
L 896.227889 -41.96 
L 898.189026 -41.96 
L 900.150163 -41.96 
L 902.1113 -41.96 
L 904.072437 -41.96 
L 904.072437 -41.9737 
L 904.072437 -41.9737 
L 902.1113 -41.987243 
L 900.150163 -42.010989 
L 898.189026 -42.049817 
L 896.227889 -42.108906 
L 894.266753 -42.192349 
L 892.305616 -42.301222 
L 890.344479 -42.431634 
L 888.383342 -42.573541 
L 886.422205 -42.711195 
L 884.461068 -42.825631 
L 882.499931 -42.898822 
L 880.538794 -42.918307 
L 878.577657 -42.880654 
L 876.61652 -42.792452 
L 874.655383 -42.668423 
L 872.694246 -42.527409 
L 870.733109 -42.387732 
L 868.771972 -42.263471 
L 866.810835 -42.162644 
L 864.849699 -42.087356 
L 862.888562 -42.035332 
L 860.927425 -42.001939 
L 858.966288 -41.981977 
L 857.005151 -41.970846 
L 855.044014 -41.965061 
L 853.082877 -41.962293 
L 851.12174 -41.961179 
L 849.160603 -41.961095 
L 847.199466 -41.962023 
L 845.238329 -41.964588 
L 843.277192 -41.97028 
L 841.316055 -41.981862 
L 839.354918 -42.003873 
L 837.393781 -42.043024 
L 835.432645 -42.108162 
L 833.471508 -42.209391 
L 831.510371 -42.356064 
L 829.549234 -42.553687 
L 827.588097 -42.800408 
L 825.62696 -43.084303 
L 823.665823 -43.382948 
L 821.704686 -43.666263 
L 819.743549 -43.902493 
L 817.782412 -44.065758 
L 815.821275 -44.142643 
L 813.860138 -44.13541 
L 811.899001 -44.060665 
L 809.937864 -43.944109 
L 807.976727 -43.813405 
L 806.01559 -43.691568 
L 804.054454 -43.592603 
L 802.093317 -43.520003 
L 800.13218 -43.467795 
L 798.171043 -43.4235 
L 796.209906 -43.372335 
L 794.248769 -43.301932 
L 792.287632 -43.206646 
L 790.326495 -43.090305 
L 788.365358 -42.966466 
L 786.404221 -42.855835 
L 784.443084 -42.781455 
L 782.481947 -42.76294 
L 780.52081 -42.8113 
L 778.559673 -42.925691 
L 776.598536 -43.092918 
L 774.6374 -43.289858 
L 772.676263 -43.48833 
L 770.715126 -43.661243 
L 768.753989 -43.78842 
L 766.792852 -43.860395 
L 764.831715 -43.879043 
L 762.870578 -43.854986 
L 760.909441 -43.802956 
L 758.948304 -43.737131 
L 756.987167 -43.668376 
L 755.02603 -43.604265 
L 753.064893 -43.551265 
L 751.103756 -43.517214 
L 749.142619 -43.512116 
L 747.181482 -43.546303 
L 745.220346 -43.626711 
L 743.259209 -43.753282 
L 741.298072 -43.917643 
L 739.336935 -44.104996 
L 737.375798 -44.298381 
L 735.414661 -44.483198 
L 733.453524 -44.649829 
L 731.492387 -44.793412 
L 729.53125 -44.91146 
L 727.570113 -45.001167 
L 725.608976 -45.058205 
L 723.647839 -45.07787 
L 721.686702 -45.058045 
L 719.725565 -45.002472 
L 717.764428 -44.922616 
L 715.803292 -44.837014 
L 713.842155 -44.768041 
L 711.881018 -44.73712 
L 709.919881 -44.760054 
L 707.958744 -44.84425 
L 705.997607 -44.988964 
L 704.03647 -45.188626 
L 702.075333 -45.438084 
L 700.114196 -45.737745 
L 698.153059 -46.096511 
L 696.191922 -46.531172 
L 694.230785 -47.062116 
L 692.269648 -47.706432 
L 690.308511 -48.470076 
L 688.347374 -49.340909 
L 686.386238 -50.284234 
L 684.425101 -51.242261 
L 682.463964 -52.138517 
L 680.502827 -52.887347 
L 678.54169 -53.407266 
L 676.580553 -53.635514 
L 674.619416 -53.540484 
L 672.658279 -53.129163 
L 670.697142 -52.44807 
L 668.736005 -51.577667 
L 666.774868 -50.621276 
L 664.813731 -49.690108 
L 662.852594 -48.886459 
L 660.891457 -48.287772 
L 658.93032 -47.934724 
L 656.969184 -47.826244 
L 655.008047 -47.922961 
L 653.04691 -48.158366 
L 651.085773 -48.454855 
L 649.124636 -48.740722 
L 647.163499 -48.964354 
L 645.202362 -49.103047 
L 643.241225 -49.165135 
L 641.280088 -49.185283 
L 639.318951 -49.213778 
L 637.357814 -49.301913 
L 635.396677 -49.486958 
L 633.43554 -49.781097 
L 631.474403 -50.168165 
L 629.513266 -50.609643 
L 627.55213 -51.057965 
L 625.590993 -51.472334 
L 623.629856 -51.831616 
L 621.668719 -52.140628 
L 619.707582 -52.429281 
L 617.746445 -52.746395 
L 615.785308 -53.150549 
L 613.824171 -53.6991 
L 611.863034 -54.435372 
L 609.901897 -55.374535 
L 607.94076 -56.491071 
L 605.979623 -57.713325 
L 604.018486 -58.93086 
L 602.057349 -60.016751 
L 600.096212 -60.860586 
L 598.135075 -61.401858 
L 596.173939 -61.651396 
L 594.212802 -61.692013 
L 592.251665 -61.657295 
L 590.290528 -61.695804 
L 588.329391 -61.93296 
L 586.368254 -62.44276 
L 584.407117 -63.237021 
L 582.44598 -64.273516 
L 580.484843 -65.478664 
L 578.523706 -66.776762 
L 576.562569 -68.116511 
L 574.601432 -69.486899 
L 572.640295 -70.918449 
L 570.679158 -72.472063 
L 568.718021 -74.224659 
L 566.756885 -76.265574 
L 564.795748 -78.717413 
L 562.834611 -81.787934 
L 560.873474 -85.846431 
L 558.912337 -91.501343 
L 556.9512 -99.639341 
L 554.990063 -111.375497 
L 553.028926 -127.867777 
L 551.067789 -149.977268 
L 549.106652 -177.813891 
L 547.145515 -210.285995 
L 545.184378 -244.838375 
L 543.223241 -277.568964 
L 541.262104 -303.823736 
L 539.300967 -319.191676 
L 537.339831 -320.626667 
L 535.378694 -307.313542 
L 533.417557 -280.94841 
L 531.45642 -245.313684 
L 529.495283 -205.301235 
L 527.534146 -165.738795 
L 525.573009 -130.411742 
L 523.611872 -101.543468 
L 521.650735 -79.785752 
L 519.689598 -64.585581 
L 517.728461 -54.709372 
L 515.767324 -48.726987 
L 513.806187 -45.342758 
z
" style="stroke: #6688aa"/>
    </defs>
    <g clip-path="url(#p64aa033535)">
     <use xlink:href="#m79741ec45c" x="0" y="360" style="fill: #6688aa; fill-opacity: 0.25; stroke: #6688aa"/>
    </g>
   </g>
   <g id="matplotlib.axis_3">
    <g id="xtick_6">
     <g id="line2d_6">
      <path d="M 537.023764 318.04 
L 537.023764 25.44 
" clip-path="url(#p64aa033535)" style="fill: none; stroke: #cfcfcf; stroke-width: 0.8; stroke-linecap: square"/>
     </g>
     <g id="line2d_7">
      <g>
       <use xlink:href="#mf2b793490c" x="537.023764" y="318.04" style="stroke: #000000; stroke-width: 0.8"/>
      </g>
     </g>
     <g id="text_11">
      <!-- 0 -->
      <g transform="translate(533.842514 332.638438) scale(0.1 -0.1)">
       <defs>
        <path id="DejaVuSans-30" d="M 2034 4250 
Q 1547 4250 1301 3770 
Q 1056 3291 1056 2328 
Q 1056 1369 1301 889 
Q 1547 409 2034 409 
Q 2525 409 2770 889 
Q 3016 1369 3016 2328 
Q 3016 3291 2770 3770 
Q 2525 4250 2034 4250 
z
M 2034 4750 
Q 2819 4750 3233 4129 
Q 3647 3509 3647 2328 
Q 3647 1150 3233 529 
Q 2819 -91 2034 -91 
Q 1250 -91 836 529 
Q 422 1150 422 2328 
Q 422 3509 836 4129 
Q 1250 4750 2034 4750 
z
" transform="scale(0.015625)"/>
       </defs>
       <use xlink:href="#DejaVuSans-30"/>
      </g>
     </g>
    </g>
    <g id="xtick_7">
     <g id="line2d_8">
      <path d="M 613.09259 318.04 
L 613.09259 25.44 
" clip-path="url(#p64aa033535)" style="fill: none; stroke: #cfcfcf; stroke-width: 0.8; stroke-linecap: square"/>
     </g>
     <g id="line2d_9">
      <g>
       <use xlink:href="#mf2b793490c" x="613.09259" y="318.04" style="stroke: #000000; stroke-width: 0.8"/>
      </g>
     </g>
     <g id="text_12">
      <!-- 10 -->
      <g transform="translate(606.73009 332.638438) scale(0.1 -0.1)">
       <use xlink:href="#DejaVuSans-31"/>
       <use xlink:href="#DejaVuSans-30" x="63.623047"/>
      </g>
     </g>
    </g>
    <g id="xtick_8">
     <g id="line2d_10">
      <path d="M 689.161417 318.04 
L 689.161417 25.44 
" clip-path="url(#p64aa033535)" style="fill: none; stroke: #cfcfcf; stroke-width: 0.8; stroke-linecap: square"/>
     </g>
     <g id="line2d_11">
      <g>
       <use xlink:href="#mf2b793490c" x="689.161417" y="318.04" style="stroke: #000000; stroke-width: 0.8"/>
      </g>
     </g>
     <g id="text_13">
      <!-- 20 -->
      <g transform="translate(682.798917 332.638438) scale(0.1 -0.1)">
       <use xlink:href="#DejaVuSans-32"/>
       <use xlink:href="#DejaVuSans-30" x="63.623047"/>
      </g>
     </g>
    </g>
    <g id="xtick_9">
     <g id="line2d_12">
      <path d="M 765.230244 318.04 
L 765.230244 25.44 
" clip-path="url(#p64aa033535)" style="fill: none; stroke: #cfcfcf; stroke-width: 0.8; stroke-linecap: square"/>
     </g>
     <g id="line2d_13">
      <g>
       <use xlink:href="#mf2b793490c" x="765.230244" y="318.04" style="stroke: #000000; stroke-width: 0.8"/>
      </g>
     </g>
     <g id="text_14">
      <!-- 30 -->
      <g transform="translate(758.867744 332.638438) scale(0.1 -0.1)">
       <defs>
        <path id="DejaVuSans-33" d="M 2597 2516 
Q 3050 2419 3304 2112 
Q 3559 1806 3559 1356 
Q 3559 666 3084 287 
Q 2609 -91 1734 -91 
Q 1441 -91 1130 -33 
Q 819 25 488 141 
L 488 750 
Q 750 597 1062 519 
Q 1375 441 1716 441 
Q 2309 441 2620 675 
Q 2931 909 2931 1356 
Q 2931 1769 2642 2001 
Q 2353 2234 1838 2234 
L 1294 2234 
L 1294 2753 
L 1863 2753 
Q 2328 2753 2575 2939 
Q 2822 3125 2822 3475 
Q 2822 3834 2567 4026 
Q 2313 4219 1838 4219 
Q 1578 4219 1281 4162 
Q 984 4106 628 3988 
L 628 4550 
Q 988 4650 1302 4700 
Q 1616 4750 1894 4750 
Q 2613 4750 3031 4423 
Q 3450 4097 3450 3541 
Q 3450 3153 3228 2886 
Q 3006 2619 2597 2516 
z
" transform="scale(0.015625)"/>
       </defs>
       <use xlink:href="#DejaVuSans-33"/>
       <use xlink:href="#DejaVuSans-30" x="63.623047"/>
      </g>
     </g>
    </g>
    <g id="xtick_10">
     <g id="line2d_14">
      <path d="M 841.299071 318.04 
L 841.299071 25.44 
" clip-path="url(#p64aa033535)" style="fill: none; stroke: #cfcfcf; stroke-width: 0.8; stroke-linecap: square"/>
     </g>
     <g id="line2d_15">
      <g>
       <use xlink:href="#mf2b793490c" x="841.299071" y="318.04" style="stroke: #000000; stroke-width: 0.8"/>
      </g>
     </g>
     <g id="text_15">
      <!-- 40 -->
      <g transform="translate(834.936571 332.638438) scale(0.1 -0.1)">
       <use xlink:href="#DejaVuSans-34"/>
       <use xlink:href="#DejaVuSans-30" x="63.623047"/>
      </g>
     </g>
    </g>
    <g id="xtick_11">
     <g id="line2d_16">
      <path d="M 917.367898 318.04 
L 917.367898 25.44 
" clip-path="url(#p64aa033535)" style="fill: none; stroke: #cfcfcf; stroke-width: 0.8; stroke-linecap: square"/>
     </g>
     <g id="line2d_17">
      <g>
       <use xlink:href="#mf2b793490c" x="917.367898" y="318.04" style="stroke: #000000; stroke-width: 0.8"/>
      </g>
     </g>
     <g id="text_16">
      <!-- 50 -->
      <g transform="translate(911.005398 332.638438) scale(0.1 -0.1)">
       <use xlink:href="#DejaVuSans-35"/>
       <use xlink:href="#DejaVuSans-30" x="63.623047"/>
      </g>
     </g>
    </g>
    <g id="text_17">
     <!-- Precipitation -->
     <g transform="translate(677.689312 346.316563) scale(0.1 -0.1)">
      <defs>
       <path id="DejaVuSans-50" d="M 1259 4147 
L 1259 2394 
L 2053 2394 
Q 2494 2394 2734 2622 
Q 2975 2850 2975 3272 
Q 2975 3691 2734 3919 
Q 2494 4147 2053 4147 
L 1259 4147 
z
M 628 4666 
L 2053 4666 
Q 2838 4666 3239 4311 
Q 3641 3956 3641 3272 
Q 3641 2581 3239 2228 
Q 2838 1875 2053 1875 
L 1259 1875 
L 1259 0 
L 628 0 
L 628 4666 
z
" transform="scale(0.015625)"/>
       <path id="DejaVuSans-63" d="M 3122 3366 
L 3122 2828 
Q 2878 2963 2633 3030 
Q 2388 3097 2138 3097 
Q 1578 3097 1268 2742 
Q 959 2388 959 1747 
Q 959 1106 1268 751 
Q 1578 397 2138 397 
Q 2388 397 2633 464 
Q 2878 531 3122 666 
L 3122 134 
Q 2881 22 2623 -34 
Q 2366 -91 2075 -91 
Q 1284 -91 818 406 
Q 353 903 353 1747 
Q 353 2603 823 3093 
Q 1294 3584 2113 3584 
Q 2378 3584 2631 3529 
Q 2884 3475 3122 3366 
z
" transform="scale(0.015625)"/>
      </defs>
      <use xlink:href="#DejaVuSans-50"/>
      <use xlink:href="#DejaVuSans-72" x="58.552734"/>
      <use xlink:href="#DejaVuSans-65" x="97.416016"/>
      <use xlink:href="#DejaVuSans-63" x="158.939453"/>
      <use xlink:href="#DejaVuSans-69" x="213.919922"/>
      <use xlink:href="#DejaVuSans-70" x="241.703125"/>
      <use xlink:href="#DejaVuSans-69" x="305.179688"/>
      <use xlink:href="#DejaVuSans-74" x="332.962891"/>
      <use xlink:href="#DejaVuSans-61" x="372.171875"/>
      <use xlink:href="#DejaVuSans-74" x="433.451172"/>
      <use xlink:href="#DejaVuSans-69" x="472.660156"/>
      <use xlink:href="#DejaVuSans-6f" x="500.443359"/>
      <use xlink:href="#DejaVuSans-6e" x="561.625"/>
     </g>
    </g>
   </g>
   <g id="matplotlib.axis_4">
    <g id="ytick_1">
     <g id="line2d_18">
      <path d="M 494.292875 318.04 
L 923.58575 318.04 
" clip-path="url(#p64aa033535)" style="fill: none; stroke: #cfcfcf; stroke-width: 0.8; stroke-linecap: square"/>
     </g>
     <g id="line2d_19">
      <defs>
       <path id="m5bac2dc681" d="M 0 0 
L -3.5 0 
" style="stroke: #000000; stroke-width: 0.8"/>
      </defs>
      <g>
       <use xlink:href="#m5bac2dc681" x="494.292875" y="318.04" style="stroke: #000000; stroke-width: 0.8"/>
      </g>
     </g>
     <g id="text_18">
      <!-- 0.00 -->
      <g transform="translate(465.02725 321.839219) scale(0.1 -0.1)">
       <use xlink:href="#DejaVuSans-30"/>
       <use xlink:href="#DejaVuSans-2e" x="63.623047"/>
       <use xlink:href="#DejaVuSans-30" x="95.410156"/>
       <use xlink:href="#DejaVuSans-30" x="159.033203"/>
      </g>
     </g>
    </g>
    <g id="ytick_2">
     <g id="line2d_20">
      <path d="M 494.292875 262.523361 
L 923.58575 262.523361 
" clip-path="url(#p64aa033535)" style="fill: none; stroke: #cfcfcf; stroke-width: 0.8; stroke-linecap: square"/>
     </g>
     <g id="line2d_21">
      <g>
       <use xlink:href="#m5bac2dc681" x="494.292875" y="262.523361" style="stroke: #000000; stroke-width: 0.8"/>
      </g>
     </g>
     <g id="text_19">
      <!-- 0.05 -->
      <g transform="translate(465.02725 266.32258) scale(0.1 -0.1)">
       <use xlink:href="#DejaVuSans-30"/>
       <use xlink:href="#DejaVuSans-2e" x="63.623047"/>
       <use xlink:href="#DejaVuSans-30" x="95.410156"/>
       <use xlink:href="#DejaVuSans-35" x="159.033203"/>
      </g>
     </g>
    </g>
    <g id="ytick_3">
     <g id="line2d_22">
      <path d="M 494.292875 207.006722 
L 923.58575 207.006722 
" clip-path="url(#p64aa033535)" style="fill: none; stroke: #cfcfcf; stroke-width: 0.8; stroke-linecap: square"/>
     </g>
     <g id="line2d_23">
      <g>
       <use xlink:href="#m5bac2dc681" x="494.292875" y="207.006722" style="stroke: #000000; stroke-width: 0.8"/>
      </g>
     </g>
     <g id="text_20">
      <!-- 0.10 -->
      <g transform="translate(465.02725 210.805941) scale(0.1 -0.1)">
       <use xlink:href="#DejaVuSans-30"/>
       <use xlink:href="#DejaVuSans-2e" x="63.623047"/>
       <use xlink:href="#DejaVuSans-31" x="95.410156"/>
       <use xlink:href="#DejaVuSans-30" x="159.033203"/>
      </g>
     </g>
    </g>
    <g id="ytick_4">
     <g id="line2d_24">
      <path d="M 494.292875 151.490083 
L 923.58575 151.490083 
" clip-path="url(#p64aa033535)" style="fill: none; stroke: #cfcfcf; stroke-width: 0.8; stroke-linecap: square"/>
     </g>
     <g id="line2d_25">
      <g>
       <use xlink:href="#m5bac2dc681" x="494.292875" y="151.490083" style="stroke: #000000; stroke-width: 0.8"/>
      </g>
     </g>
     <g id="text_21">
      <!-- 0.15 -->
      <g transform="translate(465.02725 155.289302) scale(0.1 -0.1)">
       <use xlink:href="#DejaVuSans-30"/>
       <use xlink:href="#DejaVuSans-2e" x="63.623047"/>
       <use xlink:href="#DejaVuSans-31" x="95.410156"/>
       <use xlink:href="#DejaVuSans-35" x="159.033203"/>
      </g>
     </g>
    </g>
    <g id="ytick_5">
     <g id="line2d_26">
      <path d="M 494.292875 95.973444 
L 923.58575 95.973444 
" clip-path="url(#p64aa033535)" style="fill: none; stroke: #cfcfcf; stroke-width: 0.8; stroke-linecap: square"/>
     </g>
     <g id="line2d_27">
      <g>
       <use xlink:href="#m5bac2dc681" x="494.292875" y="95.973444" style="stroke: #000000; stroke-width: 0.8"/>
      </g>
     </g>
     <g id="text_22">
      <!-- 0.20 -->
      <g transform="translate(465.02725 99.772663) scale(0.1 -0.1)">
       <use xlink:href="#DejaVuSans-30"/>
       <use xlink:href="#DejaVuSans-2e" x="63.623047"/>
       <use xlink:href="#DejaVuSans-32" x="95.410156"/>
       <use xlink:href="#DejaVuSans-30" x="159.033203"/>
      </g>
     </g>
    </g>
    <g id="ytick_6">
     <g id="line2d_28">
      <path d="M 494.292875 40.456805 
L 923.58575 40.456805 
" clip-path="url(#p64aa033535)" style="fill: none; stroke: #cfcfcf; stroke-width: 0.8; stroke-linecap: square"/>
     </g>
     <g id="line2d_29">
      <g>
       <use xlink:href="#m5bac2dc681" x="494.292875" y="40.456805" style="stroke: #000000; stroke-width: 0.8"/>
      </g>
     </g>
     <g id="text_23">
      <!-- 0.25 -->
      <g transform="translate(465.02725 44.256024) scale(0.1 -0.1)">
       <use xlink:href="#DejaVuSans-30"/>
       <use xlink:href="#DejaVuSans-2e" x="63.623047"/>
       <use xlink:href="#DejaVuSans-32" x="95.410156"/>
       <use xlink:href="#DejaVuSans-35" x="159.033203"/>
      </g>
     </g>
    </g>
    <g id="text_24">
     <!-- Density of Sell Quantity -->
     <g transform="translate(458.947562 230.970469) rotate(-90) scale(0.1 -0.1)">
      <defs>
       <path id="DejaVuSans-44" d="M 1259 4147 
L 1259 519 
L 2022 519 
Q 2988 519 3436 956 
Q 3884 1394 3884 2338 
Q 3884 3275 3436 3711 
Q 2988 4147 2022 4147 
L 1259 4147 
z
M 628 4666 
L 1925 4666 
Q 3281 4666 3915 4102 
Q 4550 3538 4550 2338 
Q 4550 1131 3912 565 
Q 3275 0 1925 0 
L 628 0 
L 628 4666 
z
" transform="scale(0.015625)"/>
       <path id="DejaVuSans-66" d="M 2375 4863 
L 2375 4384 
L 1825 4384 
Q 1516 4384 1395 4259 
Q 1275 4134 1275 3809 
L 1275 3500 
L 2222 3500 
L 2222 3053 
L 1275 3053 
L 1275 0 
L 697 0 
L 697 3053 
L 147 3053 
L 147 3500 
L 697 3500 
L 697 3744 
Q 697 4328 969 4595 
Q 1241 4863 1831 4863 
L 2375 4863 
z
" transform="scale(0.015625)"/>
      </defs>
      <use xlink:href="#DejaVuSans-44"/>
      <use xlink:href="#DejaVuSans-65" x="77.001953"/>
      <use xlink:href="#DejaVuSans-6e" x="138.525391"/>
      <use xlink:href="#DejaVuSans-73" x="201.904297"/>
      <use xlink:href="#DejaVuSans-69" x="254.003906"/>
      <use xlink:href="#DejaVuSans-74" x="281.787109"/>
      <use xlink:href="#DejaVuSans-79" x="320.996094"/>
      <use xlink:href="#DejaVuSans-20" x="380.175781"/>
      <use xlink:href="#DejaVuSans-6f" x="411.962891"/>
      <use xlink:href="#DejaVuSans-66" x="473.144531"/>
      <use xlink:href="#DejaVuSans-20" x="508.349609"/>
      <use xlink:href="#DejaVuSans-53" x="540.136719"/>
      <use xlink:href="#DejaVuSans-65" x="603.613281"/>
      <use xlink:href="#DejaVuSans-6c" x="665.136719"/>
      <use xlink:href="#DejaVuSans-6c" x="692.919922"/>
      <use xlink:href="#DejaVuSans-20" x="720.703125"/>
      <use xlink:href="#DejaVuSans-51" x="752.490234"/>
      <use xlink:href="#DejaVuSans-75" x="831.201172"/>
      <use xlink:href="#DejaVuSans-61" x="894.580078"/>
      <use xlink:href="#DejaVuSans-6e" x="955.859375"/>
      <use xlink:href="#DejaVuSans-74" x="1019.238281"/>
      <use xlink:href="#DejaVuSans-69" x="1058.447266"/>
      <use xlink:href="#DejaVuSans-74" x="1086.230469"/>
      <use xlink:href="#DejaVuSans-79" x="1125.439453"/>
     </g>
    </g>
   </g>
   <g id="patch_9">
    <path d="M 494.292875 318.04 
L 494.292875 25.44 
" style="fill: none; stroke: #000000; stroke-width: 0.8; stroke-linejoin: miter; stroke-linecap: square"/>
   </g>
   <g id="patch_10">
    <path d="M 494.292875 318.04 
L 923.58575 318.04 
" style="fill: none; stroke: #000000; stroke-width: 0.8; stroke-linejoin: miter; stroke-linecap: square"/>
   </g>
   <g id="text_25">
    <!-- KDE of Sell Quantity Weighted by Precipitation -->
    <g transform="translate(569.34275 19.44) scale(0.12 -0.12)">
     <defs>
      <path id="DejaVuSans-4b" d="M 628 4666 
L 1259 4666 
L 1259 2694 
L 3353 4666 
L 4166 4666 
L 1850 2491 
L 4331 0 
L 3500 0 
L 1259 2247 
L 1259 0 
L 628 0 
L 628 4666 
z
" transform="scale(0.015625)"/>
      <path id="DejaVuSans-45" d="M 628 4666 
L 3578 4666 
L 3578 4134 
L 1259 4134 
L 1259 2753 
L 3481 2753 
L 3481 2222 
L 1259 2222 
L 1259 531 
L 3634 531 
L 3634 0 
L 628 0 
L 628 4666 
z
" transform="scale(0.015625)"/>
      <path id="DejaVuSans-57" d="M 213 4666 
L 850 4666 
L 1831 722 
L 2809 4666 
L 3519 4666 
L 4500 722 
L 5478 4666 
L 6119 4666 
L 4947 0 
L 4153 0 
L 3169 4050 
L 2175 0 
L 1381 0 
L 213 4666 
z
" transform="scale(0.015625)"/>
     </defs>
     <use xlink:href="#DejaVuSans-4b"/>
     <use xlink:href="#DejaVuSans-44" x="65.576172"/>
     <use xlink:href="#DejaVuSans-45" x="142.578125"/>
     <use xlink:href="#DejaVuSans-20" x="205.761719"/>
     <use xlink:href="#DejaVuSans-6f" x="237.548828"/>
     <use xlink:href="#DejaVuSans-66" x="298.730469"/>
     <use xlink:href="#DejaVuSans-20" x="333.935547"/>
     <use xlink:href="#DejaVuSans-53" x="365.722656"/>
     <use xlink:href="#DejaVuSans-65" x="429.199219"/>
     <use xlink:href="#DejaVuSans-6c" x="490.722656"/>
     <use xlink:href="#DejaVuSans-6c" x="518.505859"/>
     <use xlink:href="#DejaVuSans-20" x="546.289062"/>
     <use xlink:href="#DejaVuSans-51" x="578.076172"/>
     <use xlink:href="#DejaVuSans-75" x="656.787109"/>
     <use xlink:href="#DejaVuSans-61" x="720.166016"/>
     <use xlink:href="#DejaVuSans-6e" x="781.445312"/>
     <use xlink:href="#DejaVuSans-74" x="844.824219"/>
     <use xlink:href="#DejaVuSans-69" x="884.033203"/>
     <use xlink:href="#DejaVuSans-74" x="911.816406"/>
     <use xlink:href="#DejaVuSans-79" x="951.025391"/>
     <use xlink:href="#DejaVuSans-20" x="1010.205078"/>
     <use xlink:href="#DejaVuSans-57" x="1041.992188"/>
     <use xlink:href="#DejaVuSans-65" x="1134.994141"/>
     <use xlink:href="#DejaVuSans-69" x="1196.517578"/>
     <use xlink:href="#DejaVuSans-67" x="1224.300781"/>
     <use xlink:href="#DejaVuSans-68" x="1287.777344"/>
     <use xlink:href="#DejaVuSans-74" x="1351.15625"/>
     <use xlink:href="#DejaVuSans-65" x="1390.365234"/>
     <use xlink:href="#DejaVuSans-64" x="1451.888672"/>
     <use xlink:href="#DejaVuSans-20" x="1515.365234"/>
     <use xlink:href="#DejaVuSans-62" x="1547.152344"/>
     <use xlink:href="#DejaVuSans-79" x="1610.628906"/>
     <use xlink:href="#DejaVuSans-20" x="1669.808594"/>
     <use xlink:href="#DejaVuSans-50" x="1701.595703"/>
     <use xlink:href="#DejaVuSans-72" x="1760.148438"/>
     <use xlink:href="#DejaVuSans-65" x="1799.011719"/>
     <use xlink:href="#DejaVuSans-63" x="1860.535156"/>
     <use xlink:href="#DejaVuSans-69" x="1915.515625"/>
     <use xlink:href="#DejaVuSans-70" x="1943.298828"/>
     <use xlink:href="#DejaVuSans-69" x="2006.775391"/>
     <use xlink:href="#DejaVuSans-74" x="2034.558594"/>
     <use xlink:href="#DejaVuSans-61" x="2073.767578"/>
     <use xlink:href="#DejaVuSans-74" x="2135.046875"/>
     <use xlink:href="#DejaVuSans-69" x="2174.255859"/>
     <use xlink:href="#DejaVuSans-6f" x="2202.039062"/>
     <use xlink:href="#DejaVuSans-6e" x="2263.220703"/>
    </g>
   </g>
  </g>
 </g>
 <defs>
  <clipPath id="pcc0742b268">
   <rect x="10.8" y="25.44" width="429.292875" height="292.6"/>
  </clipPath>
  <clipPath id="p64aa033535">
   <rect x="494.292875" y="25.44" width="429.292875" height="292.6"/>
  </clipPath>
 </defs>
</svg>
