<?xml version="1.0" encoding="utf-8" standalone="no"?>
<!DOCTYPE svg PUBLIC "-//W3C//DTD SVG 1.1//EN"
  "http://www.w3.org/Graphics/SVG/1.1/DTD/svg11.dtd">
<svg xmlns:xlink="http://www.w3.org/1999/xlink" width="1080pt" height="432pt" viewBox="0 0 1080 432" xmlns="http://www.w3.org/2000/svg" version="1.1">
 <metadata>
  <rdf:RDF xmlns:dc="http://purl.org/dc/elements/1.1/" xmlns:cc="http://creativecommons.org/ns#" xmlns:rdf="http://www.w3.org/1999/02/22-rdf-syntax-ns#">
   <cc:Work>
    <dc:type rdf:resource="http://purl.org/dc/dcmitype/StillImage"/>
    <dc:date>2025-06-09T17:24:08.196397</dc:date>
    <dc:format>image/svg+xml</dc:format>
    <dc:creator>
     <cc:Agent>
      <dc:title>Matplotlib v3.9.2, https://matplotlib.org/</dc:title>
     </cc:Agent>
    </dc:creator>
   </cc:Work>
  </rdf:RDF>
 </metadata>
 <defs>
  <style type="text/css">*{stroke-linejoin: round; stroke-linecap: butt}</style>
 </defs>
 <g id="figure_1">
  <g id="patch_1">
   <path d="M 0 432 
L 1080 432 
L 1080 0 
L 0 0 
z
" style="fill: #d9d9d9"/>
  </g>
  <g id="axes_1">
   <g id="patch_2">
    <path d="M 135 384.48 
L 972 384.48 
L 972 51.84 
L 135 51.84 
z
" style="fill: #d9d9d9"/>
   </g>
   <g id="matplotlib.axis_1">
    <g id="xtick_1">
     <g id="line2d_1">
      <defs>
       <path id="m831d2ceeba" d="M 0 0 
L 0 3.5 
" style="stroke: #000000; stroke-width: 0.8"/>
      </defs>
      <g>
       <use xlink:href="#m831d2ceeba" x="173.045455" y="384.48" style="stroke: #000000; stroke-width: 0.8"/>
      </g>
     </g>
     <g id="text_1">
      <!-- 2024-01 -->
      <g transform="translate(152.154048 399.078438) scale(0.1 -0.1)">
       <defs>
        <path id="DejaVuSans-32" d="M 1228 531 
L 3431 531 
L 3431 0 
L 469 0 
L 469 531 
Q 828 903 1448 1529 
Q 2069 2156 2228 2338 
Q 2531 2678 2651 2914 
Q 2772 3150 2772 3378 
Q 2772 3750 2511 3984 
Q 2250 4219 1831 4219 
Q 1534 4219 1204 4116 
Q 875 4013 500 3803 
L 500 4441 
Q 881 4594 1212 4672 
Q 1544 4750 1819 4750 
Q 2544 4750 2975 4387 
Q 3406 4025 3406 3419 
Q 3406 3131 3298 2873 
Q 3191 2616 2906 2266 
Q 2828 2175 2409 1742 
Q 1991 1309 1228 531 
z
" transform="scale(0.015625)"/>
        <path id="DejaVuSans-30" d="M 2034 4250 
Q 1547 4250 1301 3770 
Q 1056 3291 1056 2328 
Q 1056 1369 1301 889 
Q 1547 409 2034 409 
Q 2525 409 2770 889 
Q 3016 1369 3016 2328 
Q 3016 3291 2770 3770 
Q 2525 4250 2034 4250 
z
M 2034 4750 
Q 2819 4750 3233 4129 
Q 3647 3509 3647 2328 
Q 3647 1150 3233 529 
Q 2819 -91 2034 -91 
Q 1250 -91 836 529 
Q 422 1150 422 2328 
Q 422 3509 836 4129 
Q 1250 4750 2034 4750 
z
" transform="scale(0.015625)"/>
        <path id="DejaVuSans-34" d="M 2419 4116 
L 825 1625 
L 2419 1625 
L 2419 4116 
z
M 2253 4666 
L 3047 4666 
L 3047 1625 
L 3713 1625 
L 3713 1100 
L 3047 1100 
L 3047 0 
L 2419 0 
L 2419 1100 
L 313 1100 
L 313 1709 
L 2253 4666 
z
" transform="scale(0.015625)"/>
        <path id="DejaVuSans-2d" d="M 313 2009 
L 1997 2009 
L 1997 1497 
L 313 1497 
L 313 2009 
z
" transform="scale(0.015625)"/>
        <path id="DejaVuSans-31" d="M 794 531 
L 1825 531 
L 1825 4091 
L 703 3866 
L 703 4441 
L 1819 4666 
L 2450 4666 
L 2450 531 
L 3481 531 
L 3481 0 
L 794 0 
L 794 531 
z
" transform="scale(0.015625)"/>
       </defs>
       <use xlink:href="#DejaVuSans-32"/>
       <use xlink:href="#DejaVuSans-30" x="63.623047"/>
       <use xlink:href="#DejaVuSans-32" x="127.246094"/>
       <use xlink:href="#DejaVuSans-34" x="190.869141"/>
       <use xlink:href="#DejaVuSans-2d" x="254.492188"/>
       <use xlink:href="#DejaVuSans-30" x="290.576172"/>
       <use xlink:href="#DejaVuSans-31" x="354.199219"/>
      </g>
     </g>
    </g>
    <g id="xtick_2">
     <g id="line2d_2">
      <g>
       <use xlink:href="#m831d2ceeba" x="267.178538" y="384.48" style="stroke: #000000; stroke-width: 0.8"/>
      </g>
     </g>
     <g id="text_2">
      <!-- 2024-03 -->
      <g transform="translate(246.287132 399.078438) scale(0.1 -0.1)">
       <defs>
        <path id="DejaVuSans-33" d="M 2597 2516 
Q 3050 2419 3304 2112 
Q 3559 1806 3559 1356 
Q 3559 666 3084 287 
Q 2609 -91 1734 -91 
Q 1441 -91 1130 -33 
Q 819 25 488 141 
L 488 750 
Q 750 597 1062 519 
Q 1375 441 1716 441 
Q 2309 441 2620 675 
Q 2931 909 2931 1356 
Q 2931 1769 2642 2001 
Q 2353 2234 1838 2234 
L 1294 2234 
L 1294 2753 
L 1863 2753 
Q 2328 2753 2575 2939 
Q 2822 3125 2822 3475 
Q 2822 3834 2567 4026 
Q 2313 4219 1838 4219 
Q 1578 4219 1281 4162 
Q 984 4106 628 3988 
L 628 4550 
Q 988 4650 1302 4700 
Q 1616 4750 1894 4750 
Q 2613 4750 3031 4423 
Q 3450 4097 3450 3541 
Q 3450 3153 3228 2886 
Q 3006 2619 2597 2516 
z
" transform="scale(0.015625)"/>
       </defs>
       <use xlink:href="#DejaVuSans-32"/>
       <use xlink:href="#DejaVuSans-30" x="63.623047"/>
       <use xlink:href="#DejaVuSans-32" x="127.246094"/>
       <use xlink:href="#DejaVuSans-34" x="190.869141"/>
       <use xlink:href="#DejaVuSans-2d" x="254.492188"/>
       <use xlink:href="#DejaVuSans-30" x="290.576172"/>
       <use xlink:href="#DejaVuSans-33" x="354.199219"/>
      </g>
     </g>
    </g>
    <g id="xtick_3">
     <g id="line2d_3">
      <g>
       <use xlink:href="#m831d2ceeba" x="362.880506" y="384.48" style="stroke: #000000; stroke-width: 0.8"/>
      </g>
     </g>
     <g id="text_3">
      <!-- 2024-05 -->
      <g transform="translate(341.9891 399.078438) scale(0.1 -0.1)">
       <defs>
        <path id="DejaVuSans-35" d="M 691 4666 
L 3169 4666 
L 3169 4134 
L 1269 4134 
L 1269 2991 
Q 1406 3038 1543 3061 
Q 1681 3084 1819 3084 
Q 2600 3084 3056 2656 
Q 3513 2228 3513 1497 
Q 3513 744 3044 326 
Q 2575 -91 1722 -91 
Q 1428 -91 1123 -41 
Q 819 9 494 109 
L 494 744 
Q 775 591 1075 516 
Q 1375 441 1709 441 
Q 2250 441 2565 725 
Q 2881 1009 2881 1497 
Q 2881 1984 2565 2268 
Q 2250 2553 1709 2553 
Q 1456 2553 1204 2497 
Q 953 2441 691 2322 
L 691 4666 
z
" transform="scale(0.015625)"/>
       </defs>
       <use xlink:href="#DejaVuSans-32"/>
       <use xlink:href="#DejaVuSans-30" x="63.623047"/>
       <use xlink:href="#DejaVuSans-32" x="127.246094"/>
       <use xlink:href="#DejaVuSans-34" x="190.869141"/>
       <use xlink:href="#DejaVuSans-2d" x="254.492188"/>
       <use xlink:href="#DejaVuSans-30" x="290.576172"/>
       <use xlink:href="#DejaVuSans-35" x="354.199219"/>
      </g>
     </g>
    </g>
    <g id="xtick_4">
     <g id="line2d_4">
      <g>
       <use xlink:href="#m831d2ceeba" x="458.582474" y="384.48" style="stroke: #000000; stroke-width: 0.8"/>
      </g>
     </g>
     <g id="text_4">
      <!-- 2024-07 -->
      <g transform="translate(437.691068 399.078438) scale(0.1 -0.1)">
       <defs>
        <path id="DejaVuSans-37" d="M 525 4666 
L 3525 4666 
L 3525 4397 
L 1831 0 
L 1172 0 
L 2766 4134 
L 525 4134 
L 525 4666 
z
" transform="scale(0.015625)"/>
       </defs>
       <use xlink:href="#DejaVuSans-32"/>
       <use xlink:href="#DejaVuSans-30" x="63.623047"/>
       <use xlink:href="#DejaVuSans-32" x="127.246094"/>
       <use xlink:href="#DejaVuSans-34" x="190.869141"/>
       <use xlink:href="#DejaVuSans-2d" x="254.492188"/>
       <use xlink:href="#DejaVuSans-30" x="290.576172"/>
       <use xlink:href="#DejaVuSans-37" x="354.199219"/>
      </g>
     </g>
    </g>
    <g id="xtick_5">
     <g id="line2d_5">
      <g>
       <use xlink:href="#m831d2ceeba" x="555.853327" y="384.48" style="stroke: #000000; stroke-width: 0.8"/>
      </g>
     </g>
     <g id="text_5">
      <!-- 2024-09 -->
      <g transform="translate(534.961921 399.078438) scale(0.1 -0.1)">
       <defs>
        <path id="DejaVuSans-39" d="M 703 97 
L 703 672 
Q 941 559 1184 500 
Q 1428 441 1663 441 
Q 2288 441 2617 861 
Q 2947 1281 2994 2138 
Q 2813 1869 2534 1725 
Q 2256 1581 1919 1581 
Q 1219 1581 811 2004 
Q 403 2428 403 3163 
Q 403 3881 828 4315 
Q 1253 4750 1959 4750 
Q 2769 4750 3195 4129 
Q 3622 3509 3622 2328 
Q 3622 1225 3098 567 
Q 2575 -91 1691 -91 
Q 1453 -91 1209 -44 
Q 966 3 703 97 
z
M 1959 2075 
Q 2384 2075 2632 2365 
Q 2881 2656 2881 3163 
Q 2881 3666 2632 3958 
Q 2384 4250 1959 4250 
Q 1534 4250 1286 3958 
Q 1038 3666 1038 3163 
Q 1038 2656 1286 2365 
Q 1534 2075 1959 2075 
z
" transform="scale(0.015625)"/>
       </defs>
       <use xlink:href="#DejaVuSans-32"/>
       <use xlink:href="#DejaVuSans-30" x="63.623047"/>
       <use xlink:href="#DejaVuSans-32" x="127.246094"/>
       <use xlink:href="#DejaVuSans-34" x="190.869141"/>
       <use xlink:href="#DejaVuSans-2d" x="254.492188"/>
       <use xlink:href="#DejaVuSans-30" x="290.576172"/>
       <use xlink:href="#DejaVuSans-39" x="354.199219"/>
      </g>
     </g>
    </g>
    <g id="xtick_6">
     <g id="line2d_6">
      <g>
       <use xlink:href="#m831d2ceeba" x="651.555295" y="384.48" style="stroke: #000000; stroke-width: 0.8"/>
      </g>
     </g>
     <g id="text_6">
      <!-- 2024-11 -->
      <g transform="translate(630.663889 399.078438) scale(0.1 -0.1)">
       <use xlink:href="#DejaVuSans-32"/>
       <use xlink:href="#DejaVuSans-30" x="63.623047"/>
       <use xlink:href="#DejaVuSans-32" x="127.246094"/>
       <use xlink:href="#DejaVuSans-34" x="190.869141"/>
       <use xlink:href="#DejaVuSans-2d" x="254.492188"/>
       <use xlink:href="#DejaVuSans-31" x="290.576172"/>
       <use xlink:href="#DejaVuSans-31" x="354.199219"/>
      </g>
     </g>
    </g>
    <g id="xtick_7">
     <g id="line2d_7">
      <g>
       <use xlink:href="#m831d2ceeba" x="747.257263" y="384.48" style="stroke: #000000; stroke-width: 0.8"/>
      </g>
     </g>
     <g id="text_7">
      <!-- 2025-01 -->
      <g transform="translate(726.365857 399.078438) scale(0.1 -0.1)">
       <use xlink:href="#DejaVuSans-32"/>
       <use xlink:href="#DejaVuSans-30" x="63.623047"/>
       <use xlink:href="#DejaVuSans-32" x="127.246094"/>
       <use xlink:href="#DejaVuSans-35" x="190.869141"/>
       <use xlink:href="#DejaVuSans-2d" x="254.492188"/>
       <use xlink:href="#DejaVuSans-30" x="290.576172"/>
       <use xlink:href="#DejaVuSans-31" x="354.199219"/>
      </g>
     </g>
    </g>
    <g id="xtick_8">
     <g id="line2d_8">
      <g>
       <use xlink:href="#m831d2ceeba" x="839.821462" y="384.48" style="stroke: #000000; stroke-width: 0.8"/>
      </g>
     </g>
     <g id="text_8">
      <!-- 2025-03 -->
      <g transform="translate(818.930056 399.078438) scale(0.1 -0.1)">
       <use xlink:href="#DejaVuSans-32"/>
       <use xlink:href="#DejaVuSans-30" x="63.623047"/>
       <use xlink:href="#DejaVuSans-32" x="127.246094"/>
       <use xlink:href="#DejaVuSans-35" x="190.869141"/>
       <use xlink:href="#DejaVuSans-2d" x="254.492188"/>
       <use xlink:href="#DejaVuSans-30" x="290.576172"/>
       <use xlink:href="#DejaVuSans-33" x="354.199219"/>
      </g>
     </g>
    </g>
    <g id="xtick_9">
     <g id="line2d_9">
      <g>
       <use xlink:href="#m831d2ceeba" x="935.52343" y="384.48" style="stroke: #000000; stroke-width: 0.8"/>
      </g>
     </g>
     <g id="text_9">
      <!-- 2025-05 -->
      <g transform="translate(914.632024 399.078438) scale(0.1 -0.1)">
       <use xlink:href="#DejaVuSans-32"/>
       <use xlink:href="#DejaVuSans-30" x="63.623047"/>
       <use xlink:href="#DejaVuSans-32" x="127.246094"/>
       <use xlink:href="#DejaVuSans-35" x="190.869141"/>
       <use xlink:href="#DejaVuSans-2d" x="254.492188"/>
       <use xlink:href="#DejaVuSans-30" x="290.576172"/>
       <use xlink:href="#DejaVuSans-35" x="354.199219"/>
      </g>
     </g>
    </g>
   </g>
   <g id="matplotlib.axis_2">
    <g id="ytick_1">
     <g id="line2d_10">
      <defs>
       <path id="ma5ace60453" d="M 0 0 
L -3.5 0 
" style="stroke: #000000; stroke-width: 0.8"/>
      </defs>
      <g>
       <use xlink:href="#ma5ace60453" x="135" y="367.141291" style="stroke: #000000; stroke-width: 0.8"/>
      </g>
     </g>
     <g id="text_10">
      <!-- −3000 -->
      <g transform="translate(94.170312 370.940509) scale(0.1 -0.1)">
       <defs>
        <path id="DejaVuSans-2212" d="M 678 2272 
L 4684 2272 
L 4684 1741 
L 678 1741 
L 678 2272 
z
" transform="scale(0.015625)"/>
       </defs>
       <use xlink:href="#DejaVuSans-2212"/>
       <use xlink:href="#DejaVuSans-33" x="83.789062"/>
       <use xlink:href="#DejaVuSans-30" x="147.412109"/>
       <use xlink:href="#DejaVuSans-30" x="211.035156"/>
       <use xlink:href="#DejaVuSans-30" x="274.658203"/>
      </g>
     </g>
    </g>
    <g id="ytick_2">
     <g id="line2d_11">
      <g>
       <use xlink:href="#ma5ace60453" x="135" y="316.716078" style="stroke: #000000; stroke-width: 0.8"/>
      </g>
     </g>
     <g id="text_11">
      <!-- −2000 -->
      <g transform="translate(94.170312 320.515297) scale(0.1 -0.1)">
       <use xlink:href="#DejaVuSans-2212"/>
       <use xlink:href="#DejaVuSans-32" x="83.789062"/>
       <use xlink:href="#DejaVuSans-30" x="147.412109"/>
       <use xlink:href="#DejaVuSans-30" x="211.035156"/>
       <use xlink:href="#DejaVuSans-30" x="274.658203"/>
      </g>
     </g>
    </g>
    <g id="ytick_3">
     <g id="line2d_12">
      <g>
       <use xlink:href="#ma5ace60453" x="135" y="266.290865" style="stroke: #000000; stroke-width: 0.8"/>
      </g>
     </g>
     <g id="text_12">
      <!-- −1000 -->
      <g transform="translate(94.170312 270.090084) scale(0.1 -0.1)">
       <use xlink:href="#DejaVuSans-2212"/>
       <use xlink:href="#DejaVuSans-31" x="83.789062"/>
       <use xlink:href="#DejaVuSans-30" x="147.412109"/>
       <use xlink:href="#DejaVuSans-30" x="211.035156"/>
       <use xlink:href="#DejaVuSans-30" x="274.658203"/>
      </g>
     </g>
    </g>
    <g id="ytick_4">
     <g id="line2d_13">
      <g>
       <use xlink:href="#ma5ace60453" x="135" y="215.865653" style="stroke: #000000; stroke-width: 0.8"/>
      </g>
     </g>
     <g id="text_13">
      <!-- 0 -->
      <g transform="translate(121.6375 219.664872) scale(0.1 -0.1)">
       <use xlink:href="#DejaVuSans-30"/>
      </g>
     </g>
    </g>
    <g id="ytick_5">
     <g id="line2d_14">
      <g>
       <use xlink:href="#ma5ace60453" x="135" y="165.44044" style="stroke: #000000; stroke-width: 0.8"/>
      </g>
     </g>
     <g id="text_14">
      <!-- 1000 -->
      <g transform="translate(102.55 169.239659) scale(0.1 -0.1)">
       <use xlink:href="#DejaVuSans-31"/>
       <use xlink:href="#DejaVuSans-30" x="63.623047"/>
       <use xlink:href="#DejaVuSans-30" x="127.246094"/>
       <use xlink:href="#DejaVuSans-30" x="190.869141"/>
      </g>
     </g>
    </g>
    <g id="ytick_6">
     <g id="line2d_15">
      <g>
       <use xlink:href="#ma5ace60453" x="135" y="115.015228" style="stroke: #000000; stroke-width: 0.8"/>
      </g>
     </g>
     <g id="text_15">
      <!-- 2000 -->
      <g transform="translate(102.55 118.814446) scale(0.1 -0.1)">
       <use xlink:href="#DejaVuSans-32"/>
       <use xlink:href="#DejaVuSans-30" x="63.623047"/>
       <use xlink:href="#DejaVuSans-30" x="127.246094"/>
       <use xlink:href="#DejaVuSans-30" x="190.869141"/>
      </g>
     </g>
    </g>
    <g id="ytick_7">
     <g id="line2d_16">
      <g>
       <use xlink:href="#ma5ace60453" x="135" y="64.590015" style="stroke: #000000; stroke-width: 0.8"/>
      </g>
     </g>
     <g id="text_16">
      <!-- 3000 -->
      <g transform="translate(102.55 68.389234) scale(0.1 -0.1)">
       <use xlink:href="#DejaVuSans-33"/>
       <use xlink:href="#DejaVuSans-30" x="63.623047"/>
       <use xlink:href="#DejaVuSans-30" x="127.246094"/>
       <use xlink:href="#DejaVuSans-30" x="190.869141"/>
      </g>
     </g>
    </g>
   </g>
   <g id="line2d_17">
    <path d="M 174.614339 201.746593 
L 177.752109 203.763602 
L 188.734302 203.763602 
L 195.009841 201.746593 
L 196.578725 205.78061 
L 198.14761 201.746593 
L 201.28538 201.746593 
L 205.992034 209.814627 
L 207.560918 203.763602 
L 209.129803 203.763602 
L 212.267573 201.746593 
L 221.680881 203.763602 
L 223.249766 203.763602 
L 224.81865 195.695568 
L 231.094189 203.763602 
L 234.231959 196.451946 
L 238.938613 213.142691 
L 242.076382 201.746593 
L 249.920806 203.763602 
L 251.489691 203.763602 
L 253.058575 211.831636 
L 254.62746 191.661551 
L 260.902999 201.746593 
L 264.040769 205.78061 
L 265.609653 199.729585 
L 271.885192 205.78061 
L 273.454077 201.746593 
L 275.022962 201.746593 
L 276.591846 211.831636 
L 278.160731 203.763602 
L 282.867385 203.763602 
L 284.43627 201.746593 
L 307.969541 201.746593 
L 315.813964 203.763602 
L 317.382849 201.746593 
L 318.951734 203.763602 
L 322.089503 201.746593 
L 326.796157 201.746593 
L 329.933927 203.763602 
L 333.071696 201.746593 
L 337.778351 203.763602 
L 339.347235 201.746593 
L 342.485005 201.746593 
L 348.760544 189.644542 
L 351.898313 203.763602 
L 353.467198 203.763602 
L 359.742737 201.746593 
L 373.862699 201.746593 
L 377.000469 203.763602 
L 383.276007 187.627534 
L 394.258201 201.746593 
L 403.671509 189.644542 
L 406.809278 201.746593 
L 414.653702 203.763602 
L 417.791471 183.593517 
L 427.20478 201.746593 
L 431.911434 201.746593 
L 438.186973 205.78061 
L 441.324742 203.763602 
L 442.893627 187.627534 
L 450.738051 201.746593 
L 452.306935 205.78061 
L 453.87582 203.763602 
L 458.582474 203.763602 
L 461.720244 201.746593 
L 466.426898 205.78061 
L 472.702437 201.746593 
L 475.840206 212.134187 
L 483.68463 201.746593 
L 485.253515 203.763602 
L 486.822399 197.712576 
L 491.529053 205.78061 
L 494.666823 203.763602 
L 496.235708 203.763602 
L 497.804592 201.746593 
L 505.649016 193.678559 
L 508.786785 201.746593 
L 515.062324 197.712576 
L 516.631209 195.695568 
L 524.475633 191.661551 
L 526.044517 201.746593 
L 529.182287 201.746593 
L 530.751172 203.763602 
L 535.457826 201.746593 
L 537.02671 201.746593 
L 546.440019 205.78061 
L 548.008903 187.627534 
L 552.715558 191.661551 
L 558.991097 203.3602 
L 563.697751 191.661551 
L 573.111059 203.763602 
L 580.955483 187.627534 
L 582.524367 201.746593 
L 602.919869 201.746593 
L 612.333177 203.763602 
L 618.608716 203.763602 
L 623.31537 201.746593 
L 626.45314 201.746593 
L 629.590909 203.763602 
L 639.004217 195.695568 
L 640.573102 205.78061 
L 648.417526 201.746593 
L 651.555295 195.695568 
L 668.813027 211.226533 
L 670.381912 203.763602 
L 671.950797 195.695568 
L 689.208529 201.746593 
L 728.430647 201.746593 
L 737.843955 205.78061 
L 748.826148 205.78061 
L 751.963918 201.746593 
L 758.239456 201.746593 
L 766.08388 203.763602 
L 769.221649 201.746593 
L 778.634958 207.797619 
L 780.203843 205.78061 
L 788.048266 201.746593 
L 792.75492 201.746593 
L 799.030459 205.78061 
L 803.737113 199.729585 
L 813.150422 196.956198 
L 820.994845 203.763602 
L 825.7015 201.746593 
L 831.977038 201.746593 
L 835.114808 199.729585 
L 842.959231 201.746593 
L 849.23477 199.729585 
L 858.648079 201.746593 
L 861.785848 211.831636 
L 864.923618 199.729585 
L 869.630272 201.746593 
L 871.199157 199.729585 
L 880.612465 209.814627 
L 888.456888 196.19982 
L 894.732427 199.729585 
L 901.007966 211.327384 
L 902.576851 203.763602 
L 908.85239 205.78061 
L 910.421275 204.772106 
L 911.990159 205.78061 
L 921.403468 205.78061 
L 926.110122 193.174307 
L 926.110122 193.174307 
" clip-path="url(#pf7c78b12b5)" style="fill: none; stroke: #440154; stroke-width: 1.5; stroke-linecap: square"/>
   </g>
   <g id="line2d_18">
    <path d="M 174.614339 207.646343 
L 176.183224 205.024232 
L 177.752109 66.96 
L 179.320993 213.092266 
L 180.889878 215.764802 
L 184.027648 209.3608 
L 185.596532 211.629935 
L 187.165417 208.705273 
L 188.734302 208.453147 
L 190.303187 207.595918 
L 191.872071 215.26055 
L 195.009841 212.84014 
L 196.578725 191.45985 
L 198.14761 208.352296 
L 199.716495 211.075258 
L 201.28538 205.377209 
L 202.854264 212.083762 
L 205.992034 206.032736 
L 207.560918 208.352296 
L 209.129803 204.721681 
L 210.698688 206.486563 
L 212.267573 209.310375 
L 213.836457 213.596518 
L 216.974227 207.545493 
L 218.543112 207.797619 
L 220.111996 207.545493 
L 221.680881 202.906373 
L 223.249766 200.687664 
L 224.81865 214.857149 
L 227.95642 202.502971 
L 229.525305 214.705873 
L 231.094189 206.688264 
L 232.663074 213.041841 
L 234.231959 208.906973 
L 238.938613 212.991416 
L 242.076382 209.915478 
L 243.645267 209.512076 
L 245.214152 211.226533 
L 249.920806 201.494467 
L 251.489691 209.310375 
L 253.058575 207.848044 
L 254.62746 207.898469 
L 256.196345 207.747194 
L 262.471884 209.461651 
L 264.040769 206.335288 
L 265.609653 203.612326 
L 267.178538 214.10077 
L 268.747423 214.857149 
L 271.885192 205.78061 
L 273.454077 210.873557 
L 275.022962 205.982311 
L 276.591846 208.402721 
L 278.160731 205.225933 
L 279.729616 215.109275 
L 282.867385 204.772106 
L 284.43627 207.545493 
L 286.005155 205.125083 
L 287.574039 207.142091 
L 289.142924 208.705273 
L 290.711809 211.781211 
L 293.849578 206.234437 
L 295.418463 204.469555 
L 296.987348 206.789115 
L 298.556232 210.772706 
L 300.125117 194.888764 
L 301.694002 215.462251 
L 304.831771 205.78061 
L 306.400656 206.889965 
L 307.969541 209.411226 
L 309.538425 208.301871 
L 312.676195 215.462251 
L 315.813964 206.032736 
L 317.382849 207.394217 
L 318.951734 209.108674 
L 320.520619 204.469555 
L 323.658388 215.663952 
L 326.796157 209.663352 
L 328.365042 207.343792 
L 329.933927 208.049745 
L 331.502812 203.25935 
L 333.071696 209.411226 
L 334.640581 214.050345 
L 337.778351 202.956798 
L 339.347235 212.73929 
L 340.91612 212.84014 
L 342.485005 207.848044 
L 344.053889 204.772106 
L 345.622774 215.764802 
L 348.760544 123.83964 
L 350.329428 208.553997 
L 351.898313 203.965303 
L 353.467198 206.385713 
L 355.036082 213.798219 
L 356.604967 215.815228 
L 359.742737 212.991416 
L 361.311621 209.915478 
L 364.449391 206.990815 
L 366.018276 209.814627 
L 367.58716 215.512676 
L 370.72493 206.083162 
L 372.293814 210.318879 
L 373.862699 207.747194 
L 375.431584 209.915478 
L 377.000469 208.856548 
L 378.569353 213.99992 
L 381.707123 205.629335 
L 383.276007 204.570405 
L 384.844892 209.663352 
L 386.413777 211.629935 
L 387.982662 205.427634 
L 389.551546 215.815228 
L 392.689316 209.1591 
L 394.258201 211.377809 
L 395.827085 208.806123 
L 397.39597 213.193117 
L 398.964855 211.932486 
L 400.533739 215.462251 
L 403.671509 207.394217 
L 405.240394 211.377809 
L 406.809278 206.637839 
L 409.947048 211.377809 
L 411.515933 215.714377 
L 414.653702 208.806123 
L 416.222587 206.637839 
L 417.791471 213.092266 
L 419.360356 208.503572 
L 420.929241 209.562501 
L 422.498126 214.504172 
L 425.635895 213.596518 
L 427.20478 212.033337 
L 428.773664 208.10017 
L 433.480319 215.310975 
L 436.618088 207.041241 
L 438.186973 207.293367 
L 439.755858 206.385713 
L 441.324742 212.285463 
L 442.893627 203.461051 
L 447.600281 207.192516 
L 449.169166 211.428234 
L 450.738051 206.385713 
L 452.306935 208.906973 
L 453.87582 210.671856 
L 455.444705 215.109275 
L 458.582474 207.646343 
L 460.151359 206.688264 
L 461.720244 211.57951 
L 463.289128 207.545493 
L 464.858013 208.806123 
L 466.426898 215.764802 
L 469.564667 214.10077 
L 472.702437 211.276958 
L 474.271321 203.309775 
L 475.840206 210.066753 
L 477.409091 214.857149 
L 480.54686 210.671856 
L 482.115745 214.352896 
L 483.68463 208.049745 
L 485.253515 197.46045 
L 486.822399 205.125083 
L 488.391284 215.764802 
L 491.529053 210.218029 
L 493.097938 201.897869 
L 494.666823 198.569805 
L 496.235708 206.688264 
L 497.804592 212.73929 
L 499.373477 213.546093 
L 502.511246 214.252046 
L 504.080131 206.133587 
L 505.649016 209.3608 
L 507.217901 214.857149 
L 508.786785 207.293367 
L 510.35567 214.453747 
L 513.49344 203.158499 
L 515.062324 210.571006 
L 516.631209 204.167004 
L 518.200094 210.571006 
L 519.768978 214.957999 
L 524.475633 205.78061 
L 526.044517 208.553997 
L 527.613402 204.318279 
L 529.182287 204.469555 
L 530.751172 208.352296 
L 532.320056 214.302471 
L 535.457826 202.049145 
L 537.02671 208.604422 
L 538.595595 208.352296 
L 540.16448 209.209525 
L 543.302249 215.714377 
L 546.440019 211.176108 
L 548.008903 209.3608 
L 549.577788 211.276958 
L 551.146673 200.889365 
L 552.715558 204.167004 
L 554.284442 215.310975 
L 557.422212 209.663352 
L 560.559981 211.327384 
L 562.128866 204.822531 
L 568.404405 210.722281 
L 569.97329 209.3608 
L 571.542174 210.41973 
L 573.111059 204.822531 
L 574.679944 213.394817 
L 576.248828 214.957999 
L 579.386598 209.915478 
L 580.955483 206.94039 
L 582.524367 206.990815 
L 584.093252 211.075258 
L 585.662137 210.621431 
L 591.937676 215.764802 
L 601.350984 214.352896 
L 604.488754 209.814627 
L 606.057638 214.504172 
L 607.626523 211.529085 
L 609.195408 215.109275 
L 612.333177 209.310375 
L 613.902062 211.428234 
L 615.470947 210.218029 
L 617.039831 212.638439 
L 618.608716 212.73929 
L 623.31537 201.595318 
L 624.884255 212.436738 
L 626.45314 206.637839 
L 628.022024 213.445243 
L 629.590909 212.487164 
L 631.159794 215.361401 
L 634.297563 209.3608 
L 635.866448 210.621431 
L 637.435333 212.033337 
L 639.004217 212.588014 
L 640.573102 198.62023 
L 642.141987 215.613527 
L 645.279756 212.537589 
L 646.848641 210.52058 
L 648.417526 209.461651 
L 649.98641 206.688264 
L 651.555295 213.193117 
L 656.261949 212.890565 
L 657.830834 212.94099 
L 659.399719 211.57951 
L 660.968604 213.344392 
L 662.537488 215.714377 
L 664.106373 214.857149 
L 667.244142 209.865053 
L 668.813027 209.25995 
L 670.381912 210.369305 
L 671.950797 214.403322 
L 675.088566 213.747794 
L 678.226336 210.772706 
L 681.364105 214.756298 
L 682.93299 208.705273 
L 684.501874 211.428234 
L 686.070759 215.815228 
L 689.208529 212.789715 
L 690.777413 214.352896 
L 692.346298 208.251446 
L 693.915183 208.251446 
L 695.484067 210.066753 
L 697.052952 215.815228 
L 700.190722 210.722281 
L 701.759606 213.798219 
L 703.328491 213.394817 
L 704.897376 211.125683 
L 706.466261 212.285463 
L 708.035145 214.655448 
L 711.172915 211.68036 
L 712.741799 208.755698 
L 714.310684 214.605023 
L 715.879569 211.730785 
L 717.448454 213.041841 
L 719.017338 214.806723 
L 722.155108 210.066753 
L 723.723993 209.3608 
L 725.292877 211.882061 
L 726.861762 208.201021 
L 728.430647 210.167604 
L 729.999531 213.344392 
L 733.137301 212.688864 
L 737.843955 214.655448 
L 740.981724 215.058849 
L 748.826148 208.10017 
L 750.395033 212.134187 
L 751.963918 215.563102 
L 755.101687 211.327384 
L 756.670572 209.764202 
L 758.239456 213.041841 
L 759.808341 209.108674 
L 761.377226 213.041841 
L 762.946111 215.815228 
L 766.08388 207.394217 
L 767.652765 206.486563 
L 769.221649 211.781211 
L 770.790534 215.1597 
L 772.359419 213.293967 
L 773.928304 214.453747 
L 777.066073 214.504172 
L 778.634958 211.226533 
L 780.203843 211.982911 
L 781.772727 210.52058 
L 783.341612 214.907574 
L 788.048266 214.352896 
L 789.617151 210.117179 
L 791.186036 210.470155 
L 792.75492 210.066753 
L 794.323805 214.201621 
L 799.030459 213.747794 
L 800.599344 213.99992 
L 802.168229 202.452546 
L 803.737113 205.024232 
L 805.305998 211.125683 
L 806.874883 215.361401 
L 810.012652 212.436738 
L 811.581537 212.285463 
L 813.150422 210.923982 
L 814.719306 210.571006 
L 816.288191 213.546093 
L 817.857076 215.563102 
L 820.994845 214.403322 
L 822.56373 211.226533 
L 824.132615 211.831636 
L 825.7015 212.688864 
L 827.270384 212.890565 
L 828.839269 215.26055 
L 831.977038 210.722281 
L 833.545923 212.588014 
L 835.114808 211.57951 
L 836.683693 210.117179 
L 838.252577 212.386313 
L 839.821462 215.310975 
L 842.959231 213.798219 
L 846.097001 201.595318 
L 847.665886 211.276958 
L 849.23477 206.486563 
L 850.803655 214.655448 
L 853.941425 211.629935 
L 855.510309 209.1591 
L 857.079194 209.007824 
L 858.648079 211.68036 
L 860.216963 212.688864 
L 864.923618 210.470155 
L 866.492502 212.94099 
L 868.061387 207.242941 
L 869.630272 211.125683 
L 872.768041 215.058849 
L 875.905811 211.075258 
L 877.474695 206.032736 
L 879.04358 214.302471 
L 880.612465 213.041841 
L 882.18135 215.411826 
L 883.750234 213.546093 
L 886.888004 213.394817 
L 888.456888 212.84014 
L 890.025773 211.932486 
L 891.594658 205.831036 
L 893.163543 212.84014 
L 894.732427 215.210125 
L 897.870197 207.595918 
L 899.439082 198.721081 
L 901.007966 204.721681 
L 902.576851 213.546093 
L 904.145736 214.302471 
L 908.85239 204.267854 
L 910.421275 209.310375 
L 911.990159 208.402721 
L 913.559044 214.806723 
L 916.696813 215.663952 
L 921.403468 211.176108 
L 922.972352 206.688264 
L 924.541237 212.84014 
L 926.110122 208.705273 
L 930.816776 213.89907 
L 932.385661 210.470155 
L 933.954545 215.310975 
L 933.954545 215.310975 
" clip-path="url(#pf7c78b12b5)" style="fill: none; stroke: #414487; stroke-width: 1.5; stroke-linecap: square"/>
   </g>
   <g id="line2d_19">
    <path d="M 173.045455 207.041241 
L 174.614339 201.141491 
L 176.183224 211.982911 
L 177.752109 348.786513 
L 179.320993 339.457849 
L 182.458763 339.558699 
L 184.027648 346.063552 
L 185.596532 338.197219 
L 187.165417 345.357599 
L 188.734302 340.668054 
L 190.303187 348.937789 
L 191.872071 349.542891 
L 193.440956 349.542891 
L 195.009841 338.449345 
L 196.578725 352.770105 
L 198.14761 346.164402 
L 199.716495 350.954797 
L 201.28538 347.324182 
L 202.854264 351.106073 
L 204.423149 351.106073 
L 205.992034 354.887964 
L 207.560918 350.29927 
L 209.129803 349.341191 
L 210.698688 358.72028 
L 212.267573 351.156498 
L 213.836457 353.425633 
L 215.405342 353.425633 
L 216.974227 361.745793 
L 218.543112 357.106673 
L 220.111996 365.426833 
L 221.680881 366.284062 
L 223.249766 369.36 
L 224.81865 350.198419 
L 226.387535 350.198419 
L 227.95642 363.561101 
L 229.525305 364.72088 
L 231.094189 361.796218 
L 232.663074 364.62003 
L 234.231959 352.165003 
L 237.369728 352.165003 
L 238.938613 352.316278 
L 240.507498 352.316278 
L 242.076382 344.147394 
L 243.645267 350.50097 
L 245.214152 355.14009 
L 248.351921 355.14009 
L 249.920806 357.409225 
L 251.489691 351.862451 
L 253.058575 355.846043 
L 254.62746 339.609125 
L 256.196345 347.727584 
L 259.334114 347.727584 
L 260.902999 340.365503 
L 262.471884 346.769505 
L 264.040769 346.214827 
L 265.609653 342.332086 
L 267.178538 344.096968 
L 268.747423 345.105473 
L 271.885192 345.105473 
L 273.454077 335.978509 
L 275.022962 331.742791 
L 276.591846 335.171706 
L 278.160731 333.709375 
L 279.729616 334.465753 
L 281.2985 334.465753 
L 282.867385 333.457249 
L 284.43627 327.658349 
L 286.005155 338.398919 
L 287.574039 333.003422 
L 289.142924 326.044742 
L 290.711809 330.129185 
L 292.280694 330.129185 
L 293.849578 203.158499 
L 295.418463 197.863852 
L 296.987348 206.94039 
L 298.556232 197.914277 
L 300.125117 204.772106 
L 301.694002 205.175508 
L 303.262887 205.175508 
L 304.831771 215.26055 
L 306.400656 210.117179 
L 307.969541 202.452546 
L 309.538425 210.016328 
L 311.10731 210.016328 
L 312.676195 210.41973 
L 314.24508 210.41973 
L 315.813964 208.150595 
L 318.951734 197.157899 
L 320.520619 208.553997 
L 322.089503 200.032136 
L 323.658388 200.233837 
L 325.227273 200.233837 
L 326.796157 192.317079 
L 328.365042 200.838939 
L 329.933927 196.552796 
L 331.502812 209.1591 
L 333.071696 201.494467 
L 334.640581 203.309775 
L 336.209466 203.309775 
L 337.778351 204.116578 
L 339.347235 193.123882 
L 340.91612 196.149395 
L 342.485005 190.047944 
L 344.053889 201.141491 
L 347.191659 201.242341 
L 348.760544 267.047244 
L 350.329428 274.358899 
L 351.898313 274.157199 
L 353.467198 271.535088 
L 355.036082 273.602521 
L 358.173852 273.652946 
L 359.742737 262.408124 
L 361.311621 268.358299 
L 362.880506 268.358299 
L 364.449391 263.114077 
L 366.018276 269.165103 
L 367.58716 269.518079 
L 369.156045 269.518079 
L 370.72493 265.181511 
L 372.293814 256.609225 
L 373.862699 250.608624 
L 375.431584 256.558799 
L 377.000469 251.465853 
L 378.569353 253.331586 
L 380.138238 253.331586 
L 381.707123 263.567904 
L 383.276007 246.625033 
L 384.844892 252.827334 
L 386.413777 257.063052 
L 387.982662 267.501071 
L 391.120431 267.551496 
L 392.689316 274.258049 
L 394.258201 264.626833 
L 395.827085 271.686363 
L 397.39597 274.358899 
L 398.964855 278.292066 
L 400.533739 278.695468 
L 402.102624 278.695468 
L 403.671509 260.945793 
L 405.240394 208.604422 
L 406.809278 203.713177 
L 408.378163 203.713177 
L 409.947048 208.201021 
L 411.515933 208.352296 
L 413.084817 208.352296 
L 414.653702 203.309775 
L 416.222587 212.537589 
L 417.791471 183.038839 
L 419.360356 190.40092 
L 420.929241 196.704072 
L 422.498126 198.065553 
L 424.06701 198.065553 
L 425.635895 200.334687 
L 427.20478 190.047944 
L 428.773664 183.694367 
L 430.342549 188.989015 
L 431.911434 177.895468 
L 433.480319 178.450145 
L 435.049203 178.450145 
L 436.618088 187.274557 
L 438.186973 185.761801 
L 439.755858 195.241741 
L 441.324742 186.71988 
L 442.893627 170.886363 
L 446.031396 170.886363 
L 447.600281 179.5595 
L 449.169166 183.996918 
L 450.738051 179.357799 
L 452.306935 176.231436 
L 453.87582 169.323182 
L 455.444705 170.07956 
L 457.01359 170.07956 
L 458.582474 166.196818 
L 460.151359 175.374207 
L 461.720244 165.541291 
L 463.289128 173.861451 
L 464.858013 180.92098 
L 466.426898 170.936788 
L 467.995783 170.936788 
L 469.564667 172.701671 
L 471.133552 172.701671 
L 472.702437 163.171306 
L 474.271321 175.727184 
L 475.840206 177.794617 
L 477.409091 178.803122 
L 478.977976 178.803122 
L 480.54686 183.996918 
L 482.115745 185.509675 
L 483.68463 179.206523 
L 485.253515 185.509675 
L 486.822399 178.097169 
L 489.960169 178.198019 
L 491.529053 173.7606 
L 493.097938 187.728384 
L 494.666823 192.922181 
L 496.235708 189.997519 
L 497.804592 179.004822 
L 499.373477 181.324382 
L 500.942362 181.324382 
L 502.511246 182.937989 
L 504.080131 192.670055 
L 505.649016 176.987814 
L 507.217901 177.996318 
L 508.786785 172.449545 
L 510.35567 173.861451 
L 511.924555 173.861451 
L 513.49344 186.568604 
L 515.062324 173.710175 
L 516.631209 165.238739 
L 518.200094 170.533387 
L 519.768978 171.441041 
L 522.906748 171.441041 
L 524.475633 157.321981 
L 526.044517 150.514577 
L 527.613402 162.061951 
L 529.182287 159.338989 
L 530.751172 154.750295 
L 532.320056 156.313477 
L 533.888941 156.313477 
L 535.457826 156.010925 
L 537.02671 149.153097 
L 538.595595 156.666453 
L 540.16448 163.322581 
L 541.733365 166.701071 
L 543.302249 166.852346 
L 544.871134 166.852346 
L 546.440019 161.456848 
L 548.008903 139.723582 
L 549.577788 144.312276 
L 551.146673 159.288564 
L 552.715558 148.80012 
L 554.284442 149.354797 
L 555.853327 149.354797 
L 557.422212 155.557099 
L 558.991097 143.051646 
L 560.559981 147.589915 
L 562.128866 158.633037 
L 563.697751 134.428934 
L 566.83552 134.428934 
L 568.404405 139.572306 
L 569.97329 146.077159 
L 571.542174 151.523082 
L 573.111059 150.464152 
L 574.679944 152.934987 
L 576.248828 153.842641 
L 577.817713 153.842641 
L 579.386598 159.792816 
L 580.955483 140.47996 
L 582.524367 135.235738 
L 584.093252 140.026133 
L 585.662137 145.270355 
L 599.782099 145.371206 
L 601.350984 132.764902 
L 602.919869 122.427734 
L 604.488754 128.478759 
L 606.057638 129.84024 
L 607.626523 134.176808 
L 609.195408 134.933187 
L 610.764292 134.933187 
L 612.333177 129.386413 
L 613.902062 133.823832 
L 615.470947 127.369405 
L 617.039831 130.596618 
L 618.608716 121.62093 
L 621.746485 121.62093 
L 623.31537 121.772206 
L 624.884255 125.201121 
L 626.45314 120.309875 
L 628.022024 122.730285 
L 629.590909 114.006723 
L 631.159794 114.510975 
L 632.728679 114.510975 
L 634.297563 121.015828 
L 635.866448 126.26005 
L 637.435333 130.092366 
L 639.004217 113.19992 
L 640.573102 120.3603 
L 642.141987 120.612426 
L 643.710872 120.612426 
L 645.279756 123.94049 
L 646.848641 129.285563 
L 648.417526 121.570505 
L 649.98641 130.747894 
L 651.555295 113.250345 
L 654.693065 113.250345 
L 657.830834 119.150095 
L 659.399719 123.436238 
L 660.968604 125.957499 
L 662.537488 126.108774 
L 664.106373 127.117279 
L 665.675258 127.117279 
L 667.244142 133.117879 
L 668.813027 135.084462 
L 670.381912 128.478759 
L 671.950797 109.771006 
L 673.519681 109.771006 
L 675.088566 111.888864 
L 676.657451 111.888864 
L 678.226336 116.981811 
L 679.79522 120.108174 
L 681.364105 121.217529 
L 682.93299 128.377909 
L 684.501874 132.815328 
L 687.639644 132.865753 
L 689.208529 121.822631 
L 690.777413 123.335388 
L 692.346298 130.949595 
L 693.915183 124.444742 
L 695.484067 130.243642 
L 697.052952 116.175008 
L 698.621837 116.175008 
L 700.190722 121.318379 
L 701.759606 123.385813 
L 703.328491 111.737589 
L 704.897376 116.477559 
L 706.466261 120.057749 
L 708.035145 121.267954 
L 709.60403 121.267954 
L 711.172915 125.453247 
L 712.741799 132.563202 
L 714.310684 119.704772 
L 715.879569 123.83964 
L 717.448454 126.663452 
L 719.017338 113.603322 
L 720.586223 113.603322 
L 722.155108 119.402221 
L 723.723993 125.907074 
L 725.292877 115.771606 
L 726.861762 123.436238 
L 728.430647 115.015228 
L 729.999531 117.536488 
L 731.568416 117.536488 
L 733.137301 120.713277 
L 736.27507 120.713277 
L 737.843955 111.838439 
L 739.41284 111.838439 
L 740.981724 112.645243 
L 742.550609 112.645243 
L 744.119494 211.730785 
L 747.257263 211.730785 
L 748.826148 209.411226 
L 750.395033 213.142691 
L 751.963918 199.326183 
L 753.532802 199.326183 
L 755.101687 203.864452 
L 756.670572 210.066753 
L 758.239456 198.771506 
L 759.808341 205.528484 
L 761.377226 208.352296 
L 764.514995 208.402721 
L 766.08388 204.772106 
L 767.652765 214.151196 
L 769.221649 204.116578 
L 770.790534 204.822531 
L 772.359419 207.394217 
L 773.928304 208.806123 
L 775.497188 208.806123 
L 777.066073 210.167604 
L 778.634958 206.738689 
L 780.203843 200.536388 
L 781.772727 205.881461 
L 783.341612 206.83954 
L 784.910497 207.99932 
L 786.479381 207.99932 
L 788.048266 195.393017 
L 791.186036 206.536988 
L 792.75492 198.216828 
L 794.323805 199.88086 
L 797.461575 199.88086 
L 799.030459 191.913677 
L 800.599344 193.77941 
L 802.168229 207.192516 
L 803.737113 201.897869 
L 805.305998 206.637839 
L 806.874883 207.142091 
L 808.443768 207.142091 
L 811.581537 214.151196 
L 813.150422 200.183412 
L 814.719306 205.478059 
L 816.288191 207.797619 
L 817.857076 208.10017 
L 819.425961 208.10017 
L 820.994845 197.46045 
L 822.56373 202.09957 
L 824.132615 206.133587 
L 825.7015 195.191316 
L 827.270384 198.166403 
L 828.839269 198.771506 
L 830.408154 198.771506 
L 831.977038 189.795818 
L 833.545923 193.073457 
L 835.114808 181.223532 
L 836.683693 186.972006 
L 838.252577 190.451346 
L 839.821462 191.006023 
L 841.390347 191.006023 
L 842.959231 178.954397 
L 844.528116 178.954397 
L 846.097001 193.224732 
L 847.665886 197.813427 
L 849.23477 191.056448 
L 850.803655 192.266653 
L 852.37254 192.266653 
L 853.941425 196.502371 
L 857.079194 210.066753 
L 858.648079 200.132986 
L 860.216963 203.309775 
L 861.785848 199.275758 
L 863.354733 199.275758 
L 864.923618 188.535188 
L 866.492502 191.45985 
L 868.061387 200.082561 
L 869.630272 190.703472 
L 871.199157 177.34079 
L 872.768041 178.147594 
L 874.336926 178.147594 
L 875.905811 182.937989 
L 877.474695 192.770905 
L 879.04358 194.334087 
L 880.612465 191.106873 
L 882.18135 191.5607 
L 883.750234 193.88026 
L 885.319119 193.88026 
L 886.888004 196.351096 
L 888.456888 179.710775 
L 890.025773 183.643942 
L 891.594658 193.678559 
L 893.163543 196.704072 
L 894.732427 181.223532 
L 896.301312 181.223532 
L 897.870197 189.493267 
L 899.439082 206.637839 
L 901.007966 213.243542 
L 902.576851 203.461051 
L 904.145736 205.024232 
L 907.283505 205.024232 
L 908.85239 206.536988 
L 910.421275 201.998719 
L 911.990159 199.376608 
L 913.559044 200.435538 
L 915.127929 200.435538 
L 916.696813 200.637239 
L 919.834583 200.637239 
L 921.403468 195.241741 
L 922.972352 204.41913 
L 924.541237 207.444642 
L 926.110122 191.913677 
L 929.247891 191.913677 
L 930.816776 193.88026 
L 932.385661 199.275758 
L 933.954545 199.830435 
L 933.954545 199.830435 
" clip-path="url(#pf7c78b12b5)" style="fill: none; stroke: #2a788e; stroke-width: 1.5; stroke-linecap: square"/>
   </g>
   <g id="patch_3">
    <path d="M 135 384.48 
L 135 51.84 
" style="fill: none; stroke: #000000; stroke-width: 0.8; stroke-linejoin: miter; stroke-linecap: square"/>
   </g>
   <g id="patch_4">
    <path d="M 135 384.48 
L 972 384.48 
" style="fill: none; stroke: #000000; stroke-width: 0.8; stroke-linejoin: miter; stroke-linecap: square"/>
   </g>
   <g id="text_17">
    <!-- Quantity Bought x Quantity Sold x Inventory -->
    <g transform="translate(419.931563 45.84) scale(0.12 -0.12)">
     <defs>
      <path id="DejaVuSans-51" d="M 2522 4238 
Q 1834 4238 1429 3725 
Q 1025 3213 1025 2328 
Q 1025 1447 1429 934 
Q 1834 422 2522 422 
Q 3209 422 3611 934 
Q 4013 1447 4013 2328 
Q 4013 3213 3611 3725 
Q 3209 4238 2522 4238 
z
M 3406 84 
L 4238 -825 
L 3475 -825 
L 2784 -78 
Q 2681 -84 2626 -87 
Q 2572 -91 2522 -91 
Q 1538 -91 948 567 
Q 359 1225 359 2328 
Q 359 3434 948 4092 
Q 1538 4750 2522 4750 
Q 3503 4750 4090 4092 
Q 4678 3434 4678 2328 
Q 4678 1516 4351 937 
Q 4025 359 3406 84 
z
" transform="scale(0.015625)"/>
      <path id="DejaVuSans-75" d="M 544 1381 
L 544 3500 
L 1119 3500 
L 1119 1403 
Q 1119 906 1312 657 
Q 1506 409 1894 409 
Q 2359 409 2629 706 
Q 2900 1003 2900 1516 
L 2900 3500 
L 3475 3500 
L 3475 0 
L 2900 0 
L 2900 538 
Q 2691 219 2414 64 
Q 2138 -91 1772 -91 
Q 1169 -91 856 284 
Q 544 659 544 1381 
z
M 1991 3584 
L 1991 3584 
z
" transform="scale(0.015625)"/>
      <path id="DejaVuSans-61" d="M 2194 1759 
Q 1497 1759 1228 1600 
Q 959 1441 959 1056 
Q 959 750 1161 570 
Q 1363 391 1709 391 
Q 2188 391 2477 730 
Q 2766 1069 2766 1631 
L 2766 1759 
L 2194 1759 
z
M 3341 1997 
L 3341 0 
L 2766 0 
L 2766 531 
Q 2569 213 2275 61 
Q 1981 -91 1556 -91 
Q 1019 -91 701 211 
Q 384 513 384 1019 
Q 384 1609 779 1909 
Q 1175 2209 1959 2209 
L 2766 2209 
L 2766 2266 
Q 2766 2663 2505 2880 
Q 2244 3097 1772 3097 
Q 1472 3097 1187 3025 
Q 903 2953 641 2809 
L 641 3341 
Q 956 3463 1253 3523 
Q 1550 3584 1831 3584 
Q 2591 3584 2966 3190 
Q 3341 2797 3341 1997 
z
" transform="scale(0.015625)"/>
      <path id="DejaVuSans-6e" d="M 3513 2113 
L 3513 0 
L 2938 0 
L 2938 2094 
Q 2938 2591 2744 2837 
Q 2550 3084 2163 3084 
Q 1697 3084 1428 2787 
Q 1159 2491 1159 1978 
L 1159 0 
L 581 0 
L 581 3500 
L 1159 3500 
L 1159 2956 
Q 1366 3272 1645 3428 
Q 1925 3584 2291 3584 
Q 2894 3584 3203 3211 
Q 3513 2838 3513 2113 
z
" transform="scale(0.015625)"/>
      <path id="DejaVuSans-74" d="M 1172 4494 
L 1172 3500 
L 2356 3500 
L 2356 3053 
L 1172 3053 
L 1172 1153 
Q 1172 725 1289 603 
Q 1406 481 1766 481 
L 2356 481 
L 2356 0 
L 1766 0 
Q 1100 0 847 248 
Q 594 497 594 1153 
L 594 3053 
L 172 3053 
L 172 3500 
L 594 3500 
L 594 4494 
L 1172 4494 
z
" transform="scale(0.015625)"/>
      <path id="DejaVuSans-69" d="M 603 3500 
L 1178 3500 
L 1178 0 
L 603 0 
L 603 3500 
z
M 603 4863 
L 1178 4863 
L 1178 4134 
L 603 4134 
L 603 4863 
z
" transform="scale(0.015625)"/>
      <path id="DejaVuSans-79" d="M 2059 -325 
Q 1816 -950 1584 -1140 
Q 1353 -1331 966 -1331 
L 506 -1331 
L 506 -850 
L 844 -850 
Q 1081 -850 1212 -737 
Q 1344 -625 1503 -206 
L 1606 56 
L 191 3500 
L 800 3500 
L 1894 763 
L 2988 3500 
L 3597 3500 
L 2059 -325 
z
" transform="scale(0.015625)"/>
      <path id="DejaVuSans-20" transform="scale(0.015625)"/>
      <path id="DejaVuSans-42" d="M 1259 2228 
L 1259 519 
L 2272 519 
Q 2781 519 3026 730 
Q 3272 941 3272 1375 
Q 3272 1813 3026 2020 
Q 2781 2228 2272 2228 
L 1259 2228 
z
M 1259 4147 
L 1259 2741 
L 2194 2741 
Q 2656 2741 2882 2914 
Q 3109 3088 3109 3444 
Q 3109 3797 2882 3972 
Q 2656 4147 2194 4147 
L 1259 4147 
z
M 628 4666 
L 2241 4666 
Q 2963 4666 3353 4366 
Q 3744 4066 3744 3513 
Q 3744 3084 3544 2831 
Q 3344 2578 2956 2516 
Q 3422 2416 3680 2098 
Q 3938 1781 3938 1306 
Q 3938 681 3513 340 
Q 3088 0 2303 0 
L 628 0 
L 628 4666 
z
" transform="scale(0.015625)"/>
      <path id="DejaVuSans-6f" d="M 1959 3097 
Q 1497 3097 1228 2736 
Q 959 2375 959 1747 
Q 959 1119 1226 758 
Q 1494 397 1959 397 
Q 2419 397 2687 759 
Q 2956 1122 2956 1747 
Q 2956 2369 2687 2733 
Q 2419 3097 1959 3097 
z
M 1959 3584 
Q 2709 3584 3137 3096 
Q 3566 2609 3566 1747 
Q 3566 888 3137 398 
Q 2709 -91 1959 -91 
Q 1206 -91 779 398 
Q 353 888 353 1747 
Q 353 2609 779 3096 
Q 1206 3584 1959 3584 
z
" transform="scale(0.015625)"/>
      <path id="DejaVuSans-67" d="M 2906 1791 
Q 2906 2416 2648 2759 
Q 2391 3103 1925 3103 
Q 1463 3103 1205 2759 
Q 947 2416 947 1791 
Q 947 1169 1205 825 
Q 1463 481 1925 481 
Q 2391 481 2648 825 
Q 2906 1169 2906 1791 
z
M 3481 434 
Q 3481 -459 3084 -895 
Q 2688 -1331 1869 -1331 
Q 1566 -1331 1297 -1286 
Q 1028 -1241 775 -1147 
L 775 -588 
Q 1028 -725 1275 -790 
Q 1522 -856 1778 -856 
Q 2344 -856 2625 -561 
Q 2906 -266 2906 331 
L 2906 616 
Q 2728 306 2450 153 
Q 2172 0 1784 0 
Q 1141 0 747 490 
Q 353 981 353 1791 
Q 353 2603 747 3093 
Q 1141 3584 1784 3584 
Q 2172 3584 2450 3431 
Q 2728 3278 2906 2969 
L 2906 3500 
L 3481 3500 
L 3481 434 
z
" transform="scale(0.015625)"/>
      <path id="DejaVuSans-68" d="M 3513 2113 
L 3513 0 
L 2938 0 
L 2938 2094 
Q 2938 2591 2744 2837 
Q 2550 3084 2163 3084 
Q 1697 3084 1428 2787 
Q 1159 2491 1159 1978 
L 1159 0 
L 581 0 
L 581 4863 
L 1159 4863 
L 1159 2956 
Q 1366 3272 1645 3428 
Q 1925 3584 2291 3584 
Q 2894 3584 3203 3211 
Q 3513 2838 3513 2113 
z
" transform="scale(0.015625)"/>
      <path id="DejaVuSans-78" d="M 3513 3500 
L 2247 1797 
L 3578 0 
L 2900 0 
L 1881 1375 
L 863 0 
L 184 0 
L 1544 1831 
L 300 3500 
L 978 3500 
L 1906 2253 
L 2834 3500 
L 3513 3500 
z
" transform="scale(0.015625)"/>
      <path id="DejaVuSans-53" d="M 3425 4513 
L 3425 3897 
Q 3066 4069 2747 4153 
Q 2428 4238 2131 4238 
Q 1616 4238 1336 4038 
Q 1056 3838 1056 3469 
Q 1056 3159 1242 3001 
Q 1428 2844 1947 2747 
L 2328 2669 
Q 3034 2534 3370 2195 
Q 3706 1856 3706 1288 
Q 3706 609 3251 259 
Q 2797 -91 1919 -91 
Q 1588 -91 1214 -16 
Q 841 59 441 206 
L 441 856 
Q 825 641 1194 531 
Q 1563 422 1919 422 
Q 2459 422 2753 634 
Q 3047 847 3047 1241 
Q 3047 1584 2836 1778 
Q 2625 1972 2144 2069 
L 1759 2144 
Q 1053 2284 737 2584 
Q 422 2884 422 3419 
Q 422 4038 858 4394 
Q 1294 4750 2059 4750 
Q 2388 4750 2728 4690 
Q 3069 4631 3425 4513 
z
" transform="scale(0.015625)"/>
      <path id="DejaVuSans-6c" d="M 603 4863 
L 1178 4863 
L 1178 0 
L 603 0 
L 603 4863 
z
" transform="scale(0.015625)"/>
      <path id="DejaVuSans-64" d="M 2906 2969 
L 2906 4863 
L 3481 4863 
L 3481 0 
L 2906 0 
L 2906 525 
Q 2725 213 2448 61 
Q 2172 -91 1784 -91 
Q 1150 -91 751 415 
Q 353 922 353 1747 
Q 353 2572 751 3078 
Q 1150 3584 1784 3584 
Q 2172 3584 2448 3432 
Q 2725 3281 2906 2969 
z
M 947 1747 
Q 947 1113 1208 752 
Q 1469 391 1925 391 
Q 2381 391 2643 752 
Q 2906 1113 2906 1747 
Q 2906 2381 2643 2742 
Q 2381 3103 1925 3103 
Q 1469 3103 1208 2742 
Q 947 2381 947 1747 
z
" transform="scale(0.015625)"/>
      <path id="DejaVuSans-49" d="M 628 4666 
L 1259 4666 
L 1259 0 
L 628 0 
L 628 4666 
z
" transform="scale(0.015625)"/>
      <path id="DejaVuSans-76" d="M 191 3500 
L 800 3500 
L 1894 563 
L 2988 3500 
L 3597 3500 
L 2284 0 
L 1503 0 
L 191 3500 
z
" transform="scale(0.015625)"/>
      <path id="DejaVuSans-65" d="M 3597 1894 
L 3597 1613 
L 953 1613 
Q 991 1019 1311 708 
Q 1631 397 2203 397 
Q 2534 397 2845 478 
Q 3156 559 3463 722 
L 3463 178 
Q 3153 47 2828 -22 
Q 2503 -91 2169 -91 
Q 1331 -91 842 396 
Q 353 884 353 1716 
Q 353 2575 817 3079 
Q 1281 3584 2069 3584 
Q 2775 3584 3186 3129 
Q 3597 2675 3597 1894 
z
M 3022 2063 
Q 3016 2534 2758 2815 
Q 2500 3097 2075 3097 
Q 1594 3097 1305 2825 
Q 1016 2553 972 2059 
L 3022 2063 
z
" transform="scale(0.015625)"/>
      <path id="DejaVuSans-72" d="M 2631 2963 
Q 2534 3019 2420 3045 
Q 2306 3072 2169 3072 
Q 1681 3072 1420 2755 
Q 1159 2438 1159 1844 
L 1159 0 
L 581 0 
L 581 3500 
L 1159 3500 
L 1159 2956 
Q 1341 3275 1631 3429 
Q 1922 3584 2338 3584 
Q 2397 3584 2469 3576 
Q 2541 3569 2628 3553 
L 2631 2963 
z
" transform="scale(0.015625)"/>
     </defs>
     <use xlink:href="#DejaVuSans-51"/>
     <use xlink:href="#DejaVuSans-75" x="78.710938"/>
     <use xlink:href="#DejaVuSans-61" x="142.089844"/>
     <use xlink:href="#DejaVuSans-6e" x="203.369141"/>
     <use xlink:href="#DejaVuSans-74" x="266.748047"/>
     <use xlink:href="#DejaVuSans-69" x="305.957031"/>
     <use xlink:href="#DejaVuSans-74" x="333.740234"/>
     <use xlink:href="#DejaVuSans-79" x="372.949219"/>
     <use xlink:href="#DejaVuSans-20" x="432.128906"/>
     <use xlink:href="#DejaVuSans-42" x="463.916016"/>
     <use xlink:href="#DejaVuSans-6f" x="532.519531"/>
     <use xlink:href="#DejaVuSans-75" x="593.701172"/>
     <use xlink:href="#DejaVuSans-67" x="657.080078"/>
     <use xlink:href="#DejaVuSans-68" x="720.556641"/>
     <use xlink:href="#DejaVuSans-74" x="783.935547"/>
     <use xlink:href="#DejaVuSans-20" x="823.144531"/>
     <use xlink:href="#DejaVuSans-78" x="854.931641"/>
     <use xlink:href="#DejaVuSans-20" x="914.111328"/>
     <use xlink:href="#DejaVuSans-51" x="945.898438"/>
     <use xlink:href="#DejaVuSans-75" x="1024.609375"/>
     <use xlink:href="#DejaVuSans-61" x="1087.988281"/>
     <use xlink:href="#DejaVuSans-6e" x="1149.267578"/>
     <use xlink:href="#DejaVuSans-74" x="1212.646484"/>
     <use xlink:href="#DejaVuSans-69" x="1251.855469"/>
     <use xlink:href="#DejaVuSans-74" x="1279.638672"/>
     <use xlink:href="#DejaVuSans-79" x="1318.847656"/>
     <use xlink:href="#DejaVuSans-20" x="1378.027344"/>
     <use xlink:href="#DejaVuSans-53" x="1409.814453"/>
     <use xlink:href="#DejaVuSans-6f" x="1473.291016"/>
     <use xlink:href="#DejaVuSans-6c" x="1534.472656"/>
     <use xlink:href="#DejaVuSans-64" x="1562.255859"/>
     <use xlink:href="#DejaVuSans-20" x="1625.732422"/>
     <use xlink:href="#DejaVuSans-78" x="1657.519531"/>
     <use xlink:href="#DejaVuSans-20" x="1716.699219"/>
     <use xlink:href="#DejaVuSans-49" x="1748.486328"/>
     <use xlink:href="#DejaVuSans-6e" x="1777.978516"/>
     <use xlink:href="#DejaVuSans-76" x="1841.357422"/>
     <use xlink:href="#DejaVuSans-65" x="1900.537109"/>
     <use xlink:href="#DejaVuSans-6e" x="1962.060547"/>
     <use xlink:href="#DejaVuSans-74" x="2025.439453"/>
     <use xlink:href="#DejaVuSans-6f" x="2064.648438"/>
     <use xlink:href="#DejaVuSans-72" x="2125.830078"/>
     <use xlink:href="#DejaVuSans-79" x="2166.943359"/>
    </g>
   </g>
   <g id="legend_1">
    <g id="patch_5">
     <path d="M 885.234375 103.874375 
L 965 103.874375 
Q 967 103.874375 967 101.874375 
L 967 58.84 
Q 967 56.84 965 56.84 
L 885.234375 56.84 
Q 883.234375 56.84 883.234375 58.84 
L 883.234375 101.874375 
Q 883.234375 103.874375 885.234375 103.874375 
z
" style="fill: #d9d9d9; opacity: 0.8; stroke: #d9d9d9; stroke-linejoin: miter"/>
    </g>
    <g id="line2d_20">
     <path d="M 887.234375 64.938437 
L 897.234375 64.938437 
L 907.234375 64.938437 
" style="fill: none; stroke: #440154; stroke-width: 1.5; stroke-linecap: square"/>
    </g>
    <g id="text_18">
     <!-- Bought -->
     <g transform="translate(915.234375 68.438437) scale(0.1 -0.1)">
      <use xlink:href="#DejaVuSans-42"/>
      <use xlink:href="#DejaVuSans-6f" x="68.603516"/>
      <use xlink:href="#DejaVuSans-75" x="129.785156"/>
      <use xlink:href="#DejaVuSans-67" x="193.164062"/>
      <use xlink:href="#DejaVuSans-68" x="256.640625"/>
      <use xlink:href="#DejaVuSans-74" x="320.019531"/>
     </g>
    </g>
    <g id="line2d_21">
     <path d="M 887.234375 79.616562 
L 897.234375 79.616562 
L 907.234375 79.616562 
" style="fill: none; stroke: #414487; stroke-width: 1.5; stroke-linecap: square"/>
    </g>
    <g id="text_19">
     <!-- Sold -->
     <g transform="translate(915.234375 83.116562) scale(0.1 -0.1)">
      <use xlink:href="#DejaVuSans-53"/>
      <use xlink:href="#DejaVuSans-6f" x="63.476562"/>
      <use xlink:href="#DejaVuSans-6c" x="124.658203"/>
      <use xlink:href="#DejaVuSans-64" x="152.441406"/>
     </g>
    </g>
    <g id="line2d_22">
     <path d="M 887.234375 94.294687 
L 897.234375 94.294687 
L 907.234375 94.294687 
" style="fill: none; stroke: #2a788e; stroke-width: 1.5; stroke-linecap: square"/>
    </g>
    <g id="text_20">
     <!-- Inventory -->
     <g transform="translate(915.234375 97.794687) scale(0.1 -0.1)">
      <use xlink:href="#DejaVuSans-49"/>
      <use xlink:href="#DejaVuSans-6e" x="29.492188"/>
      <use xlink:href="#DejaVuSans-76" x="92.871094"/>
      <use xlink:href="#DejaVuSans-65" x="152.050781"/>
      <use xlink:href="#DejaVuSans-6e" x="213.574219"/>
      <use xlink:href="#DejaVuSans-74" x="276.953125"/>
      <use xlink:href="#DejaVuSans-6f" x="316.162109"/>
      <use xlink:href="#DejaVuSans-72" x="377.34375"/>
      <use xlink:href="#DejaVuSans-79" x="418.457031"/>
     </g>
    </g>
   </g>
  </g>
 </g>
 <defs>
  <clipPath id="pf7c78b12b5">
   <rect x="135" y="51.84" width="837" height="332.64"/>
  </clipPath>
 </defs>
</svg>
