<?xml version="1.0" encoding="utf-8" standalone="no"?>
<!DOCTYPE svg PUBLIC "-//W3C//DTD SVG 1.1//EN"
  "http://www.w3.org/Graphics/SVG/1.1/DTD/svg11.dtd">
<svg xmlns:xlink="http://www.w3.org/1999/xlink" width="1080pt" height="432pt" viewBox="0 0 1080 432" xmlns="http://www.w3.org/2000/svg" version="1.1">
 <metadata>
  <rdf:RDF xmlns:dc="http://purl.org/dc/elements/1.1/" xmlns:cc="http://creativecommons.org/ns#" xmlns:rdf="http://www.w3.org/1999/02/22-rdf-syntax-ns#">
   <cc:Work>
    <dc:type rdf:resource="http://purl.org/dc/dcmitype/StillImage"/>
    <dc:date>2025-06-13T09:43:46.503363</dc:date>
    <dc:format>image/svg+xml</dc:format>
    <dc:creator>
     <cc:Agent>
      <dc:title>Matplotlib v3.9.2, https://matplotlib.org/</dc:title>
     </cc:Agent>
    </dc:creator>
   </cc:Work>
  </rdf:RDF>
 </metadata>
 <defs>
  <style type="text/css">*{stroke-linejoin: round; stroke-linecap: butt}</style>
 </defs>
 <g id="figure_1">
  <g id="patch_1">
   <path d="M 0 432 
L 1080 432 
L 1080 0 
L 0 0 
z
" style="fill: #d9d9d9"/>
  </g>
  <g id="axes_1">
   <g id="patch_2">
    <path d="M 51.73 404.12 
L 1069.2 404.12 
L 1069.2 25.44 
L 51.73 25.44 
z
" style="fill: #d9d9d9"/>
   </g>
   <g id="matplotlib.axis_1">
    <g id="xtick_1">
     <g id="line2d_1">
      <path d="M 97.978636 404.12 
L 97.978636 25.44 
" clip-path="url(#p67466f0fd2)" style="fill: none; stroke: #cfcfcf; stroke-width: 0.8; stroke-linecap: square"/>
     </g>
     <g id="line2d_2">
      <defs>
       <path id="md1335f663d" d="M 0 0 
L 0 3.5 
" style="stroke: #000000; stroke-width: 0.8"/>
      </defs>
      <g>
       <use xlink:href="#md1335f663d" x="97.978636" y="404.12" style="stroke: #000000; stroke-width: 0.8"/>
      </g>
     </g>
     <g id="text_1">
      <!-- 2024-01 -->
      <g transform="translate(77.08723 418.718437) scale(0.1 -0.1)">
       <defs>
        <path id="DejaVuSans-32" d="M 1228 531 
L 3431 531 
L 3431 0 
L 469 0 
L 469 531 
Q 828 903 1448 1529 
Q 2069 2156 2228 2338 
Q 2531 2678 2651 2914 
Q 2772 3150 2772 3378 
Q 2772 3750 2511 3984 
Q 2250 4219 1831 4219 
Q 1534 4219 1204 4116 
Q 875 4013 500 3803 
L 500 4441 
Q 881 4594 1212 4672 
Q 1544 4750 1819 4750 
Q 2544 4750 2975 4387 
Q 3406 4025 3406 3419 
Q 3406 3131 3298 2873 
Q 3191 2616 2906 2266 
Q 2828 2175 2409 1742 
Q 1991 1309 1228 531 
z
" transform="scale(0.015625)"/>
        <path id="DejaVuSans-30" d="M 2034 4250 
Q 1547 4250 1301 3770 
Q 1056 3291 1056 2328 
Q 1056 1369 1301 889 
Q 1547 409 2034 409 
Q 2525 409 2770 889 
Q 3016 1369 3016 2328 
Q 3016 3291 2770 3770 
Q 2525 4250 2034 4250 
z
M 2034 4750 
Q 2819 4750 3233 4129 
Q 3647 3509 3647 2328 
Q 3647 1150 3233 529 
Q 2819 -91 2034 -91 
Q 1250 -91 836 529 
Q 422 1150 422 2328 
Q 422 3509 836 4129 
Q 1250 4750 2034 4750 
z
" transform="scale(0.015625)"/>
        <path id="DejaVuSans-34" d="M 2419 4116 
L 825 1625 
L 2419 1625 
L 2419 4116 
z
M 2253 4666 
L 3047 4666 
L 3047 1625 
L 3713 1625 
L 3713 1100 
L 3047 1100 
L 3047 0 
L 2419 0 
L 2419 1100 
L 313 1100 
L 313 1709 
L 2253 4666 
z
" transform="scale(0.015625)"/>
        <path id="DejaVuSans-2d" d="M 313 2009 
L 1997 2009 
L 1997 1497 
L 313 1497 
L 313 2009 
z
" transform="scale(0.015625)"/>
        <path id="DejaVuSans-31" d="M 794 531 
L 1825 531 
L 1825 4091 
L 703 3866 
L 703 4441 
L 1819 4666 
L 2450 4666 
L 2450 531 
L 3481 531 
L 3481 0 
L 794 0 
L 794 531 
z
" transform="scale(0.015625)"/>
       </defs>
       <use xlink:href="#DejaVuSans-32"/>
       <use xlink:href="#DejaVuSans-30" x="63.623047"/>
       <use xlink:href="#DejaVuSans-32" x="127.246094"/>
       <use xlink:href="#DejaVuSans-34" x="190.869141"/>
       <use xlink:href="#DejaVuSans-2d" x="254.492188"/>
       <use xlink:href="#DejaVuSans-30" x="290.576172"/>
       <use xlink:href="#DejaVuSans-31" x="354.199219"/>
      </g>
     </g>
    </g>
    <g id="xtick_2">
     <g id="line2d_3">
      <path d="M 212.408252 404.12 
L 212.408252 25.44 
" clip-path="url(#p67466f0fd2)" style="fill: none; stroke: #cfcfcf; stroke-width: 0.8; stroke-linecap: square"/>
     </g>
     <g id="line2d_4">
      <g>
       <use xlink:href="#md1335f663d" x="212.408252" y="404.12" style="stroke: #000000; stroke-width: 0.8"/>
      </g>
     </g>
     <g id="text_2">
      <!-- 2024-03 -->
      <g transform="translate(191.516846 418.718437) scale(0.1 -0.1)">
       <defs>
        <path id="DejaVuSans-33" d="M 2597 2516 
Q 3050 2419 3304 2112 
Q 3559 1806 3559 1356 
Q 3559 666 3084 287 
Q 2609 -91 1734 -91 
Q 1441 -91 1130 -33 
Q 819 25 488 141 
L 488 750 
Q 750 597 1062 519 
Q 1375 441 1716 441 
Q 2309 441 2620 675 
Q 2931 909 2931 1356 
Q 2931 1769 2642 2001 
Q 2353 2234 1838 2234 
L 1294 2234 
L 1294 2753 
L 1863 2753 
Q 2328 2753 2575 2939 
Q 2822 3125 2822 3475 
Q 2822 3834 2567 4026 
Q 2313 4219 1838 4219 
Q 1578 4219 1281 4162 
Q 984 4106 628 3988 
L 628 4550 
Q 988 4650 1302 4700 
Q 1616 4750 1894 4750 
Q 2613 4750 3031 4423 
Q 3450 4097 3450 3541 
Q 3450 3153 3228 2886 
Q 3006 2619 2597 2516 
z
" transform="scale(0.015625)"/>
       </defs>
       <use xlink:href="#DejaVuSans-32"/>
       <use xlink:href="#DejaVuSans-30" x="63.623047"/>
       <use xlink:href="#DejaVuSans-32" x="127.246094"/>
       <use xlink:href="#DejaVuSans-34" x="190.869141"/>
       <use xlink:href="#DejaVuSans-2d" x="254.492188"/>
       <use xlink:href="#DejaVuSans-30" x="290.576172"/>
       <use xlink:href="#DejaVuSans-33" x="354.199219"/>
      </g>
     </g>
    </g>
    <g id="xtick_3">
     <g id="line2d_5">
      <path d="M 328.745028 404.12 
L 328.745028 25.44 
" clip-path="url(#p67466f0fd2)" style="fill: none; stroke: #cfcfcf; stroke-width: 0.8; stroke-linecap: square"/>
     </g>
     <g id="line2d_6">
      <g>
       <use xlink:href="#md1335f663d" x="328.745028" y="404.12" style="stroke: #000000; stroke-width: 0.8"/>
      </g>
     </g>
     <g id="text_3">
      <!-- 2024-05 -->
      <g transform="translate(307.853622 418.718437) scale(0.1 -0.1)">
       <defs>
        <path id="DejaVuSans-35" d="M 691 4666 
L 3169 4666 
L 3169 4134 
L 1269 4134 
L 1269 2991 
Q 1406 3038 1543 3061 
Q 1681 3084 1819 3084 
Q 2600 3084 3056 2656 
Q 3513 2228 3513 1497 
Q 3513 744 3044 326 
Q 2575 -91 1722 -91 
Q 1428 -91 1123 -41 
Q 819 9 494 109 
L 494 744 
Q 775 591 1075 516 
Q 1375 441 1709 441 
Q 2250 441 2565 725 
Q 2881 1009 2881 1497 
Q 2881 1984 2565 2268 
Q 2250 2553 1709 2553 
Q 1456 2553 1204 2497 
Q 953 2441 691 2322 
L 691 4666 
z
" transform="scale(0.015625)"/>
       </defs>
       <use xlink:href="#DejaVuSans-32"/>
       <use xlink:href="#DejaVuSans-30" x="63.623047"/>
       <use xlink:href="#DejaVuSans-32" x="127.246094"/>
       <use xlink:href="#DejaVuSans-34" x="190.869141"/>
       <use xlink:href="#DejaVuSans-2d" x="254.492188"/>
       <use xlink:href="#DejaVuSans-30" x="290.576172"/>
       <use xlink:href="#DejaVuSans-35" x="354.199219"/>
      </g>
     </g>
    </g>
    <g id="xtick_4">
     <g id="line2d_7">
      <path d="M 445.081804 404.12 
L 445.081804 25.44 
" clip-path="url(#p67466f0fd2)" style="fill: none; stroke: #cfcfcf; stroke-width: 0.8; stroke-linecap: square"/>
     </g>
     <g id="line2d_8">
      <g>
       <use xlink:href="#md1335f663d" x="445.081804" y="404.12" style="stroke: #000000; stroke-width: 0.8"/>
      </g>
     </g>
     <g id="text_4">
      <!-- 2024-07 -->
      <g transform="translate(424.190398 418.718437) scale(0.1 -0.1)">
       <defs>
        <path id="DejaVuSans-37" d="M 525 4666 
L 3525 4666 
L 3525 4397 
L 1831 0 
L 1172 0 
L 2766 4134 
L 525 4134 
L 525 4666 
z
" transform="scale(0.015625)"/>
       </defs>
       <use xlink:href="#DejaVuSans-32"/>
       <use xlink:href="#DejaVuSans-30" x="63.623047"/>
       <use xlink:href="#DejaVuSans-32" x="127.246094"/>
       <use xlink:href="#DejaVuSans-34" x="190.869141"/>
       <use xlink:href="#DejaVuSans-2d" x="254.492188"/>
       <use xlink:href="#DejaVuSans-30" x="290.576172"/>
       <use xlink:href="#DejaVuSans-37" x="354.199219"/>
      </g>
     </g>
    </g>
    <g id="xtick_5">
     <g id="line2d_9">
      <path d="M 563.32574 404.12 
L 563.32574 25.44 
" clip-path="url(#p67466f0fd2)" style="fill: none; stroke: #cfcfcf; stroke-width: 0.8; stroke-linecap: square"/>
     </g>
     <g id="line2d_10">
      <g>
       <use xlink:href="#md1335f663d" x="563.32574" y="404.12" style="stroke: #000000; stroke-width: 0.8"/>
      </g>
     </g>
     <g id="text_5">
      <!-- 2024-09 -->
      <g transform="translate(542.434334 418.718437) scale(0.1 -0.1)">
       <defs>
        <path id="DejaVuSans-39" d="M 703 97 
L 703 672 
Q 941 559 1184 500 
Q 1428 441 1663 441 
Q 2288 441 2617 861 
Q 2947 1281 2994 2138 
Q 2813 1869 2534 1725 
Q 2256 1581 1919 1581 
Q 1219 1581 811 2004 
Q 403 2428 403 3163 
Q 403 3881 828 4315 
Q 1253 4750 1959 4750 
Q 2769 4750 3195 4129 
Q 3622 3509 3622 2328 
Q 3622 1225 3098 567 
Q 2575 -91 1691 -91 
Q 1453 -91 1209 -44 
Q 966 3 703 97 
z
M 1959 2075 
Q 2384 2075 2632 2365 
Q 2881 2656 2881 3163 
Q 2881 3666 2632 3958 
Q 2384 4250 1959 4250 
Q 1534 4250 1286 3958 
Q 1038 3666 1038 3163 
Q 1038 2656 1286 2365 
Q 1534 2075 1959 2075 
z
" transform="scale(0.015625)"/>
       </defs>
       <use xlink:href="#DejaVuSans-32"/>
       <use xlink:href="#DejaVuSans-30" x="63.623047"/>
       <use xlink:href="#DejaVuSans-32" x="127.246094"/>
       <use xlink:href="#DejaVuSans-34" x="190.869141"/>
       <use xlink:href="#DejaVuSans-2d" x="254.492188"/>
       <use xlink:href="#DejaVuSans-30" x="290.576172"/>
       <use xlink:href="#DejaVuSans-39" x="354.199219"/>
      </g>
     </g>
    </g>
    <g id="xtick_6">
     <g id="line2d_11">
      <path d="M 679.662516 404.12 
L 679.662516 25.44 
" clip-path="url(#p67466f0fd2)" style="fill: none; stroke: #cfcfcf; stroke-width: 0.8; stroke-linecap: square"/>
     </g>
     <g id="line2d_12">
      <g>
       <use xlink:href="#md1335f663d" x="679.662516" y="404.12" style="stroke: #000000; stroke-width: 0.8"/>
      </g>
     </g>
     <g id="text_6">
      <!-- 2024-11 -->
      <g transform="translate(658.77111 418.718437) scale(0.1 -0.1)">
       <use xlink:href="#DejaVuSans-32"/>
       <use xlink:href="#DejaVuSans-30" x="63.623047"/>
       <use xlink:href="#DejaVuSans-32" x="127.246094"/>
       <use xlink:href="#DejaVuSans-34" x="190.869141"/>
       <use xlink:href="#DejaVuSans-2d" x="254.492188"/>
       <use xlink:href="#DejaVuSans-31" x="290.576172"/>
       <use xlink:href="#DejaVuSans-31" x="354.199219"/>
      </g>
     </g>
    </g>
    <g id="xtick_7">
     <g id="line2d_13">
      <path d="M 795.999292 404.12 
L 795.999292 25.44 
" clip-path="url(#p67466f0fd2)" style="fill: none; stroke: #cfcfcf; stroke-width: 0.8; stroke-linecap: square"/>
     </g>
     <g id="line2d_14">
      <g>
       <use xlink:href="#md1335f663d" x="795.999292" y="404.12" style="stroke: #000000; stroke-width: 0.8"/>
      </g>
     </g>
     <g id="text_7">
      <!-- 2025-01 -->
      <g transform="translate(775.107886 418.718437) scale(0.1 -0.1)">
       <use xlink:href="#DejaVuSans-32"/>
       <use xlink:href="#DejaVuSans-30" x="63.623047"/>
       <use xlink:href="#DejaVuSans-32" x="127.246094"/>
       <use xlink:href="#DejaVuSans-35" x="190.869141"/>
       <use xlink:href="#DejaVuSans-2d" x="254.492188"/>
       <use xlink:href="#DejaVuSans-30" x="290.576172"/>
       <use xlink:href="#DejaVuSans-31" x="354.199219"/>
      </g>
     </g>
    </g>
    <g id="xtick_8">
     <g id="line2d_15">
      <path d="M 908.521748 404.12 
L 908.521748 25.44 
" clip-path="url(#p67466f0fd2)" style="fill: none; stroke: #cfcfcf; stroke-width: 0.8; stroke-linecap: square"/>
     </g>
     <g id="line2d_16">
      <g>
       <use xlink:href="#md1335f663d" x="908.521748" y="404.12" style="stroke: #000000; stroke-width: 0.8"/>
      </g>
     </g>
     <g id="text_8">
      <!-- 2025-03 -->
      <g transform="translate(887.630342 418.718437) scale(0.1 -0.1)">
       <use xlink:href="#DejaVuSans-32"/>
       <use xlink:href="#DejaVuSans-30" x="63.623047"/>
       <use xlink:href="#DejaVuSans-32" x="127.246094"/>
       <use xlink:href="#DejaVuSans-35" x="190.869141"/>
       <use xlink:href="#DejaVuSans-2d" x="254.492188"/>
       <use xlink:href="#DejaVuSans-30" x="290.576172"/>
       <use xlink:href="#DejaVuSans-33" x="354.199219"/>
      </g>
     </g>
    </g>
    <g id="xtick_9">
     <g id="line2d_17">
      <path d="M 1024.858524 404.12 
L 1024.858524 25.44 
" clip-path="url(#p67466f0fd2)" style="fill: none; stroke: #cfcfcf; stroke-width: 0.8; stroke-linecap: square"/>
     </g>
     <g id="line2d_18">
      <g>
       <use xlink:href="#md1335f663d" x="1024.858524" y="404.12" style="stroke: #000000; stroke-width: 0.8"/>
      </g>
     </g>
     <g id="text_9">
      <!-- 2025-05 -->
      <g transform="translate(1003.967118 418.718437) scale(0.1 -0.1)">
       <use xlink:href="#DejaVuSans-32"/>
       <use xlink:href="#DejaVuSans-30" x="63.623047"/>
       <use xlink:href="#DejaVuSans-32" x="127.246094"/>
       <use xlink:href="#DejaVuSans-35" x="190.869141"/>
       <use xlink:href="#DejaVuSans-2d" x="254.492188"/>
       <use xlink:href="#DejaVuSans-30" x="290.576172"/>
       <use xlink:href="#DejaVuSans-35" x="354.199219"/>
      </g>
     </g>
    </g>
   </g>
   <g id="matplotlib.axis_2">
    <g id="ytick_1">
     <g id="line2d_19">
      <path d="M 51.73 384.381476 
L 1069.2 384.381476 
" clip-path="url(#p67466f0fd2)" style="fill: none; stroke: #cfcfcf; stroke-width: 0.8; stroke-linecap: square"/>
     </g>
     <g id="line2d_20">
      <defs>
       <path id="ma2ddaf3b57" d="M 0 0 
L -3.5 0 
" style="stroke: #000000; stroke-width: 0.8"/>
      </defs>
      <g>
       <use xlink:href="#ma2ddaf3b57" x="51.73" y="384.381476" style="stroke: #000000; stroke-width: 0.8"/>
      </g>
     </g>
     <g id="text_10">
      <!-- −3000 -->
      <g transform="translate(10.900313 388.180695) scale(0.1 -0.1)">
       <defs>
        <path id="DejaVuSans-2212" d="M 678 2272 
L 4684 2272 
L 4684 1741 
L 678 1741 
L 678 2272 
z
" transform="scale(0.015625)"/>
       </defs>
       <use xlink:href="#DejaVuSans-2212"/>
       <use xlink:href="#DejaVuSans-33" x="83.789062"/>
       <use xlink:href="#DejaVuSans-30" x="147.412109"/>
       <use xlink:href="#DejaVuSans-30" x="211.035156"/>
       <use xlink:href="#DejaVuSans-30" x="274.658203"/>
      </g>
     </g>
    </g>
    <g id="ytick_2">
     <g id="line2d_21">
      <path d="M 51.73 326.977017 
L 1069.2 326.977017 
" clip-path="url(#p67466f0fd2)" style="fill: none; stroke: #cfcfcf; stroke-width: 0.8; stroke-linecap: square"/>
     </g>
     <g id="line2d_22">
      <g>
       <use xlink:href="#ma2ddaf3b57" x="51.73" y="326.977017" style="stroke: #000000; stroke-width: 0.8"/>
      </g>
     </g>
     <g id="text_11">
      <!-- −2000 -->
      <g transform="translate(10.900313 330.776235) scale(0.1 -0.1)">
       <use xlink:href="#DejaVuSans-2212"/>
       <use xlink:href="#DejaVuSans-32" x="83.789062"/>
       <use xlink:href="#DejaVuSans-30" x="147.412109"/>
       <use xlink:href="#DejaVuSans-30" x="211.035156"/>
       <use xlink:href="#DejaVuSans-30" x="274.658203"/>
      </g>
     </g>
    </g>
    <g id="ytick_3">
     <g id="line2d_23">
      <path d="M 51.73 269.572557 
L 1069.2 269.572557 
" clip-path="url(#p67466f0fd2)" style="fill: none; stroke: #cfcfcf; stroke-width: 0.8; stroke-linecap: square"/>
     </g>
     <g id="line2d_24">
      <g>
       <use xlink:href="#ma2ddaf3b57" x="51.73" y="269.572557" style="stroke: #000000; stroke-width: 0.8"/>
      </g>
     </g>
     <g id="text_12">
      <!-- −1000 -->
      <g transform="translate(10.900313 273.371776) scale(0.1 -0.1)">
       <use xlink:href="#DejaVuSans-2212"/>
       <use xlink:href="#DejaVuSans-31" x="83.789062"/>
       <use xlink:href="#DejaVuSans-30" x="147.412109"/>
       <use xlink:href="#DejaVuSans-30" x="211.035156"/>
       <use xlink:href="#DejaVuSans-30" x="274.658203"/>
      </g>
     </g>
    </g>
    <g id="ytick_4">
     <g id="line2d_25">
      <path d="M 51.73 212.168097 
L 1069.2 212.168097 
" clip-path="url(#p67466f0fd2)" style="fill: none; stroke: #cfcfcf; stroke-width: 0.8; stroke-linecap: square"/>
     </g>
     <g id="line2d_26">
      <g>
       <use xlink:href="#ma2ddaf3b57" x="51.73" y="212.168097" style="stroke: #000000; stroke-width: 0.8"/>
      </g>
     </g>
     <g id="text_13">
      <!-- 0 -->
      <g transform="translate(38.3675 215.967316) scale(0.1 -0.1)">
       <use xlink:href="#DejaVuSans-30"/>
      </g>
     </g>
    </g>
    <g id="ytick_5">
     <g id="line2d_27">
      <path d="M 51.73 154.763637 
L 1069.2 154.763637 
" clip-path="url(#p67466f0fd2)" style="fill: none; stroke: #cfcfcf; stroke-width: 0.8; stroke-linecap: square"/>
     </g>
     <g id="line2d_28">
      <g>
       <use xlink:href="#ma2ddaf3b57" x="51.73" y="154.763637" style="stroke: #000000; stroke-width: 0.8"/>
      </g>
     </g>
     <g id="text_14">
      <!-- 1000 -->
      <g transform="translate(19.28 158.562856) scale(0.1 -0.1)">
       <use xlink:href="#DejaVuSans-31"/>
       <use xlink:href="#DejaVuSans-30" x="63.623047"/>
       <use xlink:href="#DejaVuSans-30" x="127.246094"/>
       <use xlink:href="#DejaVuSans-30" x="190.869141"/>
      </g>
     </g>
    </g>
    <g id="ytick_6">
     <g id="line2d_29">
      <path d="M 51.73 97.359177 
L 1069.2 97.359177 
" clip-path="url(#p67466f0fd2)" style="fill: none; stroke: #cfcfcf; stroke-width: 0.8; stroke-linecap: square"/>
     </g>
     <g id="line2d_30">
      <g>
       <use xlink:href="#ma2ddaf3b57" x="51.73" y="97.359177" style="stroke: #000000; stroke-width: 0.8"/>
      </g>
     </g>
     <g id="text_15">
      <!-- 2000 -->
      <g transform="translate(19.28 101.158396) scale(0.1 -0.1)">
       <use xlink:href="#DejaVuSans-32"/>
       <use xlink:href="#DejaVuSans-30" x="63.623047"/>
       <use xlink:href="#DejaVuSans-30" x="127.246094"/>
       <use xlink:href="#DejaVuSans-30" x="190.869141"/>
      </g>
     </g>
    </g>
    <g id="ytick_7">
     <g id="line2d_31">
      <path d="M 51.73 39.954718 
L 1069.2 39.954718 
" clip-path="url(#p67466f0fd2)" style="fill: none; stroke: #cfcfcf; stroke-width: 0.8; stroke-linecap: square"/>
     </g>
     <g id="line2d_32">
      <g>
       <use xlink:href="#ma2ddaf3b57" x="51.73" y="39.954718" style="stroke: #000000; stroke-width: 0.8"/>
      </g>
     </g>
     <g id="text_16">
      <!-- 3000 -->
      <g transform="translate(19.28 43.753936) scale(0.1 -0.1)">
       <use xlink:href="#DejaVuSans-33"/>
       <use xlink:href="#DejaVuSans-30" x="63.623047"/>
       <use xlink:href="#DejaVuSans-30" x="127.246094"/>
       <use xlink:href="#DejaVuSans-30" x="190.869141"/>
      </g>
     </g>
    </g>
   </g>
   <g id="line2d_33">
    <path d="M 99.885797 196.094848 
L 103.700117 198.391027 
L 117.050239 198.391027 
L 124.67888 196.094848 
L 126.58604 200.687205 
L 128.493201 196.094848 
L 132.307521 196.094848 
L 138.029002 205.279562 
L 139.936162 198.391027 
L 141.843322 198.391027 
L 145.657643 196.094848 
L 153.286284 197.702173 
L 157.100604 198.391027 
L 159.007765 198.391027 
L 160.914925 189.206313 
L 168.543566 198.391027 
L 172.357887 190.06738 
L 178.079367 209.068256 
L 181.893688 196.094848 
L 191.429489 198.391027 
L 193.336649 198.391027 
L 195.24381 207.57574 
L 197.15097 184.613956 
L 204.779611 196.094848 
L 208.593932 200.687205 
L 210.501092 193.79867 
L 218.129733 200.687205 
L 220.036893 196.094848 
L 221.944053 196.094848 
L 223.851214 207.57574 
L 225.758374 198.391027 
L 231.479855 198.391027 
L 233.387015 196.094848 
L 261.994419 196.094848 
L 271.53022 198.391027 
L 273.437381 196.094848 
L 275.344541 198.391027 
L 279.158861 196.094848 
L 284.880342 196.094848 
L 288.694663 198.391027 
L 292.508983 196.094848 
L 298.230464 198.391027 
L 300.137624 196.094848 
L 303.951945 196.094848 
L 311.580586 182.317778 
L 315.394906 198.391027 
L 317.302067 198.391027 
L 324.930708 196.094848 
L 342.09515 196.094848 
L 345.90947 198.391027 
L 353.538112 180.0216 
L 366.888233 196.094848 
L 378.331195 182.317778 
L 382.145515 196.094848 
L 391.681317 198.391027 
L 395.495637 175.429243 
L 406.938599 196.094848 
L 412.66008 196.094848 
L 420.288721 200.687205 
L 424.103041 198.391027 
L 426.010201 180.0216 
L 435.546003 196.094848 
L 437.453163 200.687205 
L 439.360323 198.391027 
L 445.081804 198.391027 
L 448.896125 196.094848 
L 454.617605 200.687205 
L 462.246246 196.094848 
L 466.060567 207.920167 
L 475.596368 196.094848 
L 477.503529 198.391027 
L 479.410689 191.502492 
L 485.13217 200.687205 
L 488.94649 198.391027 
L 490.85365 198.391027 
L 492.760811 196.094848 
L 502.296612 186.910135 
L 506.110933 196.094848 
L 513.739574 191.502492 
L 515.646734 189.206313 
L 525.182535 184.613956 
L 527.089695 196.094848 
L 530.904016 196.094848 
L 532.811176 198.391027 
L 538.532657 196.094848 
L 540.439817 196.094848 
L 551.882779 200.687205 
L 553.789939 180.0216 
L 559.51142 184.613956 
L 567.140061 197.931791 
L 572.861542 184.613956 
L 584.304503 198.391027 
L 593.840305 180.0216 
L 595.747465 196.094848 
L 620.540548 196.094848 
L 631.98351 198.391027 
L 639.612151 198.391027 
L 645.333632 196.094848 
L 649.147952 196.094848 
L 652.962273 198.391027 
L 664.405234 189.206313 
L 666.312395 200.687205 
L 675.848196 196.094848 
L 679.662516 189.206313 
L 700.641279 206.886887 
L 702.54844 198.391027 
L 704.4556 189.206313 
L 725.434363 196.094848 
L 773.113369 196.094848 
L 784.556331 200.687205 
L 797.906453 200.687205 
L 801.720773 196.094848 
L 809.349414 196.094848 
L 818.885216 198.391027 
L 822.699536 196.094848 
L 834.142498 202.983384 
L 836.049658 200.687205 
L 845.585459 196.094848 
L 851.30694 196.094848 
L 858.935581 200.687205 
L 864.657062 193.79867 
L 876.100023 190.641425 
L 885.635825 198.391027 
L 891.357306 196.094848 
L 898.985947 196.094848 
L 902.800267 193.79867 
L 912.336068 196.094848 
L 919.964709 193.79867 
L 931.407671 196.094848 
L 935.221992 207.57574 
L 939.036312 193.79867 
L 944.757793 196.094848 
L 946.664953 193.79867 
L 958.107915 205.279562 
L 967.643716 189.780358 
L 975.272357 193.79867 
L 982.900998 207.001696 
L 984.808158 198.391027 
L 992.436799 200.687205 
L 994.34396 199.539116 
L 996.25112 200.687205 
L 1007.694082 200.687205 
L 1013.415562 186.33609 
L 1013.415562 186.33609 
" clip-path="url(#p67466f0fd2)" style="fill: none; stroke: #440154; stroke-width: 1.5; stroke-linecap: square"/>
   </g>
   <g id="line2d_34">
    <path d="M 99.885797 202.81117 
L 101.792957 199.826138 
L 103.700117 42.652727 
L 105.607277 209.010852 
L 107.514438 212.053288 
L 111.328758 204.762922 
L 113.235918 207.346122 
L 115.143079 204.016664 
L 117.050239 203.729641 
L 118.957399 202.753766 
L 120.86456 211.479244 
L 124.67888 208.723829 
L 126.58604 184.384339 
L 128.493201 203.614833 
L 130.400361 206.714673 
L 132.307521 200.227969 
L 134.214681 207.862763 
L 138.029002 200.974227 
L 139.936162 203.614833 
L 141.843322 199.481711 
L 143.750483 201.490868 
L 145.657643 204.705517 
L 147.564803 209.584896 
L 151.379124 202.696361 
L 153.286284 202.983384 
L 155.193444 202.696361 
L 157.100604 197.415151 
L 159.007765 194.889355 
L 160.914925 211.020008 
L 164.729246 196.955915 
L 166.636406 210.847795 
L 168.543566 201.720485 
L 170.450726 208.953447 
L 172.357887 204.246282 
L 178.079367 208.896043 
L 181.893688 205.394371 
L 183.800848 204.935135 
L 185.708008 206.886887 
L 191.429489 195.807826 
L 193.336649 204.705517 
L 195.24381 203.040788 
L 197.15097 203.098192 
L 199.05813 202.925979 
L 206.686771 204.877731 
L 208.593932 201.318654 
L 210.501092 198.218813 
L 212.408252 210.158941 
L 214.315412 211.020008 
L 218.129733 200.687205 
L 220.036893 206.485056 
L 221.944053 200.916823 
L 223.851214 203.672237 
L 225.758374 200.055756 
L 227.665534 211.30703 
L 231.479855 199.539116 
L 233.387015 202.696361 
L 235.294175 199.940947 
L 237.201336 202.237126 
L 239.108496 204.016664 
L 241.015656 207.518336 
L 244.829977 201.203845 
L 246.737137 199.194689 
L 248.644297 201.835294 
L 250.551457 206.370247 
L 252.458618 188.287842 
L 254.365778 211.708861 
L 258.180098 200.687205 
L 260.087259 201.950103 
L 261.994419 204.820326 
L 263.901579 203.557428 
L 267.7159 211.708861 
L 271.53022 200.974227 
L 273.437381 202.524148 
L 275.344541 204.475899 
L 277.251701 199.194689 
L 279.158861 205.796202 
L 281.066022 211.938479 
L 284.880342 205.107349 
L 286.787502 202.466743 
L 288.694663 203.270406 
L 290.601823 197.816982 
L 292.508983 204.820326 
L 294.416143 210.101537 
L 298.230464 197.472555 
L 300.137624 208.609021 
L 302.044784 208.723829 
L 303.951945 203.040788 
L 305.859105 199.539116 
L 307.766265 212.053288 
L 311.580586 107.404958 
L 313.487746 203.84445 
L 315.394906 198.620645 
L 317.302067 201.376059 
L 319.209227 209.814514 
L 321.116387 212.110693 
L 324.930708 208.896043 
L 326.837868 205.394371 
L 330.652188 202.064912 
L 332.559349 205.279562 
L 334.466509 211.766266 
L 338.280829 201.031632 
L 340.18799 205.853607 
L 342.09515 202.925979 
L 344.00231 205.394371 
L 345.90947 204.188877 
L 347.816631 210.044132 
L 351.630951 200.514992 
L 353.538112 199.309498 
L 355.445272 205.107349 
L 357.352432 207.346122 
L 359.259592 200.285374 
L 361.166753 212.110693 
L 364.981073 204.533304 
L 366.888233 207.0591 
L 368.795394 204.131473 
L 370.702554 209.125661 
L 372.609714 207.690549 
L 374.516874 211.708861 
L 378.331195 202.524148 
L 380.238355 207.0591 
L 382.145515 201.663081 
L 385.959836 207.0591 
L 387.866996 211.995884 
L 391.681317 204.131473 
L 393.588477 201.663081 
L 395.495637 209.010852 
L 397.402798 203.787046 
L 399.309958 204.99254 
L 401.217118 210.618177 
L 405.031439 209.584896 
L 406.938599 207.805358 
L 408.845759 203.32781 
L 410.752919 206.140629 
L 412.66008 208.723829 
L 414.56724 211.536648 
L 418.38156 202.122317 
L 420.288721 202.409339 
L 422.195881 201.376059 
L 424.103041 208.09238 
L 426.010201 198.0466 
L 431.731682 202.29453 
L 433.638843 207.116505 
L 435.546003 201.376059 
L 437.453163 204.246282 
L 439.360323 206.255438 
L 441.267484 211.30703 
L 445.081804 202.81117 
L 446.988964 201.720485 
L 448.896125 207.288718 
L 450.803285 202.696361 
L 452.710445 204.131473 
L 454.617605 212.053288 
L 458.431926 210.158941 
L 462.246246 206.944291 
L 464.153407 197.874387 
L 466.060567 205.566584 
L 467.967727 211.020008 
L 471.782048 206.255438 
L 473.689208 210.445963 
L 475.596368 203.270406 
L 477.503529 191.215469 
L 479.410689 199.940947 
L 481.317849 212.053288 
L 485.13217 205.738798 
L 487.03933 196.267062 
L 488.94649 192.478367 
L 490.85365 201.720485 
L 492.760811 208.609021 
L 494.667971 209.527492 
L 498.482291 210.331154 
L 500.389452 201.089036 
L 502.296612 204.762922 
L 504.203772 211.020008 
L 506.110933 202.409339 
L 508.018093 210.560772 
L 511.832413 197.702173 
L 513.739574 206.140629 
L 515.646734 198.850262 
L 517.553894 206.140629 
L 519.461054 211.134817 
L 525.182535 200.687205 
L 527.089695 203.84445 
L 528.996856 199.022476 
L 530.904016 199.194689 
L 532.811176 203.614833 
L 534.718336 210.388559 
L 538.532657 196.439275 
L 540.439817 203.901855 
L 542.346978 203.614833 
L 544.254138 204.590708 
L 548.068458 211.995884 
L 551.882779 206.829482 
L 553.789939 204.762922 
L 555.697099 206.944291 
L 557.60426 195.118973 
L 559.51142 198.850262 
L 561.41858 211.536648 
L 565.232901 205.107349 
L 569.047221 207.001696 
L 570.954381 199.59652 
L 578.583022 206.312842 
L 580.490183 204.762922 
L 582.397343 205.968415 
L 584.304503 199.59652 
L 586.211664 209.355279 
L 588.118824 211.134817 
L 591.933144 205.394371 
L 593.840305 202.007508 
L 595.747465 202.064912 
L 597.654625 206.714673 
L 599.561785 206.198033 
L 607.190426 212.053288 
L 618.633388 210.445963 
L 622.447709 205.279562 
L 624.354869 210.618177 
L 626.262029 207.231314 
L 628.169189 211.30703 
L 631.98351 204.705517 
L 633.89067 207.116505 
L 635.79783 205.738798 
L 637.704991 208.494212 
L 639.612151 208.609021 
L 645.333632 195.922635 
L 647.240792 208.264594 
L 649.147952 201.663081 
L 651.055112 209.412683 
L 652.962273 208.321998 
L 654.869433 211.594052 
L 658.683754 204.762922 
L 660.590914 206.198033 
L 662.498074 207.805358 
L 664.405234 208.436807 
L 666.312395 192.535772 
L 668.219555 211.881075 
L 672.033875 208.379403 
L 673.941036 206.083224 
L 675.848196 204.877731 
L 677.755356 201.720485 
L 679.662516 209.125661 
L 685.383997 208.781234 
L 687.291157 208.838638 
L 689.198318 207.288718 
L 691.105478 209.297874 
L 693.012638 211.995884 
L 694.919799 211.020008 
L 698.734119 205.336966 
L 700.641279 204.648113 
L 702.54844 205.911011 
L 704.4556 210.503368 
L 708.26992 209.75711 
L 712.084241 206.370247 
L 715.898561 210.905199 
L 717.805722 204.016664 
L 719.712882 207.116505 
L 721.620042 212.110693 
L 725.434363 208.666425 
L 727.341523 210.445963 
L 729.248683 203.500024 
L 731.155843 203.500024 
L 733.063004 205.566584 
L 734.970164 212.110693 
L 738.784485 206.312842 
L 740.691645 209.814514 
L 742.598805 209.355279 
L 744.505965 206.772078 
L 746.413126 208.09238 
L 748.320286 210.79039 
L 752.134606 207.403527 
L 754.041767 204.074068 
L 755.948927 210.732986 
L 757.856087 207.460931 
L 759.763247 208.953447 
L 761.670408 210.962603 
L 765.484728 205.566584 
L 767.391888 204.762922 
L 769.299049 207.633145 
L 771.206209 203.442619 
L 773.113369 205.681393 
L 775.02053 209.297874 
L 778.83485 208.551616 
L 784.556331 210.79039 
L 788.370651 211.249626 
L 797.906453 203.32781 
L 799.813613 207.920167 
L 801.720773 211.82367 
L 805.535094 207.001696 
L 807.442254 205.222157 
L 809.349414 208.953447 
L 811.256575 204.475899 
L 813.163735 208.953447 
L 815.070895 212.110693 
L 818.885216 202.524148 
L 820.792376 201.490868 
L 822.699536 207.518336 
L 824.606696 211.364435 
L 826.513857 209.24047 
L 828.421017 210.560772 
L 832.235337 210.618177 
L 834.142498 206.886887 
L 836.049658 207.747954 
L 837.956818 206.083224 
L 839.863978 211.077412 
L 845.585459 210.445963 
L 847.492619 205.623989 
L 849.39978 206.02582 
L 851.30694 205.566584 
L 853.2141 210.27375 
L 858.935581 209.75711 
L 860.842741 210.044132 
L 862.749902 196.898511 
L 864.657062 199.826138 
L 866.564222 206.772078 
L 868.471382 211.594052 
L 872.285703 208.264594 
L 874.192863 208.09238 
L 876.100023 206.54246 
L 878.007184 206.140629 
L 879.914344 209.527492 
L 881.821504 211.82367 
L 885.635825 210.503368 
L 887.542985 206.886887 
L 889.450145 207.57574 
L 891.357306 208.551616 
L 893.264466 208.781234 
L 895.171626 211.479244 
L 898.985947 206.312842 
L 900.893107 208.436807 
L 902.800267 207.288718 
L 904.707427 205.623989 
L 906.614588 208.207189 
L 908.521748 211.536648 
L 912.336068 209.814514 
L 916.150389 195.922635 
L 918.057549 206.944291 
L 919.964709 201.490868 
L 921.87187 210.79039 
L 925.68619 207.346122 
L 927.593351 204.533304 
L 929.500511 204.361091 
L 931.407671 207.403527 
L 933.314831 208.551616 
L 939.036312 206.02582 
L 940.943472 208.838638 
L 942.850633 202.351934 
L 944.757793 206.772078 
L 948.572113 211.249626 
L 952.386434 206.714673 
L 954.293594 200.974227 
L 956.200754 210.388559 
L 958.107915 208.953447 
L 960.015075 211.651457 
L 961.922235 209.527492 
L 965.736556 209.355279 
L 967.643716 208.723829 
L 969.550876 207.690549 
L 971.458037 200.74461 
L 973.365197 208.723829 
L 975.272357 211.421839 
L 979.086678 202.753766 
L 980.993838 192.650581 
L 982.900998 199.481711 
L 984.808158 209.527492 
L 986.715319 210.388559 
L 992.436799 198.965071 
L 994.34396 204.705517 
L 996.25112 203.672237 
L 998.15828 210.962603 
L 1001.972601 211.938479 
L 1007.694082 206.829482 
L 1009.601242 201.720485 
L 1011.508402 208.723829 
L 1013.415562 204.016664 
L 1019.137043 209.929323 
L 1021.044203 206.02582 
L 1022.951364 211.536648 
L 1022.951364 211.536648 
" clip-path="url(#p67466f0fd2)" style="fill: none; stroke: #414487; stroke-width: 1.5; stroke-linecap: square"/>
   </g>
   <g id="line2d_35">
    <path d="M 97.978636 202.122317 
L 99.885797 195.405995 
L 101.792957 207.747954 
L 103.700117 363.486253 
L 105.607277 352.866428 
L 107.514438 352.981237 
L 109.421598 352.981237 
L 111.328758 360.386412 
L 113.235918 351.431317 
L 115.143079 359.58275 
L 117.050239 354.244135 
L 118.957399 363.658467 
L 120.86456 364.34732 
L 122.77172 364.34732 
L 124.67888 351.718339 
L 126.58604 368.021205 
L 128.493201 360.501221 
L 130.400361 365.954645 
L 132.307521 361.821524 
L 134.214681 366.126858 
L 136.121842 366.126858 
L 138.029002 370.432193 
L 139.936162 365.208387 
L 141.843322 364.117702 
L 143.750483 374.794932 
L 145.657643 366.184263 
L 147.564803 368.767463 
L 149.471963 368.767463 
L 151.379124 378.239199 
L 153.286284 372.957989 
L 155.193444 382.429725 
L 157.100604 383.405601 
L 159.007765 386.907273 
L 160.914925 365.093578 
L 162.822085 365.093578 
L 164.729246 380.30576 
L 166.636406 381.626062 
L 168.543566 378.296604 
L 170.450726 381.511254 
L 172.357887 367.332352 
L 176.172207 367.332352 
L 178.079367 367.504565 
L 179.986528 367.504565 
L 181.893688 358.205043 
L 183.800848 365.438005 
L 185.708008 370.719215 
L 189.522329 370.719215 
L 191.429489 373.302416 
L 193.336649 366.987925 
L 195.24381 371.522877 
L 197.15097 353.038641 
L 199.05813 362.280759 
L 202.872451 362.280759 
L 204.779611 353.899708 
L 206.686771 361.190075 
L 208.593932 360.558626 
L 210.501092 356.138482 
L 212.408252 358.147638 
L 214.315412 359.295728 
L 218.129733 359.295728 
L 220.036893 348.90552 
L 221.944053 344.083546 
L 223.851214 347.987049 
L 225.758374 346.32232 
L 227.665534 347.183387 
L 229.572694 347.183387 
L 231.479855 346.035297 
L 233.387015 339.433784 
L 235.294175 351.660934 
L 237.201336 345.518657 
L 239.108496 337.596842 
L 241.015656 342.246603 
L 242.922816 342.246603 
L 244.829977 197.702173 
L 246.737137 191.674705 
L 248.644297 202.007508 
L 250.551457 191.732109 
L 252.458618 199.539116 
L 254.365778 199.998352 
L 256.272938 199.998352 
L 258.180098 211.479244 
L 260.087259 205.623989 
L 261.994419 196.898511 
L 263.901579 205.50918 
L 265.808739 205.50918 
L 267.7159 205.968415 
L 269.62306 205.968415 
L 271.53022 203.385215 
L 275.344541 190.871042 
L 277.251701 203.84445 
L 279.158861 194.143097 
L 281.066022 194.372715 
L 282.973182 194.372715 
L 284.880342 185.360214 
L 286.787502 195.061568 
L 288.694663 190.182189 
L 290.601823 204.533304 
L 292.508983 195.807826 
L 294.416143 197.874387 
L 296.323304 197.874387 
L 298.230464 198.792858 
L 300.137624 186.278686 
L 302.044784 189.722953 
L 303.951945 182.777014 
L 305.859105 195.405995 
L 307.766265 195.520804 
L 309.673425 195.520804 
L 311.580586 270.433624 
L 313.487746 278.75727 
L 315.394906 278.527653 
L 317.302067 275.542621 
L 319.209227 277.896204 
L 323.023547 277.953608 
L 324.930708 265.152413 
L 326.837868 271.92614 
L 328.745028 271.92614 
L 330.652188 265.956076 
L 332.559349 272.844611 
L 334.466509 273.246442 
L 336.373669 273.246442 
L 338.280829 268.309659 
L 340.18799 258.550901 
L 342.09515 251.71977 
L 344.00231 258.493496 
L 345.90947 252.695646 
L 347.816631 254.819611 
L 349.723791 254.819611 
L 351.630951 266.472716 
L 353.538112 247.184818 
L 355.445272 254.245566 
L 357.352432 259.067541 
L 359.259592 270.950264 
L 363.073913 271.007668 
L 364.981073 278.642462 
L 366.888233 267.67821 
L 368.795394 275.714834 
L 370.702554 278.75727 
L 372.609714 283.234818 
L 374.516874 283.694054 
L 376.424035 283.694054 
L 378.331195 263.487684 
L 380.238355 203.901855 
L 382.145515 198.333622 
L 384.052676 198.333622 
L 385.959836 203.442619 
L 387.866996 203.614833 
L 389.774157 203.614833 
L 391.681317 197.874387 
L 393.588477 208.379403 
L 395.495637 174.797794 
L 397.402798 183.178845 
L 399.309958 190.354402 
L 401.217118 191.904323 
L 403.124278 191.904323 
L 405.031439 194.487523 
L 406.938599 182.777014 
L 408.845759 175.544052 
L 410.752919 181.57152 
L 412.66008 168.942539 
L 414.56724 169.573988 
L 416.4744 169.573988 
L 418.38156 179.619768 
L 420.288721 177.897635 
L 422.195881 188.689673 
L 424.103041 178.988319 
L 426.010201 160.963319 
L 429.824522 160.963319 
L 431.731682 170.836886 
L 433.638843 175.888478 
L 435.546003 170.607268 
L 437.453163 167.048192 
L 439.360323 159.183781 
L 441.267484 160.044848 
L 443.174644 160.044848 
L 445.081804 155.624704 
L 446.988964 166.072316 
L 448.896125 154.878446 
L 450.803285 164.350182 
L 452.710445 172.386806 
L 454.617605 161.020723 
L 456.524766 161.020723 
L 458.431926 163.029879 
L 460.339086 163.029879 
L 462.246246 152.180437 
L 464.153407 166.474147 
L 466.060567 168.82773 
L 467.967727 169.975819 
L 469.874888 169.975819 
L 471.782048 175.888478 
L 473.689208 177.610612 
L 475.596368 170.435055 
L 477.503529 177.610612 
L 479.410689 169.172157 
L 481.317849 169.286966 
L 483.225009 169.286966 
L 485.13217 164.235373 
L 487.03933 180.136409 
L 488.94649 186.049068 
L 490.85365 182.719609 
L 492.760811 170.205437 
L 494.667971 172.846042 
L 496.575131 172.846042 
L 498.482291 174.682985 
L 500.389452 185.762046 
L 502.296612 167.909259 
L 504.203772 169.057348 
L 506.110933 162.742857 
L 508.018093 164.350182 
L 509.925253 164.350182 
L 511.832413 178.816106 
L 513.739574 164.177969 
L 515.646734 154.534019 
L 517.553894 160.561488 
L 519.461054 161.594768 
L 523.275375 161.594768 
L 525.182535 145.521519 
L 527.089695 137.771917 
L 528.996856 150.917538 
L 530.904016 147.817698 
L 532.811176 142.593892 
L 534.718336 144.37343 
L 536.625497 144.37343 
L 538.532657 144.029003 
L 540.439817 136.221997 
L 542.346978 144.775261 
L 544.254138 152.35265 
L 546.161298 156.198749 
L 548.068458 156.370962 
L 549.975619 156.370962 
L 551.882779 150.228685 
L 553.789939 125.487363 
L 555.697099 130.711169 
L 557.60426 147.760293 
L 559.51142 135.820166 
L 561.41858 136.451615 
L 563.32574 136.451615 
L 565.232901 143.512363 
L 567.140061 129.276057 
L 569.047221 134.442459 
L 570.954381 147.014035 
L 572.861542 119.459894 
L 576.675862 119.459894 
L 578.583022 125.315149 
L 580.490183 132.720325 
L 582.397343 138.920006 
L 584.304503 137.714513 
L 586.211664 140.527331 
L 588.118824 141.560612 
L 590.025984 141.560612 
L 591.933144 148.334338 
L 593.840305 126.34843 
L 595.747465 120.378366 
L 597.654625 125.83179 
L 599.561785 131.801853 
L 605.283266 131.801853 
L 607.190426 131.916662 
L 616.726228 131.916662 
L 618.633388 117.565547 
L 620.540548 105.797633 
L 622.447709 112.686168 
L 624.354869 114.236089 
L 626.262029 119.172872 
L 628.169189 120.033939 
L 630.07635 120.033939 
L 631.98351 113.719449 
L 633.89067 118.771041 
L 635.79783 111.42327 
L 637.704991 115.097156 
L 639.612151 104.879162 
L 643.426471 104.879162 
L 645.333632 105.051375 
L 647.240792 108.954878 
L 649.147952 103.386646 
L 651.055112 106.14206 
L 652.962273 96.211088 
L 654.869433 96.785133 
L 656.776593 96.785133 
L 658.683754 104.190308 
L 660.590914 110.160372 
L 662.498074 114.523111 
L 664.405234 95.292617 
L 666.312395 103.44405 
L 668.219555 103.731073 
L 670.126715 103.731073 
L 672.033875 107.519767 
L 673.941036 113.60464 
L 675.848196 104.821757 
L 677.755356 115.269369 
L 679.662516 95.350021 
L 683.476837 95.350021 
L 687.291157 102.066343 
L 689.198318 106.945722 
L 691.105478 109.815945 
L 693.012638 109.988159 
L 694.919799 111.136248 
L 696.826959 111.136248 
L 698.734119 117.967379 
L 700.641279 120.206152 
L 702.54844 112.686168 
L 704.4556 91.389114 
L 706.36276 91.389114 
L 708.26992 93.800101 
L 710.177081 93.800101 
L 712.084241 99.597951 
L 713.991401 103.157028 
L 715.898561 104.419926 
L 717.805722 112.571359 
L 719.712882 117.622952 
L 723.527202 117.680356 
L 725.434363 105.10878 
L 727.341523 106.830913 
L 729.248683 115.498987 
L 731.155843 108.093811 
L 733.063004 114.695324 
L 734.970164 98.67948 
L 736.877324 98.67948 
L 738.784485 104.534735 
L 740.691645 106.888318 
L 742.598805 93.627888 
L 744.505965 99.023907 
L 746.413126 103.099623 
L 748.320286 104.47733 
L 750.227446 104.47733 
L 752.134606 109.241901 
L 754.041767 117.335929 
L 755.948927 102.697792 
L 757.856087 107.404958 
L 759.763247 110.619608 
L 761.670408 95.751853 
L 763.577568 95.751853 
L 765.484728 102.353365 
L 767.391888 109.758541 
L 769.299049 98.220244 
L 771.206209 106.945722 
L 773.113369 97.359177 
L 775.02053 100.2294 
L 776.92769 100.2294 
L 778.83485 103.845881 
L 782.649171 103.845881 
L 784.556331 93.742696 
L 786.463491 93.742696 
L 788.370651 94.661168 
L 790.277812 94.661168 
L 792.184972 207.460931 
L 795.999292 207.460931 
L 797.906453 204.820326 
L 799.813613 209.068256 
L 801.720773 193.339434 
L 803.627933 193.339434 
L 805.535094 198.505836 
L 807.442254 205.566584 
L 809.349414 192.707985 
L 811.256575 200.400183 
L 813.163735 203.614833 
L 816.978055 203.672237 
L 818.885216 199.539116 
L 820.792376 210.216345 
L 822.699536 198.792858 
L 824.606696 199.59652 
L 826.513857 202.524148 
L 828.421017 204.131473 
L 830.328177 204.131473 
L 832.235337 205.681393 
L 834.142498 201.77789 
L 836.049658 194.717141 
L 837.956818 200.802014 
L 839.863978 201.892699 
L 841.771139 203.213001 
L 843.678299 203.213001 
L 845.585459 188.861886 
L 847.492619 195.405995 
L 849.39978 201.548272 
L 851.30694 192.076536 
L 853.2141 193.970883 
L 857.028421 193.970883 
L 858.935581 184.900979 
L 860.842741 187.024944 
L 862.749902 202.29453 
L 864.657062 196.267062 
L 866.564222 201.663081 
L 868.471382 202.237126 
L 870.378543 202.237126 
L 874.192863 210.216345 
L 876.100023 194.31531 
L 878.007184 200.342778 
L 879.914344 202.983384 
L 881.821504 203.32781 
L 883.728664 203.32781 
L 885.635825 191.215469 
L 887.542985 196.49668 
L 889.450145 201.089036 
L 891.357306 188.632269 
L 893.264466 192.019132 
L 895.171626 192.707985 
L 897.078786 192.707985 
L 898.985947 182.489991 
L 900.893107 186.221281 
L 902.800267 172.731233 
L 904.707427 179.275342 
L 906.614588 183.236249 
L 908.521748 183.867698 
L 910.428908 183.867698 
L 912.336068 170.148033 
L 914.243229 170.148033 
L 916.150389 186.393495 
L 918.057549 191.6173 
L 919.964709 183.925103 
L 921.87187 185.30281 
L 923.77903 185.30281 
L 925.68619 190.124785 
L 929.500511 205.566584 
L 931.407671 194.257906 
L 933.314831 197.874387 
L 935.221992 193.28203 
L 937.129152 193.28203 
L 939.036312 181.05488 
L 940.943472 184.384339 
L 942.850633 194.200501 
L 944.757793 183.523272 
L 946.664953 168.31109 
L 948.572113 169.229561 
L 950.479274 169.229561 
L 952.386434 174.682985 
L 954.293594 185.876854 
L 956.200754 187.656393 
L 958.107915 183.982507 
L 960.015075 184.499147 
L 961.922235 187.139753 
L 963.829396 187.139753 
L 965.736556 189.952571 
L 967.643716 171.009099 
L 969.550876 175.486647 
L 971.458037 186.910135 
L 973.365197 190.354402 
L 975.272357 172.731233 
L 977.179517 172.731233 
L 979.086678 182.145565 
L 980.993838 201.663081 
L 982.900998 209.183065 
L 984.808158 198.0466 
L 986.715319 199.826138 
L 990.529639 199.826138 
L 992.436799 201.548272 
L 994.34396 196.381871 
L 996.25112 193.396839 
L 998.15828 194.602332 
L 1000.06544 194.602332 
L 1001.972601 194.83195 
L 1005.786921 194.83195 
L 1007.694082 188.689673 
L 1009.601242 199.137285 
L 1011.508402 202.581552 
L 1013.415562 184.900979 
L 1017.229883 184.900979 
L 1019.137043 187.139753 
L 1021.044203 193.28203 
L 1022.951364 193.913479 
L 1022.951364 193.913479 
" clip-path="url(#p67466f0fd2)" style="fill: none; stroke: #2a788e; stroke-width: 1.5; stroke-linecap: square"/>
   </g>
   <g id="patch_3">
    <path d="M 51.73 404.12 
L 51.73 25.44 
" style="fill: none; stroke: #000000; stroke-width: 0.8; stroke-linejoin: miter; stroke-linecap: square"/>
   </g>
   <g id="patch_4">
    <path d="M 51.73 404.12 
L 1069.2 404.12 
" style="fill: none; stroke: #000000; stroke-width: 0.8; stroke-linejoin: miter; stroke-linecap: square"/>
   </g>
   <g id="text_17">
    <!-- Quantity Bought x Quantity Sold x Inventory -->
    <g transform="translate(426.896563 19.44) scale(0.12 -0.12)">
     <defs>
      <path id="DejaVuSans-51" d="M 2522 4238 
Q 1834 4238 1429 3725 
Q 1025 3213 1025 2328 
Q 1025 1447 1429 934 
Q 1834 422 2522 422 
Q 3209 422 3611 934 
Q 4013 1447 4013 2328 
Q 4013 3213 3611 3725 
Q 3209 4238 2522 4238 
z
M 3406 84 
L 4238 -825 
L 3475 -825 
L 2784 -78 
Q 2681 -84 2626 -87 
Q 2572 -91 2522 -91 
Q 1538 -91 948 567 
Q 359 1225 359 2328 
Q 359 3434 948 4092 
Q 1538 4750 2522 4750 
Q 3503 4750 4090 4092 
Q 4678 3434 4678 2328 
Q 4678 1516 4351 937 
Q 4025 359 3406 84 
z
" transform="scale(0.015625)"/>
      <path id="DejaVuSans-75" d="M 544 1381 
L 544 3500 
L 1119 3500 
L 1119 1403 
Q 1119 906 1312 657 
Q 1506 409 1894 409 
Q 2359 409 2629 706 
Q 2900 1003 2900 1516 
L 2900 3500 
L 3475 3500 
L 3475 0 
L 2900 0 
L 2900 538 
Q 2691 219 2414 64 
Q 2138 -91 1772 -91 
Q 1169 -91 856 284 
Q 544 659 544 1381 
z
M 1991 3584 
L 1991 3584 
z
" transform="scale(0.015625)"/>
      <path id="DejaVuSans-61" d="M 2194 1759 
Q 1497 1759 1228 1600 
Q 959 1441 959 1056 
Q 959 750 1161 570 
Q 1363 391 1709 391 
Q 2188 391 2477 730 
Q 2766 1069 2766 1631 
L 2766 1759 
L 2194 1759 
z
M 3341 1997 
L 3341 0 
L 2766 0 
L 2766 531 
Q 2569 213 2275 61 
Q 1981 -91 1556 -91 
Q 1019 -91 701 211 
Q 384 513 384 1019 
Q 384 1609 779 1909 
Q 1175 2209 1959 2209 
L 2766 2209 
L 2766 2266 
Q 2766 2663 2505 2880 
Q 2244 3097 1772 3097 
Q 1472 3097 1187 3025 
Q 903 2953 641 2809 
L 641 3341 
Q 956 3463 1253 3523 
Q 1550 3584 1831 3584 
Q 2591 3584 2966 3190 
Q 3341 2797 3341 1997 
z
" transform="scale(0.015625)"/>
      <path id="DejaVuSans-6e" d="M 3513 2113 
L 3513 0 
L 2938 0 
L 2938 2094 
Q 2938 2591 2744 2837 
Q 2550 3084 2163 3084 
Q 1697 3084 1428 2787 
Q 1159 2491 1159 1978 
L 1159 0 
L 581 0 
L 581 3500 
L 1159 3500 
L 1159 2956 
Q 1366 3272 1645 3428 
Q 1925 3584 2291 3584 
Q 2894 3584 3203 3211 
Q 3513 2838 3513 2113 
z
" transform="scale(0.015625)"/>
      <path id="DejaVuSans-74" d="M 1172 4494 
L 1172 3500 
L 2356 3500 
L 2356 3053 
L 1172 3053 
L 1172 1153 
Q 1172 725 1289 603 
Q 1406 481 1766 481 
L 2356 481 
L 2356 0 
L 1766 0 
Q 1100 0 847 248 
Q 594 497 594 1153 
L 594 3053 
L 172 3053 
L 172 3500 
L 594 3500 
L 594 4494 
L 1172 4494 
z
" transform="scale(0.015625)"/>
      <path id="DejaVuSans-69" d="M 603 3500 
L 1178 3500 
L 1178 0 
L 603 0 
L 603 3500 
z
M 603 4863 
L 1178 4863 
L 1178 4134 
L 603 4134 
L 603 4863 
z
" transform="scale(0.015625)"/>
      <path id="DejaVuSans-79" d="M 2059 -325 
Q 1816 -950 1584 -1140 
Q 1353 -1331 966 -1331 
L 506 -1331 
L 506 -850 
L 844 -850 
Q 1081 -850 1212 -737 
Q 1344 -625 1503 -206 
L 1606 56 
L 191 3500 
L 800 3500 
L 1894 763 
L 2988 3500 
L 3597 3500 
L 2059 -325 
z
" transform="scale(0.015625)"/>
      <path id="DejaVuSans-20" transform="scale(0.015625)"/>
      <path id="DejaVuSans-42" d="M 1259 2228 
L 1259 519 
L 2272 519 
Q 2781 519 3026 730 
Q 3272 941 3272 1375 
Q 3272 1813 3026 2020 
Q 2781 2228 2272 2228 
L 1259 2228 
z
M 1259 4147 
L 1259 2741 
L 2194 2741 
Q 2656 2741 2882 2914 
Q 3109 3088 3109 3444 
Q 3109 3797 2882 3972 
Q 2656 4147 2194 4147 
L 1259 4147 
z
M 628 4666 
L 2241 4666 
Q 2963 4666 3353 4366 
Q 3744 4066 3744 3513 
Q 3744 3084 3544 2831 
Q 3344 2578 2956 2516 
Q 3422 2416 3680 2098 
Q 3938 1781 3938 1306 
Q 3938 681 3513 340 
Q 3088 0 2303 0 
L 628 0 
L 628 4666 
z
" transform="scale(0.015625)"/>
      <path id="DejaVuSans-6f" d="M 1959 3097 
Q 1497 3097 1228 2736 
Q 959 2375 959 1747 
Q 959 1119 1226 758 
Q 1494 397 1959 397 
Q 2419 397 2687 759 
Q 2956 1122 2956 1747 
Q 2956 2369 2687 2733 
Q 2419 3097 1959 3097 
z
M 1959 3584 
Q 2709 3584 3137 3096 
Q 3566 2609 3566 1747 
Q 3566 888 3137 398 
Q 2709 -91 1959 -91 
Q 1206 -91 779 398 
Q 353 888 353 1747 
Q 353 2609 779 3096 
Q 1206 3584 1959 3584 
z
" transform="scale(0.015625)"/>
      <path id="DejaVuSans-67" d="M 2906 1791 
Q 2906 2416 2648 2759 
Q 2391 3103 1925 3103 
Q 1463 3103 1205 2759 
Q 947 2416 947 1791 
Q 947 1169 1205 825 
Q 1463 481 1925 481 
Q 2391 481 2648 825 
Q 2906 1169 2906 1791 
z
M 3481 434 
Q 3481 -459 3084 -895 
Q 2688 -1331 1869 -1331 
Q 1566 -1331 1297 -1286 
Q 1028 -1241 775 -1147 
L 775 -588 
Q 1028 -725 1275 -790 
Q 1522 -856 1778 -856 
Q 2344 -856 2625 -561 
Q 2906 -266 2906 331 
L 2906 616 
Q 2728 306 2450 153 
Q 2172 0 1784 0 
Q 1141 0 747 490 
Q 353 981 353 1791 
Q 353 2603 747 3093 
Q 1141 3584 1784 3584 
Q 2172 3584 2450 3431 
Q 2728 3278 2906 2969 
L 2906 3500 
L 3481 3500 
L 3481 434 
z
" transform="scale(0.015625)"/>
      <path id="DejaVuSans-68" d="M 3513 2113 
L 3513 0 
L 2938 0 
L 2938 2094 
Q 2938 2591 2744 2837 
Q 2550 3084 2163 3084 
Q 1697 3084 1428 2787 
Q 1159 2491 1159 1978 
L 1159 0 
L 581 0 
L 581 4863 
L 1159 4863 
L 1159 2956 
Q 1366 3272 1645 3428 
Q 1925 3584 2291 3584 
Q 2894 3584 3203 3211 
Q 3513 2838 3513 2113 
z
" transform="scale(0.015625)"/>
      <path id="DejaVuSans-78" d="M 3513 3500 
L 2247 1797 
L 3578 0 
L 2900 0 
L 1881 1375 
L 863 0 
L 184 0 
L 1544 1831 
L 300 3500 
L 978 3500 
L 1906 2253 
L 2834 3500 
L 3513 3500 
z
" transform="scale(0.015625)"/>
      <path id="DejaVuSans-53" d="M 3425 4513 
L 3425 3897 
Q 3066 4069 2747 4153 
Q 2428 4238 2131 4238 
Q 1616 4238 1336 4038 
Q 1056 3838 1056 3469 
Q 1056 3159 1242 3001 
Q 1428 2844 1947 2747 
L 2328 2669 
Q 3034 2534 3370 2195 
Q 3706 1856 3706 1288 
Q 3706 609 3251 259 
Q 2797 -91 1919 -91 
Q 1588 -91 1214 -16 
Q 841 59 441 206 
L 441 856 
Q 825 641 1194 531 
Q 1563 422 1919 422 
Q 2459 422 2753 634 
Q 3047 847 3047 1241 
Q 3047 1584 2836 1778 
Q 2625 1972 2144 2069 
L 1759 2144 
Q 1053 2284 737 2584 
Q 422 2884 422 3419 
Q 422 4038 858 4394 
Q 1294 4750 2059 4750 
Q 2388 4750 2728 4690 
Q 3069 4631 3425 4513 
z
" transform="scale(0.015625)"/>
      <path id="DejaVuSans-6c" d="M 603 4863 
L 1178 4863 
L 1178 0 
L 603 0 
L 603 4863 
z
" transform="scale(0.015625)"/>
      <path id="DejaVuSans-64" d="M 2906 2969 
L 2906 4863 
L 3481 4863 
L 3481 0 
L 2906 0 
L 2906 525 
Q 2725 213 2448 61 
Q 2172 -91 1784 -91 
Q 1150 -91 751 415 
Q 353 922 353 1747 
Q 353 2572 751 3078 
Q 1150 3584 1784 3584 
Q 2172 3584 2448 3432 
Q 2725 3281 2906 2969 
z
M 947 1747 
Q 947 1113 1208 752 
Q 1469 391 1925 391 
Q 2381 391 2643 752 
Q 2906 1113 2906 1747 
Q 2906 2381 2643 2742 
Q 2381 3103 1925 3103 
Q 1469 3103 1208 2742 
Q 947 2381 947 1747 
z
" transform="scale(0.015625)"/>
      <path id="DejaVuSans-49" d="M 628 4666 
L 1259 4666 
L 1259 0 
L 628 0 
L 628 4666 
z
" transform="scale(0.015625)"/>
      <path id="DejaVuSans-76" d="M 191 3500 
L 800 3500 
L 1894 563 
L 2988 3500 
L 3597 3500 
L 2284 0 
L 1503 0 
L 191 3500 
z
" transform="scale(0.015625)"/>
      <path id="DejaVuSans-65" d="M 3597 1894 
L 3597 1613 
L 953 1613 
Q 991 1019 1311 708 
Q 1631 397 2203 397 
Q 2534 397 2845 478 
Q 3156 559 3463 722 
L 3463 178 
Q 3153 47 2828 -22 
Q 2503 -91 2169 -91 
Q 1331 -91 842 396 
Q 353 884 353 1716 
Q 353 2575 817 3079 
Q 1281 3584 2069 3584 
Q 2775 3584 3186 3129 
Q 3597 2675 3597 1894 
z
M 3022 2063 
Q 3016 2534 2758 2815 
Q 2500 3097 2075 3097 
Q 1594 3097 1305 2825 
Q 1016 2553 972 2059 
L 3022 2063 
z
" transform="scale(0.015625)"/>
      <path id="DejaVuSans-72" d="M 2631 2963 
Q 2534 3019 2420 3045 
Q 2306 3072 2169 3072 
Q 1681 3072 1420 2755 
Q 1159 2438 1159 1844 
L 1159 0 
L 581 0 
L 581 3500 
L 1159 3500 
L 1159 2956 
Q 1341 3275 1631 3429 
Q 1922 3584 2338 3584 
Q 2397 3584 2469 3576 
Q 2541 3569 2628 3553 
L 2631 2963 
z
" transform="scale(0.015625)"/>
     </defs>
     <use xlink:href="#DejaVuSans-51"/>
     <use xlink:href="#DejaVuSans-75" x="78.710938"/>
     <use xlink:href="#DejaVuSans-61" x="142.089844"/>
     <use xlink:href="#DejaVuSans-6e" x="203.369141"/>
     <use xlink:href="#DejaVuSans-74" x="266.748047"/>
     <use xlink:href="#DejaVuSans-69" x="305.957031"/>
     <use xlink:href="#DejaVuSans-74" x="333.740234"/>
     <use xlink:href="#DejaVuSans-79" x="372.949219"/>
     <use xlink:href="#DejaVuSans-20" x="432.128906"/>
     <use xlink:href="#DejaVuSans-42" x="463.916016"/>
     <use xlink:href="#DejaVuSans-6f" x="532.519531"/>
     <use xlink:href="#DejaVuSans-75" x="593.701172"/>
     <use xlink:href="#DejaVuSans-67" x="657.080078"/>
     <use xlink:href="#DejaVuSans-68" x="720.556641"/>
     <use xlink:href="#DejaVuSans-74" x="783.935547"/>
     <use xlink:href="#DejaVuSans-20" x="823.144531"/>
     <use xlink:href="#DejaVuSans-78" x="854.931641"/>
     <use xlink:href="#DejaVuSans-20" x="914.111328"/>
     <use xlink:href="#DejaVuSans-51" x="945.898438"/>
     <use xlink:href="#DejaVuSans-75" x="1024.609375"/>
     <use xlink:href="#DejaVuSans-61" x="1087.988281"/>
     <use xlink:href="#DejaVuSans-6e" x="1149.267578"/>
     <use xlink:href="#DejaVuSans-74" x="1212.646484"/>
     <use xlink:href="#DejaVuSans-69" x="1251.855469"/>
     <use xlink:href="#DejaVuSans-74" x="1279.638672"/>
     <use xlink:href="#DejaVuSans-79" x="1318.847656"/>
     <use xlink:href="#DejaVuSans-20" x="1378.027344"/>
     <use xlink:href="#DejaVuSans-53" x="1409.814453"/>
     <use xlink:href="#DejaVuSans-6f" x="1473.291016"/>
     <use xlink:href="#DejaVuSans-6c" x="1534.472656"/>
     <use xlink:href="#DejaVuSans-64" x="1562.255859"/>
     <use xlink:href="#DejaVuSans-20" x="1625.732422"/>
     <use xlink:href="#DejaVuSans-78" x="1657.519531"/>
     <use xlink:href="#DejaVuSans-20" x="1716.699219"/>
     <use xlink:href="#DejaVuSans-49" x="1748.486328"/>
     <use xlink:href="#DejaVuSans-6e" x="1777.978516"/>
     <use xlink:href="#DejaVuSans-76" x="1841.357422"/>
     <use xlink:href="#DejaVuSans-65" x="1900.537109"/>
     <use xlink:href="#DejaVuSans-6e" x="1962.060547"/>
     <use xlink:href="#DejaVuSans-74" x="2025.439453"/>
     <use xlink:href="#DejaVuSans-6f" x="2064.648438"/>
     <use xlink:href="#DejaVuSans-72" x="2125.830078"/>
     <use xlink:href="#DejaVuSans-79" x="2166.943359"/>
    </g>
   </g>
   <g id="legend_1">
    <g id="patch_5">
     <path d="M 982.434375 77.474375 
L 1062.2 77.474375 
Q 1064.2 77.474375 1064.2 75.474375 
L 1064.2 32.44 
Q 1064.2 30.44 1062.2 30.44 
L 982.434375 30.44 
Q 980.434375 30.44 980.434375 32.44 
L 980.434375 75.474375 
Q 980.434375 77.474375 982.434375 77.474375 
z
" style="fill: #d9d9d9; opacity: 0.8; stroke: #d9d9d9; stroke-linejoin: miter"/>
    </g>
    <g id="line2d_36">
     <path d="M 984.434375 38.538437 
L 994.434375 38.538437 
L 1004.434375 38.538437 
" style="fill: none; stroke: #440154; stroke-width: 1.5; stroke-linecap: square"/>
    </g>
    <g id="text_18">
     <!-- Bought -->
     <g transform="translate(1012.434375 42.038437) scale(0.1 -0.1)">
      <use xlink:href="#DejaVuSans-42"/>
      <use xlink:href="#DejaVuSans-6f" x="68.603516"/>
      <use xlink:href="#DejaVuSans-75" x="129.785156"/>
      <use xlink:href="#DejaVuSans-67" x="193.164062"/>
      <use xlink:href="#DejaVuSans-68" x="256.640625"/>
      <use xlink:href="#DejaVuSans-74" x="320.019531"/>
     </g>
    </g>
    <g id="line2d_37">
     <path d="M 984.434375 53.216563 
L 994.434375 53.216563 
L 1004.434375 53.216563 
" style="fill: none; stroke: #414487; stroke-width: 1.5; stroke-linecap: square"/>
    </g>
    <g id="text_19">
     <!-- Sold -->
     <g transform="translate(1012.434375 56.716563) scale(0.1 -0.1)">
      <use xlink:href="#DejaVuSans-53"/>
      <use xlink:href="#DejaVuSans-6f" x="63.476562"/>
      <use xlink:href="#DejaVuSans-6c" x="124.658203"/>
      <use xlink:href="#DejaVuSans-64" x="152.441406"/>
     </g>
    </g>
    <g id="line2d_38">
     <path d="M 984.434375 67.894687 
L 994.434375 67.894687 
L 1004.434375 67.894687 
" style="fill: none; stroke: #2a788e; stroke-width: 1.5; stroke-linecap: square"/>
    </g>
    <g id="text_20">
     <!-- Inventory -->
     <g transform="translate(1012.434375 71.394687) scale(0.1 -0.1)">
      <use xlink:href="#DejaVuSans-49"/>
      <use xlink:href="#DejaVuSans-6e" x="29.492188"/>
      <use xlink:href="#DejaVuSans-76" x="92.871094"/>
      <use xlink:href="#DejaVuSans-65" x="152.050781"/>
      <use xlink:href="#DejaVuSans-6e" x="213.574219"/>
      <use xlink:href="#DejaVuSans-74" x="276.953125"/>
      <use xlink:href="#DejaVuSans-6f" x="316.162109"/>
      <use xlink:href="#DejaVuSans-72" x="377.34375"/>
      <use xlink:href="#DejaVuSans-79" x="418.457031"/>
     </g>
    </g>
   </g>
  </g>
 </g>
 <defs>
  <clipPath id="p67466f0fd2">
   <rect x="51.73" y="25.44" width="1017.47" height="378.68"/>
  </clipPath>
 </defs>
</svg>
