<?xml version="1.0" encoding="utf-8" standalone="no"?>
<!DOCTYPE svg PUBLIC "-//W3C//DTD SVG 1.1//EN"
  "http://www.w3.org/Graphics/SVG/1.1/DTD/svg11.dtd">
<svg xmlns:xlink="http://www.w3.org/1999/xlink" width="1080pt" height="432pt" viewBox="0 0 1080 432" xmlns="http://www.w3.org/2000/svg" version="1.1">
 <metadata>
  <rdf:RDF xmlns:dc="http://purl.org/dc/elements/1.1/" xmlns:cc="http://creativecommons.org/ns#" xmlns:rdf="http://www.w3.org/1999/02/22-rdf-syntax-ns#">
   <cc:Work>
    <dc:type rdf:resource="http://purl.org/dc/dcmitype/StillImage"/>
    <dc:date>2025-06-10T07:51:11.362147</dc:date>
    <dc:format>image/svg+xml</dc:format>
    <dc:creator>
     <cc:Agent>
      <dc:title>Matplotlib v3.9.2, https://matplotlib.org/</dc:title>
     </cc:Agent>
    </dc:creator>
   </cc:Work>
  </rdf:RDF>
 </metadata>
 <defs>
  <style type="text/css">*{stroke-linejoin: round; stroke-linecap: butt}</style>
 </defs>
 <g id="figure_1">
  <g id="patch_1">
   <path d="M 0 432 
L 1080 432 
L 1080 0 
L 0 0 
z
" style="fill: #d9d9d9"/>
  </g>
  <g id="axes_1">
   <g id="patch_2">
    <path d="M 43.36 404.12 
L 1069.2 404.12 
L 1069.2 25.44 
L 43.36 25.44 
z
" style="fill: #d9d9d9"/>
   </g>
   <g id="matplotlib.axis_1">
    <g id="xtick_1">
     <g id="line2d_1">
      <defs>
       <path id="mb72b981893" d="M 0 0 
L 0 3.5 
" style="stroke: #000000; stroke-width: 0.8"/>
      </defs>
      <g>
       <use xlink:href="#mb72b981893" x="89.989091" y="404.12" style="stroke: #000000; stroke-width: 0.8"/>
      </g>
     </g>
     <g id="text_1">
      <!-- 2024-01 -->
      <g transform="translate(69.097685 418.718437) scale(0.1 -0.1)">
       <defs>
        <path id="DejaVuSans-32" d="M 1228 531 
L 3431 531 
L 3431 0 
L 469 0 
L 469 531 
Q 828 903 1448 1529 
Q 2069 2156 2228 2338 
Q 2531 2678 2651 2914 
Q 2772 3150 2772 3378 
Q 2772 3750 2511 3984 
Q 2250 4219 1831 4219 
Q 1534 4219 1204 4116 
Q 875 4013 500 3803 
L 500 4441 
Q 881 4594 1212 4672 
Q 1544 4750 1819 4750 
Q 2544 4750 2975 4387 
Q 3406 4025 3406 3419 
Q 3406 3131 3298 2873 
Q 3191 2616 2906 2266 
Q 2828 2175 2409 1742 
Q 1991 1309 1228 531 
z
" transform="scale(0.015625)"/>
        <path id="DejaVuSans-30" d="M 2034 4250 
Q 1547 4250 1301 3770 
Q 1056 3291 1056 2328 
Q 1056 1369 1301 889 
Q 1547 409 2034 409 
Q 2525 409 2770 889 
Q 3016 1369 3016 2328 
Q 3016 3291 2770 3770 
Q 2525 4250 2034 4250 
z
M 2034 4750 
Q 2819 4750 3233 4129 
Q 3647 3509 3647 2328 
Q 3647 1150 3233 529 
Q 2819 -91 2034 -91 
Q 1250 -91 836 529 
Q 422 1150 422 2328 
Q 422 3509 836 4129 
Q 1250 4750 2034 4750 
z
" transform="scale(0.015625)"/>
        <path id="DejaVuSans-34" d="M 2419 4116 
L 825 1625 
L 2419 1625 
L 2419 4116 
z
M 2253 4666 
L 3047 4666 
L 3047 1625 
L 3713 1625 
L 3713 1100 
L 3047 1100 
L 3047 0 
L 2419 0 
L 2419 1100 
L 313 1100 
L 313 1709 
L 2253 4666 
z
" transform="scale(0.015625)"/>
        <path id="DejaVuSans-2d" d="M 313 2009 
L 1997 2009 
L 1997 1497 
L 313 1497 
L 313 2009 
z
" transform="scale(0.015625)"/>
        <path id="DejaVuSans-31" d="M 794 531 
L 1825 531 
L 1825 4091 
L 703 3866 
L 703 4441 
L 1819 4666 
L 2450 4666 
L 2450 531 
L 3481 531 
L 3481 0 
L 794 0 
L 794 531 
z
" transform="scale(0.015625)"/>
       </defs>
       <use xlink:href="#DejaVuSans-32"/>
       <use xlink:href="#DejaVuSans-30" x="63.623047"/>
       <use xlink:href="#DejaVuSans-32" x="127.246094"/>
       <use xlink:href="#DejaVuSans-34" x="190.869141"/>
       <use xlink:href="#DejaVuSans-2d" x="254.492188"/>
       <use xlink:href="#DejaVuSans-30" x="290.576172"/>
       <use xlink:href="#DejaVuSans-31" x="354.199219"/>
      </g>
     </g>
    </g>
    <g id="xtick_2">
     <g id="line2d_2">
      <g>
       <use xlink:href="#mb72b981893" x="205.360037" y="404.12" style="stroke: #000000; stroke-width: 0.8"/>
      </g>
     </g>
     <g id="text_2">
      <!-- 2024-03 -->
      <g transform="translate(184.468631 418.718437) scale(0.1 -0.1)">
       <defs>
        <path id="DejaVuSans-33" d="M 2597 2516 
Q 3050 2419 3304 2112 
Q 3559 1806 3559 1356 
Q 3559 666 3084 287 
Q 2609 -91 1734 -91 
Q 1441 -91 1130 -33 
Q 819 25 488 141 
L 488 750 
Q 750 597 1062 519 
Q 1375 441 1716 441 
Q 2309 441 2620 675 
Q 2931 909 2931 1356 
Q 2931 1769 2642 2001 
Q 2353 2234 1838 2234 
L 1294 2234 
L 1294 2753 
L 1863 2753 
Q 2328 2753 2575 2939 
Q 2822 3125 2822 3475 
Q 2822 3834 2567 4026 
Q 2313 4219 1838 4219 
Q 1578 4219 1281 4162 
Q 984 4106 628 3988 
L 628 4550 
Q 988 4650 1302 4700 
Q 1616 4750 1894 4750 
Q 2613 4750 3031 4423 
Q 3450 4097 3450 3541 
Q 3450 3153 3228 2886 
Q 3006 2619 2597 2516 
z
" transform="scale(0.015625)"/>
       </defs>
       <use xlink:href="#DejaVuSans-32"/>
       <use xlink:href="#DejaVuSans-30" x="63.623047"/>
       <use xlink:href="#DejaVuSans-32" x="127.246094"/>
       <use xlink:href="#DejaVuSans-34" x="190.869141"/>
       <use xlink:href="#DejaVuSans-2d" x="254.492188"/>
       <use xlink:href="#DejaVuSans-30" x="290.576172"/>
       <use xlink:href="#DejaVuSans-33" x="354.199219"/>
      </g>
     </g>
    </g>
    <g id="xtick_3">
     <g id="line2d_3">
      <g>
       <use xlink:href="#mb72b981893" x="322.653833" y="404.12" style="stroke: #000000; stroke-width: 0.8"/>
      </g>
     </g>
     <g id="text_3">
      <!-- 2024-05 -->
      <g transform="translate(301.762427 418.718437) scale(0.1 -0.1)">
       <defs>
        <path id="DejaVuSans-35" d="M 691 4666 
L 3169 4666 
L 3169 4134 
L 1269 4134 
L 1269 2991 
Q 1406 3038 1543 3061 
Q 1681 3084 1819 3084 
Q 2600 3084 3056 2656 
Q 3513 2228 3513 1497 
Q 3513 744 3044 326 
Q 2575 -91 1722 -91 
Q 1428 -91 1123 -41 
Q 819 9 494 109 
L 494 744 
Q 775 591 1075 516 
Q 1375 441 1709 441 
Q 2250 441 2565 725 
Q 2881 1009 2881 1497 
Q 2881 1984 2565 2268 
Q 2250 2553 1709 2553 
Q 1456 2553 1204 2497 
Q 953 2441 691 2322 
L 691 4666 
z
" transform="scale(0.015625)"/>
       </defs>
       <use xlink:href="#DejaVuSans-32"/>
       <use xlink:href="#DejaVuSans-30" x="63.623047"/>
       <use xlink:href="#DejaVuSans-32" x="127.246094"/>
       <use xlink:href="#DejaVuSans-34" x="190.869141"/>
       <use xlink:href="#DejaVuSans-2d" x="254.492188"/>
       <use xlink:href="#DejaVuSans-30" x="290.576172"/>
       <use xlink:href="#DejaVuSans-35" x="354.199219"/>
      </g>
     </g>
    </g>
    <g id="xtick_4">
     <g id="line2d_4">
      <g>
       <use xlink:href="#mb72b981893" x="439.947629" y="404.12" style="stroke: #000000; stroke-width: 0.8"/>
      </g>
     </g>
     <g id="text_4">
      <!-- 2024-07 -->
      <g transform="translate(419.056223 418.718437) scale(0.1 -0.1)">
       <defs>
        <path id="DejaVuSans-37" d="M 525 4666 
L 3525 4666 
L 3525 4397 
L 1831 0 
L 1172 0 
L 2766 4134 
L 525 4134 
L 525 4666 
z
" transform="scale(0.015625)"/>
       </defs>
       <use xlink:href="#DejaVuSans-32"/>
       <use xlink:href="#DejaVuSans-30" x="63.623047"/>
       <use xlink:href="#DejaVuSans-32" x="127.246094"/>
       <use xlink:href="#DejaVuSans-34" x="190.869141"/>
       <use xlink:href="#DejaVuSans-2d" x="254.492188"/>
       <use xlink:href="#DejaVuSans-30" x="290.576172"/>
       <use xlink:href="#DejaVuSans-37" x="354.199219"/>
      </g>
     </g>
    </g>
    <g id="xtick_5">
     <g id="line2d_5">
      <g>
       <use xlink:href="#mb72b981893" x="559.164274" y="404.12" style="stroke: #000000; stroke-width: 0.8"/>
      </g>
     </g>
     <g id="text_5">
      <!-- 2024-09 -->
      <g transform="translate(538.272867 418.718437) scale(0.1 -0.1)">
       <defs>
        <path id="DejaVuSans-39" d="M 703 97 
L 703 672 
Q 941 559 1184 500 
Q 1428 441 1663 441 
Q 2288 441 2617 861 
Q 2947 1281 2994 2138 
Q 2813 1869 2534 1725 
Q 2256 1581 1919 1581 
Q 1219 1581 811 2004 
Q 403 2428 403 3163 
Q 403 3881 828 4315 
Q 1253 4750 1959 4750 
Q 2769 4750 3195 4129 
Q 3622 3509 3622 2328 
Q 3622 1225 3098 567 
Q 2575 -91 1691 -91 
Q 1453 -91 1209 -44 
Q 966 3 703 97 
z
M 1959 2075 
Q 2384 2075 2632 2365 
Q 2881 2656 2881 3163 
Q 2881 3666 2632 3958 
Q 2384 4250 1959 4250 
Q 1534 4250 1286 3958 
Q 1038 3666 1038 3163 
Q 1038 2656 1286 2365 
Q 1534 2075 1959 2075 
z
" transform="scale(0.015625)"/>
       </defs>
       <use xlink:href="#DejaVuSans-32"/>
       <use xlink:href="#DejaVuSans-30" x="63.623047"/>
       <use xlink:href="#DejaVuSans-32" x="127.246094"/>
       <use xlink:href="#DejaVuSans-34" x="190.869141"/>
       <use xlink:href="#DejaVuSans-2d" x="254.492188"/>
       <use xlink:href="#DejaVuSans-30" x="290.576172"/>
       <use xlink:href="#DejaVuSans-39" x="354.199219"/>
      </g>
     </g>
    </g>
    <g id="xtick_6">
     <g id="line2d_6">
      <g>
       <use xlink:href="#mb72b981893" x="676.458069" y="404.12" style="stroke: #000000; stroke-width: 0.8"/>
      </g>
     </g>
     <g id="text_6">
      <!-- 2024-11 -->
      <g transform="translate(655.566663 418.718437) scale(0.1 -0.1)">
       <use xlink:href="#DejaVuSans-32"/>
       <use xlink:href="#DejaVuSans-30" x="63.623047"/>
       <use xlink:href="#DejaVuSans-32" x="127.246094"/>
       <use xlink:href="#DejaVuSans-34" x="190.869141"/>
       <use xlink:href="#DejaVuSans-2d" x="254.492188"/>
       <use xlink:href="#DejaVuSans-31" x="290.576172"/>
       <use xlink:href="#DejaVuSans-31" x="354.199219"/>
      </g>
     </g>
    </g>
    <g id="xtick_7">
     <g id="line2d_7">
      <g>
       <use xlink:href="#mb72b981893" x="793.751865" y="404.12" style="stroke: #000000; stroke-width: 0.8"/>
      </g>
     </g>
     <g id="text_7">
      <!-- 2025-01 -->
      <g transform="translate(772.860459 418.718437) scale(0.1 -0.1)">
       <use xlink:href="#DejaVuSans-32"/>
       <use xlink:href="#DejaVuSans-30" x="63.623047"/>
       <use xlink:href="#DejaVuSans-32" x="127.246094"/>
       <use xlink:href="#DejaVuSans-35" x="190.869141"/>
       <use xlink:href="#DejaVuSans-2d" x="254.492188"/>
       <use xlink:href="#DejaVuSans-30" x="290.576172"/>
       <use xlink:href="#DejaVuSans-31" x="354.199219"/>
      </g>
     </g>
    </g>
    <g id="xtick_8">
     <g id="line2d_8">
      <g>
       <use xlink:href="#mb72b981893" x="907.199963" y="404.12" style="stroke: #000000; stroke-width: 0.8"/>
      </g>
     </g>
     <g id="text_8">
      <!-- 2025-03 -->
      <g transform="translate(886.308556 418.718437) scale(0.1 -0.1)">
       <use xlink:href="#DejaVuSans-32"/>
       <use xlink:href="#DejaVuSans-30" x="63.623047"/>
       <use xlink:href="#DejaVuSans-32" x="127.246094"/>
       <use xlink:href="#DejaVuSans-35" x="190.869141"/>
       <use xlink:href="#DejaVuSans-2d" x="254.492188"/>
       <use xlink:href="#DejaVuSans-30" x="290.576172"/>
       <use xlink:href="#DejaVuSans-33" x="354.199219"/>
      </g>
     </g>
    </g>
    <g id="xtick_9">
     <g id="line2d_9">
      <g>
       <use xlink:href="#mb72b981893" x="1024.493758" y="404.12" style="stroke: #000000; stroke-width: 0.8"/>
      </g>
     </g>
     <g id="text_9">
      <!-- 2025-05 -->
      <g transform="translate(1003.602352 418.718437) scale(0.1 -0.1)">
       <use xlink:href="#DejaVuSans-32"/>
       <use xlink:href="#DejaVuSans-30" x="63.623047"/>
       <use xlink:href="#DejaVuSans-32" x="127.246094"/>
       <use xlink:href="#DejaVuSans-35" x="190.869141"/>
       <use xlink:href="#DejaVuSans-2d" x="254.492188"/>
       <use xlink:href="#DejaVuSans-30" x="290.576172"/>
       <use xlink:href="#DejaVuSans-35" x="354.199219"/>
      </g>
     </g>
    </g>
   </g>
   <g id="matplotlib.axis_2">
    <g id="ytick_1">
     <g id="line2d_10">
      <defs>
       <path id="mbaded7f8f7" d="M 0 0 
L -3.5 0 
" style="stroke: #000000; stroke-width: 0.8"/>
      </defs>
      <g>
       <use xlink:href="#mbaded7f8f7" x="43.36" y="372.635216" style="stroke: #000000; stroke-width: 0.8"/>
      </g>
     </g>
     <g id="text_10">
      <!-- 0 -->
      <g transform="translate(29.9975 376.434435) scale(0.1 -0.1)">
       <use xlink:href="#DejaVuSans-30"/>
      </g>
     </g>
    </g>
    <g id="ytick_2">
     <g id="line2d_11">
      <g>
       <use xlink:href="#mbaded7f8f7" x="43.36" y="294.217324" style="stroke: #000000; stroke-width: 0.8"/>
      </g>
     </g>
     <g id="text_11">
      <!-- 500 -->
      <g transform="translate(17.2725 298.016543) scale(0.1 -0.1)">
       <use xlink:href="#DejaVuSans-35"/>
       <use xlink:href="#DejaVuSans-30" x="63.623047"/>
       <use xlink:href="#DejaVuSans-30" x="127.246094"/>
      </g>
     </g>
    </g>
    <g id="ytick_3">
     <g id="line2d_12">
      <g>
       <use xlink:href="#mbaded7f8f7" x="43.36" y="215.799433" style="stroke: #000000; stroke-width: 0.8"/>
      </g>
     </g>
     <g id="text_12">
      <!-- 1000 -->
      <g transform="translate(10.91 219.598651) scale(0.1 -0.1)">
       <use xlink:href="#DejaVuSans-31"/>
       <use xlink:href="#DejaVuSans-30" x="63.623047"/>
       <use xlink:href="#DejaVuSans-30" x="127.246094"/>
       <use xlink:href="#DejaVuSans-30" x="190.869141"/>
      </g>
     </g>
    </g>
    <g id="ytick_4">
     <g id="line2d_13">
      <g>
       <use xlink:href="#mbaded7f8f7" x="43.36" y="137.381541" style="stroke: #000000; stroke-width: 0.8"/>
      </g>
     </g>
     <g id="text_13">
      <!-- 1500 -->
      <g transform="translate(10.91 141.180759) scale(0.1 -0.1)">
       <use xlink:href="#DejaVuSans-31"/>
       <use xlink:href="#DejaVuSans-35" x="63.623047"/>
       <use xlink:href="#DejaVuSans-30" x="127.246094"/>
       <use xlink:href="#DejaVuSans-30" x="190.869141"/>
      </g>
     </g>
    </g>
    <g id="ytick_5">
     <g id="line2d_14">
      <g>
       <use xlink:href="#mbaded7f8f7" x="43.36" y="58.963649" style="stroke: #000000; stroke-width: 0.8"/>
      </g>
     </g>
     <g id="text_14">
      <!-- 2000 -->
      <g transform="translate(10.91 62.762868) scale(0.1 -0.1)">
       <use xlink:href="#DejaVuSans-32"/>
       <use xlink:href="#DejaVuSans-30" x="63.623047"/>
       <use xlink:href="#DejaVuSans-30" x="127.246094"/>
       <use xlink:href="#DejaVuSans-30" x="190.869141"/>
      </g>
     </g>
    </g>
   </g>
   <g id="line2d_15">
    <path d="M 91.91194 328.721197 
L 95.757638 334.994628 
L 109.217582 334.994628 
L 116.908978 328.721197 
L 118.831828 341.26806 
L 120.754677 328.721197 
L 124.600375 328.721197 
L 130.368922 353.814922 
L 132.291771 334.994628 
L 134.21462 334.994628 
L 138.060319 328.721197 
L 145.751715 333.112599 
L 149.597413 334.994628 
L 151.520262 334.994628 
L 153.443112 309.900903 
L 161.134508 334.994628 
L 164.980206 312.25344 
L 170.748754 364.166084 
L 174.594452 328.721197 
L 184.208697 334.994628 
L 186.131546 334.994628 
L 188.054396 360.088354 
L 189.977245 297.35404 
L 197.668641 328.721197 
L 201.514339 341.26806 
L 203.437188 322.447766 
L 211.128585 341.26806 
L 213.051434 328.721197 
L 214.974283 328.721197 
L 216.897132 360.088354 
L 218.819981 334.994628 
L 224.588529 334.994628 
L 226.511378 328.721197 
L 255.354114 328.721197 
L 264.96836 334.994628 
L 266.891209 328.721197 
L 268.814058 334.994628 
L 272.659756 328.721197 
L 278.428304 328.721197 
L 282.274002 334.994628 
L 286.1197 328.721197 
L 291.888247 334.994628 
L 293.811097 328.721197 
L 297.656795 328.721197 
L 305.348191 291.080609 
L 309.193889 334.994628 
L 311.116739 334.994628 
L 318.808135 328.721197 
L 336.113777 328.721197 
L 339.959475 334.994628 
L 347.650872 284.807177 
L 361.110815 328.721197 
L 372.64791 291.080609 
L 376.493608 328.721197 
L 386.107854 334.994628 
L 389.953552 272.260315 
L 401.490647 328.721197 
L 407.259194 328.721197 
L 414.95059 341.26806 
L 418.796289 334.994628 
L 420.719138 284.807177 
L 430.333383 328.721197 
L 432.256232 341.26806 
L 434.179082 334.994628 
L 439.947629 334.994628 
L 443.793327 328.721197 
L 449.561874 341.26806 
L 457.253271 328.721197 
L 461.098969 361.029368 
L 470.713215 328.721197 
L 472.636064 334.994628 
L 474.558913 316.174334 
L 480.32746 341.26806 
L 484.173158 334.994628 
L 486.096007 334.994628 
L 488.018857 328.721197 
L 497.633102 303.627472 
L 501.4788 328.721197 
L 509.170197 316.174334 
L 511.093046 309.900903 
L 520.707291 297.35404 
L 522.630141 328.721197 
L 526.475839 328.721197 
L 528.398688 334.994628 
L 534.167235 328.721197 
L 536.090084 328.721197 
L 547.627179 341.26806 
L 549.550028 284.807177 
L 555.318575 297.35404 
L 563.009972 333.739942 
L 568.778519 297.35404 
L 580.315614 334.994628 
L 589.929859 284.807177 
L 591.852709 328.721197 
L 616.849747 328.721197 
L 628.386842 334.994628 
L 636.078238 334.994628 
L 641.846785 328.721197 
L 645.692484 328.721197 
L 649.538182 334.994628 
L 661.075276 309.900903 
L 662.998126 341.26806 
L 672.612371 328.721197 
L 676.458069 309.900903 
L 697.60941 358.206324 
L 699.532259 334.994628 
L 701.455108 309.900903 
L 722.606448 328.721197 
L 770.677676 328.721197 
L 782.21477 341.26806 
L 795.674714 341.26806 
L 799.520412 328.721197 
L 807.211809 328.721197 
L 816.826054 334.994628 
L 820.671753 328.721197 
L 832.208847 347.541491 
L 834.131696 341.26806 
L 843.745942 328.721197 
L 849.514489 328.721197 
L 857.205886 341.26806 
L 862.974433 322.447766 
L 874.511528 313.821797 
L 884.125773 334.994628 
L 889.894321 328.721197 
L 897.585717 328.721197 
L 901.431415 322.447766 
L 911.045661 328.721197 
L 918.737057 322.447766 
L 930.274152 328.721197 
L 934.11985 360.088354 
L 937.965548 322.447766 
L 943.734096 328.721197 
L 945.656945 322.447766 
L 957.194039 353.814922 
L 966.808285 311.469261 
L 974.499681 322.447766 
L 982.191078 358.519996 
L 984.113927 334.994628 
L 991.805323 341.26806 
L 993.728172 338.131344 
L 995.651022 341.26806 
L 1007.188116 341.26806 
L 1012.956664 302.059114 
L 1012.956664 302.059114 
" clip-path="url(#pea329d87e3)" style="fill: none; stroke: #440154; stroke-width: 1.5; stroke-linecap: square"/>
   </g>
   <g id="line2d_16">
    <path d="M 91.91194 347.070984 
L 93.834789 338.915523 
L 97.680487 364.009248 
L 99.603336 372.321545 
L 103.449035 352.4034 
L 105.371884 359.461011 
L 107.294733 350.364535 
L 109.217582 349.580356 
L 111.140431 346.914148 
L 113.06328 370.753187 
L 116.908978 363.225069 
L 118.831828 296.726697 
L 120.754677 349.266685 
L 122.677526 357.735817 
L 124.600375 340.013373 
L 126.523224 360.872533 
L 130.368922 342.052239 
L 132.291771 349.266685 
L 134.21462 337.974508 
L 136.13747 343.463761 
L 138.060319 352.246565 
L 139.983168 365.577606 
L 143.828866 346.757312 
L 145.751715 347.541491 
L 147.674564 346.757312 
L 149.597413 332.32842 
L 151.520262 325.427645 
L 153.443112 369.498501 
L 157.28881 331.073734 
L 159.211659 369.027993 
L 161.134508 344.091104 
L 163.057357 363.852413 
L 164.980206 350.991878 
L 170.748754 363.695577 
L 174.594452 354.128594 
L 176.517301 352.873908 
L 178.44015 358.206324 
L 184.208697 327.937018 
L 186.131546 352.246565 
L 188.054396 347.698327 
L 189.977245 347.855163 
L 191.900094 347.384655 
L 197.668641 351.619221 
L 199.59149 352.717072 
L 201.514339 342.993253 
L 203.437188 334.524121 
L 205.360037 367.145964 
L 207.282887 369.498501 
L 211.128585 341.26806 
L 213.051434 357.108474 
L 214.974283 341.895403 
L 216.897132 349.42352 
L 218.819981 339.542866 
L 220.74283 370.28268 
L 224.588529 338.131344 
L 226.511378 346.757312 
L 228.434227 339.229194 
L 230.357076 345.502626 
L 232.279925 350.364535 
L 234.202774 359.931518 
L 238.048472 342.679582 
L 239.971321 337.190329 
L 241.894171 344.404775 
L 243.81702 356.794802 
L 245.739869 307.39153 
L 247.662718 371.38053 
L 251.508416 341.26806 
L 253.431265 344.718447 
L 255.354114 352.560236 
L 257.276963 349.109849 
L 261.122662 371.38053 
L 264.96836 342.052239 
L 266.891209 346.286805 
L 268.814058 351.619221 
L 270.736907 337.190329 
L 272.659756 355.226444 
L 274.582605 372.007873 
L 278.428304 353.344415 
L 280.351153 346.129969 
L 282.274002 348.32567 
L 284.196851 333.42627 
L 286.1197 352.560236 
L 288.042549 366.989128 
L 291.888247 332.485256 
L 293.811097 362.911398 
L 295.733946 363.225069 
L 297.656795 347.698327 
L 299.579644 338.131344 
L 301.502493 372.321545 
L 307.27104 349.894028 
L 309.193889 335.621971 
L 311.116739 343.150089 
L 313.039588 366.204949 
L 314.962437 372.478381 
L 318.808135 363.695577 
L 320.730984 354.128594 
L 324.576682 345.032118 
L 326.499531 353.814922 
L 328.422381 371.537366 
L 332.268079 342.209074 
L 334.190928 355.38328 
L 336.113777 347.384655 
L 338.036626 354.128594 
L 339.959475 350.835042 
L 341.882324 366.832292 
L 345.728022 340.797552 
L 347.650872 337.504001 
L 349.573721 353.344415 
L 351.49657 359.461011 
L 353.419419 340.170209 
L 355.342268 372.478381 
L 359.187966 351.776057 
L 361.110815 358.676832 
L 363.033664 350.678207 
L 364.956514 364.32292 
L 366.879363 360.402025 
L 368.802212 371.38053 
L 372.64791 346.286805 
L 374.570759 358.676832 
L 376.493608 343.934268 
L 380.339306 358.676832 
L 382.262156 372.164709 
L 386.107854 350.678207 
L 388.030703 343.934268 
L 389.953552 364.009248 
L 391.876401 349.737192 
L 393.79925 353.030743 
L 395.722099 368.40065 
L 399.567798 365.577606 
L 401.490647 360.715697 
L 403.413496 348.482506 
L 405.336345 356.167459 
L 407.259194 363.225069 
L 409.182043 370.910023 
L 413.027741 345.188954 
L 414.95059 345.973133 
L 416.87344 343.150089 
L 418.796289 361.499876 
L 420.719138 334.053614 
L 426.487685 345.659462 
L 428.410534 358.833667 
L 430.333383 343.150089 
L 432.256232 350.991878 
L 434.179082 356.481131 
L 436.101931 370.28268 
L 439.947629 347.070984 
L 441.870478 344.091104 
L 443.793327 359.304175 
L 445.716176 346.757312 
L 447.639025 350.678207 
L 449.561874 372.321545 
L 453.407573 367.145964 
L 457.253271 358.36316 
L 459.17612 333.583106 
L 461.098969 354.599101 
L 463.021818 369.498501 
L 466.867516 356.481131 
L 468.790366 367.930143 
L 470.713215 348.32567 
L 472.636064 315.390155 
L 474.558913 339.229194 
L 476.481762 372.321545 
L 480.32746 355.069609 
L 482.250309 329.191704 
L 484.173158 318.840543 
L 486.096007 344.091104 
L 488.018857 362.911398 
L 489.941706 365.42077 
L 493.787404 367.616471 
L 495.710253 342.36591 
L 497.633102 352.4034 
L 499.555951 369.498501 
L 501.4788 345.973133 
L 503.401649 368.243814 
L 507.247348 333.112599 
L 509.170197 356.167459 
L 511.093046 336.249315 
L 513.015895 356.167459 
L 514.938744 369.812172 
L 520.707291 341.26806 
L 522.630141 349.894028 
L 524.55299 336.719822 
L 526.475839 337.190329 
L 528.398688 349.266685 
L 530.321537 367.773307 
L 534.167235 329.662212 
L 536.090084 350.050864 
L 538.012933 349.266685 
L 539.935783 351.932893 
L 543.781481 372.164709 
L 547.627179 358.049489 
L 549.550028 352.4034 
L 551.472877 358.36316 
L 553.395726 326.054989 
L 555.318575 336.249315 
L 557.241425 370.910023 
L 561.087123 353.344415 
L 564.932821 358.519996 
L 566.85567 338.28818 
L 574.547067 356.637966 
L 576.469916 352.4034 
L 578.392765 355.696952 
L 580.315614 338.28818 
L 582.238463 364.950263 
L 584.161312 369.812172 
L 588.00701 354.128594 
L 589.929859 344.875283 
L 591.852709 345.032118 
L 593.775558 357.735817 
L 595.698407 356.324295 
L 603.389803 372.321545 
L 614.926898 367.930143 
L 618.772596 353.814922 
L 620.695445 368.40065 
L 622.618294 359.147339 
L 624.541143 370.28268 
L 628.386842 352.246565 
L 630.309691 358.833667 
L 632.23254 355.069609 
L 634.155389 362.597726 
L 636.078238 362.911398 
L 641.846785 328.25069 
L 643.769634 361.970383 
L 645.692484 343.934268 
L 647.615333 365.107099 
L 649.538182 362.127219 
L 651.461031 371.066859 
L 655.306729 352.4034 
L 657.229578 356.324295 
L 659.152427 360.715697 
L 661.075276 362.44089 
L 662.998126 318.997378 
L 664.920975 371.851037 
L 668.766673 362.284055 
L 670.689522 356.010623 
L 672.612371 352.717072 
L 674.53522 344.091104 
L 676.458069 364.32292 
L 682.226617 363.381905 
L 684.149466 363.538741 
L 686.072315 359.304175 
L 687.995164 364.793427 
L 689.918013 372.164709 
L 691.840862 369.498501 
L 695.68656 353.971758 
L 697.60941 352.089729 
L 699.532259 355.540116 
L 701.455108 368.086979 
L 705.300806 366.048113 
L 709.146504 356.794802 
L 712.992202 369.184829 
L 714.915052 350.364535 
L 716.837901 358.833667 
L 718.76075 372.478381 
L 722.606448 363.068234 
L 724.529297 367.930143 
L 726.452146 348.953013 
L 728.374995 348.953013 
L 730.297844 354.599101 
L 732.220694 372.478381 
L 736.066392 356.637966 
L 737.989241 366.204949 
L 739.91209 364.950263 
L 741.834939 357.892653 
L 743.757788 361.499876 
L 745.680637 368.871158 
L 749.526336 359.617846 
L 751.449185 350.521371 
L 753.372034 368.714322 
L 755.294883 359.774682 
L 757.217732 363.852413 
L 759.140581 369.341665 
L 762.986279 354.599101 
L 764.909128 352.4034 
L 766.831978 360.245189 
L 768.754827 348.796177 
L 770.677676 354.912773 
L 772.600525 364.793427 
L 776.446223 362.754562 
L 782.21477 368.871158 
L 786.060469 370.125844 
L 795.674714 348.482506 
L 797.597563 361.029368 
L 799.520412 371.694202 
L 803.366111 358.519996 
L 805.28896 353.658087 
L 807.211809 363.852413 
L 809.134658 351.619221 
L 811.057507 363.852413 
L 812.980356 372.478381 
L 816.826054 346.286805 
L 818.748903 343.463761 
L 820.671753 359.931518 
L 822.594602 370.439515 
L 824.517451 364.636591 
L 826.4403 368.243814 
L 830.285998 368.40065 
L 832.208847 358.206324 
L 834.131696 360.558861 
L 836.054545 356.010623 
L 837.977395 369.655337 
L 839.900244 369.027993 
L 843.745942 367.930143 
L 845.668791 354.755937 
L 847.59164 355.853788 
L 849.514489 354.599101 
L 851.437338 367.459636 
L 857.205886 366.048113 
L 859.128735 366.832292 
L 861.051584 330.916898 
L 862.974433 338.915523 
L 864.897282 357.892653 
L 866.820131 371.066859 
L 870.665829 361.970383 
L 872.588679 361.499876 
L 874.511528 357.26531 
L 876.434377 356.167459 
L 878.357226 365.42077 
L 880.280075 371.694202 
L 884.125773 368.086979 
L 886.048622 358.206324 
L 887.971471 360.088354 
L 889.894321 362.754562 
L 891.81717 363.381905 
L 893.740019 370.753187 
L 897.585717 356.637966 
L 899.508566 362.44089 
L 901.431415 359.304175 
L 903.354264 354.755937 
L 905.277113 361.813547 
L 907.199963 370.910023 
L 911.045661 366.204949 
L 914.891359 328.25069 
L 916.814208 358.36316 
L 918.737057 343.463761 
L 920.659906 368.871158 
L 924.505604 359.461011 
L 926.428454 351.776057 
L 928.351303 351.30555 
L 930.274152 359.617846 
L 932.197001 362.754562 
L 937.965548 355.853788 
L 939.888397 363.538741 
L 941.811246 345.816297 
L 943.734096 357.892653 
L 947.579794 370.125844 
L 951.425492 357.735817 
L 953.348341 342.052239 
L 955.27119 367.773307 
L 957.194039 363.852413 
L 959.116888 371.223694 
L 961.039738 365.42077 
L 964.885436 364.950263 
L 966.808285 363.225069 
L 968.731134 360.402025 
L 970.653983 341.424895 
L 972.576832 363.225069 
L 974.499681 370.596351 
L 978.34538 346.914148 
L 980.268229 319.31105 
L 982.191078 337.974508 
L 984.113927 365.42077 
L 986.036776 367.773307 
L 991.805323 336.562986 
L 993.728172 352.246565 
L 995.651022 349.42352 
L 997.573871 369.341665 
L 1001.419569 372.007873 
L 1007.188116 358.049489 
L 1009.110965 344.091104 
L 1011.033814 363.225069 
L 1012.956664 350.364535 
L 1018.725211 366.518621 
L 1020.64806 355.853788 
L 1022.570909 370.910023 
L 1022.570909 370.910023 
" clip-path="url(#pea329d87e3)" style="fill: none; stroke: #414487; stroke-width: 1.5; stroke-linecap: square"/>
   </g>
   <g id="line2d_17">
    <path d="M 89.989091 345.188954 
L 91.91194 326.839168 
L 93.834789 360.558861 
L 95.757638 322.918273 
L 97.680487 293.903653 
L 99.603336 294.217324 
L 101.526186 294.217324 
L 103.449035 314.449141 
L 105.371884 289.982758 
L 107.294733 312.25344 
L 109.217582 297.667712 
L 111.140431 323.38878 
L 113.06328 325.27081 
L 114.986129 325.27081 
L 116.908978 290.766937 
L 118.831828 335.3083 
L 120.754677 314.762812 
L 122.677526 329.662212 
L 124.600375 318.370035 
L 126.523224 330.132719 
L 128.446073 330.132719 
L 130.368922 341.895403 
L 132.291771 327.623346 
L 134.21462 324.643467 
L 136.13747 353.814922 
L 138.060319 330.289555 
L 139.983168 337.347165 
L 141.906017 337.347165 
L 143.828866 363.225069 
L 145.751715 348.796177 
L 147.674564 374.674082 
L 149.597413 377.34029 
L 151.520262 386.907273 
L 153.443112 327.309675 
L 155.365961 327.309675 
L 157.28881 368.871158 
L 159.211659 372.478381 
L 161.134508 363.381905 
L 163.057357 372.164709 
L 164.980206 333.42627 
L 168.825904 333.42627 
L 170.748754 333.896778 
L 172.671603 333.896778 
L 174.594452 308.489381 
L 176.517301 328.25069 
L 178.44015 342.679582 
L 182.285848 342.679582 
L 184.208697 349.737192 
L 186.131546 332.485256 
L 188.054396 344.875283 
L 189.977245 294.37416 
L 191.900094 319.624721 
L 195.745792 319.624721 
L 197.668641 296.726697 
L 199.59149 316.644842 
L 201.514339 314.919648 
L 203.437188 302.843293 
L 205.360037 308.332545 
L 207.282887 311.469261 
L 211.128585 311.469261 
L 213.051434 283.081984 
L 214.974283 269.907778 
L 216.897132 280.572611 
L 218.819981 276.024374 
L 220.74283 278.37691 
L 222.665679 278.37691 
L 224.588529 275.240195 
L 226.511378 257.20408 
L 228.434227 290.610101 
L 230.357076 273.828673 
L 232.279925 252.185334 
L 234.202774 264.889033 
L 236.125623 264.889033 
L 238.048472 333.112599 
L 239.971321 316.644842 
L 241.894171 344.875283 
L 243.81702 316.801677 
L 245.739869 338.131344 
L 247.662718 339.38603 
L 249.585567 339.38603 
L 251.508416 370.753187 
L 253.431265 354.755937 
L 255.354114 330.916898 
L 257.276963 354.442265 
L 259.199813 354.442265 
L 261.122662 355.696952 
L 263.045511 355.696952 
L 264.96836 348.639341 
L 268.814058 314.449141 
L 270.736907 349.894028 
L 272.659756 323.38878 
L 274.582605 324.016123 
L 276.505455 324.016123 
L 278.428304 299.392905 
L 280.351153 325.898153 
L 282.274002 312.567111 
L 284.196851 351.776057 
L 286.1197 327.937018 
L 288.042549 333.583106 
L 289.965398 333.583106 
L 291.888247 336.092479 
L 293.811097 301.902278 
L 295.733946 311.312425 
L 297.656795 292.335295 
L 299.579644 326.839168 
L 301.502493 327.152839 
L 303.425342 327.152839 
L 305.348191 245.598232 
L 307.27104 268.33942 
L 309.193889 267.712077 
L 311.116739 259.556616 
L 313.039588 265.986883 
L 314.962437 266.143719 
L 316.885286 266.143719 
L 318.808135 231.169339 
L 320.730984 249.675962 
L 322.653833 249.675962 
L 324.576682 233.36504 
L 326.499531 252.185334 
L 328.422381 253.283185 
L 330.34523 253.283185 
L 332.268079 239.795308 
L 334.190928 213.133224 
L 336.113777 194.469766 
L 338.036626 212.976388 
L 339.959475 197.135974 
L 341.882324 202.938898 
L 343.805173 202.938898 
L 345.728022 234.776562 
L 347.650872 182.079739 
L 349.573721 201.37054 
L 351.49657 214.544746 
L 353.419419 247.009754 
L 355.342268 247.166589 
L 357.265117 247.166589 
L 359.187966 268.025749 
L 361.110815 238.070114 
L 363.033664 260.027124 
L 364.956514 268.33942 
L 366.879363 280.572611 
L 368.802212 281.827298 
L 370.725061 281.827298 
L 372.64791 226.621102 
L 374.570759 350.050864 
L 376.493608 334.837793 
L 378.416457 334.837793 
L 380.339306 348.796177 
L 382.262156 349.266685 
L 384.185005 349.266685 
L 386.107854 333.583106 
L 388.030703 362.284055 
L 389.953552 270.535121 
L 391.876401 293.433146 
L 393.79925 313.037619 
L 395.722099 317.272185 
L 397.644948 317.272185 
L 399.567798 324.329795 
L 401.490647 292.335295 
L 403.413496 272.573986 
L 405.336345 289.041744 
L 407.259194 254.537871 
L 409.182043 256.263065 
L 411.104892 256.263065 
L 413.027741 283.709327 
L 414.95059 279.004253 
L 416.87344 308.489381 
L 418.796289 281.984133 
L 420.719138 232.737697 
L 424.564836 232.737697 
L 426.487685 259.713452 
L 428.410534 273.515001 
L 430.333383 259.086109 
L 432.256232 249.36229 
L 434.179082 227.875788 
L 436.101931 230.228325 
L 438.02478 230.228325 
L 439.947629 218.151969 
L 441.870478 246.696082 
L 443.793327 216.113104 
L 445.716176 241.991008 
L 447.639025 263.948018 
L 449.561874 232.894533 
L 451.484724 232.894533 
L 453.407573 238.383785 
L 455.330422 238.383785 
L 457.253271 208.741822 
L 459.17612 247.793932 
L 461.098969 254.2242 
L 463.021818 257.360915 
L 464.944667 257.360915 
L 466.867516 273.515001 
L 468.790366 278.220075 
L 470.713215 258.615602 
L 472.636064 278.220075 
L 474.558913 255.165214 
L 476.481762 255.478886 
L 478.404611 255.478886 
L 480.32746 241.677337 
L 482.250309 285.120849 
L 484.173158 301.274935 
L 486.096007 292.178459 
L 488.018857 257.988258 
L 489.941706 265.202704 
L 491.864555 265.202704 
L 493.787404 270.22145 
L 495.710253 300.490756 
L 497.633102 251.714827 
L 499.555951 254.851543 
L 501.4788 237.599607 
L 503.401649 241.991008 
L 505.324499 241.991008 
L 507.247348 281.513626 
L 509.170197 241.520501 
L 511.093046 215.172089 
L 513.015895 231.639847 
L 514.938744 234.462891 
L 518.784442 234.462891 
L 520.707291 190.548871 
L 522.630141 169.376041 
L 524.55299 205.291435 
L 526.475839 196.822303 
L 528.398688 182.550246 
L 530.321537 187.412156 
L 532.244386 187.412156 
L 534.167235 186.471141 
L 536.090084 165.141474 
L 538.012933 188.510006 
L 539.935783 209.21233 
L 541.858632 219.720327 
L 543.781481 220.190835 
L 545.70433 220.190835 
L 547.627179 203.409406 
L 549.550028 135.813183 
L 551.472877 150.085239 
L 553.395726 196.665467 
L 555.318575 164.043624 
L 557.241425 165.768818 
L 559.164274 165.768818 
L 561.087123 185.059619 
L 563.009972 146.164345 
L 564.932821 160.279565 
L 566.85567 194.626602 
L 568.778519 119.345426 
L 572.624217 119.345426 
L 574.547067 135.342676 
L 576.469916 155.574492 
L 578.392765 172.512756 
L 580.315614 169.219205 
L 582.238463 176.904158 
L 584.161312 179.727202 
L 586.084161 179.727202 
L 588.00701 198.233825 
L 589.929859 138.16572 
L 591.852709 121.854798 
L 593.775558 136.754198 
L 595.698407 153.065119 
L 601.466954 153.065119 
L 603.389803 153.378791 
L 613.004049 153.378791 
L 614.926898 114.169845 
L 616.849747 82.018509 
L 618.772596 100.838803 
L 620.695445 105.073369 
L 622.618294 118.561247 
L 624.541143 120.913783 
L 626.463993 120.913783 
L 628.386842 103.661847 
L 630.309691 117.463396 
L 632.23254 97.388416 
L 634.155389 107.425906 
L 636.078238 79.509136 
L 639.923936 79.509136 
L 641.846785 79.979644 
L 643.769634 90.644477 
L 645.692484 75.431406 
L 647.615333 82.959524 
L 649.538182 55.826933 
L 651.461031 57.395291 
L 653.38388 57.395291 
L 655.306729 77.627107 
L 657.229578 93.938029 
L 659.152427 105.857548 
L 661.075276 53.317561 
L 662.998126 75.588242 
L 664.920975 76.372421 
L 666.843824 76.372421 
L 668.766673 86.723583 
L 670.689522 103.348176 
L 672.612371 79.352301 
L 674.53522 107.896413 
L 676.458069 53.474396 
L 680.303768 53.474396 
L 684.149466 71.824183 
L 686.072315 85.155225 
L 687.995164 92.997014 
L 689.918013 93.467521 
L 691.840862 96.604237 
L 693.763711 96.604237 
L 695.68656 115.267695 
L 697.60941 121.384291 
L 699.532259 100.838803 
L 701.455108 42.652727 
L 703.377957 42.652727 
L 705.300806 49.23983 
L 707.223655 49.23983 
L 709.146504 65.080244 
L 711.069353 74.804063 
L 712.992202 78.25445 
L 714.915052 100.525131 
L 716.837901 114.32668 
L 718.76075 114.483516 
L 720.683599 114.483516 
L 722.606448 80.13648 
L 724.529297 84.841553 
L 726.452146 108.523756 
L 728.374995 88.29194 
L 730.297844 106.328055 
L 732.220694 62.570872 
L 734.143543 62.570872 
L 736.066392 78.568122 
L 737.989241 84.998389 
L 739.91209 48.769323 
L 741.834939 63.511887 
L 743.757788 74.647227 
L 745.680637 78.411286 
L 747.603486 78.411286 
L 749.526336 91.428656 
L 751.449185 113.542502 
L 753.372034 73.549377 
L 755.294883 86.409911 
L 757.217732 95.192715 
L 759.140581 54.572247 
L 761.06343 54.572247 
L 762.986279 72.608362 
L 764.909128 92.840178 
L 766.831978 61.316186 
L 768.754827 85.155225 
L 770.677676 58.963649 
L 772.600525 66.805438 
L 774.523374 66.805438 
L 776.446223 76.686092 
L 780.291921 76.686092 
L 782.21477 49.082994 
L 784.137619 49.082994 
L 786.060469 51.592367 
L 787.983318 51.592367 
L 789.906167 359.774682 
L 793.751865 359.774682 
L 795.674714 352.560236 
L 797.597563 364.166084 
L 799.520412 321.193079 
L 801.443261 321.193079 
L 803.366111 335.3083 
L 805.28896 354.599101 
L 807.211809 319.467886 
L 809.134658 340.483881 
L 811.057507 349.266685 
L 812.980356 349.42352 
L 814.903205 349.42352 
L 816.826054 338.131344 
L 818.748903 367.3028 
L 820.671753 336.092479 
L 822.594602 338.28818 
L 824.517451 346.286805 
L 826.4403 350.678207 
L 828.363149 350.678207 
L 830.285998 354.912773 
L 832.208847 344.24794 
L 834.131696 324.957138 
L 836.054545 341.581731 
L 837.977395 344.561611 
L 839.900244 348.168834 
L 841.823093 348.168834 
L 843.745942 308.959888 
L 845.668791 326.839168 
L 847.59164 343.620596 
L 849.514489 317.742692 
L 851.437338 322.918273 
L 855.283037 322.918273 
L 857.205886 298.138219 
L 859.128735 303.941143 
L 861.051584 345.659462 
L 862.974433 329.191704 
L 864.897282 343.934268 
L 866.820131 345.502626 
L 868.74298 345.502626 
L 872.588679 367.3028 
L 874.511528 323.859288 
L 876.434377 340.327045 
L 878.357226 347.541491 
L 880.280075 348.482506 
L 882.202924 348.482506 
L 884.125773 315.390155 
L 886.048622 329.819047 
L 887.971471 342.36591 
L 889.894321 308.332545 
L 891.81717 317.585856 
L 893.740019 319.467886 
L 895.662868 319.467886 
L 897.585717 291.551116 
L 899.508566 301.745442 
L 901.431415 264.889033 
L 903.354264 282.768312 
L 905.277113 293.589981 
L 907.199963 295.315175 
L 909.122812 295.315175 
L 911.045661 257.831423 
L 912.96851 257.831423 
L 914.891359 302.215949 
L 916.814208 316.488006 
L 918.737057 295.472011 
L 920.659906 299.23607 
L 922.582755 299.23607 
L 924.505604 312.410275 
L 928.351303 354.599101 
L 930.274152 323.702452 
L 932.197001 333.583106 
L 934.11985 321.036244 
L 936.042699 321.036244 
L 937.965548 287.630222 
L 939.888397 296.726697 
L 941.811246 323.545616 
L 943.734096 294.37416 
L 945.656945 252.812678 
L 947.579794 255.32205 
L 949.502643 255.32205 
L 951.425492 270.22145 
L 953.348341 300.804427 
L 955.27119 305.666337 
L 957.194039 295.628847 
L 959.116888 297.040369 
L 961.039738 304.254815 
L 962.962587 304.254815 
L 964.885436 311.939768 
L 966.808285 260.183959 
L 968.731134 272.417151 
L 970.653983 303.627472 
L 972.576832 313.037619 
L 974.499681 264.889033 
L 976.42253 264.889033 
L 978.34538 290.610101 
L 980.268229 343.934268 
L 982.191078 364.479756 
L 984.113927 334.053614 
L 986.036776 338.915523 
L 989.882474 338.915523 
L 991.805323 343.620596 
L 993.728172 329.505376 
L 995.651022 321.349915 
L 997.573871 324.643467 
L 999.49672 324.643467 
L 1001.419569 325.27081 
L 1005.265267 325.27081 
L 1007.188116 308.489381 
L 1009.110965 337.033493 
L 1011.033814 346.443641 
L 1012.956664 298.138219 
L 1016.802362 298.138219 
L 1018.725211 304.254815 
L 1020.64806 321.036244 
L 1022.570909 322.761437 
L 1022.570909 322.761437 
" clip-path="url(#pea329d87e3)" style="fill: none; stroke: #2a788e; stroke-width: 1.5; stroke-linecap: square"/>
   </g>
   <g id="patch_3">
    <path d="M 43.36 404.12 
L 43.36 25.44 
" style="fill: none; stroke: #000000; stroke-width: 0.8; stroke-linejoin: miter; stroke-linecap: square"/>
   </g>
   <g id="patch_4">
    <path d="M 43.36 404.12 
L 1069.2 404.12 
" style="fill: none; stroke: #000000; stroke-width: 0.8; stroke-linejoin: miter; stroke-linecap: square"/>
   </g>
   <g id="text_15">
    <!-- Quantity Bought x Quantity Sold x Inventory -->
    <g transform="translate(422.711563 19.44) scale(0.12 -0.12)">
     <defs>
      <path id="DejaVuSans-51" d="M 2522 4238 
Q 1834 4238 1429 3725 
Q 1025 3213 1025 2328 
Q 1025 1447 1429 934 
Q 1834 422 2522 422 
Q 3209 422 3611 934 
Q 4013 1447 4013 2328 
Q 4013 3213 3611 3725 
Q 3209 4238 2522 4238 
z
M 3406 84 
L 4238 -825 
L 3475 -825 
L 2784 -78 
Q 2681 -84 2626 -87 
Q 2572 -91 2522 -91 
Q 1538 -91 948 567 
Q 359 1225 359 2328 
Q 359 3434 948 4092 
Q 1538 4750 2522 4750 
Q 3503 4750 4090 4092 
Q 4678 3434 4678 2328 
Q 4678 1516 4351 937 
Q 4025 359 3406 84 
z
" transform="scale(0.015625)"/>
      <path id="DejaVuSans-75" d="M 544 1381 
L 544 3500 
L 1119 3500 
L 1119 1403 
Q 1119 906 1312 657 
Q 1506 409 1894 409 
Q 2359 409 2629 706 
Q 2900 1003 2900 1516 
L 2900 3500 
L 3475 3500 
L 3475 0 
L 2900 0 
L 2900 538 
Q 2691 219 2414 64 
Q 2138 -91 1772 -91 
Q 1169 -91 856 284 
Q 544 659 544 1381 
z
M 1991 3584 
L 1991 3584 
z
" transform="scale(0.015625)"/>
      <path id="DejaVuSans-61" d="M 2194 1759 
Q 1497 1759 1228 1600 
Q 959 1441 959 1056 
Q 959 750 1161 570 
Q 1363 391 1709 391 
Q 2188 391 2477 730 
Q 2766 1069 2766 1631 
L 2766 1759 
L 2194 1759 
z
M 3341 1997 
L 3341 0 
L 2766 0 
L 2766 531 
Q 2569 213 2275 61 
Q 1981 -91 1556 -91 
Q 1019 -91 701 211 
Q 384 513 384 1019 
Q 384 1609 779 1909 
Q 1175 2209 1959 2209 
L 2766 2209 
L 2766 2266 
Q 2766 2663 2505 2880 
Q 2244 3097 1772 3097 
Q 1472 3097 1187 3025 
Q 903 2953 641 2809 
L 641 3341 
Q 956 3463 1253 3523 
Q 1550 3584 1831 3584 
Q 2591 3584 2966 3190 
Q 3341 2797 3341 1997 
z
" transform="scale(0.015625)"/>
      <path id="DejaVuSans-6e" d="M 3513 2113 
L 3513 0 
L 2938 0 
L 2938 2094 
Q 2938 2591 2744 2837 
Q 2550 3084 2163 3084 
Q 1697 3084 1428 2787 
Q 1159 2491 1159 1978 
L 1159 0 
L 581 0 
L 581 3500 
L 1159 3500 
L 1159 2956 
Q 1366 3272 1645 3428 
Q 1925 3584 2291 3584 
Q 2894 3584 3203 3211 
Q 3513 2838 3513 2113 
z
" transform="scale(0.015625)"/>
      <path id="DejaVuSans-74" d="M 1172 4494 
L 1172 3500 
L 2356 3500 
L 2356 3053 
L 1172 3053 
L 1172 1153 
Q 1172 725 1289 603 
Q 1406 481 1766 481 
L 2356 481 
L 2356 0 
L 1766 0 
Q 1100 0 847 248 
Q 594 497 594 1153 
L 594 3053 
L 172 3053 
L 172 3500 
L 594 3500 
L 594 4494 
L 1172 4494 
z
" transform="scale(0.015625)"/>
      <path id="DejaVuSans-69" d="M 603 3500 
L 1178 3500 
L 1178 0 
L 603 0 
L 603 3500 
z
M 603 4863 
L 1178 4863 
L 1178 4134 
L 603 4134 
L 603 4863 
z
" transform="scale(0.015625)"/>
      <path id="DejaVuSans-79" d="M 2059 -325 
Q 1816 -950 1584 -1140 
Q 1353 -1331 966 -1331 
L 506 -1331 
L 506 -850 
L 844 -850 
Q 1081 -850 1212 -737 
Q 1344 -625 1503 -206 
L 1606 56 
L 191 3500 
L 800 3500 
L 1894 763 
L 2988 3500 
L 3597 3500 
L 2059 -325 
z
" transform="scale(0.015625)"/>
      <path id="DejaVuSans-20" transform="scale(0.015625)"/>
      <path id="DejaVuSans-42" d="M 1259 2228 
L 1259 519 
L 2272 519 
Q 2781 519 3026 730 
Q 3272 941 3272 1375 
Q 3272 1813 3026 2020 
Q 2781 2228 2272 2228 
L 1259 2228 
z
M 1259 4147 
L 1259 2741 
L 2194 2741 
Q 2656 2741 2882 2914 
Q 3109 3088 3109 3444 
Q 3109 3797 2882 3972 
Q 2656 4147 2194 4147 
L 1259 4147 
z
M 628 4666 
L 2241 4666 
Q 2963 4666 3353 4366 
Q 3744 4066 3744 3513 
Q 3744 3084 3544 2831 
Q 3344 2578 2956 2516 
Q 3422 2416 3680 2098 
Q 3938 1781 3938 1306 
Q 3938 681 3513 340 
Q 3088 0 2303 0 
L 628 0 
L 628 4666 
z
" transform="scale(0.015625)"/>
      <path id="DejaVuSans-6f" d="M 1959 3097 
Q 1497 3097 1228 2736 
Q 959 2375 959 1747 
Q 959 1119 1226 758 
Q 1494 397 1959 397 
Q 2419 397 2687 759 
Q 2956 1122 2956 1747 
Q 2956 2369 2687 2733 
Q 2419 3097 1959 3097 
z
M 1959 3584 
Q 2709 3584 3137 3096 
Q 3566 2609 3566 1747 
Q 3566 888 3137 398 
Q 2709 -91 1959 -91 
Q 1206 -91 779 398 
Q 353 888 353 1747 
Q 353 2609 779 3096 
Q 1206 3584 1959 3584 
z
" transform="scale(0.015625)"/>
      <path id="DejaVuSans-67" d="M 2906 1791 
Q 2906 2416 2648 2759 
Q 2391 3103 1925 3103 
Q 1463 3103 1205 2759 
Q 947 2416 947 1791 
Q 947 1169 1205 825 
Q 1463 481 1925 481 
Q 2391 481 2648 825 
Q 2906 1169 2906 1791 
z
M 3481 434 
Q 3481 -459 3084 -895 
Q 2688 -1331 1869 -1331 
Q 1566 -1331 1297 -1286 
Q 1028 -1241 775 -1147 
L 775 -588 
Q 1028 -725 1275 -790 
Q 1522 -856 1778 -856 
Q 2344 -856 2625 -561 
Q 2906 -266 2906 331 
L 2906 616 
Q 2728 306 2450 153 
Q 2172 0 1784 0 
Q 1141 0 747 490 
Q 353 981 353 1791 
Q 353 2603 747 3093 
Q 1141 3584 1784 3584 
Q 2172 3584 2450 3431 
Q 2728 3278 2906 2969 
L 2906 3500 
L 3481 3500 
L 3481 434 
z
" transform="scale(0.015625)"/>
      <path id="DejaVuSans-68" d="M 3513 2113 
L 3513 0 
L 2938 0 
L 2938 2094 
Q 2938 2591 2744 2837 
Q 2550 3084 2163 3084 
Q 1697 3084 1428 2787 
Q 1159 2491 1159 1978 
L 1159 0 
L 581 0 
L 581 4863 
L 1159 4863 
L 1159 2956 
Q 1366 3272 1645 3428 
Q 1925 3584 2291 3584 
Q 2894 3584 3203 3211 
Q 3513 2838 3513 2113 
z
" transform="scale(0.015625)"/>
      <path id="DejaVuSans-78" d="M 3513 3500 
L 2247 1797 
L 3578 0 
L 2900 0 
L 1881 1375 
L 863 0 
L 184 0 
L 1544 1831 
L 300 3500 
L 978 3500 
L 1906 2253 
L 2834 3500 
L 3513 3500 
z
" transform="scale(0.015625)"/>
      <path id="DejaVuSans-53" d="M 3425 4513 
L 3425 3897 
Q 3066 4069 2747 4153 
Q 2428 4238 2131 4238 
Q 1616 4238 1336 4038 
Q 1056 3838 1056 3469 
Q 1056 3159 1242 3001 
Q 1428 2844 1947 2747 
L 2328 2669 
Q 3034 2534 3370 2195 
Q 3706 1856 3706 1288 
Q 3706 609 3251 259 
Q 2797 -91 1919 -91 
Q 1588 -91 1214 -16 
Q 841 59 441 206 
L 441 856 
Q 825 641 1194 531 
Q 1563 422 1919 422 
Q 2459 422 2753 634 
Q 3047 847 3047 1241 
Q 3047 1584 2836 1778 
Q 2625 1972 2144 2069 
L 1759 2144 
Q 1053 2284 737 2584 
Q 422 2884 422 3419 
Q 422 4038 858 4394 
Q 1294 4750 2059 4750 
Q 2388 4750 2728 4690 
Q 3069 4631 3425 4513 
z
" transform="scale(0.015625)"/>
      <path id="DejaVuSans-6c" d="M 603 4863 
L 1178 4863 
L 1178 0 
L 603 0 
L 603 4863 
z
" transform="scale(0.015625)"/>
      <path id="DejaVuSans-64" d="M 2906 2969 
L 2906 4863 
L 3481 4863 
L 3481 0 
L 2906 0 
L 2906 525 
Q 2725 213 2448 61 
Q 2172 -91 1784 -91 
Q 1150 -91 751 415 
Q 353 922 353 1747 
Q 353 2572 751 3078 
Q 1150 3584 1784 3584 
Q 2172 3584 2448 3432 
Q 2725 3281 2906 2969 
z
M 947 1747 
Q 947 1113 1208 752 
Q 1469 391 1925 391 
Q 2381 391 2643 752 
Q 2906 1113 2906 1747 
Q 2906 2381 2643 2742 
Q 2381 3103 1925 3103 
Q 1469 3103 1208 2742 
Q 947 2381 947 1747 
z
" transform="scale(0.015625)"/>
      <path id="DejaVuSans-49" d="M 628 4666 
L 1259 4666 
L 1259 0 
L 628 0 
L 628 4666 
z
" transform="scale(0.015625)"/>
      <path id="DejaVuSans-76" d="M 191 3500 
L 800 3500 
L 1894 563 
L 2988 3500 
L 3597 3500 
L 2284 0 
L 1503 0 
L 191 3500 
z
" transform="scale(0.015625)"/>
      <path id="DejaVuSans-65" d="M 3597 1894 
L 3597 1613 
L 953 1613 
Q 991 1019 1311 708 
Q 1631 397 2203 397 
Q 2534 397 2845 478 
Q 3156 559 3463 722 
L 3463 178 
Q 3153 47 2828 -22 
Q 2503 -91 2169 -91 
Q 1331 -91 842 396 
Q 353 884 353 1716 
Q 353 2575 817 3079 
Q 1281 3584 2069 3584 
Q 2775 3584 3186 3129 
Q 3597 2675 3597 1894 
z
M 3022 2063 
Q 3016 2534 2758 2815 
Q 2500 3097 2075 3097 
Q 1594 3097 1305 2825 
Q 1016 2553 972 2059 
L 3022 2063 
z
" transform="scale(0.015625)"/>
      <path id="DejaVuSans-72" d="M 2631 2963 
Q 2534 3019 2420 3045 
Q 2306 3072 2169 3072 
Q 1681 3072 1420 2755 
Q 1159 2438 1159 1844 
L 1159 0 
L 581 0 
L 581 3500 
L 1159 3500 
L 1159 2956 
Q 1341 3275 1631 3429 
Q 1922 3584 2338 3584 
Q 2397 3584 2469 3576 
Q 2541 3569 2628 3553 
L 2631 2963 
z
" transform="scale(0.015625)"/>
     </defs>
     <use xlink:href="#DejaVuSans-51"/>
     <use xlink:href="#DejaVuSans-75" x="78.710938"/>
     <use xlink:href="#DejaVuSans-61" x="142.089844"/>
     <use xlink:href="#DejaVuSans-6e" x="203.369141"/>
     <use xlink:href="#DejaVuSans-74" x="266.748047"/>
     <use xlink:href="#DejaVuSans-69" x="305.957031"/>
     <use xlink:href="#DejaVuSans-74" x="333.740234"/>
     <use xlink:href="#DejaVuSans-79" x="372.949219"/>
     <use xlink:href="#DejaVuSans-20" x="432.128906"/>
     <use xlink:href="#DejaVuSans-42" x="463.916016"/>
     <use xlink:href="#DejaVuSans-6f" x="532.519531"/>
     <use xlink:href="#DejaVuSans-75" x="593.701172"/>
     <use xlink:href="#DejaVuSans-67" x="657.080078"/>
     <use xlink:href="#DejaVuSans-68" x="720.556641"/>
     <use xlink:href="#DejaVuSans-74" x="783.935547"/>
     <use xlink:href="#DejaVuSans-20" x="823.144531"/>
     <use xlink:href="#DejaVuSans-78" x="854.931641"/>
     <use xlink:href="#DejaVuSans-20" x="914.111328"/>
     <use xlink:href="#DejaVuSans-51" x="945.898438"/>
     <use xlink:href="#DejaVuSans-75" x="1024.609375"/>
     <use xlink:href="#DejaVuSans-61" x="1087.988281"/>
     <use xlink:href="#DejaVuSans-6e" x="1149.267578"/>
     <use xlink:href="#DejaVuSans-74" x="1212.646484"/>
     <use xlink:href="#DejaVuSans-69" x="1251.855469"/>
     <use xlink:href="#DejaVuSans-74" x="1279.638672"/>
     <use xlink:href="#DejaVuSans-79" x="1318.847656"/>
     <use xlink:href="#DejaVuSans-20" x="1378.027344"/>
     <use xlink:href="#DejaVuSans-53" x="1409.814453"/>
     <use xlink:href="#DejaVuSans-6f" x="1473.291016"/>
     <use xlink:href="#DejaVuSans-6c" x="1534.472656"/>
     <use xlink:href="#DejaVuSans-64" x="1562.255859"/>
     <use xlink:href="#DejaVuSans-20" x="1625.732422"/>
     <use xlink:href="#DejaVuSans-78" x="1657.519531"/>
     <use xlink:href="#DejaVuSans-20" x="1716.699219"/>
     <use xlink:href="#DejaVuSans-49" x="1748.486328"/>
     <use xlink:href="#DejaVuSans-6e" x="1777.978516"/>
     <use xlink:href="#DejaVuSans-76" x="1841.357422"/>
     <use xlink:href="#DejaVuSans-65" x="1900.537109"/>
     <use xlink:href="#DejaVuSans-6e" x="1962.060547"/>
     <use xlink:href="#DejaVuSans-74" x="2025.439453"/>
     <use xlink:href="#DejaVuSans-6f" x="2064.648438"/>
     <use xlink:href="#DejaVuSans-72" x="2125.830078"/>
     <use xlink:href="#DejaVuSans-79" x="2166.943359"/>
    </g>
   </g>
   <g id="legend_1">
    <g id="patch_5">
     <path d="M 982.434375 77.474375 
L 1062.2 77.474375 
Q 1064.2 77.474375 1064.2 75.474375 
L 1064.2 32.44 
Q 1064.2 30.44 1062.2 30.44 
L 982.434375 30.44 
Q 980.434375 30.44 980.434375 32.44 
L 980.434375 75.474375 
Q 980.434375 77.474375 982.434375 77.474375 
z
" style="fill: #d9d9d9; opacity: 0.8; stroke: #d9d9d9; stroke-linejoin: miter"/>
    </g>
    <g id="line2d_18">
     <path d="M 984.434375 38.538437 
L 994.434375 38.538437 
L 1004.434375 38.538437 
" style="fill: none; stroke: #440154; stroke-width: 1.5; stroke-linecap: square"/>
    </g>
    <g id="text_16">
     <!-- Bought -->
     <g transform="translate(1012.434375 42.038437) scale(0.1 -0.1)">
      <use xlink:href="#DejaVuSans-42"/>
      <use xlink:href="#DejaVuSans-6f" x="68.603516"/>
      <use xlink:href="#DejaVuSans-75" x="129.785156"/>
      <use xlink:href="#DejaVuSans-67" x="193.164062"/>
      <use xlink:href="#DejaVuSans-68" x="256.640625"/>
      <use xlink:href="#DejaVuSans-74" x="320.019531"/>
     </g>
    </g>
    <g id="line2d_19">
     <path d="M 984.434375 53.216563 
L 994.434375 53.216563 
L 1004.434375 53.216563 
" style="fill: none; stroke: #414487; stroke-width: 1.5; stroke-linecap: square"/>
    </g>
    <g id="text_17">
     <!-- Sold -->
     <g transform="translate(1012.434375 56.716563) scale(0.1 -0.1)">
      <use xlink:href="#DejaVuSans-53"/>
      <use xlink:href="#DejaVuSans-6f" x="63.476562"/>
      <use xlink:href="#DejaVuSans-6c" x="124.658203"/>
      <use xlink:href="#DejaVuSans-64" x="152.441406"/>
     </g>
    </g>
    <g id="line2d_20">
     <path d="M 984.434375 67.894687 
L 994.434375 67.894687 
L 1004.434375 67.894687 
" style="fill: none; stroke: #2a788e; stroke-width: 1.5; stroke-linecap: square"/>
    </g>
    <g id="text_18">
     <!-- Inventory -->
     <g transform="translate(1012.434375 71.394687) scale(0.1 -0.1)">
      <use xlink:href="#DejaVuSans-49"/>
      <use xlink:href="#DejaVuSans-6e" x="29.492188"/>
      <use xlink:href="#DejaVuSans-76" x="92.871094"/>
      <use xlink:href="#DejaVuSans-65" x="152.050781"/>
      <use xlink:href="#DejaVuSans-6e" x="213.574219"/>
      <use xlink:href="#DejaVuSans-74" x="276.953125"/>
      <use xlink:href="#DejaVuSans-6f" x="316.162109"/>
      <use xlink:href="#DejaVuSans-72" x="377.34375"/>
      <use xlink:href="#DejaVuSans-79" x="418.457031"/>
     </g>
    </g>
   </g>
  </g>
 </g>
 <defs>
  <clipPath id="pea329d87e3">
   <rect x="43.36" y="25.44" width="1025.84" height="378.68"/>
  </clipPath>
 </defs>
</svg>
